<?xml version="1.0" encoding="UTF-8"?>
<svg version="1.1" xmlns="http://www.w3.org/2000/svg" width="2065" height="1912">
<path d="M0 0 C4.94896007 4.20654977 9.37400668 8.56204828 13.60620117 13.49658203 C16.51771545 16.85599084 19.58168844 20.06945271 22.63525391 23.29931641 C28.03762295 29.03745978 33.39785305 34.8086705 38.71337891 40.62744141 C41.57403046 43.75575626 44.4463514 46.87299361 47.32275391 49.98681641 C47.82186279 50.52717529 48.32097168 51.06753418 48.83520508 51.62426758 C49.84646003 52.71896532 50.85777203 53.81361037 51.86914062 54.90820312 C54.37539495 57.62109227 56.88025836 60.335265 59.38525391 63.04931641 C60.38524715 64.13265598 61.38524715 65.21598931 62.38525391 66.29931641 C72.38525391 77.13264974 82.38525391 87.96598307 92.38525391 98.79931641 C92.88033447 99.33564697 93.37541504 99.87197754 93.88549805 100.42456055 C94.88471129 101.50705511 95.88389752 102.58957462 96.88305664 103.67211914 C99.39487226 106.39349148 101.90716723 109.11441836 104.42041016 111.83447266 C109.70638074 117.55639958 114.98236194 123.28715068 120.24316406 129.03222656 C125.10366513 134.33791127 129.98606302 139.62330364 134.86914062 144.90820312 C137.37539495 147.62109227 139.88025836 150.335265 142.38525391 153.04931641 C143.38524715 154.13265598 144.38524715 155.21598931 145.38525391 156.29931641 C175.38525391 188.79931641 205.38525391 221.29931641 235.38525391 253.79931641 C235.88033447 254.33564697 236.37541504 254.87197754 236.88549805 255.42456055 C237.88471129 256.50705511 238.88389752 257.58957462 239.88305664 258.67211914 C242.39487226 261.39349148 244.90716723 264.11441836 247.42041016 266.83447266 C252.70638074 272.55639958 257.98236194 278.28715068 263.24316406 284.03222656 C268.10366513 289.33791127 272.98606302 294.62330364 277.86914062 299.90820312 C280.37539495 302.62109227 282.88025836 305.335265 285.38525391 308.04931641 C286.38524715 309.13265598 287.38524715 310.21598931 288.38525391 311.29931641 C318.38525391 343.79931641 348.38525391 376.29931641 378.38525391 408.79931641 C378.88033447 409.33564697 379.37541504 409.87197754 379.88549805 410.42456055 C380.88471129 411.50705511 381.88389752 412.58957462 382.88305664 413.67211914 C385.39487226 416.39349148 387.90716723 419.11441836 390.42041016 421.83447266 C402.60161509 435.0198278 402.60161509 435.0198278 407.78369141 440.71728516 C409.45243755 442.53386316 411.14352476 444.33031147 412.86181641 446.10009766 C423.2310291 456.97216515 426.91578608 467.49328634 426.66259766 482.20947266 C426.18638246 493.14820683 420.53611948 502.86168527 412.69775391 510.29931641 C402.66295313 518.30384175 390.44516137 520.46047466 378.22119141 523.14697266 C376.30391633 523.57774241 374.38688428 524.00959503 372.47007751 524.44244385 C367.30885329 525.60481759 362.14446773 526.75250398 356.97928238 527.89712906 C351.57404044 529.0971986 346.17154055 530.30948539 340.76879883 531.52075195 C334.07254734 533.02117328 327.37595309 534.52000518 320.67796326 536.01264954 C306.37295168 539.20121459 292.07777463 542.43032628 277.78987885 545.69470406 C271.68175056 547.08924649 265.57226791 548.4778439 259.46279907 549.8664999 C254.62288485 550.96699665 249.7837395 552.07065623 244.94622803 553.18167114 C240.41177903 554.22276688 235.87515575 555.25381659 231.33676338 556.27758026 C229.68869203 556.6511555 228.04141279 557.02824765 226.3950634 557.4093399 C207.16586177 561.85629462 189.20435918 564.01563481 171.58398438 553.11962891 C161.85673501 546.17251943 153.89880221 536.48946641 146.10717773 527.50537109 C143.15576971 524.15265862 140.07965397 520.91867903 137.01025391 517.67431641 C132.19133109 512.55888069 127.42813025 507.40621175 122.74853516 502.16259766 C119.10813828 498.13710095 115.39115459 494.18384286 111.68237305 490.22143555 C107.12048634 485.34497834 102.59820551 480.43449188 98.09228516 475.50634766 C95.22034732 472.36598482 92.33518857 469.23792827 89.44775391 466.11181641 C88.94872559 465.57153809 88.44969727 465.03125977 87.93554688 464.47460938 C86.92420719 463.37983335 85.91281382 462.28510691 84.90136719 461.19042969 C82.39511286 458.47754054 79.89024945 455.76336781 77.38525391 453.04931641 C76.38526067 451.96597683 75.38526067 450.8826435 74.38525391 449.79931641 C56.38525391 430.29931641 38.38525391 410.79931641 20.38525391 391.29931641 C19.64178711 390.49397461 19.64178711 390.49397461 18.88330078 389.67236328 C17.88959458 388.59574026 16.89610277 387.51891932 15.90283203 386.44189453 C13.30831642 383.6291805 10.70947318 380.82063973 8.10400391 378.01806641 C7.56517578 377.43734375 7.02634766 376.85662109 6.47119141 376.25830078 C5.44653694 375.15414726 4.42058476 374.05119595 3.39306641 372.94970703 C0.5807149 369.91594111 -2.04709206 366.79094552 -4.61474609 363.54931641 C-10.86962343 381.97735535 -16.77201066 400.49375729 -22.4934082 419.09301758 C-24.64873875 426.09960806 -26.81397912 433.10313979 -28.9788208 440.10679626 C-29.47619383 441.71594731 -29.9734674 443.3251291 -30.47064209 444.93434143 C-35.4248782 460.96853916 -40.43847364 476.98378502 -45.46903992 492.99417114 C-52.90539614 516.6625095 -60.28385449 540.34810267 -67.61474609 564.04931641 C-74.94747695 587.75647657 -82.33022155 611.44721727 -89.76580811 635.12231445 C-96.99952985 658.15577542 -104.16929471 681.2084266 -111.30252457 704.27319717 C-118.85610256 728.69681748 -126.47553929 753.09908947 -134.13806152 777.48873901 C-139.73276205 795.29777342 -145.29373161 813.11588312 -150.68579102 830.98754883 C-150.88486557 831.64558502 -151.08394012 832.30362122 -151.28904724 832.9815979 C-151.80267323 834.68081065 -152.31381393 836.38077412 -152.82470703 838.08081055 C-153.61474609 840.54931641 -153.61474609 840.54931641 -154.61474609 842.54931641 C-88.34776515 827.68661574 -22.09150433 812.77781576 44.13525391 797.73681641 C44.85926643 797.57238792 45.58327896 797.40795944 46.32923126 797.23854828 C60.38079989 794.04731651 74.43216218 790.85517669 88.48330688 787.66207886 C108.86547001 783.0302738 129.24819041 778.40093039 149.63149142 773.77413535 C151.90872867 773.25722588 154.18596333 772.74030504 156.46319771 772.22338295 C172.2328879 768.64376692 188.00275762 765.06494316 203.77296746 761.48761714 C208.18156524 760.48756541 212.59015419 759.48747469 216.99874276 758.48738235 C220.60623077 757.66902147 224.21372336 756.85068075 227.82122612 756.03238487 C244.20043576 752.31698677 260.5784498 748.596422 276.95419312 744.86576843 C333.1542872 732.06277938 389.41172102 719.53065779 445.69775391 707.11181641 C446.57370697 706.91854169 447.44966002 706.72526697 448.35215712 706.52613544 C460.10268187 703.93353697 471.85361054 701.34277571 483.60502577 698.75421643 C485.92404133 698.24336475 488.24302984 697.73239036 490.56201553 697.22140312 C494.16446536 696.42767721 497.76703569 695.63450059 501.36970675 694.84177947 C503.30266941 694.41636223 505.2355357 693.99050724 507.16839886 693.56463814 C508.89220382 693.18556973 508.89220382 693.18556973 510.65083313 692.79884338 C511.64419835 692.58020913 512.63756357 692.36157488 513.66103077 692.13631535 C530.18991566 688.57477233 546.87703586 689.87799259 561.69384766 698.66650391 C575.52210283 708.34026152 585.42589616 721.43984982 588.97290039 738.13183594 C589.63075727 741.98861439 589.7536561 745.76841442 589.76025391 749.67431641 C589.78474609 750.41423828 589.80923828 751.15416016 589.83447266 751.91650391 C589.90048406 765.03076956 584.24845033 778.49809278 580.33447266 790.91259766 C579.84267785 792.48104132 579.35119107 794.04958159 578.85998535 795.61820984 C577.81339741 798.95851288 576.76494008 802.29822063 575.7149353 805.63745117 C574.04161466 810.95925762 572.37273192 816.2824489 570.70483398 821.60595703 C570.42253528 822.50696577 570.14023657 823.40797451 569.84938335 824.33628654 C569.27522147 826.16887655 568.70107622 828.00147176 568.1269474 829.83407211 C567.25648147 832.61213728 566.38562197 835.39007885 565.51469421 838.16799927 C560.0753242 855.52061184 554.67605099 872.88557717 549.28541565 890.25337982 C547.14777419 897.14008206 545.00895977 904.02642006 542.86962891 910.91259766 C542.63837059 911.65700104 542.40711227 912.40140442 542.16884613 913.16836548 C537.03657835 929.68667791 531.87301589 946.195162 526.70748138 962.70309448 C519.99991073 984.14023843 513.33778732 1005.59116416 506.69775391 1027.04931641 C498.84162795 1052.43678599 490.94268561 1077.81058568 483.01025391 1103.17431641 C482.7496455 1104.00763741 482.48903709 1104.8409584 482.22053146 1105.69953156 C480.90204777 1109.91551036 479.58352364 1114.13147651 478.26499939 1118.34744263 C478.00382765 1119.1825449 477.74265591 1120.01764717 477.47356987 1120.87805557 C476.94585571 1122.56542385 476.41813175 1124.25278906 475.89039803 1125.94015121 C470.00301025 1144.76487951 464.12913052 1163.59380969 458.26025391 1182.42431641 C458.01347649 1183.21606388 457.76669907 1184.00781136 457.51244354 1184.82355118 C449.38988359 1210.8838492 441.28602764 1236.94993759 433.18893433 1263.01815796 C426.38562031 1284.92040405 419.55657908 1306.81445652 412.70768356 1328.70248795 C406.45987583 1348.67039113 400.24841646 1368.64928148 394.06329346 1388.63668823 C385.93847974 1414.89215474 377.78975098 1441.14007746 369.60116577 1467.37573242 C368.51288246 1470.86259406 367.4255158 1474.34973925 366.33901978 1477.8371582 C356.64911193 1508.93448099 356.64911193 1508.93448099 352.42822266 1521.79541016 C352.17416153 1522.58130524 351.9201004 1523.36720032 351.65834045 1524.1769104 C342.76862233 1550.87473709 323.18452501 1571.78546212 298.34798813 1584.5937748 C284.61853908 1591.27784832 269.29711128 1594.11310713 254.50244141 1597.38134766 C252.05239121 1597.93071326 249.60255222 1598.48102156 247.15290833 1599.03219604 C241.92393806 1600.20666706 236.69364768 1601.37495333 231.46200562 1602.53744507 C223.8357737 1604.23210589 216.21227833 1605.9388271 208.5894264 1607.64861977 C197.1258428 1610.21976941 185.6609155 1612.78485105 174.19486582 1615.34497917 C158.26077084 1618.90289326 142.33130937 1622.48108471 126.40478516 1626.07275391 C124.68986122 1626.45945661 124.68986122 1626.45945661 122.94029236 1626.85397148 C118.37396873 1627.88369165 113.80766963 1628.91352046 109.24142075 1629.94357204 C97.86081512 1632.5106983 86.47916515 1635.07317954 75.09739685 1637.63514519 C69.4151632 1638.91418916 63.73297223 1640.19342273 58.05078125 1641.47265625 C56.92601505 1641.72587237 55.80124886 1641.9790885 54.64239883 1642.23997784 C41.990107 1645.08842694 29.33805634 1647.9379467 16.68603516 1650.78759766 C15.53983389 1651.04575949 14.39363262 1651.30392132 13.21269798 1651.56990623 C7.42041103 1652.87452281 1.62812768 1654.17915541 -4.16415405 1655.48379517 C-14.57502038 1657.82870592 -24.98591862 1660.17347499 -35.39681435 1662.51825523 C-41.17779289 1663.82026987 -46.95876939 1665.1222936 -52.73974609 1666.42431641 C-55.05224608 1666.94514978 -57.36474608 1667.46598312 -59.67724609 1667.98681641 C-60.82193359 1668.24462891 -61.96662109 1668.50244141 -63.14599609 1668.76806641 C-184.55226743 1696.11182121 -184.55226743 1696.11182121 -188.02097511 1696.89306164 C-190.33354507 1697.41391076 -192.64611501 1697.93475998 -194.95868492 1698.45560932 C-200.73886432 1699.75745203 -206.51904415 1701.05929285 -212.29922485 1702.36112976 C-222.71825953 1704.70775106 -233.13729118 1707.05438583 -243.55630684 1709.40109158 C-249.35443031 1710.70701966 -255.15255628 1712.01293662 -260.95068359 1713.31884766 C-262.09804363 1713.57726755 -263.24540367 1713.83568745 -264.4275322 1714.10193825 C-280.35940861 1717.69025189 -296.29142287 1721.27795292 -312.22353172 1724.86523438 C-321.26494007 1726.90103047 -330.30630877 1728.9370026 -339.34767532 1730.97298431 C-342.72249026 1731.73293071 -346.0973134 1732.49284067 -349.47213745 1733.25274658 C-376.65993843 1739.37473748 -403.84635174 1745.50284852 -431.03111267 1751.63832283 C-435.65040326 1752.68087173 -440.26971897 1753.72330933 -444.88903809 1754.76573181 C-447.94653432 1755.45571406 -451.00402913 1756.14570258 -454.06152344 1756.83569336 C-454.81550368 1757.00584438 -455.56948392 1757.1759954 -456.34631205 1757.3513025 C-465.31835093 1759.37604921 -474.29026777 1761.40133504 -483.26199454 1763.42746431 C-488.8803553 1764.69625326 -494.49883549 1765.96451247 -500.11740381 1767.232382 C-503.37214258 1767.96686189 -506.62680203 1768.70168867 -509.88134575 1769.4370327 C-548.43120416 1778.14684292 -548.43120416 1778.14684292 -555.61474609 1778.54931641 C-556.52869141 1778.60216797 -557.44263672 1778.65501953 -558.38427734 1778.70947266 C-585.65137966 1779.49833222 -610.09006935 1769.60497304 -629.97851562 1751.17529297 C-632.40175899 1748.76723555 -634.61255575 1746.19412153 -636.83569336 1743.60205078 C-639.74720763 1740.24264197 -642.81118063 1737.0291801 -645.86474609 1733.79931641 C-651.26711514 1728.06117304 -656.62734524 1722.28996231 -661.94287109 1716.47119141 C-664.80352265 1713.34287655 -667.67584359 1710.2256392 -670.55224609 1707.11181641 C-671.05135498 1706.57145752 -671.55046387 1706.03109863 -672.06469727 1705.47436523 C-673.07595222 1704.37966749 -674.08726422 1703.28502244 -675.09863281 1702.19042969 C-677.60488714 1699.47754054 -680.10975055 1696.76336781 -682.61474609 1694.04931641 C-683.61473933 1692.96597683 -684.61473933 1691.8826435 -685.61474609 1690.79931641 C-695.61474609 1679.96598307 -705.61474609 1669.13264974 -715.61474609 1658.29931641 C-716.10982666 1657.76298584 -716.60490723 1657.22665527 -717.11499023 1656.67407227 C-718.11420348 1655.5915777 -719.11338971 1654.5090582 -720.11254883 1653.42651367 C-722.62436445 1650.70514133 -725.13665942 1647.98421446 -727.64990234 1645.26416016 C-732.93587293 1639.54223324 -738.21185413 1633.81148214 -743.47265625 1628.06640625 C-748.33315732 1622.76072155 -753.21555521 1617.47532917 -758.09863281 1612.19042969 C-760.60488714 1609.47754054 -763.10975055 1606.76336781 -765.61474609 1604.04931641 C-766.61473933 1602.96597683 -767.61473933 1601.8826435 -768.61474609 1600.79931641 C-790.61474609 1576.96598307 -812.61474609 1553.13264974 -834.61474609 1529.29931641 C-835.10982666 1528.76298584 -835.60490723 1528.22665527 -836.11499023 1527.67407227 C-837.11420348 1526.5915777 -838.11338971 1525.5090582 -839.11254883 1524.42651367 C-841.62436445 1521.70514133 -844.13665942 1518.98421446 -846.64990234 1516.26416016 C-851.93587293 1510.54223324 -857.21185413 1504.81148214 -862.47265625 1499.06640625 C-867.33315732 1493.76072155 -872.21555521 1488.47532917 -877.09863281 1483.19042969 C-879.60488714 1480.47754054 -882.10975055 1477.76336781 -884.61474609 1475.04931641 C-885.61473933 1473.96597683 -886.61473933 1472.8826435 -887.61474609 1471.79931641 C-913.61474609 1443.63264974 -939.61474609 1415.46598307 -965.61474609 1387.29931641 C-966.10982666 1386.76298584 -966.60490723 1386.22665527 -967.11499023 1385.67407227 C-968.11420348 1384.5915777 -969.11338971 1383.5090582 -970.11254883 1382.42651367 C-972.62436445 1379.70514133 -975.13665942 1376.98421446 -977.64990234 1374.26416016 C-982.93587293 1368.54223324 -988.21185413 1362.81148214 -993.47265625 1357.06640625 C-998.33315732 1351.76072155 -1003.21555521 1346.47532917 -1008.09863281 1341.19042969 C-1010.60488714 1338.47754054 -1013.10975055 1335.76336781 -1015.61474609 1333.04931641 C-1016.61473933 1331.96597683 -1017.61473933 1330.8826435 -1018.61474609 1329.79931641 C-1040.61474609 1305.96598307 -1062.61474609 1282.13264974 -1084.61474609 1258.29931641 C-1085.10982666 1257.76298584 -1085.60490723 1257.22665527 -1086.11499023 1256.67407227 C-1087.11420348 1255.5915777 -1088.11338971 1254.5090582 -1089.11254883 1253.42651367 C-1091.62436445 1250.70514133 -1094.13665942 1247.98421446 -1096.64990234 1245.26416016 C-1101.93587293 1239.54223324 -1107.21185413 1233.81148214 -1112.47265625 1228.06640625 C-1117.33315732 1222.76072155 -1122.21555521 1217.47532917 -1127.09863281 1212.19042969 C-1129.60488714 1209.47754054 -1132.10975055 1206.76336781 -1134.61474609 1204.04931641 C-1135.61473933 1202.96597683 -1136.61473933 1201.8826435 -1137.61474609 1200.79931641 C-1151.61474609 1185.63264974 -1165.61474609 1170.46598307 -1179.61474609 1155.29931641 C-1180.10982666 1154.76306641 -1180.60490723 1154.22681641 -1181.11499023 1153.67431641 C-1182.11452806 1152.59130749 -1183.11371457 1151.50797424 -1184.11254883 1150.42431641 C-1186.61683429 1147.70824601 -1189.12704333 1144.99815113 -1191.64990234 1142.29931641 C-1194.66284342 1139.0715117 -1197.64796346 1135.81957597 -1200.61474609 1132.54931641 C-1201.09862793 1132.01838379 -1201.58250977 1131.48745117 -1202.08105469 1130.94042969 C-1219.12615603 1112.0836055 -1228.68106943 1089.82277776 -1228.92724609 1064.23681641 C-1228.95625 1063.27453125 -1228.98525391 1062.31224609 -1229.01513672 1061.32080078 C-1229.18338482 1041.37693015 -1221.15845493 1021.92833362 -1215.16073227 1003.16086578 C-1213.91046601 999.24201366 -1212.66954498 995.32020728 -1211.4284668 991.3984375 C-1211.17901526 990.61027271 -1210.92956373 989.82210793 -1210.67255306 989.01005936 C-1210.16837469 987.41704377 -1209.6642227 985.82401984 -1209.16009712 984.23098755 C-1208.40399984 981.84288918 -1207.64693525 979.45509937 -1206.88963318 977.06738281 C-1202.62721627 963.62342347 -1198.44861277 950.15451168 -1194.30224609 936.67431641 C-1187.40561841 914.2798883 -1180.42472516 891.91238258 -1173.42724609 869.54931641 C-1165.36736551 843.79047073 -1157.34073625 818.02176145 -1149.36474609 792.23681641 C-1141.62623288 767.2208855 -1133.82880006 742.22405629 -1125.98614979 717.24058533 C-1124.91692085 713.83441726 -1123.84780961 710.42821227 -1122.77880859 707.02197266 C-1122.56825018 706.35107857 -1122.35769176 705.68018448 -1122.14075279 704.98896027 C-1117.00430652 688.62060709 -1111.90111894 672.24190624 -1106.80224609 655.86181641 C-1106.59155613 655.18500572 -1106.38086617 654.50819504 -1106.16379166 653.81087494 C-1103.64641566 645.72400837 -1101.12998609 637.6368476 -1098.61474609 629.54931641 C-1094.33258696 629.54931641 -1091.80271164 631.91114436 -1088.42724609 634.29931641 C-1087.72035645 634.79302734 -1087.0134668 635.28673828 -1086.28515625 635.79541016 C-1078.59511783 641.20244182 -1071.07207596 646.82695716 -1063.61474609 652.54931641 C-1063.00888672 653.01337891 -1062.40302734 653.47744141 -1061.77880859 653.95556641 C-1050.12231009 662.91427268 -1038.95913745 672.41924356 -1028.09130859 682.31884766 C-1026.02854149 684.17663948 -1023.94509642 686.00283512 -1021.84912109 687.82275391 C-1017.55450052 691.57391013 -1013.38505859 695.44695711 -1009.23974609 699.36181641 C-1008.12720459 700.41175781 -1008.12720459 700.41175781 -1006.9921875 701.48291016 C-999.62014274 708.4606849 -992.31582756 715.44100066 -985.71630859 723.16650391 C-983.39637293 725.79691423 -981.00111612 728.34507725 -978.59423828 730.89575195 C-973.18324774 736.63228524 -967.92319054 742.40467623 -963.00146484 748.57275391 C-961.17385136 750.85203618 -959.32455831 753.10099928 -957.44677734 755.33837891 C-938.74292601 777.66897195 -921.37177935 801.57995332 -906.72216797 826.77246094 C-905.50156692 828.80988668 -905.50156692 828.80988668 -903.25537109 831.48291016 C-900.29578033 837.01452622 -902.33129214 842.91217124 -904.015625 848.72094727 C-904.61577224 850.6546497 -905.22490052 852.58557962 -905.84130859 854.51416016 C-906.17721512 855.58836716 -906.51312164 856.66257416 -906.85920715 857.76933289 C-907.59275773 860.11154463 -908.33009456 862.45257317 -909.07077026 864.7925415 C-910.26014435 868.55128031 -911.43909819 872.31320153 -912.61499023 876.07617188 C-915.51904836 885.36211097 -918.44045607 894.64257964 -921.36200714 903.92302704 C-924.49447541 913.87370614 -927.62232847 923.82578963 -930.73633575 933.78226376 C-932.26251859 938.66012458 -933.79737013 943.53514201 -935.33904362 948.40812778 C-936.31135799 951.48805708 -937.27587441 954.57039092 -938.2385006 957.65336037 C-938.68447947 959.07628131 -939.1335348 960.49824285 -939.58613014 961.9190731 C-943.54168017 974.34706888 -947.26812363 987.39517776 -946.98974609 1000.54931641 C-946.97959473 1001.29294434 -946.96944336 1002.03657227 -946.95898438 1002.80273438 C-946.1113285 1033.77174336 -930.04163558 1055.88214555 -909.42626953 1077.62890625 C-906.00427496 1081.25658945 -902.65009856 1084.9455282 -899.28662109 1088.62744141 C-896.42596954 1091.75575626 -893.5536486 1094.87299361 -890.67724609 1097.98681641 C-890.17813721 1098.52717529 -889.67902832 1099.06753418 -889.16479492 1099.62426758 C-888.15353997 1100.71896532 -887.14222797 1101.81361037 -886.13085938 1102.90820312 C-883.62460505 1105.62109227 -881.11974164 1108.335265 -878.61474609 1111.04931641 C-877.61475285 1112.13265598 -876.61475285 1113.21598931 -875.61474609 1114.29931641 C-865.61474609 1125.13264974 -855.61474609 1135.96598307 -845.61474609 1146.79931641 C-845.11966553 1147.33564697 -844.62458496 1147.87197754 -844.11450195 1148.42456055 C-843.11528871 1149.50705511 -842.11610248 1150.58957462 -841.11694336 1151.67211914 C-838.60512774 1154.39349148 -836.09283277 1157.11441836 -833.57958984 1159.83447266 C-828.29361926 1165.55639958 -823.01763806 1171.28715068 -817.75683594 1177.03222656 C-812.89633487 1182.33791127 -808.01393698 1187.62330364 -803.13085938 1192.90820312 C-800.62460505 1195.62109227 -798.11974164 1198.335265 -795.61474609 1201.04931641 C-794.61475285 1202.13265598 -793.61475285 1203.21598931 -792.61474609 1204.29931641 C-754.61474609 1245.46598307 -716.61474609 1286.63264974 -678.61474609 1327.79931641 C-678.11966553 1328.33564697 -677.62458496 1328.87197754 -677.11450195 1329.42456055 C-676.11528871 1330.50705511 -675.11610248 1331.58957462 -674.11694336 1332.67211914 C-671.60512774 1335.39349148 -669.09283277 1338.11441836 -666.57958984 1340.83447266 C-661.29361926 1346.55639958 -656.01763806 1352.28715068 -650.75683594 1358.03222656 C-645.89633487 1363.33791127 -641.01393698 1368.62330364 -636.13085938 1373.90820312 C-633.62460505 1376.62109227 -631.11974164 1379.335265 -628.61474609 1382.04931641 C-627.61475285 1383.13265598 -626.61475285 1384.21598931 -625.61474609 1385.29931641 C-607.61474609 1404.79931641 -589.61474609 1424.29931641 -571.61474609 1443.79931641 C-571.11966553 1444.33564697 -570.62458496 1444.87197754 -570.11450195 1445.42456055 C-569.11528871 1446.50705511 -568.11610248 1447.58957462 -567.11694336 1448.67211914 C-564.60512774 1451.39349148 -562.09283277 1454.11441836 -559.57958984 1456.83447266 C-559.07959473 1457.37612061 -558.57959961 1457.91776855 -558.06445312 1458.47583008 C-557.05793657 1459.56473345 -556.04980153 1460.65214306 -555.04003906 1461.73803711 C-552.61677741 1464.3494941 -550.22862345 1466.97906266 -547.90771484 1469.68212891 C-532.77698493 1487.14428862 -510.6268773 1499.80729654 -487.33251953 1501.73852539 C-474.80351808 1502.47972707 -462.99599359 1501.58940648 -450.76318359 1498.81494141 C-449.3602723 1498.50622865 -447.95715023 1498.19847255 -446.55384827 1497.89154053 C-442.49103186 1496.99829856 -438.43253132 1496.08662632 -434.37467575 1495.17114258 C-431.46690283 1494.51600657 -428.55827744 1493.86476858 -425.64944458 1493.21435547 C-410.77144106 1489.88644977 -395.90123094 1486.52448604 -381.03272867 1483.15441936 C-373.53821009 1481.4558639 -366.04292889 1479.76068221 -358.54760742 1478.06567383 C-357.85464581 1477.90896237 -357.1616842 1477.75225092 -356.44772375 1477.59079063 C-353.62918705 1476.95338934 -350.8106484 1476.31599673 -347.99210161 1475.67864007 C-343.71605103 1474.71169014 -339.44004927 1473.74452472 -335.16408461 1472.77719492 C-306.95582173 1466.39589989 -278.74109315 1460.04348752 -250.52456665 1453.69882965 C-244.28960739 1452.2968162 -238.05471752 1450.89449424 -231.81982422 1449.4921875 C-230.58637772 1449.21477093 -229.35293121 1448.93735435 -228.08210754 1448.65153122 C-225.59701502 1448.09260467 -223.11192285 1447.5336765 -220.62683105 1446.9747467 C-216.92293926 1446.14170572 -213.21903812 1445.30870626 -209.51513672 1444.47570801 C-178.97457146 1437.60697011 -148.43631555 1430.72797878 -117.89819336 1423.84838867 C-114.48870871 1423.08031148 -111.07922332 1422.3122376 -107.66973686 1421.54416847 C-105.39736247 1421.03226047 -103.12498927 1420.52034717 -100.85261726 1420.00842857 C-81.66673401 1415.6863146 -62.48004148 1411.3678021 -43.29298973 1407.05087852 C-30.07848178 1404.07769386 -16.86434805 1401.10287336 -3.65161133 1398.12182617 C-2.51830541 1397.86615151 -1.38499949 1397.61047686 -0.21735096 1397.34705448 C6.45372622 1395.84206214 6.45372622 1395.84206214 13.12474632 1394.33681679 C25.12001255 1391.63030231 37.11753942 1388.93486385 49.12258911 1386.27206421 C54.52980563 1385.0726224 59.93470948 1383.86291417 65.3394165 1382.65222168 C67.64419026 1382.13846283 69.94993285 1381.6290245 72.2567749 1381.12463379 C101.27470695 1374.77957424 125.49786246 1363.44552274 143.01416016 1338.47900391 C149.4663101 1328.2479182 153.74244729 1317.43672104 157.24853516 1305.90869141 C157.68092955 1304.519466 158.11439691 1303.13057417 158.54884338 1301.74198914 C159.70510946 1298.03612042 160.84674243 1294.32589788 161.98555756 1290.61463547 C163.19665137 1286.67742265 164.42183677 1282.74459739 165.64550781 1278.8112793 C167.87766017 1271.6297588 170.09865217 1264.44484815 172.31464386 1257.25832653 C174.52705017 1250.0851687 176.7531852 1242.91632997 178.98291016 1235.74853516 C181.50219534 1227.6468093 184.01792248 1219.54400145 186.52801514 1211.43942261 C191.84570821 1194.27026155 197.19266102 1177.11028425 202.54394531 1159.9515686 C210.79839018 1133.48380005 219.04926287 1107.01491183 227.28482056 1080.54125977 C228.24729086 1077.44749701 229.21032185 1074.3539098 230.17391968 1071.26049805 C236.67584232 1050.38609461 243.07479345 1029.48241542 249.38525391 1008.54931641 C187.50779039 1022.45503771 125.63064073 1036.36213617 63.76025391 1050.29931641 C62.64162083 1050.55130043 61.52298775 1050.80328445 60.3704567 1051.06290436 C45.66868569 1054.37465418 30.96701869 1057.68686557 16.26538086 1060.99920654 C-16.36842895 1068.3517208 -49.00242745 1075.70339597 -81.63734436 1083.05099487 C-92.76591083 1085.55657249 -103.89434489 1088.06273513 -115.02246094 1090.5703125 C-124.60122071 1092.72875941 -134.18023484 1094.88607292 -143.75958252 1097.04190922 C-148.66809888 1098.14661021 -153.57649043 1099.25185813 -158.48455811 1100.35855103 C-162.98296257 1101.37285719 -167.4817103 1102.38562582 -171.98073769 1103.3971653 C-173.61230723 1103.76428591 -175.24374913 1104.13197437 -176.8750515 1104.50028038 C-179.09140635 1105.00058892 -181.30821372 1105.49884157 -183.52514648 1105.99658203 C-184.75809952 1106.27425415 -185.99105255 1106.55192627 -187.2613678 1106.8380127 C-213.06389699 1112.31113059 -238.27996717 1108.02373827 -260.75146484 1094.41259766 C-272.67529722 1086.65315967 -282.55311488 1076.283917 -291.8269043 1065.58447266 C-294.75885989 1062.24693587 -297.81312428 1059.02712423 -300.86474609 1055.79931641 C-306.26585461 1050.06251191 -311.62504858 1044.29285191 -316.93896484 1038.47509766 C-319.82092821 1035.32387056 -322.7161976 1032.18527601 -325.61474609 1029.04931641 C-329.45718918 1024.89093774 -333.29136218 1020.72522554 -337.11474609 1016.54931641 C-342.42674426 1010.74824379 -347.76068966 1004.967625 -353.09863281 999.19042969 C-355.60488714 996.47754054 -358.10975055 993.76336781 -360.61474609 991.04931641 C-361.61473933 989.96597683 -362.61473933 988.8826435 -363.61474609 987.79931641 C-369.6147461 981.2993164 -369.6147461 981.2993164 -371.11425781 979.67480469 C-372.11583136 978.58979384 -373.1174591 977.50483303 -374.11914062 976.41992188 C-376.59550881 973.73765883 -379.07097674 971.05457706 -381.54443359 968.36962891 C-382.52618221 967.30450426 -383.50795315 966.2394002 -384.48974609 965.17431641 C-384.97886475 964.64322266 -385.4679834 964.11212891 -385.97192383 963.56494141 C-388.66406948 960.64630466 -391.37036426 957.74214988 -394.09521484 954.85400391 C-397.06484725 951.70546332 -400.0155357 948.5403904 -402.94824219 945.35742188 C-404.02039156 944.19417279 -405.09597209 943.03407193 -406.17578125 941.87792969 C-419.96898246 927.00875933 -427.76350654 909.51088995 -428.11474609 889.11181641 C-428.1427832 888.05933716 -428.1427832 888.05933716 -428.17138672 886.9855957 C-428.11059246 881.76021195 -427.09877542 876.81598528 -425.89501953 871.74926758 C-425.7179459 871.00254162 -425.54087227 870.25581566 -425.35843277 869.48646164 C-423.44120046 861.5813873 -421.05957467 853.84588553 -418.59912109 846.09619141 C-418.10997458 844.53942846 -417.62139529 842.98248719 -417.1333313 841.42538452 C-416.09314155 838.11063423 -415.04928633 834.79707119 -414.00238037 831.48443604 C-412.3280627 826.18623037 -410.66237013 820.88533676 -408.99804688 815.58398438 C-407.26336413 810.05977066 -405.52820607 804.53570929 -403.79019165 799.01254272 C-398.48736988 782.16043969 -393.22293996 765.29650345 -387.97036743 748.42868042 C-386.4797832 743.64191427 -384.98810144 738.85549052 -383.49633789 734.0690918 C-378.61625632 718.40966091 -373.74232645 702.74832803 -368.87646484 687.08447266 C-368.64110708 686.32683687 -368.40574932 685.56920109 -368.16325951 684.78860664 C-366.26413052 678.67504684 -364.36510208 672.5614558 -362.46632004 666.44778824 C-354.42715721 640.56355506 -346.35005243 614.69132697 -338.2582283 588.82351303 C-330.67373066 564.57672312 -323.12356583 540.3196464 -315.61474609 516.04931641 C-306.82484113 487.63894819 -297.97125771 459.24882975 -289.09375 430.86572266 C-288.04344103 427.50765474 -286.9931513 424.14958082 -285.94287109 420.79150391 C-285.68260006 419.95937126 -285.42232903 419.12723862 -285.15417099 418.26988983 C-281.17098439 405.53432804 -277.19470873 392.79662421 -273.22412109 380.05712891 C-272.96294369 379.21915457 -272.70176628 378.38118023 -272.43267441 377.51781273 C-269.86329071 369.27364765 -267.29480878 361.0292019 -264.72722435 352.78447628 C-263.51020878 348.87661127 -262.29300685 344.96880433 -261.07568359 341.06103516 C-260.8411359 340.30808481 -260.60658821 339.55513447 -260.36493301 338.77936745 C-257.18104448 328.55973697 -253.98540033 318.34387795 -250.77880859 308.13134766 C-250.05825351 305.83447727 -249.33771256 303.53760246 -248.6171875 301.24072266 C-247.32313877 297.11602474 -246.02548471 292.99248638 -244.72558594 288.86962891 C-244.16767388 287.09232662 -243.60988485 285.31498571 -243.05224609 283.53759766 C-242.80044586 282.74279495 -242.54864563 281.94799225 -242.28921509 281.12910461 C-241.05233248 277.41079532 -241.05233248 277.41079532 -240.61474609 273.54931641 C-241.75887466 273.80700302 -242.90300323 274.06468964 -244.08180237 274.33018494 C-245.24174383 274.591433 -245.24174383 274.591433 -246.42511845 274.85795879 C-248.21353692 275.26075577 -250.00195537 275.66355284 -251.7903738 276.06634998 C-257.04245902 277.24925249 -262.29454464 278.43215322 -267.54663086 279.61505127 C-278.5109513 282.08448584 -289.4752687 284.55393392 -300.43957424 287.02343464 C-306.88337971 288.47477831 -313.32718731 289.92611249 -319.77099609 291.37744141 C-320.42443851 291.52461538 -321.07788092 291.67178936 -321.75112462 291.82342315 C-337.99649187 295.48234208 -354.24186726 299.14122491 -370.48746681 302.79911232 C-376.58967596 304.17311415 -382.69181475 305.54742672 -388.79379272 306.92245483 C-399.4367937 309.32047045 -410.0802042 311.71654711 -420.726408 314.10030937 C-426.40047218 315.37082709 -432.07413348 316.64313572 -437.74755859 317.91650391 C-438.83500996 318.16053577 -439.92246132 318.40456764 -441.04286575 318.65599442 C-454.21243839 321.61475841 -467.36037308 324.64728784 -480.48171425 327.81313896 C-484.86417839 328.86765396 -489.25059211 329.90565982 -493.63682079 330.9443903 C-498.0405439 331.99074397 -502.42961025 333.08772344 -506.81811523 334.1965332 C-519.55749967 337.29628145 -528.23625367 338.23336112 -540.61474609 333.54931641 C-541.88909245 333.14293044 -543.16679735 332.74693874 -544.44750977 332.36108398 C-548.40408774 331.16432842 -552.32277483 329.86929077 -556.23974609 328.54931641 C-556.94240601 328.31388123 -557.64506592 328.07844604 -558.36901855 327.83587646 C-612.62940692 309.59350045 -665.53449576 284.19793222 -712.61474609 251.54931641 C-713.65018555 250.8396875 -713.65018555 250.8396875 -714.70654297 250.11572266 C-731.87777343 238.3419871 -748.71893656 226.01063259 -764.61474609 212.54931641 C-765.15647461 212.09105469 -765.69820312 211.63279297 -766.25634766 211.16064453 C-773.82386449 204.74806002 -781.27963128 198.2271482 -788.61474609 191.54931641 C-789.48075439 190.76741943 -790.3467627 189.98552246 -791.23901367 189.17993164 C-798.49505216 182.59177638 -805.53419419 175.81616709 -812.46362305 168.88574219 C-814.20197881 167.1496154 -815.94825897 165.42171099 -817.69482422 163.69384766 C-818.81575376 162.57584597 -819.93621454 161.45737405 -821.05615234 160.33837891 C-821.5717421 159.82997467 -822.08733185 159.32157043 -822.61854553 158.79776001 C-825.48526772 155.91272346 -827.59020911 153.06015964 -829.61474609 149.54931641 C-818.13137926 146.6236449 -806.61051519 143.9079725 -795.05224609 141.29541016 C-793.23238188 140.88272018 -791.41254848 140.46989432 -789.59274292 140.0569458 C-784.64294712 138.93430463 -779.69261298 137.81405478 -774.74214935 136.69436264 C-771.57816349 135.97853993 -768.41433193 135.26203908 -765.25054932 134.5453186 C-717.85552137 123.80871672 -670.44345513 113.14773716 -623.03084755 102.48909187 C-596.68283203 96.56587991 -570.33681307 90.63382207 -543.99140167 84.69903946 C-538.25632635 83.40712493 -532.52122791 82.11531304 -526.78613281 80.82348633 C-518.78096601 79.0203136 -510.77580982 77.21709377 -502.77066422 75.41382694 C-487.81381688 72.04460218 -472.85688008 68.67577473 -457.89990234 65.30712891 C-456.75416685 65.04908352 -455.60843136 64.79103813 -454.42797661 64.52517319 C-448.63908878 63.22138741 -442.8501996 61.91760764 -437.06130981 60.61383057 C-426.65184208 58.26940127 -416.24238632 55.92491879 -405.83292961 53.58044052 C-400.05186892 52.27839699 -394.27080747 50.97635687 -388.48974609 49.67431641 C-386.17724609 49.15348309 -383.86474609 48.63264976 -381.55224609 48.11181641 C-376.92724609 47.07014974 -372.30224609 46.02848307 -367.67724609 44.98681641 C-366.53254758 44.72900139 -365.38784906 44.47118637 -364.20846272 44.20555878 C-361.89607404 43.68475059 -359.5836853 43.16394269 -357.2712965 42.64313507 C-351.48834269 41.3406693 -345.70538999 40.0381986 -339.92243958 38.73571777 C-329.53653623 36.3965293 -319.15062535 34.05737434 -308.76467228 31.71840668 C-303.01026425 30.42248459 -297.25586281 29.12653318 -291.50146484 27.83056641 C-290.36102911 27.57372574 -289.22059338 27.31688507 -288.04559898 27.05226135 C-269.033228 22.77036154 -250.02140505 18.48603246 -231.00970459 14.20115662 C-211.27509697 9.75345081 -191.53964111 5.30952299 -171.8034668 0.86877441 C-160.4032018 -1.69650987 -149.00359891 -4.26468828 -137.60509777 -6.83779907 C-130.31453821 -8.48336464 -123.02323564 -10.12560611 -115.73128223 -11.76498413 C-111.62478232 -12.68832805 -107.51865238 -13.6132387 -103.41348267 -14.54248047 C-99.69465288 -15.38425237 -95.9748459 -16.22155206 -92.25420189 -17.05526733 C-90.29831314 -17.49475711 -88.34350474 -17.93904651 -86.38874817 -18.38354492 C-55.86410588 -25.19919152 -24.50659502 -20.27230434 0 0 Z " fill="#2CB7EA" transform="translate(1475.61474609375,133.45068359375)"/>
<path d="M0 0 C2.82812026 2.82812026 2.81805259 5.94749997 3.375 9.7578125 C3.63430872 11.41258329 3.89460936 13.06719886 4.15576172 14.72167969 C4.2923822 15.60094116 4.42900269 16.48020264 4.56976318 17.3861084 C12.66618709 68.92801877 28.17829735 118.61788502 50 166 C50.47550293 167.03608398 50.95100586 168.07216797 51.44091797 169.13964844 C74.78261452 219.69122781 106.29208008 266.38052703 143.76953125 307.5234375 C144.96654915 308.85252567 146.15791419 310.18745506 147.31030273 311.55541992 C153.00344309 318.25708507 159.25534271 324.40601859 165.47875977 330.60913086 C167.43295624 332.5579687 169.38175147 334.51209272 171.33007812 336.46679688 C177.38244441 342.52273858 183.43197359 348.49778297 190 354 C191.10687279 354.96062417 192.21236742 355.92283886 193.31640625 356.88671875 C220.19031718 380.13234423 249.12043509 401.35453434 280 419 C280.59119629 419.34224609 281.18239258 419.68449219 281.79150391 420.03710938 C350.87104468 460.01040886 426.76278456 485.42834628 506 495 C506.66491455 495.0825 507.3298291 495.165 508.01489258 495.25 C549.71736924 500.39454736 592.95875585 499.98321468 634.68408203 495.36376953 C639.45002587 494.84092633 644.22371322 494.41594918 649 494 C646.20552424 496.79447576 643.9150878 496.67355994 640.01953125 497.26171875 C638.54641777 497.49162109 637.07335691 497.72186082 635.6003418 497.95239258 C634.8207309 498.07160065 634.04112 498.19080872 633.23788452 498.31362915 C565.29967719 508.7862429 498.59430102 531.56399287 439 566 C438.00693848 566.57331055 437.01387695 567.14662109 435.99072266 567.73730469 C408.76304752 583.55953839 382.9788653 601.48793478 358.72802734 621.57617188 C357.1691356 622.86063877 355.59519561 624.12678937 354.01953125 625.390625 C347.26002076 630.81383977 340.91503 636.60338708 334.59228516 642.52099609 C332.17001055 644.77094083 329.70546212 646.97388914 327.25 649.1875 C322.10629994 653.89970458 317.12881038 658.76381426 312.1875 663.6875 C311.12934082 664.73877075 311.12934082 664.73877075 310.04980469 665.8112793 C306.06487684 669.80796071 302.26001856 673.90634819 298.57446289 678.18041992 C296.47593798 680.6056496 294.30110679 682.95688272 292.125 685.3125 C287.20422698 690.7149752 282.5729951 696.30237581 278 702 C277.07610551 703.13198786 276.1515971 704.26347487 275.2265625 705.39453125 C252.64823267 733.12750805 233.24575428 763.37534272 216.20458984 794.78320312 C215.41006392 796.24536271 214.61100243 797.70506804 213.80712891 799.16210938 C173.63030508 872.05552062 152.3056543 956.28824293 147 1090 C145.29622626 1086.72519708 144.32949071 1083.69586344 143.4765625 1080.09375 C143.18418701 1078.89339111 142.89181152 1077.69303223 142.59057617 1076.45629883 C142.43446869 1075.81383209 142.27836121 1075.17136536 142.11752319 1074.50942993 C132.83679793 1036.64528997 118.8776302 1000.09872443 102 965 C101.57364258 964.10877441 101.14728516 963.21754883 100.70800781 962.29931641 C80.94982674 921.20825386 55.41695209 882.79452285 26 848 C25.47664062 847.37754395 24.95328125 846.75508789 24.4140625 846.11376953 C13.37053369 832.99257175 1.71625198 820.54332442 -10.42871094 808.44091797 C-12.2661576 806.60889005 -14.0981165 804.77149395 -15.9296875 802.93359375 C-21.78485365 797.07482272 -27.66972704 791.34950123 -34 786 C-35.15728714 784.9792084 -36.31224878 783.95577417 -37.46484375 782.9296875 C-45.90185857 775.48547554 -54.62748525 768.53910371 -63.63208008 761.79589844 C-65.93234469 760.05131173 -68.20577349 758.27464101 -70.47947693 756.49568176 C-77.94406842 750.67943114 -85.6704004 745.34155443 -93.5625 740.125 C-94.21541016 739.69179443 -94.86832031 739.25858887 -95.54101562 738.81225586 C-113.4998351 726.9060132 -131.92924 716.03557062 -151 706 C-151.99209473 705.47792969 -152.98418945 704.95585938 -154.00634766 704.41796875 C-214.58041596 672.79905518 -281.23494522 653.1704246 -349 645 C-349.99543823 644.87625 -349.99543823 644.87625 -351.01098633 644.75 C-394.09972254 639.41354023 -438.91377336 640.12835956 -482 645 C-483.97491858 645.20257947 -485.95014542 645.40219551 -487.92578125 645.59765625 C-488.72024658 645.67636963 -489.51471191 645.75508301 -490.33325195 645.83618164 C-490.88327881 645.8902417 -491.43330566 645.94430176 -492 646 C-491.67 645.34 -491.34 644.68 -491 644 C-488.16552734 643.33325195 -488.16552734 643.33325195 -484.3359375 642.73828125 C-482.90523951 642.50826757 -481.47457704 642.27803288 -480.04394531 642.04760742 C-479.28392212 641.92839935 -478.52389893 641.80919128 -477.74084473 641.68637085 C-421.54685193 632.8061195 -368.38709184 615.32762774 -317 591 C-315.70932617 590.38970947 -315.70932617 590.38970947 -314.39257812 589.76708984 C-285.09371229 575.79809507 -256.97137653 558.43857643 -231 539 C-229.85986286 538.15689195 -228.71926893 537.31440111 -227.578125 536.47265625 C-221.26922587 531.7890192 -215.09867959 526.95338765 -209 522 C-208.10410156 521.27941406 -207.20820313 520.55882812 -206.28515625 519.81640625 C-200.91081016 515.46718087 -195.68492623 511.00093081 -190.58203125 506.3359375 C-188.47125319 504.42633798 -186.33958884 502.55056637 -184.19140625 500.68359375 C-180.08904227 497.10163956 -176.09216669 493.41812602 -172.125 489.6875 C-171.43027588 489.03450928 -170.73555176 488.38151855 -170.01977539 487.70874023 C-162.71260301 480.8174715 -155.50161688 473.89222163 -148.96875 466.25 C-146.92230507 463.91120579 -144.81620284 461.63947171 -142.69482422 459.36889648 C-136.85588363 453.11496432 -131.33822053 446.69068916 -126 440 C-125.07908815 438.87030792 -124.15715889 437.74144468 -123.234375 436.61328125 C-115.42435195 427.02195673 -108.12691916 417.10694077 -101 407 C-100.52175781 406.32324219 -100.04351562 405.64648438 -99.55078125 404.94921875 C-47.17324637 330.56431627 -14.09925222 244.86418201 1 141 C1.22429687 139.07099854 1.22429687 139.07099854 1.453125 137.10302734 C6.02452399 96.53775702 5.61268706 55.04357271 1.36376953 14.47412109 C0.85904537 9.65383596 0.42640733 4.82774436 0 0 Z " fill="#66A1D5" transform="translate(492,0)"/>
<path d="M0 0 C0.66 0 1.32 0 2 0 C2 0.66 2 1.32 2 2 C1.34 2 0.68 2 0 2 C0 1.34 0 0.68 0 0 Z " fill="#35B6E9" transform="translate(1041,1043)"/>
</svg>
