<?xml version="1.0" encoding="UTF-8"?>
<svg version="1.1" xmlns="http://www.w3.org/2000/svg" width="2860" height="873">
<path d="M0 0 C2.81786434 2.20075948 5.12917173 4.76391668 7.44921875 7.4609375 C11.02964385 11.57945576 14.73179219 15.56614283 18.48046875 19.53125 C23.88283779 25.26939337 29.24306789 31.04060409 34.55859375 36.859375 C37.4192453 39.98768985 40.29156625 43.1049272 43.16796875 46.21875 C43.66707764 46.75910889 44.16618652 47.29946777 44.68041992 47.85620117 C45.69167487 48.95089892 46.70298687 50.04554396 47.71435547 51.14013672 C50.22060979 53.85302586 52.72547321 56.56719859 55.23046875 59.28125 C56.23046199 60.36458957 57.23046199 61.44792291 58.23046875 62.53125 C68.23046875 73.36458333 78.23046875 84.19791667 88.23046875 95.03125 C88.72554932 95.56758057 89.22062988 96.10391113 89.73071289 96.65649414 C90.72992613 97.73898871 91.72911237 98.82150821 92.72827148 99.90405273 C95.2400871 102.62542508 97.75238208 105.34635195 100.265625 108.06640625 C105.55159558 113.78833317 110.82757679 119.51908427 116.08837891 125.26416016 C120.94887997 130.56984486 125.83127787 135.85523724 130.71435547 141.14013672 C133.22060979 143.85302586 135.72547321 146.56719859 138.23046875 149.28125 C139.23046199 150.36458957 140.23046199 151.44792291 141.23046875 152.53125 C151.23046875 163.36458333 161.23046875 174.19791667 171.23046875 185.03125 C171.9730896 185.83574585 171.9730896 185.83574585 172.73071289 186.65649414 C173.72992613 187.73898871 174.72911237 188.82150821 175.72827148 189.90405273 C178.74567635 193.17319482 181.76394324 196.44153683 184.78344727 199.70874023 C185.78357954 200.79201467 186.78277835 201.87615173 187.78100586 202.96118164 C190.27861828 205.6754048 192.78824895 208.37622949 195.32421875 211.0546875 C195.82300537 211.58634521 196.32179199 212.11800293 196.83569336 212.66577148 C198.20380855 214.12373442 199.57825166 215.57575207 200.953125 217.02734375 C205.43913289 222.45210457 207.42618258 227.79311505 207.23046875 234.78125 C206.16402001 240.20162997 204.29399982 244.93736926 200.23046875 248.78125 C194.88191242 252.02283014 189.40912995 253.73652478 183.34277344 255.07128906 C182.49281296 255.26694458 181.64285248 255.4626001 180.76713562 255.66418457 C177.98116628 256.30236967 175.19204676 256.92523085 172.40234375 257.546875 C170.44700059 257.98902106 168.49178199 258.43171831 166.53668213 258.87493896 C162.44639493 259.79956816 158.35445568 260.71639821 154.26123047 261.62792969 C149.04177885 262.79107941 143.82734655 263.975186 138.61402512 265.16547012 C134.57863848 266.08402591 130.54059084 266.99041572 126.5016861 267.89336395 C124.57927926 268.32481386 122.65773934 268.76014702 120.73714447 269.19959259 C93.35243776 275.44772475 93.35243776 275.44772475 83.23046875 269.78125 C79.61806566 267.20096208 76.88438487 264.44475208 74 261.08984375 C70.42389609 256.9748171 66.72538609 252.99238092 62.98046875 249.03125 C57.57809971 243.29310663 52.21786961 237.52189591 46.90234375 231.703125 C44.0416922 228.57481015 41.16937125 225.4575728 38.29296875 222.34375 C37.54430542 221.53321167 37.54430542 221.53321167 36.78051758 220.70629883 C35.76926263 219.61160108 34.75795063 218.51695604 33.74658203 217.42236328 C30.74158972 214.16961637 27.7383865 210.91521737 24.73510742 207.66088867 C22.21138131 204.92640612 19.68670201 202.19281523 17.16015625 199.4609375 C10.81576928 192.59862078 4.5046643 185.70785084 -1.76953125 178.78125 C-3.58238451 181.50052989 -4.39021256 183.36406055 -5.33154297 186.43041992 C-5.62803741 187.38746826 -5.92453186 188.3445166 -6.23001099 189.33056641 C-6.54984955 190.38034668 -6.86968811 191.43012695 -7.19921875 192.51171875 C-7.54105194 193.61926514 -7.88288513 194.72681152 -8.2350769 195.86791992 C-9.17738993 198.92334721 -10.11547828 201.98003611 -11.05204773 205.03722763 C-12.05463389 208.30570268 -13.06299464 211.57239356 -14.07128906 214.83911133 C-14.27643379 215.5038103 -14.48157852 216.16850927 -14.69293976 216.85335064 C-15.11267026 218.21333295 -15.53241678 219.57331032 -15.95217896 220.93328285 C-16.59626882 223.0208241 -17.23972853 225.10855873 -17.88305664 227.19633484 C-20.78025047 236.59573239 -23.69892905 245.98821409 -26.63671875 255.375 C-26.83679535 256.01429758 -27.03687195 256.65359516 -27.24301147 257.3122654 C-28.25877113 260.55738149 -29.27496957 263.80235999 -30.29138184 267.04727173 C-38.94438942 294.67356002 -47.52908293 322.32078392 -56.08496094 349.97729492 C-58.64321088 358.24629591 -61.20439596 366.51438223 -63.76953125 374.78125 C-63.99879807 375.52024536 -64.22806488 376.25924072 -64.46427917 377.02062988 C-65.86861421 381.54618839 -67.27515734 386.07105183 -68.68452072 390.595047 C-69.12853185 392.02112336 -69.57196366 393.44738024 -70.01478958 394.87382507 C-70.6245936 396.83762255 -71.23656337 398.8007319 -71.84912109 400.76367188 C-72.19679535 401.88060425 -72.5444696 402.99753662 -72.90267944 404.14831543 C-73.76953125 406.78125 -73.76953125 406.78125 -74.76953125 408.78125 C-73.79161621 408.55196304 -72.81370117 408.32267609 -71.80615234 408.08644104 C-39.91986431 400.61656769 -7.98579733 393.36050871 23.95710194 386.13742787 C31.79012068 384.36617191 39.62284747 382.59362613 47.45556641 380.82104492 C49.60843282 380.33384396 51.76129925 379.84664305 53.91416585 379.35944289 C55.34206687 379.03630364 56.76996727 378.71316163 58.19786704 378.39001685 C62.43763107 377.43053922 66.67743275 376.47122819 70.91726124 375.51203543 C86.74013607 371.93228572 102.56146814 368.34589491 118.37890625 364.7421875 C133.67532963 361.25734371 148.97643033 357.79383197 164.28179073 354.34845638 C170.21418907 353.01217212 176.1445224 351.66686984 182.07470703 350.32080078 C190.64574491 348.37588998 199.22001614 346.44585396 207.79767227 344.53033924 C212.39659099 343.5029916 216.99407644 342.47011199 221.58831787 341.42202759 C225.84689442 340.45076909 230.10891323 339.49638102 234.37406731 338.55444145 C235.9364063 338.20641425 237.49743994 337.85246237 239.05694771 337.49196053 C250.83265497 334.77546462 261.92719661 333.03720188 272.97265625 339.19921875 C279.68579667 343.90306281 284.0899557 350.16778734 285.73046875 358.2421875 C287.42117586 370.53503708 282.17430188 382.50637468 278.53125 394.08984375 C278.06338565 395.58643234 277.59583485 397.08311897 277.12857056 398.57989502 C276.12803293 401.78267233 275.12539689 404.9847819 274.12106323 408.18637085 C272.51225779 413.31499019 270.90824551 418.4451011 269.30493164 423.57543945 C267.34543143 429.84447025 265.38486201 436.11316456 263.42283154 442.38140392 C258.48613536 458.1533419 253.56738553 473.93085987 248.65109253 489.70916748 C247.40894744 493.69562588 246.16637794 497.68195185 244.92366695 501.66823387 C239.71282011 518.38338116 234.50729175 535.10016807 229.3125 551.8203125 C229.07021542 552.60013741 228.82793083 553.37996231 228.57830429 554.18341827 C226.63757714 560.43010317 224.69708623 566.67686146 222.7567749 572.92367554 C217.55551754 589.66899947 212.35071872 606.41316767 207.1171875 623.1484375 C206.91079651 623.80853065 206.70440552 624.46862381 206.49176025 625.14871979 C204.44787503 631.68538808 202.40267257 638.22163832 200.35290909 644.75646591 C195.87040682 659.04952927 191.43333894 673.35524892 187.06229591 687.6828289 C185.56346283 692.5916379 184.05862075 697.49860952 182.55405331 702.40566349 C181.10848639 707.12348749 179.67359588 711.84438636 178.2467432 716.56790161 C177.35831032 719.49998253 176.4598574 722.4289257 175.55883217 725.35715866 C175.14513041 726.70901326 174.73554467 728.06213617 174.3306179 729.41664505 C169.51579271 745.50608784 162.82470646 758.08981614 148.33203125 767.17578125 C140.45755699 771.25186302 132.42308131 773.66580472 123.79052734 775.56079102 C122.68194052 775.81120997 121.57335369 776.06162893 120.43117332 776.31963634 C116.74880807 777.1493706 113.0639142 777.96724575 109.37890625 778.78515625 C106.74134266 779.37603173 104.10435475 779.9694583 101.46734619 780.56280518 C95.81334214 781.83364839 90.15803026 783.09852171 84.50177002 784.35928345 C76.26351181 786.19562397 68.02741852 788.0415264 59.79185653 789.88991678 C47.40966081 792.66887174 35.02635474 795.44283226 22.64211869 798.21267951 C5.29871684 802.09178209 -12.04117956 805.98623246 -29.37890625 809.890625 C-30.62756092 810.17179798 -31.87621559 810.45297096 -33.16270828 810.74266434 C-38.14376084 811.8643319 -43.12479814 812.98606713 -48.10579872 814.10796547 C-60.35137409 816.86599357 -72.59783755 819.62006886 -84.84431839 822.37407303 C-106.11993856 827.15869895 -127.39439355 831.94847765 -148.66796875 836.7421875 C-151.2167858 837.31648655 -153.76560375 837.89078162 -156.31442261 838.46507263 C-170.90280856 841.75211364 -170.90280856 841.75211364 -185.49090576 845.04043579 C-186.6140814 845.29364688 -187.73725704 845.54685797 -188.89446831 845.80774212 C-191.11471029 846.30831182 -193.33493178 846.8089724 -195.55513191 847.30972767 C-200.83185723 848.49950243 -206.10911599 849.68679145 -211.38772583 850.86817932 C-219.85597392 852.76458963 -228.32210341 854.66435623 -236.76803207 856.65822506 C-240.05420003 857.4327697 -243.34317775 858.1949339 -246.63254547 858.95575905 C-248.10960557 859.3011066 -249.58526377 859.65252825 -251.05916595 860.01111412 C-266.43646406 863.75101785 -281.93706372 865.14984947 -296.375 857.37890625 C-305.89371522 851.18947139 -313.57171841 842.34482188 -320.96411133 833.83178711 C-323.90487327 830.49176553 -326.96262144 827.26467428 -330.01953125 824.03125 C-336.32661206 817.3317286 -342.56765431 810.57820958 -348.76953125 803.78125 C-350.58143333 801.80153065 -352.3937464 799.82220151 -354.20703125 797.84375 C-354.65925049 797.35028076 -355.11146973 796.85681152 -355.57739258 796.34838867 C-360.45620886 791.02753489 -365.35435213 785.72456665 -370.25341797 780.42236328 C-372.75967229 777.70947414 -375.26453571 774.99530141 -377.76953125 772.28125 C-378.76952449 771.19791043 -379.76952449 770.11457709 -380.76953125 769.03125 C-402.76953125 745.19791667 -424.76953125 721.36458333 -446.76953125 697.53125 C-447.5121521 696.72675415 -447.5121521 696.72675415 -448.26977539 695.90600586 C-449.26898863 694.82351129 -450.26817487 693.74099179 -451.26733398 692.65844727 C-453.7791496 689.93707492 -456.29144458 687.21614805 -458.8046875 684.49609375 C-464.09065808 678.77416683 -469.36663929 673.04341573 -474.62744141 667.29833984 C-479.48794247 661.99265514 -484.37034037 656.70726276 -489.25341797 651.42236328 C-491.75967229 648.70947414 -494.26453571 645.99530141 -496.76953125 643.28125 C-497.76952449 642.19791043 -498.76952449 641.11457709 -499.76953125 640.03125 C-521.76953125 616.19791667 -543.76953125 592.36458333 -565.76953125 568.53125 C-566.26501465 567.9947583 -566.76049805 567.4582666 -567.27099609 566.90551758 C-568.26725058 565.8256738 -569.26237522 564.74478651 -570.25634766 563.6628418 C-572.80522659 560.89132235 -575.3732739 558.142595 -577.98046875 555.42578125 C-589.25737429 543.60719783 -596.57020873 532.31054578 -596.58389282 515.42112732 C-596.18982262 507.19050853 -593.93597271 499.75955635 -591.453125 491.94921875 C-591.00224374 490.50065645 -590.55242127 489.05176424 -590.10357666 487.60256958 C-589.15455495 484.54608179 -588.19839725 481.49196341 -587.23617554 478.43960571 C-585.79833099 473.87835915 -584.37676496 469.31216224 -582.95825195 464.74487305 C-580.25590943 456.0527173 -577.534435 447.36660962 -574.81095886 438.68105698 C-572.32508785 430.75064821 -569.84431028 422.81864336 -567.36328125 414.88671875 C-567.08524406 413.99795107 -566.80720688 413.10918339 -566.52074432 412.19348335 C-561.04629469 394.69170766 -555.61477346 377.17680062 -550.19648743 359.65756989 C-542.9363879 336.18330262 -535.63123048 312.72385525 -528.26953125 289.28125 C-521.55999259 267.91446029 -514.88738519 246.53669182 -508.26437378 225.14291382 C-507.12954601 221.47727992 -505.99373734 217.8119509 -504.85756588 214.14673328 C-500.50570496 200.10738185 -496.16092786 186.06594327 -491.84577942 172.01525784 C-489.73790749 165.15237755 -487.62429811 158.29128025 -485.50698853 151.43130589 C-483.99357726 146.52636909 -482.48768512 141.61920997 -480.98751926 136.71020699 C-480.05608238 133.66892389 -479.11729311 130.62994676 -478.17650414 127.5915451 C-477.74399046 126.18949532 -477.31444891 124.78652436 -476.88823891 123.38254547 C-471.75369265 106.48223063 -464.823403 92.63665662 -448.76953125 83.78125 C-440.53124838 80.7407093 -431.94870606 78.76951738 -423.38720703 76.87817383 C-422.21511342 76.6148227 -421.04301981 76.35147158 -419.83540821 76.08014011 C-416.6342341 75.36192557 -413.43208403 74.64827832 -410.2294414 73.93664694 C-406.78797092 73.17071867 -403.34787062 72.39868188 -399.90760803 71.62734985 C-393.99538981 70.30259958 -388.08237615 68.98145343 -382.16879272 67.66281128 C-372.77969365 65.56910043 -363.39229323 63.46783551 -354.00512695 61.36547852 C-350.82406182 60.65313423 -347.64298369 59.940848 -344.4618988 59.22859192 C-343.67342058 59.05204573 -342.88494236 58.87549953 -342.07257086 58.69360346 C-336.47008324 57.43927467 -330.86736917 56.18596075 -325.26454163 54.93315125 C-299.67798005 49.21176064 -274.09750304 43.46369235 -248.52084351 37.69818115 C-243.04695029 36.46428048 -237.57286385 35.23123966 -232.09870243 33.99852943 C-207.38442707 28.4331844 -182.67265577 22.85683921 -157.963036 17.27086681 C-152.58694068 16.05556229 -147.21074631 14.84069678 -141.83448792 13.62611389 C-140.69912014 13.36961358 -140.69912014 13.36961358 -139.54081565 13.10793144 C-136.49101538 12.41893573 -133.441212 11.72995379 -130.39139569 11.0410291 C-121.45638103 9.02268247 -112.52170996 7.00283163 -103.58765626 4.98023546 C-98.00170498 3.71574655 -92.41535005 2.45305139 -86.82869601 1.19167101 C-83.59809663 0.46218187 -80.3677507 -0.2683827 -77.13777542 -1.00063324 C-65.63283618 -3.6084785 -54.1247238 -6.20463976 -42.57299805 -8.59838867 C-41.39849327 -8.849762 -41.39849327 -8.849762 -40.20026112 -9.10621357 C-25.50533498 -12.08032258 -12.25361991 -8.43957927 0 0 Z M-125.49516296 134.61390686 C-126.44569896 134.82470068 -127.39623495 135.0354945 -128.37557507 135.25267601 C-129.93509632 135.61305427 -129.93509632 135.61305427 -131.52612305 135.98071289 C-133.18340786 136.3524208 -133.18340786 136.3524208 -134.87417316 136.73163795 C-138.57435328 137.56383677 -142.27147193 138.40891535 -145.96875 139.25390625 C-148.5924358 139.84656087 -151.21627632 140.43848524 -153.84033203 141.02949524 C-160.18255566 142.45969637 -166.52258048 143.89941341 -172.86180913 145.34282547 C-180.18277986 147.0096233 -187.50535979 148.66929187 -194.82809699 150.32830906 C-198.51953814 151.1646358 -202.2109303 152.0011786 -205.90229797 152.83782959 C-207.00151436 153.08696106 -207.00151436 153.08696106 -208.12293714 153.34112549 C-212.58980864 154.35370861 -217.05636579 155.36766637 -221.52269191 156.38265228 C-239.65358974 160.50288201 -257.79331685 164.57857073 -275.94794273 168.59325218 C-282.65302931 170.07782702 -289.35594007 171.57219479 -296.05877399 173.06690311 C-301.24206726 174.22188513 -306.42660975 175.37043842 -311.61459351 176.50418091 C-316.43392362 177.55751886 -321.24912838 178.62799352 -326.06176758 179.71147728 C-327.79042805 180.09742603 -329.52049413 180.47714958 -331.25210571 180.84963417 C-346.37128779 184.10696976 -361.49197623 188.77102239 -370.89453125 201.90625 C-377.023022 211.80426206 -380.27176269 223.03631516 -383.6640625 234.08984375 C-384.12824439 235.58668869 -384.59296135 237.08336779 -385.0581665 238.57989502 C-386.05207576 241.78102479 -387.04239472 244.98323381 -388.02981567 248.18637085 C-389.61171485 253.31784361 -391.20162089 258.44681445 -392.79272461 263.57543945 C-394.73680242 269.84348295 -396.6790776 276.11207913 -398.61901951 282.38140392 C-402.02534232 293.38874441 -405.44698148 304.39124177 -408.87890625 315.390625 C-409.12591404 316.18232086 -409.37292183 316.97401672 -409.6274147 317.78970337 C-410.62095186 320.97396198 -411.61457836 324.15819269 -412.60835457 327.34237671 C-415.3341169 336.07634765 -418.05591716 344.81155228 -420.77734375 353.546875 C-421.0221838 354.33276001 -421.26702385 355.11864502 -421.51928329 355.92834473 C-422.51235391 359.11592208 -423.50540819 362.30350452 -424.49840736 365.49110413 C-425.7762317 369.5930001 -427.05418502 373.69485581 -428.33239746 377.79663086 C-431.20927054 387.0285701 -434.08512035 396.26082621 -436.95834637 405.49390125 C-438.18324123 409.43003708 -439.40857467 413.3660346 -440.63528442 417.30160522 C-443.06321802 425.09207138 -445.48439994 432.88452701 -447.88695431 440.68286228 C-448.94596086 444.11922809 -450.00952984 447.55405991 -451.08233643 450.98614502 C-452.15382702 454.41438989 -453.2146106 457.84578139 -454.26808357 461.27960396 C-454.84463714 463.14951947 -455.43192288 465.01611561 -456.01963806 466.8825531 C-460.33467498 481.03449347 -461.03966498 493.71018677 -454.33203125 507.34375 C-450.56079938 513.70362993 -445.48713795 518.84819845 -440.36621094 524.12402344 C-437.78760424 526.80041217 -435.2818766 529.54283482 -432.76953125 532.28125 C-431.76989657 533.36492044 -430.76989601 534.44825348 -429.76953125 535.53125 C-427.76953125 537.69791667 -425.76953125 539.86458333 -423.76953125 542.03125 C-423.0269104 542.83574585 -423.0269104 542.83574585 -422.26928711 543.65649414 C-421.27007387 544.73898871 -420.27088763 545.82150821 -419.27172852 546.90405273 C-416.7599129 549.62542508 -414.24761792 552.34635195 -411.734375 555.06640625 C-406.44840442 560.78833317 -401.17242321 566.51908427 -395.91162109 572.26416016 C-391.05112003 577.56984486 -386.16872213 582.85523724 -381.28564453 588.14013672 C-378.77939021 590.85302586 -376.27452679 593.56719859 -373.76953125 596.28125 C-372.76953801 597.36458957 -371.76953801 598.44792291 -370.76953125 599.53125 C-344.76953125 627.69791667 -318.76953125 655.86458333 -292.76953125 684.03125 C-292.0269104 684.83574585 -292.0269104 684.83574585 -291.26928711 685.65649414 C-290.27007387 686.73898871 -289.27088763 687.82150821 -288.27172852 688.90405273 C-285.7599129 691.62542508 -283.24761792 694.34635195 -280.734375 697.06640625 C-280.23405762 697.60837646 -279.73374023 698.15034668 -279.21826172 698.70874023 C-278.21489418 699.79428989 -277.21002188 700.87845073 -276.20361328 701.96118164 C-273.73335404 704.62416474 -271.29859952 707.30770296 -268.921875 710.0546875 C-263.51243342 716.25527054 -258.26587208 721.14200078 -250.76953125 724.78125 C-249.77759766 725.26851562 -249.77759766 725.26851562 -248.765625 725.765625 C-233.19118152 732.89690365 -215.69276348 727.42066497 -199.95703125 723.75390625 C-197.59122409 723.21534101 -195.22507965 722.67825557 -192.85862732 722.14253235 C-187.14355513 720.84514087 -181.43194012 719.5333217 -175.72164899 718.21506077 C-169.0543854 716.6768112 -162.38293488 715.15712153 -155.71100843 713.63924503 C-152.29765753 712.86267942 -148.88445679 712.08545487 -145.47129822 711.30804443 C-144.44934769 711.07527676 -144.44934769 711.07527676 -143.40675169 710.8378067 C-138.53492467 709.72774428 -133.66388648 708.61426276 -128.79322815 707.49908447 C-110.04272336 703.20629524 -91.28363352 698.95395144 -72.515625 694.73828125 C-71.26760731 694.45787806 -70.01958961 694.17747486 -68.7337532 693.8885746 C-62.59093248 692.50850578 -56.44797697 691.12903818 -50.30493164 689.74996948 C-43.39766808 688.19922726 -36.49068166 686.6472565 -29.58398438 685.09399414 C-28.49482538 684.84909839 -27.40566639 684.60420263 -26.28350258 684.3518858 C-21.00256108 683.16377234 -15.72237631 681.9724559 -10.44369507 680.77433777 C-8.43236004 680.31795064 -6.42101777 679.86159543 -4.40966797 679.40527344 C-3.43459982 679.18396665 -2.45953167 678.96265985 -1.454916 678.7346468 C4.28820144 677.43496613 10.03695453 676.16547043 15.79264545 674.92268181 C19.38273463 674.14525487 22.96949624 673.35314653 26.55586052 672.55873489 C28.19386912 672.19984332 29.83338152 671.84772684 31.47451973 671.50342941 C47.13365321 668.21501693 60.8804621 662.7697715 70.02734375 648.8125 C74.87149285 640.55134124 77.24142025 631.19034759 80.04296875 622.09375 C80.69296504 620.01716924 81.3440325 617.94092351 81.99609375 615.86499023 C83.73450267 610.31698233 85.45574866 604.76380827 87.17144775 599.20874023 C88.22571667 595.79662996 89.28301561 592.38547352 90.34130859 588.97460938 C93.18710719 579.80074299 96.0293951 570.62582224 98.85449219 561.44555664 C102.41871565 549.86390542 106.00287571 538.28926458 109.640625 526.73046875 C109.99333466 525.60842545 110.34604431 524.48638214 110.70944214 523.33033752 C112.3884082 517.99015219 114.07158684 512.65135904 115.76171875 507.31469727 C116.35695457 505.42339766 116.95201692 503.53204345 117.546875 501.640625 C117.95801292 500.35106148 117.95801292 500.35106148 118.37745667 499.03544617 C118.74664467 497.85726067 118.74664467 497.85726067 119.12329102 496.65527344 C119.33848892 495.97511169 119.55368683 495.29494995 119.77540588 494.59417725 C120.3521975 492.60782215 120.3521975 492.60782215 120.23046875 489.78125 C110.16952572 491.45647184 100.24965706 493.7358052 90.3046875 495.98046875 C88.40076326 496.40848168 86.49679577 496.83630225 84.5927887 497.26394653 C79.44069872 498.421718 74.28924427 499.5822948 69.13789368 500.74335098 C63.72676049 501.96239515 58.31499476 503.17862507 52.90332031 504.39526367 C30.55186259 509.42160145 8.20379587 514.46295276 -14.14313316 519.50938225 C-17.70450647 520.31356795 -21.26591991 521.1175757 -24.8273468 521.92152405 C-27.15988254 522.4480854 -29.49241734 522.97465092 -31.82495117 523.5012207 C-33.53598951 523.88747919 -33.53598951 523.88747919 -35.28159428 524.28154087 C-42.07251017 525.81478166 -48.86300086 527.34988946 -55.65317631 528.88640594 C-59.88099277 529.84279283 -64.1091096 530.79784668 -68.33729744 531.75259018 C-70.30122491 532.19638009 -72.26501788 532.64076575 -74.22866631 533.08578873 C-76.91219059 533.69390246 -79.5961731 534.29995231 -82.28027344 534.90551758 C-83.44796249 535.17095383 -83.44796249 535.17095383 -84.63924122 535.44175243 C-100.40626097 538.98959568 -114.63401462 538.60697866 -128.76953125 529.78125 C-133.65889587 526.15193942 -137.6787316 521.89164411 -141.60546875 517.265625 C-144.49758552 513.94543318 -147.50734266 510.7423719 -150.51953125 507.53125 C-155.73527898 501.96438937 -160.91486606 496.36827035 -166.0625 490.73828125 C-168.93443925 487.59791686 -171.81986654 484.47011295 -174.70703125 481.34375 C-175.20460938 480.80419678 -175.7021875 480.26464355 -176.21484375 479.70874023 C-178.74931411 476.96183607 -181.29036678 474.22152632 -183.84375 471.4921875 C-186.84547282 468.27896118 -189.8136973 465.03667525 -192.76953125 461.78125 C-193.24229492 461.26675293 -193.71505859 460.75225586 -194.20214844 460.22216797 C-203.24869088 450.30370755 -207.23596664 442.18616215 -207.07901001 428.62893677 C-206.54918959 422.04178681 -204.55631067 415.98993567 -202.5 409.74609375 C-202.04430476 408.31115468 -201.59059752 406.87558301 -201.13871765 405.43943787 C-200.18453222 402.41649708 -199.21958323 399.39731275 -198.24603271 396.3805542 C-196.79132674 391.86453975 -195.37581954 387.33698213 -193.97119141 382.80517578 C-192.04645652 376.59976168 -190.11421854 370.39681052 -188.1706543 364.19726562 C-187.92058026 363.39947504 -187.67050623 362.60168446 -187.41285419 361.7797184 C-186.89881066 360.13986206 -186.38474657 358.50001215 -185.87066269 356.86016846 C-183.67044107 349.83955272 -181.47430907 342.81765551 -179.27769661 335.79590988 C-178.71469892 333.99623519 -178.15165338 332.19657548 -177.5885601 330.39693069 C-171.68638508 311.53279197 -165.8178825 292.65826104 -159.95703125 273.78125 C-152.48186598 249.70588071 -144.98006031 225.63904316 -137.45197678 201.58016968 C-130.49143527 179.33414103 -123.58576289 157.07194027 -116.76953125 134.78125 C-120.01778138 133.72932174 -122.18302597 133.86327517 -125.49516296 134.61390686 Z " fill="#2EB7EA" transform="translate(595.76953125,10.21875)"/>
<path d="M0 0 C0.81082031 0.72703125 1.62164063 1.4540625 2.45703125 2.203125 C18.6863469 17.55133945 30.30994703 39.74335118 33 62 C33 64.97 33 67.94 33 71 C6.93 71 -19.14 71 -46 71 C-48.97 65.72 -51.94 60.44 -55 55 C-74.32690009 28.67059988 -104.0819761 17.84930187 -135.30322266 12.61376953 C-139.853601 11.91950414 -144.4130567 11.38527732 -149 11 C-150.02182373 10.91387451 -151.04364746 10.82774902 -152.09643555 10.73901367 C-201.39930881 6.88685152 -259.14516302 10.937443 -298.73828125 44.02734375 C-299.48464844 44.67832031 -300.23101563 45.32929688 -301 46 C-301.67417969 46.57878906 -302.34835937 47.15757812 -303.04296875 47.75390625 C-319.65001087 63.1013324 -328.43249968 85.74235894 -329.3828125 108 C-330.01123496 134.28757935 -325.02746895 158.83710901 -306.45922852 178.70214844 C-282.75763709 202.82918363 -245.36869661 210.36827053 -213 213 C-211.80890625 213.11085938 -210.6178125 213.22171875 -209.390625 213.3359375 C-153.7456492 217.75410081 -93.35847362 210.59879573 -49 174 C-48.22914063 173.38253906 -47.45828125 172.76507813 -46.6640625 172.12890625 C-41.44125061 167.79657378 -38.35336704 163.59718619 -34 158 C-80.2 158 -126.4 158 -174 158 C-174 143.81 -174 129.62 -174 115 C-101.73 115 -29.46 115 45 115 C45 166.15 45 217.3 45 270 C22.56 270 0.12 270 -23 270 C-23 257.81408394 -22.7980274 246.45726212 -21.25 234.5 C-21.07001056 233.04385997 -20.89066019 231.58764083 -20.71191406 230.13134766 C-19.04493405 216.72074271 -17.09119341 203.35068975 -15 190 C-15.46148438 190.93199219 -15.92296875 191.86398437 -16.3984375 192.82421875 C-34.61954046 228.76806161 -67.53142792 253.16936555 -105.13183594 266.07275391 C-127.62001495 273.3429364 -151.17868537 277.10193697 -174.796875 277.203125 C-175.89631439 277.21013931 -176.99575378 277.21715363 -178.12850952 277.22438049 C-181.66904834 277.24182364 -185.20941975 277.24823542 -188.75 277.25 C-189.96040955 277.25067474 -191.17081909 277.25134949 -192.41790771 277.25204468 C-211.12154856 277.23548018 -229.4696756 276.75371593 -248 274 C-249.19077148 273.82307617 -250.38154297 273.64615234 -251.60839844 273.46386719 C-287.32059916 267.95431104 -323.1617629 258.14000562 -353 237 C-354.55654297 235.9171875 -354.55654297 235.9171875 -356.14453125 234.8125 C-386.75684235 212.46664529 -407.10891989 180.4967249 -413 143 C-416.22728652 118.21654427 -415.67736808 93.19168107 -409 69 C-408.82098145 68.3512793 -408.64196289 67.70255859 -408.45751953 67.03417969 C-397.5307864 28.76624544 -369.34412898 -0.31470685 -335.39111328 -19.578125 C-256.00677608 -63.11832923 -133.33524146 -67.77254535 0 0 Z " fill="#FFFFFF" transform="translate(1463,327)"/>
<path d="M0 0 C1.23873871 0.00090637 1.23873871 0.00090637 2.50250244 0.00183105 C48.42493372 0.0924231 99.96625682 5.68163473 136.625 36.1875 C137.56988281 36.96867187 138.51476563 37.74984375 139.48828125 38.5546875 C159.50412744 55.88514353 168.1285041 78.26423516 170.50488281 104.07617188 C170.65847391 106.77587886 170.625 109.48342751 170.625 112.1875 C143.895 112.1875 117.165 112.1875 89.625 112.1875 C87.645 104.2675 87.645 104.2675 85.625 96.1875 C79.02111241 82.67256726 68.22479305 75.18529808 54.14990234 70.33447266 C43.82786585 67.02370285 33.42877827 64.29816879 22.625 63.1875 C21.69042969 63.07792969 20.75585938 62.96835937 19.79296875 62.85546875 C-7.89981192 60.13337366 -47.84189631 59.373773 -71.8125 76 C-77.73593223 80.88401389 -82.05158523 86.51169435 -83.375 94.1875 C-84.07774048 102.08374756 -82.92833323 107.06288477 -78.75 113.8125 C-57.56129456 135.00120544 -10.47731701 134.76890497 17.44921875 138.13671875 C18.1476376 138.22121592 18.84605644 138.30571308 19.5656395 138.39277077 C26.60829399 139.24426656 33.65177247 140.08617943 40.70005894 140.88983631 C67.03287441 143.90421106 93.37243552 147.88123936 118.625 156.1875 C119.34671387 156.42436523 120.06842773 156.66123047 120.81201172 156.90527344 C135.21258004 161.73750096 148.09125698 168.20556967 159.625 178.1875 C160.44871094 178.81269531 161.27242187 179.43789063 162.12109375 180.08203125 C174.63305619 190.60301059 181.46921856 207.53094517 182.92675781 223.49194336 C183.0605203 226.81346418 183.09308388 230.11348985 183.0625 233.4375 C183.05420166 234.6133667 183.04590332 235.7892334 183.03735352 237.00073242 C182.66636642 256.24057193 177.25239154 272.40945784 164.625 287.1875 C163.861875 288.198125 163.09875 289.20875 162.3125 290.25 C133.87646041 321.33125258 84.2309531 327.78703839 44.625 330.1875 C40.30040992 330.33239196 35.97916554 330.37411452 31.65234375 330.390625 C30.44977432 330.39632507 29.2472049 330.40202515 28.00819397 330.40789795 C25.47283793 330.41728326 22.93747005 330.42385593 20.40209961 330.42773438 C16.62395379 330.4373437 12.84637588 330.468391 9.06835938 330.5 C-46.55325689 330.7425592 -107.14611842 318.60104796 -148.671875 278.890625 C-162.7907419 264.7717581 -173.39732734 250.07586328 -177.375 230.1875 C-177.375 225.2375 -177.375 220.2875 -177.375 215.1875 C-149.985 215.1875 -122.595 215.1875 -94.375 215.1875 C-92.725 219.1475 -91.075 223.1075 -89.375 227.1875 C-77.26202383 247.4635688 -55.59748213 257.41230427 -33.375 263.1875 C3.40838332 272.28028391 51.77822416 275.49124353 86.1484375 256.81640625 C93.79129403 252.13166529 98.82243845 245.74268788 101.625 237.1875 C103.46086106 228.64861135 102.22355063 222.28218584 97.5625 214.9375 C75.80510346 191.98187002 15.23377443 193.93100206 -13.46899414 190.81079102 C-59.41902915 185.7424862 -111.55652815 178.48948788 -146.375 145.1875 C-147.01179688 144.61386719 -147.64859375 144.04023438 -148.3046875 143.44921875 C-159.0203512 133.47174522 -165.65043579 118.69994455 -166.49755859 104.07104492 C-167.32457597 79.92464354 -161.5280257 59.58897143 -144.77270508 41.53833008 C-139.8082846 36.39939557 -134.30517539 32.1666554 -128.375 28.1875 C-127.47652344 27.58421875 -126.57804687 26.9809375 -125.65234375 26.359375 C-89.19175834 3.59073939 -41.90727878 -0.05721419 0 0 Z " fill="#46C1ED" transform="translate(2202.375,273.8125)"/>
<path d="M0 0 C10.53772809 9.95499658 18.22338149 22.95872347 23.8828125 36.1640625 C24.2128125 14.3840625 24.5428125 -7.3959375 24.8828125 -29.8359375 C50.9528125 -29.8359375 77.0228125 -29.8359375 103.8828125 -29.8359375 C103.8828125 50.3540625 103.8828125 130.5440625 103.8828125 213.1640625 C79.7928125 213.1640625 55.7028125 213.1640625 30.8828125 213.1640625 C29.16403584 206.28895585 28.0905333 199.90998106 27.3203125 192.9140625 C27.19027832 191.74907227 27.06024414 190.58408203 26.92626953 189.38378906 C25.87863181 179.38785721 25.41206508 169.41144925 25.17358398 159.36621094 C25.04252546 153.87858616 24.83659059 148.57401693 23.8828125 143.1640625 C23.06490234 144.79601562 23.06490234 144.79601562 22.23046875 146.4609375 C17.50289676 155.73914187 12.58389616 164.14491445 5.8828125 172.1640625 C5.05136719 173.15921875 4.21992187 174.154375 3.36328125 175.1796875 C-11.1426549 191.99289672 -30.25515004 203.8726999 -51.1171875 211.1640625 C-52.19355469 211.54175781 -53.26992187 211.91945313 -54.37890625 212.30859375 C-68.45723064 216.9321025 -83.23565426 219.28210703 -98.04296875 219.3671875 C-98.86434326 219.37420181 -99.68571777 219.38121613 -100.53198242 219.38844299 C-103.16460727 219.4058357 -105.79700733 219.41229409 -108.4296875 219.4140625 C-109.77768936 219.41507462 -109.77768936 219.41507462 -111.15292358 219.41610718 C-124.02969364 219.40071965 -136.5272764 219.12336418 -149.1171875 216.1640625 C-149.90206543 215.98713867 -150.68694336 215.81021484 -151.49560547 215.62792969 C-175.67138546 210.07435833 -199.2048219 200.54125845 -218.1171875 184.1640625 C-218.62540039 183.73125977 -219.13361328 183.29845703 -219.65722656 182.85253906 C-243.05537558 162.81997745 -256.19479634 137.61309905 -260.1171875 107.1640625 C-260.88324774 91.57589728 -261.29171727 75.30939154 -257.1171875 60.1640625 C-256.91851074 59.43864258 -256.71983398 58.71322266 -256.51513672 57.96582031 C-247.90800785 27.67646343 -227.80979987 3.22886024 -200.60546875 -12.5 C-140.38754921 -45.99128519 -53.39934162 -46.30570214 0 0 Z M-162.1171875 45.1640625 C-176.59775819 61.60263011 -180.19893263 79.3390509 -179.27685547 100.70751953 C-178.18884189 117.44695786 -168.61456031 132.63939359 -156.37109375 143.62890625 C-128.05381798 166.10598403 -91.62866674 168.30362036 -57.01074219 164.5234375 C-31.21200823 161.31927479 -4.9307447 151.56441164 12.2578125 131.2890625 C21.15295615 119.47202135 25.4777569 106.58136122 25.3203125 91.8515625 C25.31273926 90.84899414 25.30516602 89.84642578 25.29736328 88.81347656 C24.93124015 72.23905553 19.03831846 58.7268986 7.56640625 46.7265625 C-17.80613999 22.49892009 -55.18051919 17.36385494 -88.8203125 17.9140625 C-115.54087071 18.73522286 -142.97500354 25.37132028 -162.1171875 45.1640625 Z " fill="#FFFFFF" transform="translate(1788.1171875,383.8359375)"/>
<path d="M0 0 C0.99546844 0.00215515 1.99093689 0.0043103 3.01657104 0.00653076 C56.47122194 0.19102446 112.53303131 9.29883423 152.2265625 47.96875 C176.40296881 73.41759875 182.36308861 104.84372769 181.63623047 138.90673828 C180.5053432 167.17891998 167.70225163 192.22495705 147.50390625 211.63671875 C108.53101651 246.94824537 51.84653193 255.57858715 1.0625 255.5 C0.32943634 255.49939575 -0.40362732 255.4987915 -1.15890503 255.49816895 C-54.12262009 255.38081686 -111.9477706 245.78696408 -151.3984375 207.50390625 C-172.92107188 185.81344097 -181.71085306 158.59668931 -181.875 128.375 C-181.72042112 99.88681521 -174.86036307 73.90813776 -155.5 52.3125 C-154.96246094 51.63316406 -154.42492188 50.95382812 -153.87109375 50.25390625 C-128.28054458 18.37795903 -80.54272768 6.46890226 -42.04972839 2.02993774 C-28.01828417 0.52521551 -14.10665918 -0.05559245 0 0 Z M-59.5 64.3125 C-60.41910156 64.75207031 -61.33820312 65.19164062 -62.28515625 65.64453125 C-78.1710665 73.75505927 -91.42525997 86.88750593 -97.7890625 103.72265625 C-103.85361692 122.72347244 -103.12482977 142.65944953 -93.96240234 160.52294922 C-83.50719779 179.47096817 -63.85430433 190.62291728 -43.64648438 196.72216797 C-31.23267155 200.2063759 -18.36070453 201.81000605 -5.5 202.3125 C-4.57832031 202.35375 -3.65664062 202.395 -2.70703125 202.4375 C27.74143944 203.12463051 60.30280942 196.24965015 83.08203125 174.8828125 C96.20771493 160.93014713 102.11498394 143.804786 101.75 124.734375 C100.34076042 105.44540827 92.83440392 89.62004757 78.8515625 76.25 C42.49783465 46.29742689 -17.95911637 44.2354111 -59.5 64.3125 Z " fill="#46C1ED" transform="translate(2573.5,348.6875)"/>
<path d="M0 0 C26.07 0 52.14 0 79 0 C79 112.2 79 224.4 79 340 C52.93 340 26.86 340 0 340 C0 227.8 0 115.6 0 0 Z " fill="#46C1ED" transform="translate(2777,257)"/>
<path d="M0 0 C26.07 0 52.14 0 79 0 C79 112.2 79 224.4 79 340 C52.93 340 26.86 340 0 340 C0 227.8 0 115.6 0 0 Z " fill="#FFFFFF" transform="translate(1924,257)"/>
<path d="" fill="#48B4E7" transform="translate(0,0)"/>
</svg>
