<?xml version="1.0" encoding="UTF-8"?>
<svg version="1.1" xmlns="http://www.w3.org/2000/svg" width="2567" height="650">
<path d="M0 0 C2.64291237 2.14128111 4.89528808 4.37966135 7.09765625 6.96875 C10.64744062 11.08354054 14.32959653 15.05157658 18.0625 19 C23.46486904 24.73814337 28.82509914 30.50935409 34.140625 36.328125 C37.00127668 39.45644 39.8736165 42.5736595 42.75 45.6875 C43.24838379 46.22713379 43.74676758 46.76676758 44.26025391 47.32275391 C45.7774951 48.96533028 47.29495786 50.60770166 48.8125 52.25 C55.11096975 59.06626302 61.40275261 65.88829457 67.67041016 72.73291016 C72.53091122 78.03859486 77.41330912 83.32398724 82.29638672 88.60888672 C84.80264104 91.32177586 87.30750446 94.03594859 89.8125 96.75 C90.81249324 97.83333957 91.81249324 98.91667291 92.8125 100 C102.8125 110.83333333 112.8125 121.66666667 122.8125 132.5 C123.3077417 133.0364917 123.8029834 133.5729834 124.31323242 134.12573242 C125.31087218 135.20654944 126.30843108 136.28744109 127.3059082 137.3684082 C130.35675551 140.67436474 133.41028532 143.97780736 136.46728516 147.27807617 C137.48138215 148.3760082 138.49282306 149.47640002 139.50146484 150.5793457 C141.7915271 153.08260492 144.09776009 155.53567531 146.49609375 157.9375 C151.03195776 162.58222475 154.07401209 166.28070004 154.859375 172.86328125 C154.75294818 178.28218013 153.2495965 181.70545116 149.57910156 185.65039062 C144.64338634 189.67059991 138.30901425 190.42117145 132.234375 191.73046875 C130.89893879 192.0309392 129.56383988 192.33291228 128.22906494 192.63630676 C124.72471211 193.42847935 121.2160626 194.19966651 117.70611572 194.96661377 C114.16179992 195.74519059 110.62220698 196.54464947 107.08203125 197.34179688 C99.66504263 199.00653544 92.24429144 200.65240423 84.8125 202.25 C83.84437378 202.46113434 82.87624756 202.67226868 81.87878418 202.88980103 C81.00258423 203.07481171 80.12638428 203.25982239 79.22363281 203.45043945 C78.4772052 203.60970413 77.73077759 203.76896881 76.96173096 203.93305969 C70.0024216 204.95932708 64.54958308 203.24821132 58.8125 199.25 C56.75204454 197.4056008 54.94031675 195.39577866 53.125 193.3125 C52.08098601 192.14820714 51.0367076 190.98415134 49.9921875 189.8203125 C49.46592773 189.22766602 48.93966797 188.63501953 48.39746094 188.02441406 C45.88489792 185.21152004 43.31568186 182.45185838 40.75 179.6875 C36.47289007 175.0582961 32.21100215 170.4153186 27.95458984 165.76708984 C24.10910581 161.56938974 20.25401834 157.3806078 16.38525391 153.2043457 C13.72502683 150.3313178 11.08072902 147.44552226 8.45703125 144.5390625 C7.63609985 143.63498657 7.63609985 143.63498657 6.79858398 142.71264648 C5.74291218 141.5494718 4.69147085 140.38244032 3.64477539 139.21118164 C2.4077657 137.85285106 1.11476471 136.54590185 -0.1875 135.25 C-0.8475 135.25 -1.5075 135.25 -2.1875 135.25 C-2.42013046 135.99942871 -2.65276093 136.74885742 -2.8924408 137.52099609 C-5.96881951 147.43101855 -9.04649821 157.34063688 -12.125 167.25 C-12.50354818 168.46852472 -12.50354818 168.46852472 -12.8897438 169.71166611 C-22.3330682 200.1076819 -31.81447229 230.49171185 -41.31690407 260.86929798 C-42.34772974 264.16473338 -43.37837757 267.4602244 -44.40903473 270.75571251 C-45.10916489 272.99394486 -45.80965871 275.23206314 -46.51019287 277.47016907 C-47.34749798 280.14577617 -48.18326286 282.82185519 -49.01742554 285.4984436 C-49.80487811 288.02321688 -50.59526811 290.54690446 -51.3890686 293.06967163 C-51.75672333 294.24639435 -52.12437805 295.42311707 -52.50317383 296.63549805 C-52.82884842 297.67296677 -53.15452301 298.71043549 -53.49006653 299.77934265 C-54.27805665 302.14292869 -54.27805665 302.14292869 -54.1875 304.25 C-53.55115946 304.10536001 -52.91481892 303.96072002 -52.25919533 303.81169701 C-43.76921862 301.88197983 -35.27915744 299.95263443 -26.7890625 298.0234375 C-26.0816616 297.86269131 -25.3742607 297.70194512 -24.64542341 297.53632784 C-6.59143699 293.43387377 11.46325143 289.33453668 29.51953125 285.2421875 C31.13769157 284.87542375 32.75585182 284.50865968 34.37401199 284.14189529 C40.8675399 282.67013734 47.36107797 281.19842433 53.85469818 279.72707367 C71.46559421 275.73659228 89.07472681 271.73880714 106.6770649 267.71072578 C115.91051095 265.59782275 125.14578164 263.49306934 134.38278008 261.39575005 C139.58688127 260.21362682 144.78973994 259.02655667 149.9899292 257.82733154 C154.79743114 256.71868549 159.60768918 255.6229506 164.4204216 254.53724289 C166.1416879 254.14652124 167.86189309 253.75108574 169.58082962 253.3502388 C193.81415361 247.70584707 193.81415361 247.70584707 203.375 252.875 C208.31121322 256.26463992 210.90524922 259.52824767 212.8125 265.25 C213.80936923 275.42839865 211.49650471 284.20967311 208.37109375 293.76171875 C207.89467424 295.2651875 207.41997579 296.76920252 206.94685364 298.27371216 C205.93241753 301.48756111 204.90663356 304.69746466 203.87145996 307.9046936 C202.21907386 313.02464699 200.59242114 318.15255367 198.96972656 323.28198242 C196.99497106 329.51928654 195.01469743 335.75477988 193.02713585 341.98801517 C189.57287029 352.82438368 186.16892042 363.67563456 182.80078125 374.5390625 C182.561229 375.31164272 182.32167675 376.08422295 182.07486534 376.88021469 C180.8780827 380.74103696 179.68228582 384.60216364 178.48696899 388.46343994 C176.1120157 396.13377659 173.72765319 403.8011913 171.34375 411.46875 C171.11129389 412.21656864 170.87883778 412.96438728 170.63933754 413.7348671 C167.29854927 424.48191574 163.9499149 435.22649361 160.59375 445.96875 C160.27785573 446.98001953 160.27785573 446.98001953 159.95557976 448.01171875 C157.88248224 454.64787975 155.80771753 461.28350808 153.72582531 467.91691589 C152.71357846 471.14228481 151.70223822 474.3679374 150.69140625 477.59375 C150.49232225 478.22900604 150.29323826 478.86426208 150.08812141 479.51876831 C147.09319087 489.08230416 144.15609052 498.662519 141.24487686 508.25184059 C139.95774076 512.48524206 138.66203984 516.71603144 137.36618996 520.94677258 C136.1429741 524.94427296 134.93417119 528.94574511 133.73660183 532.95099831 C132.82064392 535.99870369 131.88311144 539.0397825 130.94921875 542.08203125 C130.47535988 543.69319824 130.47535988 543.69319824 129.9919281 545.33691406 C126.52157699 556.49545569 121.0951578 566.18230553 110.8125 572.25 C104.44100311 575.46407515 98.12105641 577.35883089 91.16943359 578.87768555 C90.13463552 579.11173914 89.09983746 579.34579273 88.03368187 579.58693886 C84.59470029 580.3624369 81.15289557 581.12454984 77.7109375 581.88671875 C75.24722992 582.43953415 72.783713 582.99319978 70.32037354 583.5476532 C65.04122919 584.73401659 59.76087341 585.91473218 54.47930908 587.090271 C46.82195552 588.79466454 39.16702321 590.50973072 31.5127008 592.22767973 C20.006702 594.80999728 8.49946112 597.38671703 -3.00877929 599.95902491 C-25.68578379 605.02797619 -48.35368577 610.13711712 -71.02095509 615.24941635 C-79.15778671 617.08413206 -87.29578062 618.91362616 -95.43432617 620.74072266 C-113.96771446 624.90294382 -132.49966094 629.06660985 -150.99890137 633.37848663 C-153.27009319 633.90718773 -155.54178501 634.43367287 -157.8137207 634.95916748 C-158.53139996 635.12516701 -159.24907921 635.29116653 -159.98850632 635.46219635 C-161.3885456 635.78592237 -162.78861257 636.10952867 -164.18870926 636.43300629 C-168.59490438 637.45270546 -172.9948776 638.49668661 -177.39404297 639.54638672 C-207.153385 646.51311615 -207.153385 646.51311615 -220.04296875 640.39453125 C-229.47227018 633.96386481 -237.01134043 624.79385694 -244.44799805 616.22583008 C-247.36655554 612.91075838 -250.40352564 609.70914149 -253.4375 606.5 C-258.83986904 600.76185663 -264.20009914 594.99064591 -269.515625 589.171875 C-272.37627655 586.04356015 -275.2485975 582.9263228 -278.125 579.8125 C-278.87366333 579.00196167 -278.87366333 579.00196167 -279.63745117 578.17504883 C-280.64870612 577.08035108 -281.66001812 575.98570604 -282.67138672 574.89111328 C-285.67708138 571.63760612 -288.68089394 568.38236124 -291.68505859 565.12744141 C-294.19696922 562.40600027 -296.70933529 559.68498251 -299.22265625 556.96484375 C-304.50862683 551.24291683 -309.78460804 545.51216573 -315.04541016 539.76708984 C-319.90591122 534.46140514 -324.78830912 529.17601276 -329.67138672 523.89111328 C-332.17764104 521.17822414 -334.68250446 518.46405141 -337.1875 515.75 C-338.18749324 514.66666043 -339.18749324 513.58332709 -340.1875 512.5 C-362.1875 488.66666667 -384.1875 464.83333333 -406.1875 441 C-406.68266113 440.46358887 -407.17782227 439.92717773 -407.68798828 439.37451172 C-408.68641478 438.29285592 -409.68478731 437.21115032 -410.68310547 436.12939453 C-413.71709744 432.84199246 -416.75305737 429.5564239 -419.79077148 426.27246094 C-421.29408529 424.64493622 -422.79360998 423.01398032 -424.29296875 421.3828125 C-426.17358704 419.33912754 -428.07199137 417.31493304 -429.98828125 415.3046875 C-439.23566907 405.46820683 -444.7670052 396.33682718 -444.6550293 382.50732422 C-443.90355205 372.74620996 -439.92940642 363.18202492 -436.9375 353.9375 C-436.16502982 351.50254905 -435.39448671 349.06698604 -434.62573242 346.63085938 C-432.99479304 341.47029562 -431.35430202 336.31292858 -429.70654297 331.15771484 C-427.23278753 323.41302178 -424.79966545 315.65593121 -422.37890625 307.89453125 C-422.18002493 307.25699795 -421.98114361 306.61946465 -421.77623558 305.96261215 C-420.9660393 303.36517334 -420.15601075 300.76768238 -419.34635067 298.17007637 C-417.89497408 293.51412907 -416.43997001 288.85932621 -414.9831543 284.20507812 C-408.46738898 263.38540932 -402.0076071 242.54865474 -395.56019211 221.70773315 C-390.24978601 204.54305723 -384.92637562 187.38266996 -379.55078125 170.23828125 C-379.32059107 169.50411043 -379.09040089 168.76993961 -378.85323524 168.01352119 C-376.59465398 160.81123485 -374.33338207 153.60979863 -372.06810474 146.40961552 C-371.00038192 143.01550018 -369.93346824 139.62113114 -368.8671875 136.2265625 C-368.66261114 135.57528318 -368.45803478 134.92400387 -368.24725914 134.25298882 C-365.57907998 125.75279295 -362.95451212 117.24079978 -360.3828125 108.7109375 C-360.10114227 107.77997253 -359.81947205 106.84900757 -359.52926636 105.88983154 C-358.28082087 101.76170183 -357.04144401 97.6314405 -355.82373047 93.49414062 C-353.11557893 84.41828648 -350.27873636 75.72496291 -343.375 68.9375 C-342.46814453 68.01517578 -342.46814453 68.01517578 -341.54296875 67.07421875 C-336.06396826 62.8309464 -329.9863391 60.65294311 -323.27929688 59.20483398 C-322.52210515 59.03243793 -321.76491343 58.86004187 -320.9847765 58.68242168 C-318.46072373 58.11038788 -315.93361501 57.55329514 -313.40625 56.99609375 C-311.5735405 56.58390911 -309.74104195 56.17078555 -307.90873718 55.75680542 C-302.89412302 54.62654335 -297.87671126 53.50917551 -292.85876083 52.39383316 C-287.48523417 51.19699056 -282.11446018 49.9879197 -276.7434082 48.7800293 C-267.4612909 46.69406265 -258.17764996 44.61499914 -248.89306641 42.54003906 C-231.38006694 38.62543929 -213.87349219 34.6823856 -196.36697388 30.73892212 C-193.81301195 30.16366119 -191.2590467 29.58841502 -188.70507812 29.01318359 C-187.44027555 28.72830141 -186.17547298 28.44341923 -184.87234306 28.14990425 C-175.94260812 26.13916033 -167.0116039 24.13412018 -158.08007812 22.13134766 C-135.87651558 17.1506596 -113.6776915 12.15461267 -91.50939369 7.01891518 C-85.63399775 5.65915894 -79.75673764 4.30747327 -73.87961483 2.95520306 C-68.53806619 1.72470914 -63.20036558 0.47907022 -57.86526775 -0.77908134 C-54.63096195 -1.53812219 -51.3934691 -2.28279251 -48.15495872 -3.02366638 C-46.69667966 -3.36043199 -45.23974965 -3.70311534 -43.78450966 -4.05278015 C-28.41979429 -7.73961894 -13.55739206 -9.45143904 0 0 Z M-98.4609375 102.03149414 C-99.31087847 102.22227004 -100.16081944 102.41304594 -101.03651619 102.60960293 C-103.87919572 103.24845121 -106.72082808 103.89184207 -109.5625 104.53515625 C-111.5742233 104.98804847 -113.58601467 105.44063842 -115.59786987 105.89294434 C-121.00799758 107.11009335 -126.41724379 108.33111469 -131.8262558 109.55321121 C-140.78356937 111.57662497 -149.74185085 113.5957536 -158.70006943 115.61515617 C-160.9520716 116.12288512 -163.20403729 116.63077592 -165.45596695 117.13882637 C-179.21704952 120.24310015 -192.98319384 123.32173315 -206.76244354 126.34437752 C-209.14187943 126.86670054 -211.52098628 127.3904934 -213.89996338 127.91490173 C-214.65776218 128.08193635 -215.41556099 128.24897097 -216.19632339 128.42106724 C-217.68248925 128.74869685 -219.16864218 129.07638505 -220.65478134 129.4041357 C-224.86010587 130.33063925 -229.06736817 131.2475946 -233.27630424 132.15754128 C-236.45435301 132.84761329 -239.62924359 133.55196127 -242.8046875 134.25390625 C-244.44351395 134.6026178 -244.44351395 134.6026178 -246.115448 134.95837402 C-256.72252914 137.3292916 -268.08376908 140.51236826 -275.1875 149.25 C-279.58066825 156.72161127 -282.55596346 164.59275323 -285.078125 172.8515625 C-285.41985748 173.94085556 -285.76158997 175.03014862 -286.11367798 176.15245056 C-287.23137008 179.72367409 -288.33449144 183.29921684 -289.4375 186.875 C-290.23105575 189.42077042 -291.02541651 191.96627628 -291.82080078 194.51147461 C-293.67917734 200.46459629 -295.52710366 206.42090256 -297.37025261 212.37875462 C-299.46167475 219.13864397 -301.56283435 225.89549671 -303.6640625 232.65234375 C-305.86820044 239.74316115 -308.07016885 246.83463629 -310.26538086 253.92822266 C-314.12280495 266.39173426 -317.99578633 278.85005978 -321.9006424 291.29878044 C-322.58757541 293.48886182 -323.27415402 295.67905401 -323.96063232 297.86927795 C-327.67458353 309.71752829 -327.67458353 309.71752829 -329.29315186 314.8598938 C-334.91897347 332.68377017 -334.91897347 332.68377017 -340.26171875 350.59375 C-340.46513382 351.27248169 -340.66854889 351.95121338 -340.87812805 352.6505127 C-343.2143139 360.96889359 -342.35870544 368.30849655 -339.1875 376.25 C-335.59544662 382.57472334 -331.04391656 387.86710271 -326 393.0625 C-324.66612161 394.46041762 -323.3327921 395.85885917 -322 397.2578125 C-321.3503125 397.93618164 -320.700625 398.61455078 -320.03125 399.31347656 C-317.48392411 401.98897828 -314.99006098 404.70856689 -312.5 407.4375 C-308.76067479 411.53084416 -305.01198374 415.61499947 -301.25 419.6875 C-300.50133667 420.49803833 -300.50133667 420.49803833 -299.73754883 421.32495117 C-298.72629388 422.41964892 -297.71498188 423.51429396 -296.70361328 424.60888672 C-294.19735896 427.32177586 -291.69249554 430.03594859 -289.1875 432.75 C-288.18750676 433.83333957 -287.18750676 434.91667291 -286.1875 436 C-280.1875 442.5 -274.1875 449 -268.1875 455.5 C-267.69241943 456.03633057 -267.19733887 456.57266113 -266.68725586 457.12524414 C-265.68804262 458.20773871 -264.68885638 459.29025821 -263.68969727 460.37280273 C-261.17788165 463.09417508 -258.66558667 465.81510195 -256.15234375 468.53515625 C-250.86637317 474.25708317 -245.59039196 479.98783427 -240.32958984 485.73291016 C-235.46908878 491.03859486 -230.58669088 496.32398724 -225.70361328 501.60888672 C-223.69660263 503.78137071 -221.69047806 505.95467151 -219.68457031 508.12817383 C-218.68809589 509.20768779 -217.69135189 510.28695297 -216.69433594 511.3659668 C-214.15110013 514.11892404 -211.61257455 516.87599256 -209.08203125 519.640625 C-206.58497539 522.36783879 -204.06928833 525.07691091 -201.54541016 527.77929688 C-200.29621838 529.13225108 -199.07442443 530.51036697 -197.85546875 531.890625 C-191.98249321 538.28211549 -185.35772247 542.87003652 -176.45697689 543.41814613 C-168.29865508 543.53241458 -160.95470582 542.47901601 -153.02758789 540.62646484 C-151.77928696 540.34659225 -150.53098602 540.06671967 -149.24485779 539.77836609 C-145.84196793 539.01508792 -142.44319516 538.2347756 -139.04492116 537.45124006 C-135.40875795 536.61610354 -131.76892547 535.79725646 -128.12950134 534.97647095 C-121.18178089 533.40705696 -114.23736151 531.82351704 -107.29404968 530.23472559 C-98.88431287 528.31107905 -90.47053506 526.4053629 -82.05664062 524.5 C-73.02367543 522.45411821 -63.99154406 520.40479937 -54.96304321 518.33929443 C-51.97168242 517.65527904 -48.98026027 516.97153281 -45.98876953 516.28808594 C-45.2527914 516.1199374 -44.51681326 515.95178885 -43.75853276 515.7785449 C-33.33316929 513.39889753 -22.89634894 511.07688396 -12.44892085 508.7961576 C-8.14050922 507.8539828 -3.83394905 506.90337038 0.47266036 505.95299637 C3.85025891 505.20870286 7.229005 504.47090659 10.61134148 503.74842453 C14.31412392 502.9549752 18.01185438 502.1409777 21.70922852 501.32275391 C22.77964197 501.09952076 23.85005543 500.87628761 24.95290565 500.64628983 C35.79025839 498.20552128 45.52737758 493.74965068 51.8125 484.25 C55.55673291 477.45280025 57.81791753 470.45527606 60.0859375 463.05078125 C60.49031214 461.74857481 60.89531104 460.44656207 61.30088806 459.14472961 C62.38145105 455.67036835 63.45365055 452.19348157 64.52396011 448.71595001 C65.63428228 445.11251436 66.751351 441.51117187 67.86791992 437.90966797 C69.21853748 433.55190456 70.56842067 429.19392013 71.91477966 424.83483887 C74.67273064 415.90777635 77.46086514 406.99084254 80.27734375 398.08203125 C81.25416989 394.98282429 82.23046591 391.88345083 83.206604 388.7840271 C83.81753177 386.84890821 84.43076308 384.91451502 85.04632568 382.98086548 C85.88779099 380.33563831 86.72035148 377.68777081 87.55078125 375.0390625 C87.92262794 373.8828112 87.92262794 373.8828112 88.30198669 372.70320129 C89.7100476 368.94380683 89.7100476 368.94380683 88.8125 365.25 C87.71354401 365.49674973 86.61458801 365.74349945 85.48233032 365.99772644 C82.10583275 366.75585184 78.72933156 367.5139611 75.35282898 368.27206421 C71.33216026 369.17479818 67.31150151 370.07757648 63.29084778 370.9803772 C52.16817283 373.47779213 41.04530702 375.974353 29.92211914 378.46948242 C25.43113642 379.47697979 20.94017145 380.48455629 16.44921875 381.4921875 C15.33634302 381.74187349 14.22346729 381.99155949 13.07686806 382.24881172 C-0.00370186 385.18392819 -13.08259386 388.12619588 -26.15738678 391.08694267 C-30.81627034 392.14143919 -35.4758551 393.19283489 -40.13531494 394.24478149 C-42.52760075 394.78596734 -44.91949436 395.32889006 -47.31097412 395.87362671 C-50.56182929 396.61406104 -53.81394348 397.34869657 -57.06640625 398.08203125 C-57.97754684 398.29139313 -58.88868744 398.500755 -59.82743835 398.71646118 C-71.43090369 401.31678521 -82.52985736 402.7500021 -93.375 396.6875 C-100.07147946 392.27683805 -105.27635975 386.45560106 -110.50390625 380.4453125 C-114.05450762 376.3718795 -117.72564305 372.42624616 -121.4375 368.5 C-126.89525331 362.70189682 -132.3268381 356.88382039 -137.68359375 350.9921875 C-139.34729157 349.17016587 -141.02700456 347.36263463 -142.72265625 345.5703125 C-149.35879915 338.47017912 -153.80160993 332.13791858 -154.359375 322.18212891 C-154.15235265 317.44590451 -153.05245957 313.41529399 -151.6875 308.8984375 C-151.41905273 307.98613373 -151.15060547 307.07382996 -150.87402344 306.13388062 C-147.8187658 295.83813595 -144.56498467 285.60305104 -141.30209351 275.37164307 C-139.31433817 269.13576347 -137.33816383 262.89621563 -135.36328125 256.65625 C-135.15476343 255.99761082 -134.94624561 255.33897163 -134.73140907 254.66037369 C-129.30539939 237.51463616 -123.99711208 220.33254784 -118.68758392 203.1504631 C-117.07501859 197.93210978 -115.46190347 192.71392707 -113.84765625 187.49609375 C-113.61815025 186.75423262 -113.38864426 186.01237148 -113.15218353 185.24802971 C-109.5038923 173.45967405 -105.82143796 161.68226857 -102.12109375 149.91015625 C-101.75130055 148.733251 -101.75130055 148.733251 -101.37403679 147.53256989 C-98.99109098 139.94863995 -96.60606471 132.36537978 -94.21281147 124.78469563 C-93.34549803 122.03570897 -92.48038484 119.28603331 -91.6157856 116.53619194 C-91.02179291 114.64986595 -90.42474374 112.76450329 -89.82762146 110.87916565 C-89.47732376 109.76428268 -89.12702606 108.64939972 -88.76611328 107.50073242 C-88.45940704 106.52907639 -88.15270081 105.55742035 -87.83670044 104.55632019 C-87.09718084 102.32846115 -87.09718084 102.32846115 -87.1875 100.25 C-91.08643612 100.25 -94.68005489 101.17098209 -98.4609375 102.03149414 Z " fill="#51565B" transform="translate(444.1875,6.75)"/>
<path d="M0 0 C3.8411131 0.00314687 7.68144295 -0.02035212 11.52246094 -0.0456543 C71.90737567 -0.20050782 134.35046255 13.05317097 180.37402344 54.31567383 C181.17582031 55.03239258 181.97761719 55.74911133 182.80371094 56.48754883 C203.45385808 76.03537495 213.84433562 102.5735661 217.37402344 130.31567383 C217.37402344 130.97567383 217.37402344 131.63567383 217.37402344 132.31567383 C192.29402344 132.31567383 167.21402344 132.31567383 141.37402344 132.31567383 C137.41402344 124.39567383 137.41402344 124.39567383 133.37402344 116.31567383 C130.78067894 112.44623918 128.29338367 108.89675571 125.37402344 105.31567383 C124.68695312 104.46489258 123.99988281 103.61411133 123.29199219 102.73754883 C100.35649037 75.79349985 62.72919329 66.54311009 28.90518188 63.50094604 C20.8888777 62.91417976 12.84459073 62.97153256 4.81152344 63.00317383 C3.36576935 63.00590805 3.36576935 63.00590805 1.89080811 63.00869751 C-13.12798104 63.05641321 -27.82006811 63.56987029 -42.62597656 66.31567383 C-43.55909668 66.48728027 -44.4922168 66.65888672 -45.45361328 66.83569336 C-80.13895871 73.47151171 -114.34001142 88.44178797 -135.53222656 117.97192383 C-153.22388695 144.97498443 -158.31151744 176.76507514 -152.23535156 208.34594727 C-146.70691808 233.64620885 -133.49038081 256.00572832 -111.62597656 270.31567383 C-88.54023861 284.96498063 -63.49025265 290.7851238 -36.62597656 294.31567383 C-35.42062256 294.47471191 -35.42062256 294.47471191 -34.19091797 294.63696289 C-24.1812188 295.74408125 -14.05840685 295.5596194 -4.00097656 295.56567383 C-2.99598114 295.56634857 -1.99098572 295.56702332 -0.95553589 295.56771851 C14.34769339 295.55140002 29.28769739 295.1302869 44.37402344 292.31567383 C45.30569336 292.14406738 46.23736328 291.97246094 47.19726562 291.7956543 C82.87013426 284.97207481 121.14178113 269.21183463 142.43652344 238.31567383 C145.07942556 234.41690012 145.07942556 234.41690012 147.37402344 230.31567383 C76.58902344 229.82067383 76.58902344 229.82067383 4.37402344 229.31567383 C4.37402344 214.13567383 4.37402344 198.95567383 4.37402344 183.31567383 C78.95402344 183.31567383 153.53402344 183.31567383 230.37402344 183.31567383 C230.37402344 238.75567383 230.37402344 294.19567383 230.37402344 351.31567383 C207.93402344 351.31567383 185.49402344 351.31567383 162.37402344 351.31567383 C162.37402344 340.31977023 162.4251531 329.90678028 163.56152344 319.06567383 C163.68954346 317.78877686 163.81756348 316.51187988 163.94946289 315.19628906 C165.69357104 298.19017513 168.04902638 281.25020727 170.37402344 264.31567383 C169.84220459 265.39743896 169.31038574 266.4792041 168.76245117 267.59375 C168.04850997 269.0362984 167.33438906 270.47875788 166.62011719 271.92114258 C166.27154663 272.63137573 165.92297607 273.34160889 165.56384277 274.07336426 C147.67784963 310.10396815 114.14429161 334.09609076 76.92871094 347.17504883 C67.68124954 350.28689298 58.32354541 352.69808177 48.74902344 354.56567383 C47.97574707 354.71681641 47.2024707 354.86795898 46.40576172 355.02368164 C28.96852585 358.18889184 11.68364609 358.71927234 -6.00097656 358.69067383 C-7.20819366 358.69046234 -8.41541077 358.69025085 -9.65921021 358.69003296 C-38.47091458 358.63983048 -66.60372657 356.38255416 -94.62597656 349.31567383 C-95.96305664 348.97947021 -95.96305664 348.97947021 -97.32714844 348.63647461 C-131.63422747 339.81056121 -163.72563182 324.83574941 -189.62597656 300.31567383 C-190.51027344 299.49583008 -191.39457031 298.67598633 -192.30566406 297.83129883 C-222.15316063 269.25210948 -235.24557506 228.82183039 -236.62597656 188.31567383 C-236.66722656 187.30118164 -236.70847656 186.28668945 -236.75097656 185.24145508 C-237.37883387 155.22202762 -231.18839268 125.6232539 -216.62597656 99.31567383 C-216.26600586 98.664375 -215.90603516 98.01307617 -215.53515625 97.34204102 C-210.65896518 88.63732857 -205.26338598 80.80319479 -198.62597656 73.31567383 C-198.19526855 72.82470215 -197.76456055 72.33373047 -197.32080078 71.82788086 C-159.18538584 28.49780399 -102.59773111 9.09139893 -46.62597656 2.31567383 C-45.92263184 2.22847076 -45.21928711 2.1412677 -44.49462891 2.05142212 C-29.66957309 0.26451554 -14.92158121 -0.02542809 0 0 Z " fill="#51565B" transform="translate(976.6259765625,157.684326171875)"/>
<path d="M0 0 C3.53123461 0.01612771 7.06132805 0.00000105 10.5925293 -0.01904297 C56.56896129 -0.06202778 108.3762735 8.27906443 142.68823242 41.61767578 C143.60475586 42.53291016 144.5212793 43.44814453 145.46557617 44.39111328 C146.35116211 45.26509766 147.23674805 46.13908203 148.14916992 47.03955078 C167.09598429 66.7073246 173.46557617 92.80642836 173.46557617 119.39111328 C148.05557617 119.39111328 122.64557617 119.39111328 96.46557617 119.39111328 C94.81557617 113.12111328 93.16557617 106.85111328 91.46557617 100.39111328 C84.70754279 85.33912984 73.36600051 76.68721671 58.27807617 70.66455078 C22.30469527 57.07478876 -23.33959518 56.66991331 -59.28442383 70.82861328 C-69.22845955 75.38983764 -76.89060849 80.8638693 -81.34692383 91.14111328 C-84.21477713 99.89922814 -84.5611422 108.99618805 -80.53442383 117.39111328 C-73.99499145 128.93630008 -58.26380564 133.70762877 -46.19213867 137.18164062 C-26.5226542 142.48341718 -6.4835603 145.86282494 13.64526367 148.84814453 C14.3668334 148.95523365 15.08840313 149.06232277 15.83183861 149.17265701 C23.16520498 150.25882533 30.50059945 151.32913859 37.84125805 152.36492729 C142.2304629 167.12016829 142.2304629 167.12016829 171.15307617 204.14111328 C185.43335811 223.99418817 189.17265898 247.85309952 185.96948242 271.84033203 C181.713813 294.84979892 169.57369977 315.13661024 150.52807617 328.82861328 C148.20405121 330.3996663 145.84713421 331.90890259 143.46557617 333.39111328 C142.86696777 333.76381348 142.26835938 334.13651367 141.65161133 334.52050781 C116.10469922 350.01551403 84.94908438 356.17497638 55.46557617 358.39111328 C54.35085938 358.47723877 53.23614258 358.56336426 52.08764648 358.65209961 C41.21010902 359.41767209 30.36779908 359.59221226 19.46557617 359.57861328 C18.56549835 359.57800903 17.66542053 359.57740479 16.73806763 359.57678223 C-41.02006716 359.47184306 -102.7065894 347.0044997 -145.1027832 304.83056641 C-145.57522461 304.35554688 -146.04766602 303.88052734 -146.53442383 303.39111328 C-147.85700195 302.06853516 -147.85700195 302.06853516 -149.20629883 300.71923828 C-162.32597222 286.94765565 -171.32006558 271.00977061 -175.53442383 252.39111328 C-175.76129883 251.40111328 -175.98817383 250.41111328 -176.22192383 249.39111328 C-176.70553932 244.74840453 -176.53442383 240.05894238 -176.53442383 235.39111328 C-150.13442383 235.39111328 -123.73442383 235.39111328 -96.53442383 235.39111328 C-94.55442383 240.67111328 -92.57442383 245.95111328 -90.53442383 251.39111328 C-77.92877022 273.96402789 -53.83316161 284.75700297 -30.02832031 291.70019531 C-16.48779407 295.4498795 -2.43643352 297.51844646 11.61010742 297.59423828 C12.45997726 297.59993835 13.30984711 297.60563843 14.18547058 297.61151123 C15.97796409 297.62089896 17.77047438 297.6274702 19.56298828 297.63134766 C22.233321 297.64095231 24.9028485 297.67199341 27.57299805 297.70361328 C51.44374213 297.85088532 80.33930162 294.94983677 98.49291992 277.65283203 C105.76260157 269.3178901 108.92890772 259.71813138 108.34057617 248.76611328 C107.41969804 241.50140798 105.24583023 236.58999532 99.65307617 231.76611328 C73.55557958 213.23310846 32.23457193 212.42061282 1.36474609 208.14111328 C-49.86973061 201.03191525 -112.5089474 191.73529796 -147.81176758 149.67236328 C-161.30253505 131.80703856 -165.86988524 111.348165 -163.06958008 89.27392578 C-159.48609078 65.74158521 -146.38307471 45.99073301 -127.42871094 31.83251953 C-91.21302847 5.64456895 -43.47087673 -0.23486378 0 0 Z " fill="#51565B" transform="translate(1889.534423828125,157.60888671875)"/>
<path d="M0 0 C0.88703613 0.04108887 1.77407227 0.08217773 2.68798828 0.12451172 C34.84219074 1.77791493 66.66437927 8.62806048 91 31 C91.5165918 31.46889648 92.03318359 31.93779297 92.56542969 32.42089844 C106.54344969 45.23753992 116.97268734 60.91806202 123 79 C123.33 54.91 123.66 30.82 124 6 C149.08 6 174.16 6 200 6 C200 93.45 200 180.9 200 271 C176.57 271 153.14 271 129 271 C127.3976387 262.98819351 126.23166745 255.34192239 125.4375 247.25 C125.30819092 245.93700928 125.17888184 244.62401855 125.0456543 243.27124023 C123.45742296 226.22683389 123.25228825 209.10681607 123 192 C122.74420166 192.56807373 122.48840332 193.13614746 122.22485352 193.72143555 C117.00662234 205.22153826 111.77782772 215.98621828 104 226 C103.25878906 226.96164062 102.51757812 227.92328125 101.75390625 228.9140625 C79.56848539 256.82847419 47.8723325 272.30308844 12.71435547 276.54638672 C8.23387332 277.02324912 3.79628582 277.1764879 -0.70703125 277.203125 C-1.5061644 277.21013931 -2.30529755 277.21715363 -3.12864685 277.22438049 C-5.68998934 277.24177034 -8.25110067 277.24823166 -10.8125 277.25 C-11.68749146 277.25067474 -12.56248291 277.25134949 -13.46398926 277.25204468 C-26.20784177 277.23641217 -38.53395198 276.88114304 -51 274 C-51.76505859 273.83371094 -52.53011719 273.66742188 -53.31835938 273.49609375 C-78.08062226 268.02040908 -101.59635588 257.44163894 -121 241 C-121.51256348 240.56574707 -122.02512695 240.13149414 -122.55322266 239.68408203 C-144.1798894 221.15757597 -158.99297714 196.84544817 -165 169 C-165.18618896 168.14510986 -165.37237793 167.29021973 -165.56420898 166.40942383 C-167.15742007 158.14867039 -167.33937731 150.02908101 -167.31567383 141.64770508 C-167.31252788 139.33300975 -167.33601249 137.01961538 -167.36132812 134.70507812 C-167.41971741 121.15219596 -165.84334856 107.7891522 -161.3125 94.9375 C-161.0561377 94.19838379 -160.79977539 93.45926758 -160.53564453 92.69775391 C-152.1300082 69.27098043 -136.87032843 48.99036989 -117 34 C-115.59041016 32.92492187 -115.59041016 32.92492187 -114.15234375 31.828125 C-81.42706331 8.01256608 -40.1582282 -1.94416101 0 0 Z M-68.74609375 83.77734375 C-78.95804346 95.35710408 -84.90529963 107.97370919 -88 123 C-88.22623047 124.06734375 -88.22623047 124.06734375 -88.45703125 125.15625 C-88.78007839 127.12037663 -88.91721528 129.00971725 -89 131 C-89.0515625 132.14597656 -89.103125 133.29195313 -89.15625 134.47265625 C-89.82847953 156.95468949 -83.32884743 177.34514123 -67.88671875 194.140625 C-46.42438291 215.29191249 -16.36461596 223.43737793 13.0625 223.3125 C14.07389038 223.31026428 14.07389038 223.31026428 15.10571289 223.3079834 C26.60542239 223.26250586 37.74002113 222.42554791 49 220 C49.66837891 219.86078125 50.33675781 219.7215625 51.02539062 219.578125 C74.91690748 214.43299276 98.33163355 201.77250702 112 181 C123.52072916 161.46715143 126.32349162 141.22229887 122 119 C116.01335223 97.67397927 103.33378772 81.3594703 84.00341797 70.49755859 C39.38417788 46.36319361 -31.21835856 45.82255041 -68.74609375 83.77734375 Z " fill="#51565B" transform="translate(1396,238)"/>
<path d="M0 0 C54.42257159 -1.47088031 114.17298087 9.01124375 155.20141602 47.46655273 C170.55356194 62.29460572 181.81097517 80.58827056 187.63671875 101.12890625 C187.83160889 101.81170654 188.02649902 102.49450684 188.22729492 103.19799805 C191.41802068 115.24231983 192.20594985 127.40330778 192.13671875 139.81640625 C192.1345636 140.51606506 192.13240845 141.21572388 192.13018799 141.93658447 C191.9562116 177.22965625 179.76007183 206.77499165 154.63208008 231.67871094 C113.98523361 270.73465295 52.79609651 279.20131591 -1.1953125 278.2890625 C-54.54501391 277.1435588 -107.63515439 263.5920157 -146.70703125 225.60546875 C-170.67335093 200.20454542 -179.07723241 166.54025627 -178.08837891 132.33422852 C-176.56201558 98.70583846 -163.35647941 69.10845782 -139.1796875 45.72265625 C-129.58851748 37.03096066 -118.63390735 30.01733753 -107.17578125 24.06640625 C-106.54510742 23.73543945 -105.91443359 23.40447266 -105.26464844 23.06347656 C-72.9463595 6.33608085 -35.97678036 1.09803459 0 0 Z M-72.17578125 79.06640625 C-72.81773437 79.55625 -73.4596875 80.04609375 -74.12109375 80.55078125 C-86.88354807 90.73785242 -96.40763756 107.40687813 -98.89453125 123.52929688 C-101.32034338 145.41214381 -99.69899629 167.79135344 -85.86376953 185.77148438 C-82.83888996 189.41986173 -79.57013419 192.76216888 -76.17578125 196.06640625 C-75.17417969 197.06414062 -75.17417969 197.06414062 -74.15234375 198.08203125 C-51.8184683 219.00237028 -17.80372486 224.72604371 11.734375 224.25390625 C39.94232547 223.15230213 68.21719035 216.25195733 89.82421875 197.06640625 C90.51 196.47472656 91.19578125 195.88304687 91.90234375 195.2734375 C105.72008676 182.51650547 113.38244081 164.18562485 114.16015625 145.55859375 C114.54276583 121.93869036 109.42409353 101.88054843 93.015625 84.25390625 C71.59710317 62.35738011 40.72993625 54.40784699 10.87304688 53.71484375 C-19.04414537 53.48485893 -48.46922868 60.06923618 -72.17578125 79.06640625 Z " fill="#51565B" transform="translate(2270.17578125,237.93359375)"/>
<path d="M0 0 C25.41 0 50.82 0 77 0 C77 122.43 77 244.86 77 371 C51.59 371 26.18 371 0 371 C0 248.57 0 126.14 0 0 Z " fill="#51565B" transform="translate(2484,138)"/>
<path d="M0 0 C25.41 0 50.82 0 77 0 C77 122.43 77 244.86 77 371 C51.59 371 26.18 371 0 371 C0 248.57 0 126.14 0 0 Z " fill="#51565B" transform="translate(1618,138)"/>
<path d="" fill="#51565B" transform="translate(0,0)"/>
</svg>
