<?xml version="1.0" encoding="UTF-8"?>
<svg version="1.1" xmlns="http://www.w3.org/2000/svg" width="2964" height="2933">
<path d="M0 0 C0.67503571 0.00215515 1.35007141 0.0043103 2.04556274 0.00653076 C42.08888396 0.21070396 78.26604015 15.55942438 107.6875 42.4375 C108.19877441 42.90389893 108.71004883 43.37029785 109.23681641 43.85083008 C112.73638969 47.12167679 115.88308751 50.61985781 119.00927734 54.24658203 C121.97675659 57.64636668 125.08657955 60.90982025 128.1875 64.1875 C133.00642282 69.30293571 137.76962365 74.45560466 142.44921875 79.69921875 C146.08961562 83.72471546 149.80659931 87.67797354 153.51538086 91.64038086 C158.07726756 96.51683807 162.5995484 101.42732453 167.10546875 106.35546875 C169.97740659 109.49583159 172.86256534 112.62388814 175.75 115.75 C176.49854248 116.56041748 176.49854248 116.56041748 177.26220703 117.38720703 C178.27354672 118.48198306 179.28494008 119.5767095 180.29638672 120.67138672 C182.80264104 123.38427586 185.30750446 126.09844859 187.8125 128.8125 C188.81249324 129.89583957 189.81249324 130.97917291 190.8125 132.0625 C212.8125 155.89583333 234.8125 179.72916667 256.8125 203.5625 C257.30758057 204.09883057 257.80266113 204.63516113 258.31274414 205.18774414 C259.31195738 206.27023871 260.31114362 207.35275821 261.31030273 208.43530273 C263.82211835 211.15667508 266.33441333 213.87760195 268.84765625 216.59765625 C274.13362683 222.31958317 279.40960804 228.05033427 284.67041016 233.79541016 C289.53091122 239.10109486 294.41330912 244.38648724 299.29638672 249.67138672 C301.80264104 252.38427586 304.30750446 255.09844859 306.8125 257.8125 C307.81249324 258.89583957 308.81249324 259.97917291 309.8125 261.0625 C343.8125 297.89583333 377.8125 334.72916667 411.8125 371.5625 C412.55512085 372.36699585 412.55512085 372.36699585 413.31274414 373.18774414 C414.31195738 374.27023871 415.31114362 375.35275821 416.31030273 376.43530273 C418.82211835 379.15667508 421.33441333 381.87760195 423.84765625 384.59765625 C429.13362683 390.31958317 434.40960804 396.05033427 439.67041016 401.79541016 C444.53091122 407.10109486 449.41330912 412.38648724 454.29638672 417.67138672 C456.80264104 420.38427586 459.30750446 423.09844859 461.8125 425.8125 C462.81249324 426.89583957 463.81249324 427.97917291 464.8125 429.0625 C515.8125 484.3125 515.8125 484.3125 566.8125 539.5625 C567.55512085 540.36699585 567.55512085 540.36699585 568.31274414 541.18774414 C569.31195738 542.27023871 570.31114362 543.35275821 571.31030273 544.43530273 C573.82211835 547.15667508 576.33441333 549.87760195 578.84765625 552.59765625 C584.13362683 558.31958317 589.40960804 564.05033427 594.67041016 569.79541016 C599.53091122 575.10109486 604.41330912 580.38648724 609.29638672 585.67138672 C611.80264104 588.38427586 614.30750446 591.09844859 616.8125 593.8125 C617.81249324 594.89583957 618.81249324 595.97917291 619.8125 597.0625 C649.8125 629.5625 679.8125 662.0625 709.8125 694.5625 C710.55512085 695.36699585 710.55512085 695.36699585 711.31274414 696.18774414 C712.31195738 697.27023871 713.31114362 698.35275821 714.31030273 699.43530273 C716.82211835 702.15667508 719.33441333 704.87760195 721.84765625 707.59765625 C727.13362683 713.31958317 732.40960804 719.05033427 737.67041016 724.79541016 C742.53091122 730.10109486 747.41330912 735.38648724 752.29638672 740.67138672 C753.80344817 742.30270187 755.3100303 743.93445809 756.81640625 745.56640625 C757.31108398 746.10217285 757.80576172 746.63793945 758.31542969 747.18994141 C759.31287802 748.27099843 760.30962408 749.35270384 761.30566406 750.43505859 C763.82634058 753.17223998 766.35917579 755.89603947 768.91796875 758.59765625 C786.03527683 776.73250219 795.60626334 793.76407227 795.125 819.00390625 C794.34223715 837.27163423 785.66190686 853.24770843 772.4375 865.5625 C756.54276613 878.99733458 736.2323112 882.02363363 716.47265625 886.4140625 C713.83939291 887.0051882 711.20627705 887.59693746 708.57333374 888.18948364 C702.94606123 889.45465712 697.31757823 890.7143147 691.6882019 891.97009277 C683.54063532 893.78767007 675.39507609 895.61411368 667.25001681 897.44289017 C654.97896644 900.19795168 642.70686342 902.94828297 630.43388975 905.69476318 C612.242184 909.76583461 594.05382161 913.85164876 575.8671875 917.9453125 C575.19152229 918.09739623 574.51585708 918.24947995 573.81971717 918.40617228 C567.80812866 919.75932381 561.79656614 921.11259077 555.7850523 922.46607399 C548.2560046 924.16112665 540.72668348 925.85495605 533.19702053 927.54727364 C529.64970837 928.34455462 526.10246125 929.14212444 522.55522156 929.93972778 C518.03960397 930.95502737 513.52371369 931.96910185 509.00764465 932.98239136 C498.40375984 935.36378645 487.80626873 937.76930448 477.21923828 940.22460938 C474.22828268 940.91532339 471.23722021 941.60557306 468.24614143 942.29575348 C465.52589656 942.9262968 462.80779658 943.56550611 460.08970642 944.20526123 C432.08261019 950.7170476 407.36665835 951.25249198 381.8125 936.3125 C372.37973696 930.396233 364.74535093 922.85226247 357.46875 914.484375 C353.92915105 910.41679064 350.26639521 906.48024036 346.5625 902.5625 C341.16013096 896.82435663 335.79990086 891.05314591 330.484375 885.234375 C327.62372345 882.10606015 324.7514025 878.9888228 321.875 875.875 C321.12633667 875.06446167 321.12633667 875.06446167 320.36254883 874.23754883 C319.35129388 873.14285108 318.33998188 872.04820604 317.32861328 870.95361328 C314.82235896 868.24072414 312.31749554 865.52655141 309.8125 862.8125 C308.81250676 861.72916043 307.81250676 860.64582709 306.8125 859.5625 C296.8125 848.72916667 286.8125 837.89583333 276.8125 827.0625 C276.06987915 826.25800415 276.06987915 826.25800415 275.31225586 825.43725586 C274.31304262 824.35476129 273.31385638 823.27224179 272.31469727 822.18969727 C269.80288165 819.46832492 267.29058667 816.74739805 264.77734375 814.02734375 C259.49137317 808.30541683 254.21539196 802.57466573 248.95458984 796.82958984 C244.09408878 791.52390514 239.21169088 786.23851276 234.32861328 780.95361328 C231.82235896 778.24072414 229.31749554 775.52655141 226.8125 772.8125 C225.81250676 771.72916043 224.81250676 770.64582709 223.8125 769.5625 C205.8125 750.0625 187.8125 730.5625 169.8125 711.0625 C169.06987915 710.25800415 169.06987915 710.25800415 168.31225586 709.43725586 C167.31304262 708.35476129 166.31385638 707.27224179 165.31469727 706.18969727 C162.80288165 703.46832492 160.29058667 700.74739805 157.77734375 698.02734375 C152.49137317 692.30541683 147.21539196 686.57466573 141.95458984 680.82958984 C137.09408878 675.52390514 132.21169088 670.23851276 127.32861328 664.95361328 C124.32362097 661.70086637 121.32041775 658.44646737 118.31713867 655.19213867 C115.79341256 652.45765612 113.26873326 649.72406523 110.7421875 646.9921875 C104.39780053 640.12987078 98.08669555 633.23910084 91.8125 626.3125 C90.336681 629.11122236 89.23321441 631.8564228 88.28222656 634.87231445 C87.99211197 635.78693954 87.70199738 636.70156464 87.40309143 637.64390564 C87.08960251 638.64442459 86.77611359 639.64494354 86.453125 640.67578125 C85.9485099 642.27317894 85.9485099 642.27317894 85.43370056 643.90284729 C84.30637869 647.47577835 83.18430533 651.05033336 82.0625 654.625 C81.46395781 656.52624445 80.86541314 658.42748814 80.26666164 660.32866669 C73.06999473 683.18546324 65.98188979 706.07591719 58.90281105 728.96934605 C52.42037204 749.93216746 45.88779157 770.87862717 39.3125 791.8125 C32.09365164 814.79649219 24.93120562 837.79729631 17.8125 860.8125 C10.47976914 884.51966016 3.09702454 908.21040087 -4.33856201 931.88549805 C-11.33979142 954.17866194 -18.28281889 976.48925045 -25.1875 998.8125 C-32.52023086 1022.51966016 -39.90297546 1046.21040087 -47.33856201 1069.88549805 C-54.33979142 1092.17866194 -61.28281889 1114.48925045 -68.1875 1136.8125 C-75.52023086 1160.51966016 -82.90297546 1184.21040087 -90.33856201 1207.88549805 C-97.33979162 1230.17866256 -104.28270272 1252.48928598 -111.1875 1274.8125 C-120.57384385 1305.15787558 -130.05128353 1335.4740458 -139.56872559 1365.77853394 C-144.12339537 1380.28514071 -148.65597066 1394.79865112 -153.1875 1409.3125 C-151.58316101 1408.93665771 -151.58316101 1408.93665771 -149.94641113 1408.55322266 C-123.8786648 1402.45073057 -97.78287554 1396.48667676 -71.65512085 1390.64678955 C-60.96291216 1388.25676985 -50.27257369 1385.85839694 -39.58203125 1383.4609375 C-37.90421287 1383.08473833 -37.90421287 1383.08473833 -36.19249916 1382.70093918 C-9.91356336 1376.80827201 16.35687512 1370.87815235 42.625 1364.9375 C44.39088848 1364.53815624 44.39088848 1364.53815624 46.19245148 1364.13074493 C103.03837416 1351.27475306 159.87348081 1338.3710511 216.70835876 1325.46633911 C237.52666468 1320.73942551 258.34524488 1316.01372185 279.1640625 1311.2890625 C279.8895943 1311.12440853 280.6151261 1310.95975455 281.36264372 1310.79011106 C287.95358569 1309.29434746 294.54453094 1307.79859828 301.13548088 1306.3028698 C311.40072165 1303.97330949 321.66594403 1301.64366815 331.93115234 1299.31396484 C332.65837281 1299.14892118 333.38559329 1298.98387751 334.13485074 1298.81383252 C337.80810525 1297.98018202 341.48135944 1297.14653015 345.15461349 1296.31287766 C351.76456632 1294.81273608 358.37452191 1293.31260673 364.98447728 1291.8124764 C368.6563183 1290.97915143 372.32815914 1290.14582567 376 1289.3125 C377.46875 1288.97916666 378.9375 1288.64583333 380.40625 1288.3125 C381.49679687 1288.065 381.49679687 1288.065 382.609375 1287.8125 C389.21874161 1286.3125019 389.21874161 1286.3125019 391.4218747 1285.81250012 C392.89062573 1285.47916652 394.35937672 1285.14583279 395.82812768 1284.81249893 C399.49998679 1283.9791686 403.1718464 1283.14584055 406.84370708 1282.31251717 C413.45327246 1280.81248371 420.06283423 1279.31243435 426.67237657 1277.81229937 C430.34448872 1276.97885884 434.0166039 1276.14543173 437.6887207 1275.31201172 C438.41578992 1275.14699653 439.14285913 1274.98198135 439.89196074 1274.8119657 C450.16943834 1272.47942356 460.44708665 1270.14763485 470.72484124 1267.81631351 C477.33092205 1266.31781534 483.9369528 1264.81909658 490.54296875 1263.3203125 C491.26968647 1263.15543791 491.99640419 1262.99056333 492.74514365 1262.82069254 C513.36352173 1258.14278708 533.97944214 1253.45420343 554.59329456 1248.75639677 C623.29491721 1233.1000214 692.04037947 1217.66669527 760.86114502 1202.54241943 C761.54924074 1202.3912003 762.23733647 1202.23998117 762.94628358 1202.08417964 C766.41422925 1201.32206162 769.88219178 1200.5600205 773.35018158 1199.79810333 C795.13324415 1195.0120162 816.90878744 1190.19266439 838.6796875 1185.3515625 C839.41243716 1185.18863583 840.14518681 1185.02570915 840.900141 1184.85784531 C855.04442665 1181.71278579 869.18804756 1178.56474261 883.33109713 1175.41412938 C889.08722466 1174.1318911 894.84356803 1172.85062354 900.59996414 1171.56959152 C904.04041806 1170.80357605 907.48059075 1170.03630754 910.92074585 1169.26895142 C920.39102428 1167.15898092 929.86416188 1165.06206958 939.35229492 1163.03369141 C940.09717069 1162.87217276 940.84204645 1162.71065411 941.60949421 1162.54424095 C967.72551527 1157.01789892 993.50826806 1161.29766401 1016.3671875 1174.9921875 C1031.91160268 1185.139113 1043.40712269 1198.87782489 1051.8125 1215.3125 C1052.29589844 1216.25351563 1052.77929688 1217.19453125 1053.27734375 1218.1640625 C1058.83752853 1230.16324547 1061.13337235 1243.8375408 1061.25 1257 C1061.2600708 1257.68586182 1061.2701416 1258.37172363 1061.28051758 1259.07836914 C1060.97439876 1277.93832778 1054.13433619 1295.88645744 1048.42715073 1313.63228607 C1047.16787326 1317.55698169 1045.92168168 1321.48582403 1044.67504883 1325.41455078 C1044.16880202 1327.00949876 1043.66253064 1328.60443894 1043.15623474 1330.19937134 C1042.90561216 1330.98890827 1042.65498959 1331.77844521 1042.39677238 1332.5919075 C1041.63667696 1334.98450654 1040.87514866 1337.37664493 1040.11317444 1339.76864624 C1035.83025645 1353.21761849 1031.64690614 1366.69598124 1027.5 1380.1875 C1020.60457327 1402.5822938 1013.62236897 1424.9494068 1006.625 1447.3125 C998.65001161 1472.80098715 990.70545304 1498.29848941 982.8125 1523.8125 C975.06120062 1548.86684673 967.26567656 1573.90706643 959.4375 1598.9375 C959.176558 1599.7718885 958.915616 1600.60627701 958.64676666 1601.46595001 C957.32839154 1605.6815831 956.00997529 1609.89720332 954.69155884 1614.11282349 C954.43050983 1614.947533 954.16946083 1615.78224251 953.90050125 1616.64224625 C953.37292055 1618.32918726 952.84533011 1620.01612522 952.31772995 1621.70306015 C946.4303136 1640.52788001 940.55640516 1659.35690171 934.6875 1678.1875 C934.31733387 1679.37512121 934.31733387 1679.37512121 933.93968964 1680.58673477 C925.81712969 1706.64703279 917.71327374 1732.71312119 909.61618042 1758.78134155 C902.81286641 1780.68358765 895.98382518 1802.57764012 889.13492966 1824.46567154 C882.42733946 1845.90303281 875.76509649 1867.35414394 869.125 1888.8125 C861.26887405 1914.19996958 853.36993171 1939.57376928 845.4375 1964.9375 C845.17689159 1965.770821 844.91628319 1966.604142 844.64777756 1967.46271515 C843.32929386 1971.67869395 842.01076974 1975.8946601 840.69224548 1980.11062622 C840.30048787 1981.36327963 840.30048787 1981.36327963 839.90081596 1982.64123917 C839.3731018 1984.32860744 838.84537785 1986.01597265 838.31764412 1987.70333481 C832.43025635 2006.52806311 826.55637661 2025.35699328 820.6875 2044.1875 C820.31733387 2045.37512121 820.31733387 2045.37512121 819.93968964 2046.58673477 C811.81712969 2072.64703279 803.71327374 2098.71312119 795.61618042 2124.78134155 C788.81286641 2146.68358765 781.98382518 2168.57764012 775.13492966 2190.46567154 C768.42733946 2211.90303281 761.76509649 2233.35414394 755.125 2254.8125 C747.26887392 2280.19996999 739.3698174 2305.57373328 731.4375 2330.9375 C730.91113081 2332.62067605 730.38476362 2334.30385273 729.85839844 2335.98703003 C728.80408061 2339.35840779 727.74974735 2342.72978072 726.69540405 2346.10115051 C726.4343626 2346.93586191 726.17332115 2347.77057331 725.90436935 2348.63057899 C725.37689523 2350.3172262 724.84941161 2352.00387044 724.32191849 2353.6905117 C719.16649972 2370.17512464 714.01843852 2386.662025 708.8777132 2403.15122604 C707.38461026 2407.94017646 705.89018017 2412.72871008 704.39472294 2417.51692581 C699.38255965 2433.56735361 694.39969902 2449.62590986 689.49059486 2465.70818901 C688.0034925 2470.57605936 686.51065403 2475.44217497 685.01805401 2480.30836201 C683.84502254 2484.13531823 682.67647225 2487.96351792 681.51895142 2491.79519653 C671.12773478 2526.18113015 658.02644979 2555.46621379 633.8125 2582.3125 C633.13703125 2583.06144531 632.4615625 2583.81039062 631.765625 2584.58203125 C601.84182503 2615.97644532 561.52699839 2627.37653013 520.62109375 2636.5625 C517.93013795 2637.16969839 515.23948367 2637.77822835 512.54881287 2638.38668823 C506.04825871 2639.85585916 499.54664903 2641.3203046 493.04466313 2642.78312457 C485.39581159 2644.50418874 477.74812189 2646.23039008 470.10044432 2647.95666194 C451.86875451 2652.07171299 433.63490048 2656.17713053 415.40048981 2660.28010559 C410.94474918 2661.28271261 406.48906202 2662.28555707 402.03338623 2663.28845215 C371.58555271 2670.14159586 341.13582184 2676.98627487 310.68487811 2683.82558441 C282.18331827 2690.22709065 253.68487683 2696.64240095 225.1875 2703.0625 C222.89746118 2703.57840074 220.60742212 2704.0943004 218.31738281 2704.61019897 C209.23280857 2706.65678592 200.14824785 2708.70343287 191.0637207 2710.75022888 C176.4689981 2714.03846226 161.87401394 2717.32553239 147.27883339 2720.61173248 C107.34459412 2729.60321202 67.41081583 2738.59671819 27.48046875 2747.60546875 C26.79515375 2747.76008292 26.10983874 2747.91469709 25.40375662 2748.07399654 C17.71467489 2749.80873769 10.02560901 2751.54354907 2.33654785 2753.27838135 C-0.48396793 2753.914755 -3.3044839 2754.5511278 -6.125 2755.1875 C-7.172599 2755.42386248 -7.172599 2755.42386248 -8.24136162 2755.66499996 C-56.54393254 2766.5631356 -104.85080274 2777.44201272 -153.16055298 2788.30828667 C-155.61875179 2788.86120742 -158.07695034 2789.41412935 -160.53514862 2789.96705246 C-162.97924458 2790.51680278 -165.42334146 2791.06654899 -167.86743927 2791.61629105 C-194.99609305 2797.71832831 -222.12321621 2803.82715576 -249.25 2809.9375 C-251.54840082 2810.45521062 -253.8468017 2810.97292099 -256.14520264 2811.4906311 C-265.29869832 2813.5524495 -274.45218371 2815.6143136 -283.60565186 2817.67625427 C-305.49049913 2822.60610609 -327.37552373 2827.53517044 -349.26057339 2832.46412373 C-357.37807361 2834.29235269 -365.49555865 2836.12064903 -373.61303711 2837.94897461 C-395.34125611 2842.8428685 -417.06955279 2847.73641677 -438.79810524 2852.62882996 C-448.96960299 2854.91907418 -459.14105994 2857.20949958 -469.3125 2859.5 C-470.43968067 2859.75382698 -471.56686134 2860.00765396 -472.72819901 2860.26917267 C-507.60715949 2868.12358958 -542.48400398 2875.98735745 -577.35971141 2883.85620284 C-600.40631023 2889.05609665 -623.45331774 2894.25417847 -646.50050926 2899.45144463 C-653.6132246 2901.0554029 -660.72591831 2902.65945699 -667.83856201 2904.26373291 C-683.41310603 2907.77656217 -698.98791207 2911.28822337 -714.56344509 2914.79666519 C-721.16985423 2916.28480946 -727.7761264 2917.77355472 -734.38204956 2919.26385498 C-740.50358636 2920.64485094 -746.6255076 2922.02412946 -752.74772835 2923.40209007 C-754.97366308 2923.90339609 -757.19946181 2924.40530649 -759.42510796 2924.90789223 C-789.77591276 2931.76052857 -819.16722534 2937.22310327 -850.1875 2930.3125 C-850.84459961 2930.16796387 -851.50169922 2930.02342773 -852.17871094 2929.87451172 C-888.2787134 2921.66335247 -916.34477292 2901.06934581 -940.73583984 2873.92138672 C-943.19512569 2871.19574027 -945.69340256 2868.50625457 -948.1875 2865.8125 C-949.18768245 2864.72933511 -950.18768259 2863.64600185 -951.1875 2862.5625 C-951.93 2861.758125 -951.93 2861.758125 -952.6875 2860.9375 C-974.1875 2837.64583333 -995.6875 2814.35416667 -1017.1875 2791.0625 C-1017.68258057 2790.52616943 -1018.17766113 2789.98983887 -1018.68774414 2789.43725586 C-1019.68695738 2788.35476129 -1020.68614362 2787.27224179 -1021.68530273 2786.18969727 C-1024.19711835 2783.46832492 -1026.70941333 2780.74739805 -1029.22265625 2778.02734375 C-1034.50862683 2772.30541683 -1039.78460804 2766.57466573 -1045.04541016 2760.82958984 C-1049.90591122 2755.52390514 -1054.78830912 2750.23851276 -1059.67138672 2744.95361328 C-1062.17764104 2742.24072414 -1064.68250446 2739.52655141 -1067.1875 2736.8125 C-1068.18749324 2735.72916043 -1069.18749324 2734.64582709 -1070.1875 2733.5625 C-1096.1875 2705.39583333 -1122.1875 2677.22916667 -1148.1875 2649.0625 C-1148.68258057 2648.52616943 -1149.17766113 2647.98983887 -1149.68774414 2647.43725586 C-1150.68695738 2646.35476129 -1151.68614362 2645.27224179 -1152.68530273 2644.18969727 C-1155.19711835 2641.46832492 -1157.70941333 2638.74739805 -1160.22265625 2636.02734375 C-1165.50862683 2630.30541683 -1170.78460804 2624.57466573 -1176.04541016 2618.82958984 C-1180.90591122 2613.52390514 -1185.78830912 2608.23851276 -1190.67138672 2602.95361328 C-1193.17764104 2600.24072414 -1195.68250446 2597.52655141 -1198.1875 2594.8125 C-1199.18749324 2593.72916043 -1200.18749324 2592.64582709 -1201.1875 2591.5625 C-1227.1875 2563.39583333 -1253.1875 2535.22916667 -1279.1875 2507.0625 C-1279.68258057 2506.52616943 -1280.17766113 2505.98983887 -1280.68774414 2505.43725586 C-1281.68695738 2504.35476129 -1282.68614362 2503.27224179 -1283.68530273 2502.18969727 C-1286.19711835 2499.46832492 -1288.70941333 2496.74739805 -1291.22265625 2494.02734375 C-1296.50862683 2488.30541683 -1301.78460804 2482.57466573 -1307.04541016 2476.82958984 C-1311.90591122 2471.52390514 -1316.78830912 2466.23851276 -1321.67138672 2460.95361328 C-1324.17764104 2458.24072414 -1326.68250446 2455.52655141 -1329.1875 2452.8125 C-1330.18749324 2451.72916043 -1331.18749324 2450.64582709 -1332.1875 2449.5625 C-1354.1875 2425.72916667 -1376.1875 2401.89583333 -1398.1875 2378.0625 C-1398.68258057 2377.52616943 -1399.17766113 2376.98983887 -1399.68774414 2376.43725586 C-1400.68695738 2375.35476129 -1401.68614362 2374.27224179 -1402.68530273 2373.18969727 C-1405.19711835 2370.46832492 -1407.70941333 2367.74739805 -1410.22265625 2365.02734375 C-1415.50862683 2359.30541683 -1420.78460804 2353.57466573 -1426.04541016 2347.82958984 C-1430.90591122 2342.52390514 -1435.78830912 2337.23851276 -1440.67138672 2331.95361328 C-1443.17764104 2329.24072414 -1445.68250446 2326.52655141 -1448.1875 2323.8125 C-1449.18749324 2322.72916043 -1450.18749324 2321.64582709 -1451.1875 2320.5625 C-1477.1875 2292.39583333 -1503.1875 2264.22916667 -1529.1875 2236.0625 C-1529.68258057 2235.52616943 -1530.17766113 2234.98983887 -1530.68774414 2234.43725586 C-1531.68695738 2233.35476129 -1532.68614362 2232.27224179 -1533.68530273 2231.18969727 C-1536.19711835 2228.46832492 -1538.70941333 2225.74739805 -1541.22265625 2223.02734375 C-1546.50862683 2217.30541683 -1551.78460804 2211.57466573 -1557.04541016 2205.82958984 C-1561.90591122 2200.52390514 -1566.78830912 2195.23851276 -1571.67138672 2189.95361328 C-1574.17764104 2187.24072414 -1576.68250446 2184.52655141 -1579.1875 2181.8125 C-1580.18749324 2180.72916043 -1581.18749324 2179.64582709 -1582.1875 2178.5625 C-1621.1875 2136.3125 -1621.1875 2136.3125 -1660.1875 2094.0625 C-1660.68258057 2093.52616943 -1661.17766113 2092.98983887 -1661.68774414 2092.43725586 C-1662.68695738 2091.35476129 -1663.68614362 2090.27224179 -1664.68530273 2089.18969727 C-1667.19711835 2086.46832492 -1669.70941333 2083.74739805 -1672.22265625 2081.02734375 C-1677.50862683 2075.30541683 -1682.78460804 2069.57466573 -1688.04541016 2063.82958984 C-1692.90591122 2058.52390514 -1697.78830912 2053.23851276 -1702.67138672 2047.95361328 C-1705.17764104 2045.24072414 -1707.68250446 2042.52655141 -1710.1875 2039.8125 C-1711.18749324 2038.72916043 -1712.18749324 2037.64582709 -1713.1875 2036.5625 C-1735.1875 2012.72916667 -1757.1875 1988.89583333 -1779.1875 1965.0625 C-1779.68258057 1964.52616943 -1780.17766113 1963.98983887 -1780.68774414 1963.43725586 C-1781.68695738 1962.35476129 -1782.68614362 1961.27224179 -1783.68530273 1960.18969727 C-1786.19711835 1957.46832492 -1788.70941333 1954.74739805 -1791.22265625 1952.02734375 C-1796.50862683 1946.30541683 -1801.78460804 1940.57466573 -1807.04541016 1934.82958984 C-1811.90591122 1929.52390514 -1816.78830912 1924.23851276 -1821.67138672 1918.95361328 C-1824.17764104 1916.24072414 -1826.68250446 1913.52655141 -1829.1875 1910.8125 C-1830.18749324 1909.72916043 -1831.18749324 1908.64582709 -1832.1875 1907.5625 C-1834.1875 1905.39583333 -1836.1875 1903.22916667 -1838.1875 1901.0625 C-1838.68266113 1900.52608887 -1839.17782227 1899.98967773 -1839.68798828 1899.43701172 C-1840.68641478 1898.35535592 -1841.68478731 1897.27365032 -1842.68310547 1896.19189453 C-1845.71651097 1892.90512792 -1848.75183113 1889.62014568 -1851.7890625 1886.33691406 C-1853.30230245 1884.69854081 -1854.81133418 1883.05636024 -1856.3203125 1881.4140625 C-1858.10822982 1879.47088182 -1859.91411144 1877.55477981 -1861.7421875 1875.6484375 C-1888.49184624 1847.36045972 -1903.27220175 1810.21103173 -1903.48266602 1771.39111328 C-1903.49402563 1769.94700192 -1903.51421286 1768.50292692 -1903.54418945 1767.05908203 C-1904.05334595 1742.38632514 -1896.59078692 1719.76805504 -1889.16539383 1696.54125595 C-1887.81279965 1692.29938214 -1886.47615284 1688.05248981 -1885.13842773 1683.8059082 C-1883.47399309 1678.52516116 -1881.80833957 1673.24481523 -1880.13618469 1667.96650696 C-1876.51268423 1656.52842759 -1872.92154252 1645.08084746 -1869.3671875 1633.62109375 C-1869.13427505 1632.8702117 -1868.90136261 1632.11932964 -1868.66139221 1631.34569359 C-1867.49116876 1627.57228671 -1866.32165326 1623.79866086 -1865.15246582 1620.02493286 C-1862.7858875 1612.38760293 -1860.41269674 1604.7523269 -1858.0390625 1597.1171875 C-1857.80153763 1596.35307871 -1857.56401276 1595.58896992 -1857.31929016 1594.80170631 C-1851.18051014 1575.05587606 -1845.00438236 1555.32172349 -1838.83098221 1535.58669662 C-1831.24648456 1511.33990671 -1823.69631974 1487.08282999 -1816.1875 1462.8125 C-1808.43594177 1437.75823327 -1800.6407893 1412.71789914 -1792.8125 1387.6875 C-1792.55141071 1386.85266964 -1792.29032143 1386.01783928 -1792.02132034 1385.15771103 C-1791.22980218 1382.62686531 -1790.43826829 1380.09602451 -1789.64672852 1377.56518555 C-1788.85512976 1375.03415652 -1788.06353347 1372.50312672 -1787.27194786 1369.97209358 C-1786.74412711 1368.28443151 -1786.21629635 1366.59677256 -1785.68845558 1364.90911674 C-1779.8219371 1346.15149401 -1773.97159351 1327.38884129 -1768.125 1308.625 C-1767.87863674 1307.83434772 -1767.63227348 1307.04369545 -1767.37844467 1306.22908401 C-1765.14094542 1299.04826582 -1762.90354892 1291.86741561 -1760.66633606 1284.68650818 C-1757.41603052 1274.25402374 -1754.16421002 1263.82201253 -1750.91135216 1253.39032364 C-1738.57682921 1213.83611902 -1738.57682921 1213.83611902 -1726.26953125 1174.2734375 C-1726.02724667 1173.49361259 -1725.78496208 1172.71378769 -1725.53533554 1171.91033173 C-1723.59460839 1165.66364683 -1721.65411748 1159.41688854 -1719.71380615 1153.17007446 C-1712.66986539 1130.4922753 -1705.60131861 1107.82233211 -1698.50992966 1085.15932846 C-1691.80233946 1063.72196719 -1685.14009649 1042.27085606 -1678.5 1020.8125 C-1670.64387418 995.42503083 -1662.74504596 970.05119474 -1654.8125 944.6875 C-1654.55174431 943.85373714 -1654.29098862 943.01997429 -1654.02233124 942.16094589 C-1653.2308828 939.63032403 -1652.43941886 937.09970702 -1651.64794922 934.5690918 C-1650.85604842 932.03709639 -1650.06415013 929.50510021 -1649.27226257 926.97310066 C-1648.74430837 925.28501132 -1648.21634409 923.59692513 -1647.68836975 921.90884209 C-1641.82187985 903.15131091 -1635.97156498 884.38874971 -1630.125 865.625 C-1629.87863674 864.83434772 -1629.63227348 864.04369545 -1629.37844467 863.22908401 C-1627.14094542 856.04826582 -1624.90354892 848.86741561 -1622.66633606 841.68650818 C-1619.41603052 831.25402374 -1616.16421002 820.82201253 -1612.91135216 810.39032364 C-1600.57682921 770.83611902 -1600.57682921 770.83611902 -1588.26953125 731.2734375 C-1588.02724667 730.49361259 -1587.78496208 729.71378769 -1587.53533554 728.91033173 C-1585.59460839 722.66364683 -1583.65411748 716.41688854 -1581.71380615 710.17007446 C-1574.67046583 687.49420841 -1567.6028181 664.82610313 -1560.51171494 642.16513062 C-1553.48442888 619.70741506 -1546.50989 597.23366861 -1539.55496216 574.75344849 C-1534.3512903 557.93436011 -1529.13769511 541.11859575 -1523.8671875 524.3203125 C-1523.64975828 523.62724188 -1523.43232906 522.93417126 -1523.20831108 522.2200985 C-1521.0366318 515.2987098 -1518.86234077 508.37814765 -1516.68421459 501.45878506 C-1512.13970512 487.01865636 -1507.6386874 472.56694682 -1503.23336983 458.08367729 C-1502.52250358 455.74804716 -1501.8101165 453.41288675 -1501.09715271 451.07789612 C-1500.86397496 450.31414767 -1500.63079721 449.55039923 -1500.39055347 448.76350689 C-1499.92326555 447.23304825 -1499.45591904 445.70260751 -1498.98851299 444.17218494 C-1497.86505732 440.4904843 -1496.74631631 436.80748382 -1495.63864136 433.1210022 C-1485.59715923 399.71261141 -1473.47324654 371.8274331 -1449.1875 346.3125 C-1448.29804687 345.34376953 -1448.29804687 345.34376953 -1447.390625 344.35546875 C-1435.8109153 332.11651815 -1420.74778281 323.30208932 -1405.6875 316.0625 C-1405.06069336 315.75747559 -1404.43388672 315.45245117 -1403.78808594 315.13818359 C-1389.12565049 308.32247088 -1373.37094964 305.08604086 -1357.6875 301.5625 C-1355.06937075 300.96841059 -1352.45137679 300.37374611 -1349.83349609 299.77856445 C-1342.95229108 298.215985 -1336.06888805 296.6632683 -1329.1848011 295.11344051 C-1322.54230963 293.61798523 -1315.90043464 292.11981285 -1309.25878906 290.62060547 C-1283.60231217 284.82986502 -1257.94276834 279.05281133 -1232.28179932 273.28201294 C-1215.60127764 269.53074048 -1198.92140962 265.77657773 -1182.2421875 262.01953125 C-1181.10332218 261.76299963 -1179.96445686 261.50646801 -1178.79108047 261.2421627 C-1173.05225824 259.94946354 -1167.31344914 258.65670606 -1161.574646 257.36392212 C-1151.18630455 255.02376324 -1140.79784586 252.68412493 -1130.40939713 250.34444237 C-1124.62709339 249.04214909 -1118.84479707 247.7398229 -1113.0625 246.4375 C-1110.75000004 245.91666651 -1108.43750004 245.39583318 -1106.125 244.875 C-1104.9803125 244.6171875 -1103.835625 244.359375 -1102.65625 244.09375 C-988.1875 218.3125 -873.71875 192.53125 -755.78127098 165.96875477 C-753.46870102 165.44790565 -751.15613108 164.92705642 -748.84356117 164.40620708 C-743.06338177 163.10436438 -737.28320195 161.80252356 -731.50302124 160.50068665 C-721.08398656 158.15406535 -710.66495491 155.80743058 -700.24593925 153.46072483 C-694.44781579 152.15479674 -688.64968981 150.84887979 -682.8515625 149.54296875 C-681.13052244 149.15533891 -681.13052244 149.15533891 -679.3747139 148.75987816 C-663.44223079 145.17142787 -647.50961006 141.58358925 -631.57689476 137.99617004 C-621.40539701 135.70592582 -611.23394006 133.41550042 -601.0625 131.125 C-599.93531933 130.87117302 -598.80813866 130.61734604 -597.64680099 130.35582733 C-569.04848142 123.91575223 -540.45120604 117.47106206 -511.85546875 111.01953125 C-511.17015375 110.86491708 -510.48483874 110.71030291 -509.77875662 110.55100346 C-502.08967489 108.81626231 -494.40060901 107.08145093 -486.71154785 105.34661865 C-483.89103207 104.710245 -481.0705161 104.0738722 -478.25 103.4375 C-477.202401 103.20113752 -477.202401 103.20113752 -476.13363838 102.96000004 C-427.83106746 92.0618644 -379.52419726 81.18298728 -331.21444702 70.31671333 C-328.75624821 69.76379258 -326.29804966 69.21087065 -323.83985138 68.65794754 C-321.39575542 68.10819722 -318.95165854 67.55845101 -316.50756073 67.00870895 C-289.37890694 60.90667169 -262.25178624 54.79783339 -235.125 48.6875 C-232.85043347 48.1751602 -230.57586682 47.66282093 -228.30130005 47.15048218 C-218.09036178 44.85048871 -207.87944126 42.55041646 -197.66853619 40.25027561 C-175.50510602 35.25767287 -153.3415413 30.26566758 -131.17794514 25.2738018 C-125.21382732 23.93051273 -119.24971409 22.58720329 -113.28561401 21.24383545 C-112.16210069 20.99077826 -111.03858736 20.73772106 -109.88102818 20.47699547 C-107.65338524 19.9752266 -105.42575135 19.4734176 -103.19812679 18.97156715 C-97.86163034 17.76940563 -92.52497009 16.56798243 -87.18791199 15.36831665 C-78.27332741 13.36385984 -69.35972307 11.35582936 -60.4529314 9.31697845 C-56.78457989 8.47755644 -53.11534525 7.64203298 -49.44604301 6.80677795 C-47.76717882 6.42338435 -46.08876499 6.03801165 -44.41087532 5.65037537 C-29.58723331 2.22600944 -15.25489354 -0.06685297 0 0 Z M-291.1875 478.3125 C-360.21921447 493.84158669 -429.24949272 509.37701926 -498.27660942 524.92653275 C-514.10409979 528.49193802 -529.9317789 532.05650399 -545.75963593 535.62028122 C-555.94395501 537.91338288 -566.12823738 540.20664759 -576.3125 542.5 C-578.00417171 542.88094063 -578.00417171 542.88094063 -579.73001862 543.26957703 C-608.3277355 549.70950023 -636.92440006 556.15407468 -665.51953125 562.60546875 C-666.20484625 562.76008292 -666.89016126 562.91469709 -667.59624338 563.07399654 C-675.28532511 564.80873769 -682.97439099 566.54354907 -690.66345215 568.27838135 C-693.48396793 568.914755 -696.3044839 569.5511278 -699.125 570.1875 C-700.172599 570.42386248 -700.172599 570.42386248 -701.24136162 570.66499996 C-743.3454966 580.16463042 -785.45221761 589.65265014 -827.5625 599.125 C-830.0349228 599.68117037 -832.50734509 600.23734305 -834.97976685 600.79351807 C-844.75748892 602.9930198 -854.53522562 605.19245657 -864.31297302 607.3918457 C-881.55254219 611.26970729 -898.79200561 615.14803858 -916.03125 619.02734375 C-917.25038401 619.3016667 -918.46951801 619.57598965 -919.72559547 619.85862541 C-932.8141246 622.80383454 -945.90220678 625.75100427 -958.98901367 628.70385742 C-962.35599395 629.46349843 -965.72297589 630.22313208 -969.0899601 630.98275566 C-971.27687958 631.47616323 -973.46378841 631.969618 -975.65068626 632.46312141 C-988.15563759 635.28461494 -1000.66351022 638.09210772 -1013.17797852 640.87109375 C-1018.63958812 642.08402167 -1024.09953561 643.30434129 -1029.55893326 644.52718353 C-1032.983431 645.29369163 -1036.40867784 646.056233 -1039.83660889 646.80725098 C-1058.53750619 650.9135111 -1077.14604181 655.34727337 -1094.0625 664.625 C-1094.93124756 665.09228516 -1095.79999512 665.55957031 -1096.69506836 666.04101562 C-1109.27035142 672.94280972 -1119.89943831 681.37666867 -1130.1875 691.3125 C-1130.97769531 692.05113281 -1131.76789063 692.78976562 -1132.58203125 693.55078125 C-1151.734815 711.89854432 -1163.76558046 736.2108946 -1171.5625 761.25 C-1172.06528526 762.83358611 -1172.56890215 764.41690837 -1173.07324219 766 C-1174.79744133 771.43146425 -1176.49319765 776.87164974 -1178.1875 782.3125 C-1178.82513557 784.35565016 -1179.46283257 786.39878114 -1180.10058594 788.44189453 C-1183.78286134 800.24780387 -1187.443934 812.06022745 -1191.09765625 823.875 C-1196.40861618 841.04846341 -1201.75991757 858.20929391 -1207.11300659 875.36966324 C-1209.41844668 882.76055894 -1211.72304852 890.15171604 -1214.02734375 897.54296875 C-1214.28271786 898.36209433 -1214.53809196 899.1812199 -1214.80120468 900.02516747 C-1218.58315778 912.15682651 -1222.35875587 924.29044925 -1226.12890625 936.42578125 C-1226.37049217 937.20339373 -1226.61207809 937.9810062 -1226.8609848 938.78218269 C-1228.79421911 945.00507664 -1230.72711675 951.22807516 -1232.65998077 957.45108414 C-1239.70365589 980.12825212 -1246.77178096 1002.79761559 -1253.86328506 1025.45986938 C-1260.89071186 1047.91803472 -1267.86512443 1070.39231114 -1274.82048416 1092.87289047 C-1281.72900223 1115.20101744 -1288.68464827 1137.51378502 -1295.6875 1159.8125 C-1302.82066806 1182.52638296 -1309.90174274 1205.25575593 -1316.9375 1228 C-1324.77206237 1253.32521039 -1332.64947201 1278.63669557 -1340.5625 1303.9375 C-1341.08929673 1305.6219577 -1341.61609116 1307.30641611 -1342.1428833 1308.99087524 C-1342.93407278 1311.52073112 -1343.72526564 1314.05058594 -1344.51646233 1316.58043957 C-1345.04405996 1318.26743485 -1345.57165485 1319.95443099 -1346.09924698 1321.64142799 C-1346.62693358 1323.32871643 -1347.15463083 1325.01600153 -1347.68233871 1326.70328331 C-1353.5697327 1345.52802865 -1359.4435988 1364.35698197 -1365.3125 1383.1875 C-1365.56001385 1383.98160404 -1365.80752769 1384.77570808 -1366.06254196 1385.59387589 C-1371.69122203 1403.65267109 -1377.31427571 1421.71320396 -1382.92578125 1439.77734375 C-1383.27900483 1440.9143894 -1383.27900483 1440.9143894 -1383.63936424 1442.07440567 C-1385.77344019 1448.94422231 -1387.9073394 1455.81409384 -1390.04086304 1462.68408203 C-1396.90169857 1484.77501738 -1403.79196965 1506.85661433 -1410.69967461 1528.93293667 C-1412.56777904 1534.90406552 -1414.43336274 1540.87597752 -1416.29736328 1546.84838867 C-1416.55482645 1547.6732694 -1416.81228962 1548.49815012 -1417.0775547 1549.34802723 C-1418.09844666 1552.61893421 -1419.1193125 1555.88984931 -1420.13989639 1559.16085243 C-1422.87856253 1567.93769829 -1425.62445265 1576.71212794 -1428.39353466 1585.47942924 C-1430.09889666 1590.87976237 -1431.79240106 1596.2837468 -1433.48123169 1601.68927002 C-1434.14275437 1603.79846187 -1434.80873875 1605.90626145 -1435.47994995 1608.01239014 C-1441.53193107 1627.01089001 -1445.97236054 1645.77689584 -1445.6875 1665.8125 C-1445.68196106 1666.50940948 -1445.67642212 1667.20631897 -1445.67071533 1667.92434692 C-1445.21943895 1716.88366871 -1421.56054957 1752.9775604 -1388.9765625 1787.30859375 C-1385.76278107 1790.69611474 -1382.58516333 1794.11354462 -1379.4375 1797.5625 C-1375.71983529 1801.63581574 -1371.99225786 1805.69930105 -1368.25 1809.75 C-1367.75081055 1810.29043945 -1367.25162109 1810.83087891 -1366.73730469 1811.38769531 C-1365.72613447 1812.48231478 -1364.71490383 1813.57687843 -1363.70361328 1814.67138672 C-1361.19735896 1817.38427586 -1358.69249554 1820.09844859 -1356.1875 1822.8125 C-1355.18750676 1823.89583957 -1354.18750676 1824.97917291 -1353.1875 1826.0625 C-1327.1875 1854.22916667 -1301.1875 1882.39583333 -1275.1875 1910.5625 C-1274.69241943 1911.09883057 -1274.19733887 1911.63516113 -1273.68725586 1912.18774414 C-1272.68804262 1913.27023871 -1271.68885638 1914.35275821 -1270.68969727 1915.43530273 C-1268.17788165 1918.15667508 -1265.66558667 1920.87760195 -1263.15234375 1923.59765625 C-1257.86637317 1929.31958317 -1252.59039196 1935.05033427 -1247.32958984 1940.79541016 C-1242.46908878 1946.10109486 -1237.58669088 1951.38648724 -1232.70361328 1956.67138672 C-1230.19735896 1959.38427586 -1227.69249554 1962.09844859 -1225.1875 1964.8125 C-1224.18750676 1965.89583957 -1223.18750676 1966.97917291 -1222.1875 1968.0625 C-1188.1875 2004.89583333 -1154.1875 2041.72916667 -1120.1875 2078.5625 C-1119.69241943 2079.09883057 -1119.19733887 2079.63516113 -1118.68725586 2080.18774414 C-1117.68804262 2081.27023871 -1116.68885638 2082.35275821 -1115.68969727 2083.43530273 C-1113.17788165 2086.15667508 -1110.66558667 2088.87760195 -1108.15234375 2091.59765625 C-1102.86637317 2097.31958317 -1097.59039196 2103.05033427 -1092.32958984 2108.79541016 C-1087.46908878 2114.10109486 -1082.58669088 2119.38648724 -1077.70361328 2124.67138672 C-1075.19735896 2127.38427586 -1072.69249554 2130.09844859 -1070.1875 2132.8125 C-1069.18750676 2133.89583957 -1068.18750676 2134.97917291 -1067.1875 2136.0625 C-1033.1875 2172.89583333 -999.1875 2209.72916667 -965.1875 2246.5625 C-964.69241943 2247.09883057 -964.19733887 2247.63516113 -963.68725586 2248.18774414 C-962.68804262 2249.27023871 -961.68885638 2250.35275821 -960.68969727 2251.43530273 C-958.17788165 2254.15667508 -955.66558667 2256.87760195 -953.15234375 2259.59765625 C-947.86637317 2265.31958317 -942.59039196 2271.05033427 -937.32958984 2276.79541016 C-932.46908878 2282.10109486 -927.58669088 2287.38648724 -922.70361328 2292.67138672 C-920.19735896 2295.38427586 -917.69249554 2298.09844859 -915.1875 2300.8125 C-914.18750676 2301.89583957 -913.18750676 2302.97917291 -912.1875 2304.0625 C-882.1875 2336.5625 -852.1875 2369.0625 -822.1875 2401.5625 C-821.69241943 2402.09883057 -821.19733887 2402.63516113 -820.68725586 2403.18774414 C-819.68804262 2404.27023871 -818.68885638 2405.35275821 -817.68969727 2406.43530273 C-815.17788165 2409.15667508 -812.66558667 2411.87760195 -810.15234375 2414.59765625 C-809.6521875 2415.13914307 -809.15203125 2415.68062988 -808.63671875 2416.23852539 C-807.63047924 2417.32780566 -806.62396961 2418.41683646 -805.6171875 2419.50561523 C-803.20327816 2422.1184515 -800.7973996 2424.73776134 -798.41015625 2427.375 C-770.55955507 2458.11580492 -738.81767042 2477.99489769 -697.1875 2484.3125 C-696.34832031 2484.44398437 -695.50914062 2484.57546875 -694.64453125 2484.7109375 C-682.57443867 2486.24826427 -670.13197812 2485.80409969 -658.11279297 2484.13867188 C-656.69551312 2483.94249897 -656.69551312 2483.94249897 -655.24960136 2483.74236298 C-643.74279703 2482.0630664 -632.45691178 2479.45499294 -621.1328125 2476.84375 C-618.71516616 2476.29384405 -616.29731838 2475.74482306 -613.87928772 2475.1966095 C-608.71867802 2474.02479675 -603.55937711 2472.8474699 -598.4012146 2471.66494751 C-590.15555137 2469.77476269 -581.90674481 2467.89852335 -573.6574707 2466.02416992 C-570.82232334 2465.3798272 -567.98719845 2464.73538569 -565.15208435 2464.09089661 C-564.09275966 2463.85009771 -564.09275966 2463.85009771 -563.01203448 2463.60443419 C-557.96540227 2462.45707172 -552.91919826 2461.30783833 -547.8731842 2460.15776062 C-521.52942202 2454.15408863 -495.17105879 2448.21645986 -468.8086853 2442.29501343 C-457.57927512 2439.77259029 -446.35073786 2437.24628571 -435.12210274 2434.72041512 C-431.41076102 2433.88558456 -427.69939535 2433.05086056 -423.98802185 2432.21617126 C-398.49103093 2426.48181551 -372.99526448 2420.74202627 -347.5 2415 C-346.37965614 2414.7476849 -345.25931229 2414.4953698 -344.10501862 2414.23540878 C-315.69903367 2407.83798175 -287.29420429 2401.4354422 -258.890625 2395.02734375 C-258.20479096 2394.87261424 -257.51895691 2394.71788472 -256.81234002 2394.55846643 C-249.1150867 2392.82190177 -241.4178471 2391.08527633 -233.72061157 2389.34863281 C-233.02222764 2389.19106416 -232.32384371 2389.0334955 -231.60429662 2388.87115204 C-228.78037007 2388.23402036 -225.95644352 2387.59688867 -223.13251829 2386.95975113 C-174.83030878 2376.0617513 -126.52382417 2365.18290336 -78.21444702 2354.31671333 C-75.75624821 2353.76379258 -73.29804966 2353.21087065 -70.83985138 2352.65794754 C-68.39575542 2352.10819722 -65.95165854 2351.55845101 -63.50756073 2351.00870895 C-36.37890697 2344.9066717 -9.25177104 2338.79790077 17.875 2332.6875 C19.57185125 2332.30527912 19.57185125 2332.30527912 21.30298233 2331.91533661 C31.53819782 2329.60981284 41.77340183 2327.30423814 52.0085907 2324.99859619 C63.81813464 2322.33833433 75.62775283 2319.67840251 87.4375 2317.01904297 C88.65809805 2316.74418123 89.8786961 2316.4693195 91.13628197 2316.18612862 C97.29481369 2314.79933424 103.45337121 2313.41265454 109.61196899 2312.02615356 C121.55355006 2309.33758275 133.49474757 2306.64733102 145.43505859 2303.953125 C149.94364568 2302.93602398 154.45227544 2301.91911236 158.9609375 2300.90234375 C160.048195 2300.65712856 161.1354525 2300.41191338 162.2556572 2300.15926743 C175.35003058 2297.20692555 188.44893898 2294.27675356 201.55695534 2291.38558769 C205.9145958 2290.42335957 210.27097226 2289.45542243 214.6273222 2288.48737049 C218.97036043 2287.52328901 223.31681027 2286.57581481 227.66430664 2285.63208008 C245.12000473 2281.78822794 262.02352131 2277.00746524 277.8125 2268.4375 C278.78179443 2267.91994141 279.75108887 2267.40238281 280.74975586 2266.86914062 C287.99874187 2262.92301922 294.50627606 2258.6616091 300.8125 2253.3125 C301.96940703 2252.36639817 303.12699937 2251.42113393 304.28515625 2250.4765625 C328.39716827 2230.574533 343.85686037 2205.28001357 353.46875 2175.78515625 C353.99288697 2174.19373602 354.51730697 2172.60240899 355.04199219 2171.01116943 C360.24193035 2155.18744606 365.19413596 2139.28706835 370.10048294 2123.37036514 C371.3353009 2119.36794233 372.57485339 2115.3669864 373.81420898 2111.3659668 C374.3231691 2109.72276405 374.832126 2108.07956032 375.34107971 2106.43635559 C375.59362581 2105.62101664 375.84617191 2104.80567768 376.10637093 2103.96563148 C376.86910072 2101.5025299 377.63132547 2099.03927254 378.39341736 2096.57597351 C381.57082653 2086.30744462 384.76280562 2076.04359019 387.97265625 2065.78515625 C388.2796794 2064.80392257 388.2796794 2064.80392257 388.59290504 2063.80286598 C389.61433336 2060.53887472 390.63614505 2057.27500362 391.65817261 2054.01119995 C399.30034374 2029.60578861 406.88657714 2005.18342805 414.44548416 1980.75210953 C421.56802852 1957.7322559 428.74324934 1934.72953713 435.96335983 1911.74010849 C442.96461239 1889.44672735 449.90758439 1867.13590093 456.8125 1844.8125 C463.78047488 1822.28597108 470.78505218 1799.77145562 477.84540176 1777.27370071 C478.92502896 1773.83293522 480.0038568 1770.39191914 481.08276367 1766.95092773 C484.57660514 1755.8090769 488.07099801 1744.6674076 491.57519531 1733.52880859 C493.61841491 1727.03408698 495.65763156 1720.53812345 497.69227695 1714.04071045 C498.7569255 1710.64146885 499.82358722 1707.24289048 500.89535522 1703.84588623 C502.06784461 1700.12962757 503.23157412 1696.41065965 504.39453125 1692.69140625 C504.91782516 1691.04032112 504.91782516 1691.04032112 505.45169067 1689.35588074 C505.76516449 1688.348423 506.07863831 1687.34096527 506.40161133 1686.30297852 C506.67580399 1685.43028824 506.94999664 1684.55759796 507.23249817 1683.65846252 C507.9725051 1681.06808554 507.9725051 1681.06808554 507.8125 1677.3125 C495.83219188 1679.00407563 484.08264057 1681.86332173 472.29296875 1684.53515625 C469.92590894 1685.06898561 467.55878069 1685.60251159 465.19158936 1686.13575745 C460.11946063 1687.2790004 455.04778946 1688.4242494 449.97653198 1689.5713501 C442.57423208 1691.24569824 435.17106279 1692.9161761 427.76766503 1694.58566236 C416.59939833 1697.10417556 405.43158135 1699.62467477 394.26412284 1702.14676905 C378.53674855 1705.69863842 362.80790234 1709.24394245 347.078125 1712.78515625 C345.93836023 1713.04175837 344.79859547 1713.29836048 343.62429237 1713.56273842 C339.06197804 1714.58986856 334.49965719 1715.61696975 329.93732166 1716.64400578 C318.51885822 1719.21448046 307.10073836 1721.78647976 295.68265724 1724.35865211 C289.96927368 1725.64571555 284.25587722 1726.9327217 278.54248047 1728.21972656 C277.41159532 1728.47447156 276.28071016 1728.72921656 275.11555576 1728.9916811 C262.44298617 1731.84629885 249.77032696 1734.7005187 237.09765625 1737.5546875 C235.95192076 1737.81273289 234.80618526 1738.07077827 233.62573051 1738.33664322 C227.83684269 1739.64042899 222.04795351 1740.94420876 216.25906372 1742.24798584 C205.84959598 1744.59241514 195.44014023 1746.93689762 185.03068352 1749.28137589 C179.24962283 1750.58341942 173.46856138 1751.88545954 167.6875 1753.1875 C165.375 1753.70833332 163.0625 1754.22916665 160.75 1754.75 C98.3125 1768.8125 98.3125 1768.8125 35.875 1782.875 C34.73028921 1783.13281785 33.58557842 1783.3906357 32.40617943 1783.65626621 C30.09391485 1784.17704631 27.78165009 1784.6978256 25.46938515 1785.21860409 C19.68453171 1786.52149529 13.89968144 1787.82440056 8.11483765 1789.12733459 C-2.24837978 1791.46145233 -12.61161798 1793.79547763 -22.97497749 1796.12896442 C-28.69948008 1797.41793685 -34.42396371 1798.70699343 -40.1484375 1799.99609375 C-41.85198458 1800.37971478 -41.85198458 1800.37971478 -43.58994675 1800.77108574 C-59.35900473 1804.32228303 -75.12717468 1807.87740085 -90.89471436 1811.43533325 C-99.7186112 1813.42641959 -108.54274975 1815.41643379 -117.36693954 1817.40622139 C-123.34923965 1818.75527068 -129.33140613 1820.1049059 -135.31323242 1821.45605469 C-177.67504422 1831.02391548 -177.67504422 1831.02391548 -197.79616928 1835.41316032 C-199.35186105 1835.75284055 -200.90726741 1836.09383131 -202.46234512 1836.43631172 C-213.32737017 1838.82580837 -224.06063559 1840.79769239 -235.1875 1841.3125 C-236.27933594 1841.36921875 -237.37117188 1841.4259375 -238.49609375 1841.484375 C-281.45719006 1842.55706155 -320.9646643 1824.94177291 -351.81640625 1795.83203125 C-355.18729624 1792.51817831 -358.38001334 1789.10588893 -361.48046875 1785.5390625 C-365.07602261 1781.40904089 -368.79966614 1777.41482367 -372.5625 1773.4375 C-377.38142282 1768.32206429 -382.14462365 1763.16939534 -386.82421875 1757.92578125 C-390.46461562 1753.90028454 -394.18159931 1749.94702646 -397.89038086 1745.98461914 C-402.45226756 1741.10816193 -406.9745484 1736.19767547 -411.48046875 1731.26953125 C-414.35240669 1728.1291683 -417.23758448 1725.00112967 -420.125 1721.875 C-420.62330322 1721.33544678 -421.12160645 1720.79589355 -421.63500977 1720.23999023 C-423.15233906 1718.59733869 -424.66987982 1716.95488279 -426.1875 1715.3125 C-432.48596975 1708.49623698 -438.77775261 1701.67420543 -445.04541016 1694.82958984 C-449.90591122 1689.52390514 -454.78830912 1684.23851276 -459.67138672 1678.95361328 C-462.17764104 1676.24072414 -464.68250446 1673.52655141 -467.1875 1670.8125 C-468.18749324 1669.72916043 -469.18749324 1668.64582709 -470.1875 1667.5625 C-476.1875 1661.0625 -482.1875 1654.5625 -488.1875 1648.0625 C-488.68258057 1647.52616943 -489.17766113 1646.98983887 -489.68774414 1646.43725586 C-490.68695738 1645.35476129 -491.68614362 1644.27224179 -492.68530273 1643.18969727 C-495.19711835 1640.46832492 -497.70941333 1637.74739805 -500.22265625 1635.02734375 C-505.50862683 1629.30541683 -510.78460804 1623.57466573 -516.04541016 1617.82958984 C-520.40563711 1613.07000042 -524.78337946 1608.32669595 -529.1640625 1603.5859375 C-531.14021682 1601.44732476 -533.11416368 1599.30671448 -535.0859375 1597.1640625 C-539.98750864 1591.84049633 -544.90771664 1586.53585631 -549.86328125 1581.26245117 C-552.40563542 1578.55610497 -554.94226893 1575.84442487 -557.47900391 1573.1328125 C-558.98333387 1571.53002824 -560.49607022 1569.93581316 -562.01171875 1568.34375 C-586.71807162 1541.96962135 -597.21841098 1510.11435269 -596.30175781 1474.19921875 C-595.82590648 1462.17685511 -592.27764476 1450.99770642 -588.78125 1439.57421875 C-588.33688438 1438.11556409 -587.89260132 1436.65688427 -587.44839478 1435.19818115 C-582.4965173 1418.96462856 -577.42508401 1402.76824377 -572.34914398 1386.57315826 C-570.9907832 1382.23780478 -569.63432593 1377.90185588 -568.27783203 1373.56591797 C-568.00142317 1372.68241102 -567.72501431 1371.79890408 -567.44022942 1370.88862419 C-566.87802461 1369.09159047 -566.31582664 1367.2945546 -565.75363541 1365.49751663 C-564.90529583 1362.78601273 -564.05677873 1360.07456444 -563.20822144 1357.36312866 C-557.72901623 1339.85404934 -552.26493588 1322.34026803 -546.8064537 1304.82471848 C-546.05963424 1302.42830429 -545.312736 1300.03191467 -544.56582642 1297.63552856 C-539.18630437 1280.37517784 -533.8125819 1263.11303523 -528.44921875 1245.84765625 C-528.21386099 1245.09002047 -527.97850323 1244.33238468 -527.73601341 1243.55179024 C-525.83688443 1237.43823044 -523.93785598 1231.3246394 -522.03907394 1225.21097183 C-514.00051147 1199.32867165 -505.9242639 1173.45829474 -497.83276749 1147.59249878 C-489.932897 1122.33868646 -482.07461198 1097.0723818 -474.25498581 1071.79361343 C-467.23174058 1049.09011695 -460.15418826 1026.40429338 -453.03384399 1003.73107147 C-446.11890438 981.71090613 -439.25834013 959.67448905 -432.4375 937.625 C-424.60293776 912.29979003 -416.72564184 886.98826858 -408.8125 861.6875 C-408.28536972 860.00203455 -407.75823959 858.31656906 -407.23110962 856.63110352 C-406.70330912 854.94352182 -406.1755076 853.25594044 -405.64770508 851.56835938 C-404.85586391 849.03654541 -404.064026 846.50473043 -403.27219963 843.97291183 C-402.74427299 842.28490233 -402.21633541 840.59689625 -401.68838692 838.90889359 C-395.82189082 820.15134539 -389.97157036 801.38876699 -384.125 782.625 C-383.87863674 781.83434772 -383.63227348 781.04369545 -383.37844467 780.22908401 C-381.14094542 773.04826582 -378.90354892 765.86741561 -376.66633606 758.68650818 C-373.41600199 748.25393217 -370.16415283 737.82182941 -366.91126633 727.39004898 C-364.64900345 720.13508694 -362.38694959 712.88005972 -360.125 705.625 C-359.87642998 704.82772743 -359.62785995 704.03045486 -359.37175751 703.20902252 C-353.72192564 685.08704669 -348.07637264 666.96375608 -342.4453125 648.8359375 C-342.20982193 648.07784098 -341.97433136 647.31974445 -341.73170471 646.53867531 C-340.54417827 642.71567301 -339.35673097 638.89264613 -338.16931152 635.0696106 C-337.69620835 633.54640686 -337.22310451 632.02320332 -336.75 630.5 C-336.51722855 629.75056499 -336.28445709 629.00112999 -336.04463196 628.22898483 C-326.7410187 598.27599298 -317.39679962 568.33574555 -308.03342533 538.4013834 C-306.81973 534.52113352 -305.60708223 530.6405641 -304.39704895 526.75917053 C-302.2671792 519.93140307 -300.12772403 513.10729455 -297.9444952 506.29636955 C-296.98402357 503.29816569 -296.02972691 500.29801304 -295.07590675 497.29768753 C-294.62581156 495.88828206 -294.17253964 494.47988668 -293.71591759 493.07258224 C-293.09159614 491.14807992 -292.47871616 489.21987701 -291.86645508 487.29150391 C-291.51666092 486.20447174 -291.16686676 485.11743958 -290.80647278 483.99746704 C-289.92388214 481.2345896 -289.92388214 481.2345896 -291.1875 478.3125 Z " fill="#51565B" transform="translate(1903.1875,-0.3125)"/>
<path d="M0 0 C0.99 0.33 1.98 0.66 3 1 C2.01 2.485 2.01 2.485 1 4 C0.67 2.68 0.34 1.36 0 0 Z " fill="#51565B" transform="translate(1294,1517)"/>
</svg>
