<?xml version="1.0" encoding="UTF-8"?>
<svg version="1.1" xmlns="http://www.w3.org/2000/svg" width="2924" height="2893">
<path d="M0 0 C1.01526512 -0.01256836 1.01526512 -0.01256836 2.05104065 -0.02539062 C4.20224434 -0.04461775 6.35263231 -0.04501754 8.50390625 -0.0390625 C9.24697021 -0.03851868 9.99003418 -0.03797485 10.75561523 -0.03741455 C53.88014548 0.10704269 90.72460445 17.91074182 120.94140625 48.0234375 C125.1561969 52.27395117 129.28175046 56.56038053 133.1484375 61.1328125 C135.95719835 64.35916916 138.89100427 67.46545701 141.81640625 70.5859375 C147.03197346 76.15296915 152.21173863 81.74891449 157.359375 87.37890625 C160.23131284 90.51926909 163.11647159 93.64732564 166.00390625 96.7734375 C166.50293457 97.31371582 167.00196289 97.85399414 167.51611328 98.41064453 C168.52745297 99.50542056 169.53884633 100.600147 170.55029297 101.69482422 C173.05654729 104.40771336 175.56141071 107.12188609 178.06640625 109.8359375 C179.06639949 110.91927707 180.06639949 112.00261041 181.06640625 113.0859375 C211.06640625 145.5859375 241.06640625 178.0859375 271.06640625 210.5859375 C271.56148682 211.12226807 272.05656738 211.65859863 272.56665039 212.21118164 C273.56586363 213.29367621 274.56504987 214.37619571 275.56420898 215.45874023 C278.0760246 218.18011258 280.58831958 220.90103945 283.1015625 223.62109375 C288.38753308 229.34302067 293.66351429 235.07377177 298.92431641 240.81884766 C303.78481747 246.12453236 308.66721537 251.40992474 313.55029297 256.69482422 C316.05654729 259.40771336 318.56141071 262.12188609 321.06640625 264.8359375 C322.06639949 265.91927707 323.06639949 267.00261041 324.06640625 268.0859375 C354.06640625 300.5859375 384.06640625 333.0859375 414.06640625 365.5859375 C414.8090271 366.39043335 414.8090271 366.39043335 415.56665039 367.21118164 C416.56586363 368.29367621 417.56504987 369.37619571 418.56420898 370.45874023 C421.0760246 373.18011258 423.58831958 375.90103945 426.1015625 378.62109375 C431.38753308 384.34302067 436.66351429 390.07377177 441.92431641 395.81884766 C446.78481747 401.12453236 451.66721537 406.40992474 456.55029297 411.69482422 C459.05654729 414.40771336 461.56141071 417.12188609 464.06640625 419.8359375 C465.06639949 420.91927707 466.06639949 422.00261041 467.06640625 423.0859375 C501.06640625 459.91927083 535.06640625 496.75260417 569.06640625 533.5859375 C569.8090271 534.39043335 569.8090271 534.39043335 570.56665039 535.21118164 C571.56586363 536.29367621 572.56504987 537.37619571 573.56420898 538.45874023 C576.0760246 541.18011258 578.58831958 543.90103945 581.1015625 546.62109375 C586.38753308 552.34302067 591.66351429 558.07377177 596.92431641 563.81884766 C601.78481747 569.12453236 606.66721537 574.40992474 611.55029297 579.69482422 C614.05654729 582.40771336 616.56141071 585.12188609 619.06640625 587.8359375 C620.06639949 588.91927707 621.06639949 590.00261041 622.06640625 591.0859375 C656.06640625 627.91927083 690.06640625 664.75260417 724.06640625 701.5859375 C724.8090271 702.39043335 724.8090271 702.39043335 725.56665039 703.21118164 C726.56586363 704.29367621 727.56504987 705.37619571 728.56420898 706.45874023 C731.0760246 709.18011258 733.58831958 711.90103945 736.1015625 714.62109375 C741.38683011 720.34225972 746.66240675 726.07197982 751.92211914 731.81665039 C754.79042984 734.94800516 757.66561646 738.07286136 760.54785156 741.19140625 C761.55902366 742.28646336 762.56879428 743.38281627 763.57714844 744.48046875 C766.02003488 747.13736536 768.47866188 749.77312603 770.98828125 752.3671875 C784.65229947 766.61543773 792.81921478 782.68038862 793.37890625 802.5859375 C792.94512154 821.92360315 785.73116944 838.5531099 772.13671875 852.28515625 C756.35859555 866.89100925 734.9815791 869.93698548 714.7265625 874.4375 C712.09334478 875.02862501 709.46027473 875.6203744 706.82737732 876.21292114 C701.20015259 877.4781036 695.57171695 878.73776812 689.94238281 879.99353027 C681.79411977 881.81124289 673.64781997 883.63762898 665.50201631 885.46632767 C653.23006365 888.22123756 640.95706892 890.97146417 628.68328452 893.71820068 C611.18748545 897.63373449 593.69545215 901.56582207 576.20541453 905.50700521 C573.48376583 906.120283 570.76209143 906.73344672 568.04041713 907.3466109 C563.39052148 908.39418302 558.74063749 909.44180693 554.09077168 910.48951149 C545.37715304 912.45282544 536.6634274 914.41566311 527.94946289 916.37744141 C526.78001098 916.640762 525.61055906 916.9040826 524.40566921 917.17538261 C518.72286049 918.45450781 513.03957134 919.73142566 507.35520935 921.00363159 C505.17689881 921.4913016 502.99859974 921.97902282 500.8203125 922.46679688 C499.7598726 922.7042267 498.6994327 922.94165653 497.60685825 923.1862812 C491.21256297 924.62096643 484.82393658 926.07840373 478.43904877 927.55437851 C474.33516718 928.50156044 470.22898722 929.43852222 466.12245178 930.37412262 C464.23242325 930.80751709 462.34347041 931.24563813 460.45579529 931.68917084 C434.57029386 937.76800228 409.78107171 938.32790174 386.06640625 924.3359375 C376.40843988 917.92600058 368.31139881 910.2337501 360.7265625 901.51171875 C357.1855197 897.44297247 353.52155527 893.50500406 349.81640625 889.5859375 C344.41403721 883.84779413 339.05380711 878.07658341 333.73828125 872.2578125 C330.8776297 869.12949765 328.00530875 866.0122603 325.12890625 862.8984375 C324.38024292 862.08789917 324.38024292 862.08789917 323.61645508 861.26098633 C322.60520013 860.16628858 321.59388813 859.07164354 320.58251953 857.97705078 C318.07626521 855.26416164 315.57140179 852.54998891 313.06640625 849.8359375 C312.06641301 848.75259793 311.06641301 847.66926459 310.06640625 846.5859375 C308.06640625 844.41927083 306.06640625 842.25260417 304.06640625 840.0859375 C303.3237854 839.28144165 303.3237854 839.28144165 302.56616211 838.46069336 C301.56694887 837.37819879 300.56776263 836.29567929 299.56860352 835.21313477 C297.0567879 832.49176242 294.54449292 829.77083555 292.03125 827.05078125 C286.74527942 821.32885433 281.46929821 815.59810323 276.20849609 809.85302734 C271.34799503 804.54734264 266.46559713 799.26195026 261.58251953 793.97705078 C259.07626521 791.26416164 256.57140179 788.54998891 254.06640625 785.8359375 C253.06641301 784.75259793 252.06641301 783.66926459 251.06640625 782.5859375 C229.06640625 758.75260417 207.06640625 734.91927083 185.06640625 711.0859375 C184.3237854 710.28144165 184.3237854 710.28144165 183.56616211 709.46069336 C182.56694887 708.37819879 181.56776263 707.29567929 180.56860352 706.21313477 C178.0567879 703.49176242 175.54449292 700.77083555 173.03125 698.05078125 C167.74527942 692.32885433 162.46929821 686.59810323 157.20849609 680.85302734 C152.34799503 675.54734264 147.46559713 670.26195026 142.58251953 664.97705078 C140.07626521 662.26416164 137.57140179 659.54998891 135.06640625 656.8359375 C134.06641301 655.75259793 133.06641301 654.66926459 132.06640625 653.5859375 C130.06640625 651.41927083 128.06640625 649.25260417 126.06640625 647.0859375 C125.57092285 646.5492041 125.07543945 646.0124707 124.56494141 645.45947266 C123.56966181 644.38117202 122.57454337 643.3027226 121.57958984 642.22412109 C119.0087007 639.43751658 116.43466643 636.65391777 113.85546875 633.875 C108.82229283 628.44701991 103.81967158 623.01344886 99.06640625 617.3359375 C96.44724495 623.09640481 94.52822927 628.95283594 92.6796875 635 C92.18560143 636.59910469 92.18560143 636.59910469 91.68153381 638.23051453 C90.96017686 640.56654976 90.24053959 642.90311654 89.5223999 645.24014282 C88.34930645 649.05725179 87.17182745 652.87299195 85.99267578 656.68823242 C85.78860611 657.3485657 85.58453644 658.00889898 85.37428284 658.68924236 C84.9536188 660.05042673 84.53294145 661.41160699 84.11225128 662.77278328 C83.45995617 664.88392988 82.80814544 666.99522555 82.15643311 669.10655212 C77.20145475 685.15550001 72.1995566 701.18978974 67.1975975 717.22414398 C65.92344448 721.30898481 64.64984142 725.39399709 63.3762207 729.47900391 C61.56473762 735.28904731 59.75314553 741.0990567 57.94136715 746.90900803 C54.6410336 757.49245378 51.3417357 768.0762221 48.04296875 778.66015625 C47.79614664 779.45206863 47.54932453 780.24398102 47.29502296 781.05989075 C45.80116711 785.85284452 44.30734096 790.64580755 42.81352615 795.43877411 C40.56582801 802.65060138 38.31809281 809.86241709 36.0703125 817.07421875 C35.82289999 817.86802444 35.57548748 818.66183014 35.32057762 819.47969055 C31.80977557 830.74376724 28.29810167 842.00757183 24.78589821 853.27121162 C22.52504119 860.5218934 20.26443604 867.7726537 18.00390625 875.0234375 C17.75540295 875.82050991 17.50689964 876.61758232 17.25086594 877.43880844 C11.60100271 895.56099775 5.95534787 913.68447965 0.32421875 931.8125 C0.0889982 932.56972414 -0.14622234 933.32694828 -0.38857079 934.10711861 C-1.57518205 937.92715619 -2.76171314 941.74721866 -3.94821167 945.56729126 C-4.18299603 946.32320683 -4.41778038 947.07912239 -4.65967941 947.85794449 C-5.13387932 949.38469412 -5.60807417 950.91144532 -6.08226395 952.43819809 C-14.10134258 978.25655534 -22.15523675 1004.06390782 -30.22501755 1029.86645889 C-38.22356484 1055.44147426 -46.19563753 1081.02454602 -54.14152145 1106.61597061 C-62.15949106 1132.43923844 -70.21557151 1158.25041886 -78.28852844 1184.05654526 C-86.18642294 1209.30389856 -94.04271284 1234.56375146 -101.86030579 1259.83607864 C-109.7794642 1285.43588237 -117.76544145 1311.01424175 -125.79589844 1336.5793457 C-126.40877789 1338.53079545 -127.02163283 1340.4822529 -127.63446426 1342.43371773 C-128.22705675 1344.32044971 -128.81993225 1346.20709279 -129.41281128 1348.09373474 C-131.45605777 1354.60224774 -133.48742137 1361.11423894 -135.50146484 1367.63183594 C-135.71068038 1368.30837912 -135.91989592 1368.98492229 -136.13545132 1369.68196678 C-137.13897613 1372.92765696 -138.14053739 1376.17391739 -139.13899231 1379.4211731 C-139.49168686 1380.56335297 -139.84438141 1381.70553284 -140.20776367 1382.88232422 C-140.51791916 1383.89028046 -140.82807465 1384.89823669 -141.14762878 1385.93673706 C-141.93359375 1388.3359375 -141.93359375 1388.3359375 -142.93359375 1390.3359375 C-142.30286453 1390.17952789 -141.67213531 1390.02311829 -141.02229309 1389.86196899 C-118.53851956 1384.31031291 -95.94898353 1379.25278023 -73.34631348 1374.21151733 C-61.48707014 1371.5662161 -49.6302974 1368.90986622 -37.7734375 1366.25390625 C-35.90421316 1365.83528415 -35.90421316 1365.83528415 -33.99722672 1365.40820503 C-4.5546474 1358.81336606 24.87302584 1352.1530502 54.29819298 1345.48104858 C56.32218659 1345.02212686 58.34618876 1344.56324287 60.37019348 1344.10437012 C76.62730692 1340.41860524 92.88399463 1336.73096563 109.14039803 1333.04207039 C118.23364124 1330.97864084 127.32698577 1328.91565836 136.42041016 1326.85302734 C138.29293709 1326.42828629 138.29293709 1326.42828629 140.20329285 1325.9949646 C142.70926155 1325.42654154 145.21523028 1324.85811858 147.72119904 1324.28969574 C171.1760589 1318.96940094 194.63050026 1313.64726297 218.08477783 1308.32440186 C235.05898802 1304.47218453 252.03334716 1300.62062413 269.0078125 1296.76953125 C271.42857365 1296.22031675 273.84933476 1295.67110207 276.27009583 1295.12188721 C279.91538767 1294.29485521 283.56067956 1293.46782344 287.20597172 1292.64079285 C325.67743565 1283.91250721 364.14862289 1275.18300293 402.61940002 1266.45169067 C404.8560628 1265.94405923 407.09272561 1265.43642796 409.3293885 1264.92879701 C410.82519473 1264.58931018 412.32100087 1264.24982294 413.81680691 1263.9103353 C424.30282138 1261.53044001 434.7888963 1259.15081123 445.27501547 1256.77137733 C451.95679286 1255.25518859 458.63855428 1253.73892946 465.3203125 1252.22265625 C466.05155043 1252.05672014 466.78278837 1251.89078403 467.53618503 1251.71981955 C487.11995212 1247.27574976 506.70300151 1242.82853713 526.2851578 1238.37737501 C534.68888033 1236.46721048 543.09286697 1234.55820848 551.49687004 1232.64927864 C557.3941182 1231.30966358 563.29124817 1229.96953531 569.18798828 1228.62768555 C650.4477863 1210.13756996 731.82152996 1192.14962702 813.18367642 1174.11657411 C822.73643703 1171.99920486 832.28889729 1169.88048295 841.84129876 1167.7614941 C851.24961918 1165.67451381 860.65811447 1163.58832319 870.06674987 1161.50276333 C875.60097603 1160.27601569 881.13514112 1159.04899454 886.66913414 1157.8211956 C891.80583191 1156.68157814 896.94274988 1155.54295835 902.07983208 1154.40507507 C903.94096272 1153.9926612 905.80201955 1153.57991402 907.66299057 1153.16678047 C916.92780687 1151.1102163 926.19719708 1149.07703608 935.48054504 1147.10560608 C936.26330738 1146.93814044 937.04606971 1146.77067481 937.85255212 1146.59813446 C943.24193847 1145.46154646 948.5524852 1144.5580394 954.06640625 1144.3359375 C954.89527344 1144.29597656 955.72414063 1144.25601562 956.578125 1144.21484375 C983.10875945 1143.55641925 1007.33945394 1153.45709222 1026.6652832 1171.48388672 C1045.1426567 1189.36712294 1054.9743415 1213.73942526 1055.44140625 1239.3359375 C1055.39342422 1245.80513403 1054.84066347 1251.98980345 1053.55078125 1258.328125 C1053.37837921 1259.17744598 1053.20597717 1260.02676697 1053.02835083 1260.90182495 C1050.76695051 1271.4363007 1047.42815035 1281.64082598 1044.10418701 1291.87878418 C1042.90009208 1295.58821317 1041.70883029 1299.30163315 1040.52197266 1303.01660156 C1040.1095968 1304.30700945 1039.69721273 1305.59741471 1039.28482056 1306.88781738 C1039.07914082 1307.53148758 1038.87346107 1308.17515778 1038.66154861 1308.83833313 C1038.0330931 1310.80332584 1037.4032511 1312.76786925 1036.77304077 1314.7322998 C1032.57541772 1327.82325926 1028.50149731 1340.95177231 1024.44140625 1354.0859375 C1022.94215687 1358.92861803 1021.44183778 1363.77096688 1019.94140625 1368.61328125 C1019.36235535 1370.48253014 1019.36235535 1370.48253014 1018.77160645 1372.38954163 C1013.93475699 1387.99974827 1009.06885299 1403.60090933 1004.20409012 1419.20243454 C1003.43995303 1421.65309812 1002.67588305 1424.10378262 1001.91183472 1426.55447388 C998.55421647 1437.32401421 995.19601552 1448.09337279 991.83766937 1458.86268616 C987.80894813 1471.78180537 983.78061568 1484.70104575 979.75301361 1497.62051392 C979.25345555 1499.22295425 978.75388788 1500.82539158 978.25431061 1502.42782593 C972.54492175 1520.74124287 966.83997086 1539.05602507 961.1484375 1557.375 C960.90615292 1558.15482491 960.66386833 1558.93464981 960.41424179 1559.73810577 C958.47351464 1565.98479067 956.53302373 1572.23154896 954.5927124 1578.47836304 C947.54877164 1601.1561622 940.48022486 1623.82610539 933.38883591 1646.48910904 C926.68124571 1667.92647031 920.01900274 1689.37758144 913.37890625 1710.8359375 C905.5227803 1736.22340708 897.62383796 1761.59720678 889.69140625 1786.9609375 C889.43079784 1787.7942585 889.17018944 1788.6275795 888.90168381 1789.48615265 C887.58320011 1793.70213145 886.26467599 1797.9180976 884.94615173 1802.13406372 C884.55439412 1803.38671713 884.55439412 1803.38671713 884.15472221 1804.66467667 C883.62700805 1806.35204494 883.0992841 1808.03941015 882.57155037 1809.72677231 C876.6841626 1828.55150061 870.81028286 1847.38043078 864.94140625 1866.2109375 C864.57124012 1867.39855871 864.57124012 1867.39855871 864.19359589 1868.61017227 C856.07103594 1894.67047029 847.96717999 1920.73655869 839.87008667 1946.80477905 C833.06677266 1968.70702515 826.23773143 1990.60107762 819.38883591 2012.48910904 C812.68124571 2033.92647031 806.01900274 2055.37758144 799.37890625 2076.8359375 C791.5227803 2102.22340708 783.62383796 2127.59720678 775.69140625 2152.9609375 C775.43079784 2153.7942585 775.17018944 2154.6275795 774.90168381 2155.48615265 C773.58320011 2159.70213145 772.26467599 2163.9180976 770.94615173 2168.13406372 C770.68497999 2168.96916599 770.42380825 2169.80426826 770.15472221 2170.66467667 C769.62700805 2172.35204494 769.0992841 2174.03941015 768.57155037 2175.72677231 C762.6841626 2194.55150061 756.81028286 2213.38043078 750.94140625 2232.2109375 C750.57124012 2233.39855871 750.57124012 2233.39855871 750.19359589 2234.61017227 C742.07103594 2260.67047029 733.96717999 2286.73655869 725.87008667 2312.80477905 C720.90952097 2328.77457415 715.94443256 2344.74290751 710.953125 2360.703125 C710.74677555 2361.36301044 710.5404261 2362.02289589 710.32782364 2362.70277786 C708.48336947 2368.60084133 706.63841763 2374.49874857 704.79077148 2380.39581299 C700.14310713 2395.22962121 695.52392625 2410.07157978 690.95948982 2424.93123436 C690.21301909 2427.36041355 689.46562952 2429.78930796 688.71788025 2432.21809387 C688.47240354 2433.0154555 688.22692682 2433.81281713 687.97401142 2434.63434124 C687.48058908 2436.23698047 686.98712443 2437.83960668 686.49361706 2439.44221973 C685.30055033 2443.31836441 684.11025664 2447.19531655 682.92648315 2451.0743103 C671.5831448 2488.23658676 659.45412057 2520.98628572 631.4609375 2548.9375 C630.06928663 2550.3314211 628.69223574 2551.74086176 627.35546875 2553.1875 C602.78296269 2579.37510035 566.93891153 2591.02692387 532.9296875 2598.51171875 C530.77314322 2598.99376557 528.61679176 2599.47667568 526.46061707 2599.96037292 C521.85009557 2600.99283227 517.23834003 2602.01950657 512.62548828 2603.04150391 C505.23130366 2604.67978896 497.84006928 2606.33112316 490.44921875 2607.984375 C482.72117442 2609.71234833 474.99293466 2611.43942546 467.26358032 2613.16152954 C450.15533476 2616.97337541 433.05178691 2620.80553999 415.953125 2624.66015625 C414.25233764 2625.04355636 414.25233764 2625.04355636 412.51719093 2625.43470192 C406.81479601 2626.72030165 401.11249948 2628.00633713 395.4102478 2629.29257202 C385.03772998 2631.63203751 374.66433079 2633.96759008 364.2910099 2636.30349159 C358.50777374 2637.6058184 352.72459275 2638.90839017 346.94140625 2640.2109375 C344.62890652 2640.73177201 342.31640652 2641.25260534 340.00390625 2641.7734375 C338.85921875 2642.03125 337.71453125 2642.2890625 336.53515625 2642.5546875 C107.59708462 2694.11731625 107.59708462 2694.11731625 -10.33982277 2720.67968273 C-12.65239273 2721.20053185 -14.96496267 2721.72138108 -17.27753258 2722.24223042 C-23.05771198 2723.54407312 -28.8378918 2724.84591394 -34.61807251 2726.14775085 C-45.03710719 2728.49437215 -55.45613884 2730.84100692 -65.8751545 2733.18771267 C-71.67327796 2734.49364076 -77.47140394 2735.79955771 -83.26953125 2737.10546875 C-84.41689129 2737.36388865 -85.56425133 2737.62230854 -86.74637985 2737.88855934 C-102.67886296 2741.47700963 -118.61148369 2745.06484825 -134.54419899 2748.65226746 C-144.71569674 2750.94251168 -154.88715369 2753.23293708 -165.05859375 2755.5234375 C-166.18577442 2755.77726448 -167.31295509 2756.03109146 -168.47429276 2756.29261017 C-197.07261233 2762.73268527 -225.66988771 2769.17737544 -254.265625 2775.62890625 C-254.95094 2775.78352042 -255.63625501 2775.93813459 -256.34233713 2776.09743404 C-264.03141886 2777.83217519 -271.72048474 2779.56698657 -279.4095459 2781.30181885 C-282.23006168 2781.9381925 -285.05057765 2782.5745653 -287.87109375 2783.2109375 C-288.91869275 2783.44729998 -288.91869275 2783.44729998 -289.98745537 2783.68843746 C-338.29002629 2794.5865731 -386.59689649 2805.46545022 -434.90664673 2816.33172417 C-437.36484554 2816.88464492 -439.82304409 2817.43756685 -442.28124237 2817.99048996 C-444.72533833 2818.54024028 -447.16943521 2819.08998649 -449.61353302 2819.63972855 C-476.7421868 2825.74176581 -503.86931339 2831.85057804 -530.99609375 2837.9609375 C-532.12865349 2838.21604599 -533.26121323 2838.47115448 -534.42809296 2838.73399353 C-544.67556692 2841.04223276 -554.92302916 2843.35052402 -565.17047119 2845.65890503 C-580.57833681 2849.12973295 -595.98630524 2852.60010408 -611.39434433 2856.07016182 C-615.04392138 2856.89210654 -618.69348632 2857.71410502 -622.3430481 2858.53611755 C-633.04635263 2860.94683903 -643.74972071 2863.35727571 -654.45350456 2865.76586819 C-660.12270491 2867.04157989 -665.7918405 2868.31757913 -671.4609375 2869.59375 C-673.10349329 2869.96349788 -673.10349329 2869.96349788 -674.77923203 2870.34071541 C-688.71333746 2873.47791871 -702.64432973 2876.62845611 -716.57158279 2879.79593849 C-721.57872221 2880.93423073 -726.58645318 2882.06991852 -731.59417152 2883.20566082 C-736.07250625 2884.221776 -740.54970863 2885.24268482 -745.02600193 2886.2677536 C-747.0659373 2886.73401004 -749.10643086 2887.19772332 -751.14720154 2887.66030884 C-753.55090491 2888.20520414 -755.95374031 2888.75395436 -758.35536194 2889.30795288 C-771.31090458 2892.22911548 -783.86090599 2893.70654888 -797.12109375 2893.6484375 C-797.79612946 2893.64628235 -798.47116516 2893.6441272 -799.16665649 2893.64190674 C-823.12285752 2893.51975867 -845.65090359 2888.52198467 -866.93359375 2877.3359375 C-867.58811523 2876.99691406 -868.24263672 2876.65789063 -868.91699219 2876.30859375 C-889.91860434 2865.33024982 -906.07118039 2849.7108463 -921.93359375 2832.3359375 C-922.90325649 2831.27959039 -923.87328551 2830.22357934 -924.84375 2829.16796875 C-926.64059803 2827.21195489 -928.43428633 2825.25318881 -930.2265625 2823.29296875 C-933.09850034 2820.15260591 -935.98365909 2817.02454936 -938.87109375 2813.8984375 C-939.61963623 2813.08802002 -939.61963623 2813.08802002 -940.38330078 2812.26123047 C-941.39464047 2811.16645444 -942.40603383 2810.071728 -943.41748047 2808.97705078 C-946.42317513 2805.72354362 -949.42698769 2802.46829874 -952.43115234 2799.21337891 C-954.94306297 2796.49193777 -957.45542904 2793.77092001 -959.96875 2791.05078125 C-965.25472058 2785.32885433 -970.53070179 2779.59810323 -975.79150391 2773.85302734 C-980.65200497 2768.54734264 -985.53440287 2763.26195026 -990.41748047 2757.97705078 C-992.92373479 2755.26416164 -995.42859821 2752.54998891 -997.93359375 2749.8359375 C-998.93358699 2748.75259793 -999.93358699 2747.66926459 -1000.93359375 2746.5859375 C-1022.93359375 2722.75260417 -1044.93359375 2698.91927083 -1066.93359375 2675.0859375 C-1067.42867432 2674.54960693 -1067.92375488 2674.01327637 -1068.43383789 2673.46069336 C-1069.43305113 2672.37819879 -1070.43223737 2671.29567929 -1071.43139648 2670.21313477 C-1073.9432121 2667.49176242 -1076.45550708 2664.77083555 -1078.96875 2662.05078125 C-1084.25472058 2656.32885433 -1089.53070179 2650.59810323 -1094.79150391 2644.85302734 C-1099.65200497 2639.54734264 -1104.53440287 2634.26195026 -1109.41748047 2628.97705078 C-1111.92373479 2626.26416164 -1114.42859821 2623.54998891 -1116.93359375 2620.8359375 C-1117.93358699 2619.75259793 -1118.93358699 2618.66926459 -1119.93359375 2617.5859375 C-1145.93359375 2589.41927083 -1171.93359375 2561.25260417 -1197.93359375 2533.0859375 C-1198.42867432 2532.54960693 -1198.92375488 2532.01327637 -1199.43383789 2531.46069336 C-1200.43305113 2530.37819879 -1201.43223737 2529.29567929 -1202.43139648 2528.21313477 C-1204.9432121 2525.49176242 -1207.45550708 2522.77083555 -1209.96875 2520.05078125 C-1215.25472058 2514.32885433 -1220.53070179 2508.59810323 -1225.79150391 2502.85302734 C-1230.65200497 2497.54734264 -1235.53440287 2492.26195026 -1240.41748047 2486.97705078 C-1242.92373479 2484.26416164 -1245.42859821 2481.54998891 -1247.93359375 2478.8359375 C-1248.93358699 2477.75259793 -1249.93358699 2476.66926459 -1250.93359375 2475.5859375 C-1276.93359375 2447.41927083 -1302.93359375 2419.25260417 -1328.93359375 2391.0859375 C-1329.42867432 2390.54960693 -1329.92375488 2390.01327637 -1330.43383789 2389.46069336 C-1331.43305113 2388.37819879 -1332.43223737 2387.29567929 -1333.43139648 2386.21313477 C-1335.9432121 2383.49176242 -1338.45550708 2380.77083555 -1340.96875 2378.05078125 C-1346.25472058 2372.32885433 -1351.53070179 2366.59810323 -1356.79150391 2360.85302734 C-1361.65200497 2355.54734264 -1366.53440287 2350.26195026 -1371.41748047 2344.97705078 C-1373.92373479 2342.26416164 -1376.42859821 2339.54998891 -1378.93359375 2336.8359375 C-1379.93358699 2335.75259793 -1380.93358699 2334.66926459 -1381.93359375 2333.5859375 C-1403.93359375 2309.75260417 -1425.93359375 2285.91927083 -1447.93359375 2262.0859375 C-1448.42867432 2261.54960693 -1448.92375488 2261.01327637 -1449.43383789 2260.46069336 C-1450.43305113 2259.37819879 -1451.43223737 2258.29567929 -1452.43139648 2257.21313477 C-1454.9432121 2254.49176242 -1457.45550708 2251.77083555 -1459.96875 2249.05078125 C-1465.25472058 2243.32885433 -1470.53070179 2237.59810323 -1475.79150391 2231.85302734 C-1480.65200497 2226.54734264 -1485.53440287 2221.26195026 -1490.41748047 2215.97705078 C-1492.92373479 2213.26416164 -1495.42859821 2210.54998891 -1497.93359375 2207.8359375 C-1498.93358699 2206.75259793 -1499.93358699 2205.66926459 -1500.93359375 2204.5859375 C-1526.93359375 2176.41927083 -1552.93359375 2148.25260417 -1578.93359375 2120.0859375 C-1579.42867432 2119.54960693 -1579.92375488 2119.01327637 -1580.43383789 2118.46069336 C-1581.43305113 2117.37819879 -1582.43223737 2116.29567929 -1583.43139648 2115.21313477 C-1585.9432121 2112.49176242 -1588.45550708 2109.77083555 -1590.96875 2107.05078125 C-1596.25472058 2101.32885433 -1601.53070179 2095.59810323 -1606.79150391 2089.85302734 C-1611.65200497 2084.54734264 -1616.53440287 2079.26195026 -1621.41748047 2073.97705078 C-1623.92373479 2071.26416164 -1626.42859821 2068.54998891 -1628.93359375 2065.8359375 C-1629.93358699 2064.75259793 -1630.93358699 2063.66926459 -1631.93359375 2062.5859375 C-1657.93359375 2034.41927083 -1683.93359375 2006.25260417 -1709.93359375 1978.0859375 C-1710.42867432 1977.54960693 -1710.92375488 1977.01327637 -1711.43383789 1976.46069336 C-1712.43305113 1975.37819879 -1713.43223737 1974.29567929 -1714.43139648 1973.21313477 C-1716.9432121 1970.49176242 -1719.45550708 1967.77083555 -1721.96875 1965.05078125 C-1727.25472058 1959.32885433 -1732.53070179 1953.59810323 -1737.79150391 1947.85302734 C-1742.65200497 1942.54734264 -1747.53440287 1937.26195026 -1752.41748047 1931.97705078 C-1754.92373479 1929.26416164 -1757.42859821 1926.54998891 -1759.93359375 1923.8359375 C-1760.93358699 1922.75259793 -1761.93358699 1921.66926459 -1762.93359375 1920.5859375 C-1776.93359375 1905.41927083 -1790.93359375 1890.25260417 -1804.93359375 1875.0859375 C-1805.42883545 1874.5494458 -1805.92407715 1874.0129541 -1806.43432617 1873.46020508 C-1807.43196593 1872.37938806 -1808.42952483 1871.29849641 -1809.42700195 1870.2175293 C-1811.96244803 1867.4700714 -1814.49938757 1864.72401849 -1817.0390625 1861.98046875 C-1819.55534712 1859.26207132 -1822.06421418 1856.5369481 -1824.57128906 1853.81005859 C-1825.80620837 1852.47377852 -1827.05284425 1851.14834993 -1828.30078125 1849.82421875 C-1845.86689402 1830.91407955 -1858.34006561 1808.31028033 -1864.93359375 1783.3359375 C-1865.26593018 1782.08804443 -1865.26593018 1782.08804443 -1865.60498047 1780.81494141 C-1871.13949656 1758.91013251 -1871.67691683 1732.29081712 -1865.93359375 1710.3359375 C-1865.56959473 1708.93432373 -1865.56959473 1708.93432373 -1865.19824219 1707.50439453 C-1859.68029255 1686.79756249 -1852.90071972 1666.4215043 -1846.41894531 1646.00317383 C-1840.47190263 1627.26254344 -1834.62150597 1608.49338522 -1828.81576157 1589.70852661 C-1826.71435919 1582.90946525 -1824.61171442 1576.11078832 -1822.5078125 1569.3125 C-1822.27565096 1568.56231346 -1822.04348942 1567.81212692 -1821.80429268 1567.03920746 C-1816.72311664 1550.62479528 -1811.582551 1534.22918862 -1806.43359375 1517.8359375 C-1799.30002685 1495.12218085 -1792.21935039 1472.39267957 -1785.18359375 1449.6484375 C-1777.34903138 1424.32322711 -1769.47162174 1399.01174193 -1761.55859375 1373.7109375 C-1761.03179702 1372.0264798 -1760.50500259 1370.34202139 -1759.97821045 1368.65756226 C-1759.18702097 1366.12770638 -1758.39582811 1363.59785156 -1757.60463142 1361.06799793 C-1757.07703379 1359.38100265 -1756.5494389 1357.69400651 -1756.02184677 1356.00700951 C-1755.49416017 1354.31972107 -1754.96646292 1352.63243597 -1754.43875504 1350.94515419 C-1748.55136105 1332.12040885 -1742.67749495 1313.29145553 -1736.80859375 1294.4609375 C-1736.43732298 1293.26978144 -1736.43732298 1293.26978144 -1736.05855179 1292.05456161 C-1730.42987173 1273.99576642 -1724.80680599 1255.93523727 -1719.1953125 1237.87109375 C-1718.95995474 1237.11345797 -1718.72459698 1236.35582218 -1718.48210716 1235.57522774 C-1716.58297818 1229.46166794 -1714.68394973 1223.3480769 -1712.78516769 1217.23440933 C-1704.74600486 1191.35017615 -1696.66890009 1165.47794807 -1688.57707596 1139.61013412 C-1680.99257831 1115.36334421 -1673.44241349 1091.10626749 -1665.93359375 1066.8359375 C-1658.18203552 1041.78167077 -1650.38688305 1016.74133664 -1642.55859375 991.7109375 C-1642.29750446 990.87610714 -1642.03641518 990.04127678 -1641.76741409 989.18114853 C-1640.97589593 986.65030281 -1640.18436204 984.11946201 -1639.39282227 981.58862305 C-1638.60122351 979.05759402 -1637.80962722 976.52656422 -1637.01804161 973.99553108 C-1636.49022086 972.30786901 -1635.9623901 970.62021006 -1635.43454933 968.93255424 C-1629.56803085 950.17493151 -1623.71768726 931.41227879 -1617.87109375 912.6484375 C-1617.62473049 911.85778522 -1617.37836723 911.06713295 -1617.12453842 910.25252151 C-1614.88703917 903.07170332 -1612.64964267 895.89085311 -1610.41242981 888.70994568 C-1607.16212427 878.27746124 -1603.91030377 867.84545003 -1600.65744591 857.41376114 C-1588.32292296 817.85955652 -1588.32292296 817.85955652 -1576.015625 778.296875 C-1575.77334042 777.51705009 -1575.53105583 776.73722519 -1575.28142929 775.93376923 C-1573.34070214 769.68708433 -1571.40021123 763.44032604 -1569.4598999 757.19351196 C-1562.41655958 734.51764591 -1555.34891185 711.84954063 -1548.25780869 689.18856812 C-1541.23038189 666.73040278 -1534.25596932 644.25612636 -1527.30060959 621.77554703 C-1520.17866384 598.7576281 -1513.00439735 575.75672802 -1505.7845192 552.76934814 C-1499.40941902 532.4712109 -1493.07784005 512.16013465 -1486.79090309 491.83451176 C-1485.16686706 486.58420275 -1483.54091576 481.33449045 -1481.91357422 476.08520508 C-1481.68742369 475.35568225 -1481.46127316 474.62615942 -1481.22826958 473.87452984 C-1480.32519241 470.96148304 -1479.42205503 468.04845496 -1478.51871872 465.13548851 C-1475.95084554 456.85473845 -1473.38858586 448.57231457 -1470.83734131 440.28642559 C-1469.11108098 434.68224966 -1467.37335303 429.08167128 -1465.63146973 423.48233032 C-1464.93116164 421.22457577 -1464.23461725 418.96564937 -1463.5423584 416.70541382 C-1458.58401734 400.52477645 -1453.34584749 384.07339723 -1443.93359375 369.8359375 C-1443.30432983 368.85826416 -1443.30432983 368.85826416 -1442.66235352 367.86083984 C-1420.59525065 334.08850529 -1387.31701713 310.559061 -1348.109375 301.3515625 C-1346.88516846 301.06023941 -1345.66096191 300.76891632 -1344.3996582 300.46876526 C-1323.4056669 295.49910707 -1302.33397701 290.85387972 -1281.28237915 286.1362915 C-1274.69630103 284.65976754 -1268.11084529 283.18047364 -1261.52539062 281.70117188 C-1260.1650569 281.39560748 -1258.80472314 281.09004324 -1257.44438934 280.78447914 C-1255.38192077 280.32119535 -1253.31945343 279.85790604 -1251.25698996 279.39459956 C-1247.05899979 278.45158989 -1242.86095482 277.50882462 -1238.66286802 276.5662452 C-1218.33394915 272.00181723 -1198.00768238 267.42573036 -1177.68359375 262.83984375 C-1176.99943469 262.68547364 -1176.31527562 262.53110353 -1175.61038446 262.37205553 C-1167.99639705 260.65404384 -1160.38248814 258.93568434 -1152.76861572 257.21716309 C-1138.80038344 254.06440632 -1124.83188222 250.91284155 -1110.86328125 247.76171875 C-1110.17427278 247.60628585 -1109.48526431 247.45085296 -1108.7753768 247.29070997 C-1078.03898907 240.35699389 -1047.29929536 233.43800356 -1016.55859375 226.5234375 C-1015.32584339 226.24615059 -1014.09309303 225.96886368 -1012.8229866 225.68317413 C-1007.86824787 224.56869203 -1002.91350604 223.45422373 -997.95876408 222.33975601 C-995.50096864 221.78692501 -993.0431735 221.23409273 -990.58537865 220.68125916 C-988.1415231 220.13156188 -985.69766654 219.58186908 -983.25380898 219.03218079 C-956.12510368 212.93013228 -928.99791387 206.82136042 -901.87109375 200.7109375 C-900.72940231 200.45376701 -899.58771088 200.19659653 -898.41142273 199.931633 C-888.07951658 197.6043176 -877.74762173 195.27695202 -867.41574097 192.94952393 C-852.73115615 189.6416185 -838.04637395 186.3345906 -823.36145782 183.02815628 C-813.17713874 180.73505462 -802.99285637 178.44178991 -792.80859375 176.1484375 C-791.68081261 175.89447708 -790.55303146 175.64051666 -789.39107513 175.37886047 C-760.79335825 168.93893727 -732.19669369 162.49436282 -703.6015625 156.04296875 C-702.9162475 155.88835458 -702.23093249 155.73374041 -701.52485037 155.57444096 C-693.83576864 153.83969981 -686.14670276 152.10488843 -678.4576416 150.37005615 C-675.63712582 149.7336825 -672.81660985 149.0973097 -669.99609375 148.4609375 C-669.29769442 148.30336251 -668.59929508 148.14578753 -667.87973213 147.98343754 C-619.57716121 137.0853019 -571.27029101 126.20642478 -522.96054077 115.34015083 C-520.50234196 114.78723008 -518.04414341 114.23430815 -515.58594513 113.68138504 C-513.14184917 113.13163472 -510.69775229 112.58188851 -508.25365448 112.03214645 C-481.1250007 105.93010919 -453.99787754 99.82128174 -426.87109375 93.7109375 C-424.57269293 93.19322688 -422.27429205 92.67551651 -419.97589111 92.1578064 C-410.82239543 90.095988 -401.66891004 88.0341239 -392.51544189 85.97218323 C-376.41661865 82.34570998 -360.31771344 78.71960083 -344.21875 75.09375 C-342.50070758 74.70680655 -342.50070758 74.70680655 -340.74795723 74.31204605 C-329.16394857 71.70305729 -317.5799311 69.09410763 -305.99590397 66.48520088 C-300.20169369 65.18025012 -294.40748669 63.87528476 -288.61328125 62.5703125 C-286.89304654 62.18288187 -286.89304654 62.18288187 -285.13805962 61.78762436 C-272.54149441 58.95061079 -259.94498793 56.11333687 -247.34863281 53.27539062 C-246.23239973 53.02390479 -245.11616665 52.77241896 -243.96610832 52.51331234 C-239.45017623 51.49587168 -234.93424587 50.4784233 -230.41832352 49.46093941 C-217.95898676 46.65373812 -205.49949564 43.8472257 -193.03955078 41.04272461 C-189.60500505 40.26963795 -186.17046142 39.49654195 -182.73591995 38.72343636 C-180.41644245 38.20133037 -178.09696154 37.6792395 -175.77747726 37.15716362 C-159.93447355 33.59095686 -144.09296455 30.01819035 -128.2525959 26.4403019 C-116.31597341 23.74423565 -104.37865024 21.05128511 -92.44088554 18.36028099 C-84.48315785 16.56631041 -76.52604559 14.76965673 -68.56971598 12.96949559 C-62.48781579 11.59371758 -56.40487002 10.22261505 -50.32154083 8.85317039 C-47.82085721 8.28944811 -45.32051585 7.72420497 -42.82054901 7.15731239 C-11.89417124 0.1465401 -11.89417124 0.1465401 0 0 Z M-285.97296143 473.14131165 C-286.77236774 473.32099267 -287.57177406 473.50067369 -288.39540482 473.6857996 C-289.26813412 473.88656825 -290.14086342 474.0873369 -291.04003906 474.29418945 C-291.97223644 474.50502135 -292.90443382 474.71585325 -293.86487961 474.933074 C-296.99809042 475.64275105 -300.1298741 476.35853884 -303.26171875 477.07421875 C-305.50300153 477.58302192 -307.74437756 478.09141446 -309.98583984 478.59942627 C-314.82920213 479.69793086 -319.67196335 480.79903526 -324.51428223 481.90213013 C-332.27641826 483.6702343 -340.03990111 485.43237913 -347.80371094 487.19311523 C-349.13261074 487.49451549 -350.46151012 487.79591759 -351.79040909 488.09732151 C-353.80280109 488.55374499 -355.81519445 489.01016254 -357.82759404 489.46655256 C-361.92875933 490.39669035 -366.0298176 491.32729838 -370.13079286 492.25827366 C-397.89457528 498.56098202 -425.66926198 504.81486709 -453.44642258 511.05834961 C-459.7352981 512.47204139 -466.02401966 513.8864177 -472.31274414 515.30078125 C-474.8324736 515.86747303 -477.35220321 516.43416411 -479.87193298 517.00085449 C-481.11639631 517.28073715 -482.36085964 517.56061981 -483.64303398 517.84898376 C-487.39613027 518.69303662 -491.14924244 519.53701878 -494.90235901 520.38098145 C-520.47637162 526.13191121 -546.04899247 531.88901534 -571.62109375 537.6484375 C-572.74083714 537.90061916 -573.86058052 538.15280083 -575.01425552 538.41262436 C-603.42084312 544.81020343 -631.82628335 551.21285856 -660.23046875 557.62109375 C-660.91630279 557.77582326 -661.60213684 557.93055278 -662.30875373 558.08997107 C-670.00600705 559.82653573 -677.70324665 561.56316117 -685.40048218 563.29980469 C-686.09886611 563.45737334 -686.79725004 563.614942 -687.51679713 563.77728546 C-690.34072368 564.41441714 -693.16465023 565.05154883 -695.98857546 565.68868637 C-736.85190565 574.90831773 -777.71747913 584.11787087 -818.58673477 593.31120682 C-823.52366096 594.42176638 -828.46056017 595.53244588 -833.39745998 596.64312267 C-855.56189991 601.62952374 -877.72651734 606.61513344 -899.89173317 611.59808445 C-909.9023909 613.84866615 -919.9128021 616.10034248 -929.92305565 618.35272121 C-935.76450925 619.66704269 -941.60606589 620.98090092 -947.44793701 622.29336548 C-959.08341653 624.90773748 -970.7169686 627.53025664 -982.34687614 630.16931438 C-989.05246744 631.6891896 -995.76213713 633.18976832 -1002.47419357 634.68081951 C-1007.18714414 635.73060476 -1011.89739386 636.79217678 -1016.60718536 637.85603523 C-1018.83330225 638.35628284 -1021.06049845 638.85175763 -1023.28887177 639.341856 C-1056.16734686 646.58056416 -1083.72691889 659.65020973 -1107.93359375 683.3359375 C-1108.59488281 683.94695312 -1109.25617188 684.55796875 -1109.9375 685.1875 C-1128.50972513 702.68244989 -1139.9055919 727.49921954 -1147.37109375 751.4609375 C-1147.87724488 753.05452416 -1148.38419518 754.64785715 -1148.8918457 756.2409668 C-1150.59299126 761.59958989 -1152.26563084 766.96690702 -1153.93359375 772.3359375 C-1154.2277417 773.2819281 -1154.52188965 774.2279187 -1154.82495117 775.20257568 C-1157.814304 784.82146379 -1160.78945674 794.44471639 -1163.75317383 804.0715332 C-1169.86729782 823.92822991 -1176.05381493 843.76179906 -1182.25821686 863.59045029 C-1184.67811283 871.32438542 -1187.09715357 879.05858804 -1189.515625 886.79296875 C-1189.91718182 888.07714408 -1189.91718182 888.07714408 -1190.32685089 889.38726234 C-1196.15563727 908.02987484 -1201.95377575 926.68196777 -1207.74609375 945.3359375 C-1215.00982812 968.72830314 -1222.29658757 992.11326289 -1229.61136627 1015.48971558 C-1236.31893692 1036.92685952 -1242.98106033 1058.37778526 -1249.62109375 1079.8359375 C-1257.47721957 1105.22340667 -1265.37604779 1130.59724276 -1273.30859375 1155.9609375 C-1273.56934944 1156.79470036 -1273.83010513 1157.62846321 -1274.09876251 1158.48749161 C-1274.89021095 1161.01811347 -1275.68167489 1163.54873048 -1276.47314453 1166.0793457 C-1277.26504533 1168.61134111 -1278.05694362 1171.14333729 -1278.84883118 1173.67533684 C-1279.37678538 1175.36342618 -1279.90474966 1177.05151237 -1280.432724 1178.73959541 C-1286.2992139 1197.49712659 -1292.14952877 1216.25968779 -1297.99609375 1235.0234375 C-1298.24245701 1235.81408978 -1298.48882027 1236.60474205 -1298.74264908 1237.41935349 C-1300.98014833 1244.60017168 -1303.21754483 1251.78102189 -1305.45475769 1258.96192932 C-1308.70506323 1269.39441376 -1311.95688373 1279.82642497 -1315.20974159 1290.25811386 C-1327.54426454 1329.81231848 -1327.54426454 1329.81231848 -1339.8515625 1369.375 C-1340.09384708 1370.15482491 -1340.33613167 1370.93464981 -1340.58575821 1371.73810577 C-1342.52648536 1377.98479067 -1344.46697627 1384.23154896 -1346.4072876 1390.47836304 C-1353.44960945 1413.15095013 -1360.51672363 1435.81562176 -1367.60625458 1458.47348785 C-1372.61569825 1474.48431621 -1377.61094003 1490.49944281 -1382.578125 1506.5234375 C-1382.93387509 1507.671032 -1382.93387509 1507.671032 -1383.29681206 1508.84181023 C-1385.90345701 1517.25150917 -1388.50655268 1525.66229686 -1391.10522461 1534.07446289 C-1392.01132299 1537.00674524 -1392.91767135 1539.93895019 -1393.82421875 1542.87109375 C-1394.04441744 1543.58338701 -1394.26461613 1544.29568027 -1394.4914875 1545.02955818 C-1397.38730231 1554.39266013 -1400.32046805 1563.7429288 -1403.29296875 1573.08203125 C-1404.25301227 1576.11236999 -1405.21239794 1579.14291634 -1406.17169189 1582.17349243 C-1407.01374668 1584.81998757 -1407.86843389 1587.46213684 -1408.72412109 1590.10424805 C-1413.49209617 1605.0366943 -1417.38472897 1620.65648199 -1417.80859375 1636.3984375 C-1417.8542749 1637.75183228 -1417.8542749 1637.75183228 -1417.90087891 1639.13256836 C-1418.80948739 1678.86511579 -1404.00727854 1717.63466702 -1376.671875 1746.421875 C-1374.57923891 1748.64884579 -1372.55668783 1750.89687441 -1370.5546875 1753.203125 C-1367.0271842 1757.25795771 -1363.37542772 1761.18095473 -1359.68359375 1765.0859375 C-1354.28248523 1770.822742 -1348.92329127 1776.592402 -1343.609375 1782.41015625 C-1340.72741163 1785.56138335 -1337.83214225 1788.6999779 -1334.93359375 1791.8359375 C-1331.09115066 1795.99431617 -1327.25697767 1800.16002836 -1323.43359375 1804.3359375 C-1318.12159559 1810.13701012 -1312.78765019 1815.91762891 -1307.44970703 1821.69482422 C-1304.94345271 1824.40771336 -1302.43858929 1827.12188609 -1299.93359375 1829.8359375 C-1298.93360051 1830.91927707 -1297.93360051 1832.00261041 -1296.93359375 1833.0859375 C-1266.93359375 1865.5859375 -1236.93359375 1898.0859375 -1206.93359375 1930.5859375 C-1206.43851318 1931.12226807 -1205.94343262 1931.65859863 -1205.43334961 1932.21118164 C-1204.43413637 1933.29367621 -1203.43495013 1934.37619571 -1202.43579102 1935.45874023 C-1199.9239754 1938.18011258 -1197.41168042 1940.90103945 -1194.8984375 1943.62109375 C-1189.61246692 1949.34302067 -1184.33648571 1955.07377177 -1179.07568359 1960.81884766 C-1174.21518253 1966.12453236 -1169.33278463 1971.40992474 -1164.44970703 1976.69482422 C-1161.94345271 1979.40771336 -1159.43858929 1982.12188609 -1156.93359375 1984.8359375 C-1155.93360051 1985.91927707 -1154.93360051 1987.00261041 -1153.93359375 1988.0859375 C-1119.93359375 2024.91927083 -1085.93359375 2061.75260417 -1051.93359375 2098.5859375 C-1051.43851318 2099.12226807 -1050.94343262 2099.65859863 -1050.43334961 2100.21118164 C-1049.43413637 2101.29367621 -1048.43495013 2102.37619571 -1047.43579102 2103.45874023 C-1044.9239754 2106.18011258 -1042.41168042 2108.90103945 -1039.8984375 2111.62109375 C-1034.61246692 2117.34302067 -1029.33648571 2123.07377177 -1024.07568359 2128.81884766 C-1019.21518253 2134.12453236 -1014.33278463 2139.40992474 -1009.44970703 2144.69482422 C-1006.94345271 2147.40771336 -1004.43858929 2150.12188609 -1001.93359375 2152.8359375 C-1000.93360051 2153.91927707 -999.93360051 2155.00261041 -998.93359375 2156.0859375 C-964.93359375 2192.91927083 -930.93359375 2229.75260417 -896.93359375 2266.5859375 C-896.43851318 2267.12226807 -895.94343262 2267.65859863 -895.43334961 2268.21118164 C-894.43413637 2269.29367621 -893.43495013 2270.37619571 -892.43579102 2271.45874023 C-889.9239754 2274.18011258 -887.41168042 2276.90103945 -884.8984375 2279.62109375 C-879.61246692 2285.34302067 -874.33648571 2291.07377177 -869.07568359 2296.81884766 C-864.21518253 2302.12453236 -859.33278463 2307.40992474 -854.44970703 2312.69482422 C-851.94345271 2315.40771336 -849.43858929 2318.12188609 -846.93359375 2320.8359375 C-845.93360051 2321.91927707 -844.93360051 2323.00261041 -843.93359375 2324.0859375 C-789.93359375 2382.5859375 -789.93359375 2382.5859375 -788.43310547 2384.21166992 C-787.43500353 2385.2928116 -786.43663193 2386.37370438 -785.43798828 2387.4543457 C-782.90665643 2390.19421304 -780.38044296 2392.93851035 -777.86328125 2395.69140625 C-775.36440357 2398.42187556 -772.85204073 2401.1391732 -770.32568359 2403.84423828 C-769.04060552 2405.22126862 -767.76218136 2406.60450052 -766.484375 2407.98828125 C-740.79318052 2434.86848968 -702.87026053 2450.19557149 -666.0234375 2451.625 C-663.99366942 2451.6643785 -661.96366637 2451.69320904 -659.93359375 2451.7109375 C-658.58503296 2451.73172363 -658.58503296 2451.73172363 -657.20922852 2451.75292969 C-639.78379461 2451.63644337 -622.49324246 2447.32509271 -605.6015625 2443.453125 C-603.4482109 2442.96530438 -601.29470788 2442.47815181 -599.1410675 2441.99160767 C-594.54034989 2440.95081625 -589.94067592 2439.9055747 -585.34179688 2438.85668945 C-577.9690825 2437.1752196 -570.59409506 2435.503872 -563.21875 2433.83398438 C-555.50516809 2432.08696905 -547.79174539 2430.33926342 -540.07919312 2428.58770752 C-522.99915551 2424.70884599 -505.91564076 2420.84578471 -488.828125 2417 C-487.12698831 2416.61712389 -487.12698831 2416.61712389 -485.39148521 2416.22651291 C-479.68753537 2414.94282652 -473.98350979 2413.65947708 -468.27944946 2412.37628174 C-457.90522299 2410.04230513 -447.53167767 2407.70530406 -437.15807152 2405.36857224 C-431.37493928 2404.06590735 -425.59176439 2402.76343188 -419.80859375 2401.4609375 C-417.49609354 2400.94010508 -415.18359354 2400.41927174 -412.87109375 2399.8984375 C-398.99609777 2396.77343841 -398.99609777 2396.77343841 -395.52736473 2395.99219227 C-393.21479477 2395.47134315 -390.90222483 2394.95049392 -388.58965492 2394.42964458 C-382.80947552 2393.12780188 -377.0292957 2391.82596106 -371.24911499 2390.52412415 C-360.83008031 2388.17750285 -350.41104866 2385.83086808 -339.992033 2383.48416233 C-334.19390954 2382.17823424 -328.39578356 2380.87231729 -322.59765625 2379.56640625 C-321.45029621 2379.30798635 -320.30293617 2379.04956646 -319.12080765 2378.78331566 C-303.18832454 2375.19486537 -287.25570381 2371.60702675 -271.32298851 2368.01960754 C-261.15149076 2365.72936332 -250.98003381 2363.43893792 -240.80859375 2361.1484375 C-239.68141308 2360.89461052 -238.55423241 2360.64078354 -237.39289474 2360.37926483 C-208.79457517 2353.93918973 -180.19729979 2347.49449956 -151.6015625 2341.04296875 C-150.9162475 2340.88835458 -150.23093249 2340.73374041 -149.52485037 2340.57444096 C-141.83576864 2338.83969981 -134.14670276 2337.10488843 -126.4576416 2335.37005615 C-123.63712582 2334.7336825 -120.81660985 2334.0973097 -117.99609375 2333.4609375 C-117.29769442 2333.30336251 -116.59929508 2333.14578753 -115.87973213 2332.98343754 C-73.77559715 2323.48380708 -31.66887614 2313.99578736 10.44140625 2304.5234375 C12.91382905 2303.96726713 15.38625134 2303.41109445 17.8586731 2302.85491943 C27.63639517 2300.6554177 37.41413187 2298.45598093 47.19187927 2296.2565918 C64.43144843 2292.37873021 81.67092893 2288.50047476 98.91015625 2284.62109375 C100.12929026 2284.34675003 101.34842426 2284.07240631 102.60450172 2283.78974915 C121.24724651 2279.59434124 139.88888025 2275.3940198 158.52959251 2271.18959045 C170.19486977 2268.55848418 181.86094509 2265.93108638 193.53016281 2263.31750679 C199.83365341 2261.90561302 206.13618024 2260.48948623 212.43783951 2259.06944084 C215.862917 2258.29784258 219.28844283 2257.52844097 222.71551514 2256.76574707 C250.50282847 2250.8614471 250.50282847 2250.8614471 276.87890625 2240.5859375 C277.74435059 2240.16256104 278.60979492 2239.73918457 279.50146484 2239.30297852 C318.43722454 2219.79187673 344.10079316 2186.17424145 357.69252014 2145.46042252 C361.18329627 2134.82315553 364.46465084 2124.11794682 367.76723099 2113.42117691 C369.13329673 2109.00211245 370.50731479 2104.58552156 371.88061523 2100.16870117 C374.16069596 2092.8327784 376.43685791 2085.49565125 378.71044922 2078.15771484 C381.861018 2067.99101282 385.02528988 2057.82861977 388.1953125 2047.66796875 C388.44170408 2046.87816305 388.68809566 2046.08835735 388.94195366 2045.27461815 C389.93175157 2042.10187402 390.92159018 2038.9291426 391.91154003 2035.75644588 C394.39368255 2027.80102523 396.87262585 2019.84460875 399.35127068 2011.88809776 C403.34670095 1999.0626993 407.34370489 1986.2377926 411.34263992 1973.41348648 C413.6049028 1966.15852444 415.86695666 1958.90349722 418.12890625 1951.6484375 C418.37747627 1950.85116493 418.6260463 1950.05389236 418.88214874 1949.23246002 C424.53198061 1931.11048417 430.17751943 1912.98718919 435.80859375 1894.859375 C436.04383507 1894.10208855 436.27907639 1893.34480209 436.52144623 1892.56456757 C438.4193358 1886.4547672 440.31705562 1880.3449141 442.21463013 1874.23501587 C450.25158596 1848.35770861 458.32651219 1822.49241433 466.41622925 1796.63155746 C474.98565688 1769.23634231 483.51164366 1741.82794632 491.99306393 1714.4053545 C492.84074037 1711.66462854 493.68864199 1708.92397226 494.53653526 1706.18331337 C494.94648113 1704.85790009 495.35627487 1703.53243976 495.76590919 1702.20693016 C498.13021304 1694.55652739 500.51048456 1686.91144609 502.91455078 1679.2734375 C503.38450832 1677.7782053 503.85444371 1676.28296613 504.32435608 1674.78771973 C505.22077301 1671.93570799 506.12093537 1669.08491453 507.0231781 1666.23474121 C507.42647593 1664.95276062 507.82964571 1663.67073974 508.23266602 1662.38867188 C508.58756607 1661.26537476 508.94246613 1660.14207764 509.30812073 1658.98474121 C510.15814599 1656.47467794 510.15814599 1656.47467794 510.06640625 1654.3359375 C498.74983542 1655.96778222 487.65712229 1658.59137506 476.515625 1661.12109375 C474.35076064 1661.60999616 472.18582648 1662.09858955 470.02082825 1662.5868988 C465.37281864 1663.63590401 460.72528793 1664.68699646 456.078125 1665.73974609 C448.63356363 1667.42618178 441.18795835 1669.10797598 433.7421875 1670.7890625 C425.96737676 1672.54469244 418.19263997 1674.30064703 410.41830444 1676.05838013 C393.25712681 1679.93838206 376.09433662 1683.81116291 358.9296875 1687.67578125 C357.79652792 1687.93091555 356.66336834 1688.18604984 355.49587059 1688.44891548 C349.79867787 1689.73160612 344.10144973 1691.0141393 338.40420532 1692.29660034 C328.03306316 1694.63124585 317.66223969 1696.96730637 307.29138756 1699.30323982 C301.50807307 1700.60586174 295.72473867 1701.90839521 289.94140625 1703.2109375 C287.62890615 1703.73177041 285.31640615 1704.25260374 283.00390625 1704.7734375 C158.12889067 1732.89844101 158.12889067 1732.89844101 154.66017723 1733.67968273 C152.34760727 1734.20053185 150.03503733 1734.72138108 147.72246742 1735.24223042 C141.94228802 1736.54407312 136.1621082 1737.84591394 130.38192749 1739.14775085 C119.96289281 1741.49437215 109.54386116 1743.84100692 99.1248455 1746.18771267 C93.32672204 1747.49364076 87.52859606 1748.79955771 81.73046875 1750.10546875 C80.58310871 1750.36388865 79.43574867 1750.62230854 78.25362015 1750.88855934 C63.44248823 1754.22444931 48.63125354 1757.55988252 33.81990051 1760.89479065 C29.32060665 1761.90785182 24.82132936 1762.92098659 20.32206726 1763.93418884 C18.06033338 1764.44351253 15.79859937 1764.95283565 13.53686523 1765.4621582 C12.41497142 1765.71480029 11.2930776 1765.96744238 10.137187 1766.22774029 C3.36648788 1767.7523827 -3.40433881 1769.27645711 -10.17525578 1770.8001318 C-35.38836176 1776.47417142 -60.59812268 1782.16268067 -85.80306458 1787.87286133 C-91.15829227 1789.08600841 -96.51371317 1790.29829955 -101.8692627 1791.51002502 C-102.62311587 1791.68059081 -103.37696905 1791.8511566 -104.15366626 1792.02689105 C-107.18995148 1792.71385315 -110.22624428 1793.40078169 -113.26256227 1794.08759892 C-122.15917806 1796.10002606 -131.05516894 1798.11515961 -139.95005101 1800.1352365 C-145.52717754 1801.40158205 -151.10507449 1802.66449623 -156.6835435 1803.9249146 C-159.90770212 1804.65351801 -163.13137087 1805.38412297 -166.35435295 1806.11792374 C-219.01326282 1818.10380382 -264.83097796 1820.64049745 -312.93359375 1792.3359375 C-317.1815468 1789.63755223 -321.09830041 1786.59209563 -324.93359375 1783.3359375 C-325.71863281 1782.67722656 -326.50367188 1782.01851562 -327.3125 1781.33984375 C-332.80490049 1776.55322125 -337.95647989 1771.40785932 -343.12109375 1766.2734375 C-344.11931152 1765.28234985 -344.11931152 1765.28234985 -345.13769531 1764.27124023 C-348.99391973 1760.40207225 -352.6604076 1756.42388403 -356.22973633 1752.28930664 C-358.96953034 1749.14829907 -361.82744587 1746.12084855 -364.68359375 1743.0859375 C-369.90024752 1737.51993567 -375.07894093 1731.92294432 -380.2265625 1726.29296875 C-383.09850034 1723.15260591 -385.98365909 1720.02454936 -388.87109375 1716.8984375 C-389.37012207 1716.35815918 -389.86915039 1715.81788086 -390.38330078 1715.26123047 C-391.39464047 1714.16645444 -392.40603383 1713.071728 -393.41748047 1711.97705078 C-396.42317513 1708.72354362 -399.42698769 1705.46829874 -402.43115234 1702.21337891 C-404.94306297 1699.49193777 -407.45542904 1696.77092001 -409.96875 1694.05078125 C-415.25472058 1688.32885433 -420.53070179 1682.59810323 -425.79150391 1676.85302734 C-430.65200497 1671.54734264 -435.53440287 1666.26195026 -440.41748047 1660.97705078 C-442.92373479 1658.26416164 -445.42859821 1655.54998891 -447.93359375 1652.8359375 C-448.93358699 1651.75259793 -449.93358699 1650.66926459 -450.93359375 1649.5859375 C-459.93359375 1639.8359375 -459.93359375 1639.8359375 -468.93359375 1630.0859375 C-469.42867432 1629.54960693 -469.92375488 1629.01327637 -470.43383789 1628.46069336 C-471.43305113 1627.37819879 -472.43223737 1626.29567929 -473.43139648 1625.21313477 C-475.9432121 1622.49176242 -478.45550708 1619.77083555 -480.96875 1617.05078125 C-486.25472058 1611.32885433 -491.53070179 1605.59810323 -496.79150391 1599.85302734 C-501.15173086 1595.09343792 -505.52947321 1590.35013345 -509.91015625 1585.609375 C-511.88631057 1583.47076226 -513.86025743 1581.33015198 -515.83203125 1579.1875 C-521.35646621 1573.18736529 -526.91254351 1567.21862393 -532.49609375 1561.2734375 C-534.3904415 1559.25206491 -536.28424806 1557.23018735 -538.17773438 1555.20800781 C-539.28649271 1554.0258667 -540.39694669 1552.84531162 -541.50976562 1551.66699219 C-565.48153468 1526.2785648 -579.38967393 1498.07527382 -580.30859375 1462.7734375 C-579.86926256 1448.71279133 -577.3063626 1434.93076684 -572.95471191 1421.57391357 C-572.19381398 1419.23793727 -571.45239589 1416.89636449 -570.71386719 1414.55322266 C-569.51360662 1410.75009061 -568.30562821 1406.94950324 -567.09423828 1403.14990234 C-564.57880361 1395.23926045 -562.11333827 1387.31321557 -559.6484375 1379.38671875 C-559.16815512 1377.84261983 -558.68786944 1376.29852195 -558.20758057 1374.75442505 C-557.46487907 1372.3665711 -556.72220981 1369.97870716 -555.97964478 1367.59081078 C-553.11187477 1358.36997504 -550.2356122 1349.15179106 -547.359375 1339.93359375 C-546.2833347 1336.48454749 -545.20734373 1333.03548584 -544.13134766 1329.58642578 C-543.86536522 1328.73385382 -543.59938278 1327.88128185 -543.32534027 1327.00287437 C-538.75444452 1312.35123285 -534.18619198 1297.69876708 -529.61853409 1283.04611588 C-528.86855743 1280.64030135 -528.11853192 1278.23450206 -527.36849976 1275.82870483 C-521.96870569 1258.50790144 -516.57350792 1241.18568495 -511.19140625 1223.859375 C-510.95616493 1223.10208855 -510.72092361 1222.34480209 -510.47855377 1221.56456757 C-508.5806642 1215.4547672 -506.68294438 1209.3449141 -504.78536987 1203.23501587 C-496.74679525 1177.35249647 -488.67042121 1151.48193541 -480.57886124 1125.61593628 C-472.67899075 1100.36212396 -464.82070573 1075.0958193 -457.00107956 1049.81705093 C-449.97783433 1027.11355445 -442.90028201 1004.42773088 -435.77993774 981.75450897 C-428.86499813 959.73434363 -422.00443388 937.69792655 -415.18359375 915.6484375 C-407.34903151 890.32322753 -399.47173559 865.01170608 -391.55859375 839.7109375 C-391.03146347 838.02547205 -390.50433334 836.34000656 -389.97720337 834.65454102 C-389.44940287 832.96695932 -388.92160135 831.27937794 -388.39379883 829.59179688 C-387.60195766 827.05998291 -386.81011975 824.52816793 -386.01829338 821.99634933 C-385.49036674 820.30833983 -384.96242916 818.62033375 -384.43448067 816.93233109 C-378.56798457 798.17478289 -372.71766411 779.41220449 -366.87109375 760.6484375 C-366.62473049 759.85778522 -366.37836723 759.06713295 -366.12453842 758.25252151 C-363.88703917 751.07170332 -361.64964267 743.89085311 -359.41242981 736.70994568 C-356.16209574 726.27736967 -352.91024658 715.84526691 -349.65736008 705.41348648 C-347.3950972 698.15852444 -345.13304334 690.90349722 -342.87109375 683.6484375 C-342.62252373 682.85116493 -342.3739537 682.05389236 -342.11785126 681.23246002 C-336.46801939 663.11048419 -330.82247008 644.98719243 -325.19140625 626.859375 C-324.95581182 626.10094614 -324.7202174 625.34251728 -324.47748375 624.56110573 C-323.28960299 620.73697473 -322.10180193 616.91281898 -320.91403198 613.08865356 C-320.67967815 612.33412525 -320.44532433 611.57959694 -320.20386887 610.80220413 C-319.73356103 609.28799181 -319.26325715 607.77377825 -318.79295731 606.25956345 C-307.92880316 571.28156175 -297.00787287 536.32131744 -286.07039738 501.36617947 C-285.64970132 500.02072997 -285.22954789 498.67511066 -284.80998135 497.32930851 C-283.72036229 493.83652943 -282.61926205 490.34786948 -281.50274658 486.86358643 C-281.26983225 486.13182001 -281.03691792 485.4000536 -280.79694557 484.64611244 C-280.35120405 483.24636829 -279.9021282 481.84768009 -279.44919395 480.45024681 C-278.55051861 477.61782735 -277.93359375 475.3291881 -277.93359375 472.3359375 C-280.99076581 472.3359375 -283.08277422 472.48366751 -285.97296143 473.14131165 Z " fill="#000000" transform="translate(1868.93359375,-0.3359375)"/>
<path d="M0 0 C0.66 0 1.32 0 2 0 C1.67 1.32 1.34 2.64 1 4 C0.67 2.68 0.34 1.36 0 0 Z " fill="#000000" transform="translate(1277,1496)"/>
</svg>
