<?xml version="1.0" encoding="UTF-8"?>
<svg version="1.1" xmlns="http://www.w3.org/2000/svg" width="2702" height="825">
<path d="M0 0 C8.60315229 6.36084132 15.89346124 14.45036549 22.88232422 22.49829102 C25.82817435 25.84426802 28.8908232 29.07730183 31.953125 32.31640625 C37.35423352 38.05321075 42.71342748 43.82287075 48.02734375 49.640625 C50.90930712 52.7918521 53.8045765 55.93044665 56.703125 59.06640625 C60.54556809 63.22478492 64.37974108 67.39049711 68.203125 71.56640625 C73.51512316 77.36747887 78.84906856 83.14809766 84.18701172 88.92529297 C86.69326604 91.63818211 89.19812946 94.35235484 91.703125 97.06640625 C92.70311824 98.14974582 93.70311824 99.23307916 94.703125 100.31640625 C120.703125 128.48307292 146.703125 156.64973958 172.703125 184.81640625 C173.1986084 185.35297852 173.6940918 185.88955078 174.20458984 186.44238281 C175.20051928 187.52171201 176.1956421 188.60178609 177.18994141 189.68261719 C179.74598419 192.45899404 182.31640407 195.21951099 184.9140625 197.95703125 C199.94044259 213.83812287 199.94044259 213.83812287 200.453125 223.06640625 C200.16722858 228.49843826 198.91595611 232.17926947 195.89453125 236.6640625 C190.39786779 241.43567588 182.96629789 243.24872627 175.98974609 244.76464844 C175.17062241 244.95055038 174.35149872 245.13645233 173.5075531 245.32798767 C170.83256124 245.93245292 168.1547758 246.52326787 165.4765625 247.11328125 C163.60033704 247.53293697 161.72425072 247.95321515 159.84829712 248.37408447 C155.93110508 249.25070814 152.01252157 250.12071928 148.09277344 250.98583984 C143.07906449 252.09282878 138.06888112 253.21491359 133.05960655 254.3417778 C129.19174452 255.21037353 125.32228447 256.07166407 121.45228958 256.93070221 C119.60432344 257.34167486 117.75681941 257.75473135 115.90980148 258.16994476 C113.3273285 258.74919125 110.74289656 259.31872495 108.15771484 259.88574219 C107.4022084 260.05712204 106.64670197 260.22850189 105.86830139 260.40507507 C97.99430937 262.10956656 91.03985685 262.13973679 83.703125 258.56640625 C78.58041771 254.97385828 74.6521234 250.39046305 70.57666016 245.69604492 C67.61411173 242.32852994 64.53410553 239.07526782 61.453125 235.81640625 C56.05075596 230.07826288 50.69052586 224.30705216 45.375 218.48828125 C42.51434832 215.35996625 39.6420085 212.24274675 36.765625 209.12890625 C36.01804932 208.31945557 36.01804932 208.31945557 35.25537109 207.49365234 C33.7381299 205.85107597 32.22066714 204.20870459 30.703125 202.56640625 C27.19585451 198.77080524 23.68961755 194.97426103 20.18652344 191.17480469 C19.18761185 190.09171885 18.18825408 189.00904437 17.18847656 187.92675781 C15.7127635 186.32878503 14.23898416 184.72904926 12.765625 183.12890625 C11.91097656 182.20207031 11.05632813 181.27523437 10.17578125 180.3203125 C7.60647453 177.45876237 5.15801123 174.52622171 2.703125 171.56640625 C-2.84506711 187.83756873 -7.96496119 204.23367583 -13.02575684 220.66104126 C-15.45116975 228.53372562 -17.88599665 236.40350247 -20.3203125 244.2734375 C-20.56916702 245.07819456 -20.81802155 245.88295162 -21.07441711 246.71209526 C-26.3535956 263.78184725 -31.69317407 280.83240698 -37.046875 297.87890625 C-38.76491368 303.35007505 -40.48247751 308.82139269 -42.19921875 314.29296875 C-42.51379123 315.29555694 -42.51379123 315.29555694 -42.8347187 316.31839943 C-47.79160955 332.12028828 -52.7047723 347.93572198 -57.609375 363.75390625 C-57.90747322 364.7153121 -57.90747322 364.7153121 -58.21159363 365.69614029 C-60.57503226 373.31904268 -62.93687752 380.94243782 -65.296875 388.56640625 C-49.71040275 385.55296864 -34.23192625 382.12982764 -18.75390625 378.60546875 C-16.1774896 378.02080389 -13.60102745 377.43634315 -11.02450562 376.85214233 C-5.55701312 375.61203805 -0.08993218 374.37013393 5.37686157 373.12695312 C13.25997616 371.33431574 21.14382254 369.54491348 29.02784717 367.75628328 C51.76891566 362.59694534 74.50807395 357.42920373 97.24707031 352.26074219 C182.13770881 332.9656842 182.13770881 332.9656842 210.77304077 326.60083008 C213.25793965 326.047749 215.74235863 325.49250614 218.22622681 324.93481445 C221.52695356 324.19452079 224.82950892 323.4630709 228.1328125 322.734375 C229.05804214 322.52515915 229.98327179 322.3159433 230.9365387 322.10038757 C241.87766867 319.71332274 251.77129773 317.99356852 261.828125 323.75390625 C268.39905218 328.16894966 272.97264122 333.77013563 274.703125 341.56640625 C275.50925827 350.43121947 273.86820352 357.86949102 271.1015625 366.2421875 C270.512367 368.09900925 269.92317429 369.95583188 269.3340807 371.81268597 C268.70135403 373.79557778 268.0601871 375.77555207 267.41641235 377.75488281 C266.0427274 381.97944488 264.69360807 386.21161334 263.34838867 390.4453125 C261.92324092 394.92747093 260.49694413 399.40923559 259.06297302 403.88858032 C255.77427765 414.16481681 252.54069204 424.45685826 249.35546875 434.765625 C249.13689083 435.47300245 248.91831291 436.18037991 248.69311142 436.90919304 C247.58205939 440.50612845 246.47211203 444.10340362 245.3626709 447.70083618 C243.06968055 455.13453313 240.76742833 462.5653641 238.46484375 469.99609375 C238.23168583 470.74862993 237.99852791 471.50116611 237.7583046 472.27650642 C231.97964377 490.9246091 226.15552129 509.55848687 220.328125 528.19140625 C220.06825302 529.02237068 219.80838104 529.85333511 219.54063416 530.70948029 C218.22667077 534.91099372 216.91266663 539.11249441 215.59866333 543.31399536 C215.33814304 544.14701298 215.07762276 544.98003059 214.80920792 545.83829117 C214.2826954 547.52181423 213.75617308 549.20533423 213.22964096 550.88885117 C207.99485784 567.626876 202.76982479 584.36793163 197.55117226 601.11099243 C196.03995019 605.95907827 194.52731589 610.80672047 193.01348305 615.6539917 C188.31807847 630.68997094 183.63983073 645.73036555 179.04923058 660.7987175 C177.81130453 664.8584369 176.56769167 668.91641928 175.324296 672.97446632 C174.00665188 677.27862233 172.70605387 681.58771878 171.40844727 685.89794922 C170.73389078 688.1027396 170.0587173 690.30734134 169.3828125 692.51171875 C169.09634354 693.47885803 168.80987457 694.44599731 168.51472473 695.44244385 C164.15311073 709.52252383 156.72385838 721.44320194 143.77592468 728.97193909 C131.63019114 735.27432626 116.76547671 737.17443051 103.52734375 740.1328125 C101.09653926 740.67998719 98.66583714 741.22761685 96.23522949 741.77566528 C91.02275578 742.94992113 85.80960299 744.12108721 80.59579468 745.28939819 C72.97525292 746.99703266 65.3560376 748.71052698 57.73711932 750.42538846 C45.44536196 753.19188802 33.15267012 755.9542096 20.859375 758.71386719 C4.80596524 762.31768414 -11.2457365 765.92904825 -27.296875 769.54296875 C-32.29629573 770.66849972 -37.29572777 771.79398041 -42.29516602 772.91943359 C-43.52135682 773.19547235 -44.74754763 773.47151112 -46.01089573 773.75591469 C-58.32455296 776.52777497 -70.63880083 779.29700743 -82.95306587 782.06616592 C-103.93590363 786.7847037 -124.91794113 791.50678036 -145.89898753 796.23327613 C-147.8535507 796.67358921 -149.80811632 797.11389138 -151.76268196 797.5541935 C-164.13980173 800.34239141 -176.51685178 803.1308985 -188.89375591 805.92005348 C-193.3727192 806.92934354 -197.8517285 807.93842931 -202.3307476 808.94747162 C-204.38322585 809.40991212 -206.43568276 809.87244737 -208.48811531 810.33509064 C-209.44804327 810.55146935 -210.40797123 810.76784805 -211.39698792 810.99078369 C-212.32971433 811.20105886 -213.26244074 811.41133404 -214.22343159 811.62798119 C-216.89380221 812.22908858 -219.56477466 812.82746584 -222.23577881 813.42575073 C-225.61159259 814.1830229 -228.98317017 814.9563174 -232.3526001 815.7414856 C-233.56414859 816.02011995 -233.56414859 816.02011995 -234.80017281 816.30438328 C-236.29226833 816.64765455 -237.78324541 816.99584952 -239.27268791 817.35045528 C-251.96383761 820.24747855 -264.59197445 819.6265211 -276.01171875 812.98828125 C-282.80870892 808.45014045 -288.23221349 802.97882292 -293.55078125 796.828125 C-297.12352419 792.73375876 -300.81415196 788.7646671 -304.546875 784.81640625 C-310.85395581 778.11688485 -317.09499806 771.36336583 -323.296875 764.56640625 C-325.10877708 762.5866869 -326.92109015 760.60735776 -328.734375 758.62890625 C-329.18659424 758.13543701 -329.63881348 757.64196777 -330.10473633 757.13354492 C-334.98355261 751.81269114 -339.88169588 746.5097229 -344.78076172 741.20751953 C-347.28701604 738.49463039 -349.79187946 735.78045766 -352.296875 733.06640625 C-353.29686824 731.98306668 -354.29686824 730.89973334 -355.296875 729.81640625 C-381.296875 701.64973958 -407.296875 673.48307292 -433.296875 645.31640625 C-433.79195557 644.78007568 -434.28703613 644.24374512 -434.79711914 643.69116211 C-435.79633238 642.60866754 -436.79551862 641.52614804 -437.79467773 640.44360352 C-440.30649335 637.72223117 -442.81878833 635.0013043 -445.33203125 632.28125 C-450.61800183 626.55932308 -455.89398304 620.82857198 -461.15478516 615.08349609 C-466.01528622 609.77781139 -470.89768412 604.49241901 -475.78076172 599.20751953 C-478.28701604 596.49463039 -480.79187946 593.78045766 -483.296875 591.06640625 C-484.29686824 589.98306668 -485.29686824 588.89973334 -486.296875 587.81640625 C-500.296875 572.64973958 -514.296875 557.48307292 -528.296875 542.31640625 C-528.7923584 541.77991455 -529.2878418 541.24342285 -529.79833984 540.69067383 C-530.79459433 539.61083005 -531.78971897 538.52994276 -532.78369141 537.44799805 C-535.33257034 534.6764786 -537.90061765 531.92775125 -540.5078125 529.2109375 C-551.66602259 517.51504404 -558.98476903 506.23068395 -558.94763184 489.63510132 C-558.5518391 477.98864008 -554.43114678 467.15135008 -550.796875 456.19140625 C-549.98478454 453.67123745 -549.17524026 451.15040587 -548.36962891 448.62817383 C-547.07416142 444.57883207 -545.77570047 440.53054571 -544.46426392 436.48634338 C-541.10611314 426.12968392 -537.8315592 415.74886852 -534.6015625 405.3515625 C-534.24110966 404.19151577 -534.24110966 404.19151577 -533.87337494 403.00803375 C-532.88952121 399.84094855 -531.90610317 396.67372864 -530.92337418 393.50629425 C-528.38547313 385.32674956 -525.8356353 377.15094069 -523.284935 368.97537994 C-521.98739992 364.81623348 -520.69050057 360.65688881 -519.39355469 356.49755859 C-519.13688145 355.67444183 -518.88020821 354.85132507 -518.61575699 354.00326538 C-515.83422763 345.08314179 -513.05375136 336.16269001 -510.2734375 327.2421875 C-510.02661539 326.45027512 -509.77979328 325.65836273 -509.52549171 324.842453 C-508.03163586 320.04949923 -506.53780971 315.2565362 -505.0439949 310.46356964 C-502.79629676 303.25174237 -500.54856156 296.03992666 -498.30078125 288.828125 C-498.05336874 288.03431931 -497.80595623 287.24051361 -497.55104637 286.4226532 C-494.29185602 275.96584889 -491.03199485 265.50925396 -487.77149963 255.05285645 C-485.75900474 248.59878781 -483.7467487 242.14464472 -481.73452759 235.69049072 C-480.73930991 232.49836697 -479.74400281 229.30627113 -478.74862671 226.11419678 C-473.37489908 208.88071006 -468.00795137 191.64515258 -462.65820885 174.40420341 C-461.85738971 171.82346638 -461.05638673 169.24278648 -460.25532532 166.66212463 C-459.73018982 164.97030772 -459.20505857 163.27848949 -458.67993164 161.58666992 C-458.42282063 160.75833302 -458.16570963 159.92999613 -457.90080738 159.07655811 C-456.40111377 154.24437094 -454.90290482 149.41172664 -453.40585709 144.57871914 C-452.47978814 141.590117 -451.552432 138.6019153 -450.62477493 135.61380577 C-450.20087201 134.24736612 -449.77750976 132.88075858 -449.35477829 131.51395607 C-447.17737604 124.47454161 -444.96460156 117.44643794 -442.68041992 110.44091797 C-442.09655769 108.64084793 -442.09655769 108.64084793 -441.50090027 106.80441284 C-439.76570246 102.13791449 -437.46124403 98.38469477 -434.296875 94.56640625 C-433.72324219 93.8703125 -433.14960938 93.17421875 -432.55859375 92.45703125 C-422.53209353 81.41334985 -408.774943 78.8574467 -394.84375 75.8203125 C-392.93553281 75.39209087 -391.0276411 74.96241663 -389.12005615 74.53138733 C-385.15164775 73.63740534 -381.18138376 72.75248734 -377.20922852 71.87530518 C-371.60091724 70.63626799 -365.99801481 69.37427463 -360.39648438 68.10498047 C-350.123827 65.77993542 -339.84603756 63.47817082 -329.56741714 61.17965317 C-321.00942907 59.26508493 -312.45253985 57.34560489 -303.89539528 55.42727089 C-300.52833235 54.67250031 -297.16122522 53.91792719 -293.79411316 53.16337585 C-271.03186684 48.06182852 -248.27468827 42.93783658 -225.51824951 37.81045532 C-219.76257451 36.51363878 -214.00678198 35.21734475 -208.25094604 33.92124271 C-185.23931479 28.7394271 -162.22881991 23.55265029 -139.22129822 18.35261536 C-130.30614052 16.33772518 -121.39052912 14.32484582 -112.47481251 12.31243038 C-105.23897631 10.6789976 -98.00374553 9.04291845 -90.76898098 7.40474606 C-86.27434607 6.3877074 -81.7791281 5.37326424 -77.28375816 4.3594799 C-75.22864297 3.89547578 -73.17375926 3.43044479 -71.11915016 2.96420479 C-60.04574198 0.4519741 -48.95509372 -1.96620485 -37.83154297 -4.24707031 C-36.78901934 -4.46547955 -35.7464957 -4.68388878 -34.67238045 -4.90891647 C-22.39089037 -7.38817702 -10.93414318 -6.82454174 0 0 Z M-113.36402893 130.40542603 C-114.19394002 130.5923511 -115.02385111 130.77927618 -115.87891102 130.97186565 C-116.78971267 131.18047128 -117.70051432 131.3890769 -118.63891602 131.60400391 C-119.60553256 131.82270299 -120.57214911 132.04140207 -121.56805706 132.2667284 C-124.81298158 133.00166364 -128.0568543 133.74114388 -131.30078125 134.48046875 C-133.60871288 135.00382256 -135.91671828 135.52685113 -138.22479248 136.04957581 C-145.77056442 137.75951747 -153.31499416 139.47533928 -160.859375 141.19140625 C-170.68606192 143.42569445 -180.51307162 145.65855637 -190.3406179 147.88906169 C-192.35195798 148.34561312 -194.36325548 148.80235182 -196.37455177 149.25909615 C-214.16251168 153.29758615 -231.96273706 157.27570895 -249.77995491 161.18350983 C-253.21234522 161.93704589 -256.64417734 162.69306706 -260.07579041 163.45013428 C-261.18277314 163.6943512 -262.28975588 163.93856812 -263.43028355 164.19018555 C-265.62425098 164.67431921 -267.81819247 165.15857048 -270.0121069 165.64294434 C-276.34039189 167.03858519 -282.67194525 168.41800267 -289.00626945 169.78595448 C-292.93498516 170.63846243 -296.86018641 171.50635974 -300.78461456 172.37837029 C-302.57771522 172.77342972 -304.37223504 173.16211821 -306.16829681 173.54348946 C-322.68862257 177.05629286 -337.80842085 182.00408478 -347.65380859 196.6953125 C-350.61455076 201.86891249 -352.33826537 207.40201108 -354.109375 213.06640625 C-354.56898097 214.49221296 -355.02972659 215.91765267 -355.49145508 217.34277344 C-357.12281534 222.40812325 -358.71062751 227.48678251 -360.296875 232.56640625 C-360.92022516 234.55664759 -361.54359838 236.54688171 -362.16699219 238.53710938 C-366.06966888 251.01316694 -369.93465815 263.50079973 -373.79052544 275.99138451 C-378.63495016 291.68205595 -383.52158171 307.35950981 -388.41143799 323.03607178 C-389.92257251 327.88077678 -391.43278103 332.72577014 -392.94287109 337.57080078 C-397.74472136 352.9762117 -402.55024296 368.38046739 -407.3626709 383.78257751 C-409.3090715 390.0121805 -411.25417511 396.24218824 -413.19896317 402.47229481 C-414.78404713 407.54967651 -416.37086848 412.62651082 -417.95902157 417.70293331 C-418.94263288 420.84842762 -419.92458973 423.99443665 -420.90610695 427.14058495 C-421.35848817 428.58946479 -421.81154396 430.03813424 -422.26535606 431.48656654 C-430.39840685 456.38818478 -430.39840685 456.38818478 -425.296875 481.56640625 C-421.34593451 488.29103183 -416.32235705 493.86940144 -410.66796875 499.203125 C-408.0192278 501.84313863 -405.5985733 504.62919569 -403.15063477 507.4543457 C-400.19770841 510.81872947 -397.12185298 514.06389378 -394.046875 517.31640625 C-388.64450596 523.05454962 -383.28427586 528.82576034 -377.96875 534.64453125 C-375.10809832 537.77284625 -372.2357585 540.89006575 -369.359375 544.00390625 C-368.86099121 544.54354004 -368.36260742 545.08317383 -367.84912109 545.63916016 C-366.3318799 547.28173653 -364.81441714 548.92410791 -363.296875 550.56640625 C-356.99840525 557.38266927 -350.70662239 564.20470082 -344.43896484 571.04931641 C-339.57846378 576.35500111 -334.69606588 581.64039349 -329.81298828 586.92529297 C-327.30673396 589.63818211 -324.80187054 592.35235484 -322.296875 595.06640625 C-321.29688176 596.14974582 -320.29688176 597.23307916 -319.296875 598.31640625 C-265.296875 656.81640625 -265.296875 656.81640625 -263.7956543 658.44311523 C-262.80023738 659.52122683 -261.80431007 660.5988674 -260.80786133 661.67602539 C-258.2332522 664.46051426 -255.6692834 667.25379755 -253.12109375 670.0625 C-243.49411066 680.65292594 -234.13389654 690.64694548 -218.96231079 691.82542419 C-206.58528987 692.23092476 -195.25028109 689.79855477 -183.2578125 686.9765625 C-181.09669397 686.48263294 -178.93518775 685.99039713 -176.77333069 685.49971008 C-172.14942399 684.44660037 -167.52832588 683.38219763 -162.90914917 682.30853271 C-155.57896213 680.60476173 -148.2432665 678.92564126 -140.90649414 677.25048828 C-133.23231086 675.49699476 -125.55853994 673.74177742 -117.88691711 671.97711182 C-99.71292834 667.79723906 -81.52738543 663.67201845 -63.33203125 659.5859375 C-62.07920349 659.30451715 -60.82637573 659.02309681 -59.5355835 658.73314857 C-53.33932293 657.34143718 -47.14289298 655.95048191 -40.9463501 654.56002808 C-23.5125971 650.64776559 -6.08061832 646.72776659 11.34500122 642.77941895 C14.77413491 642.00249149 18.20383842 641.22818817 21.63424683 640.45690918 C25.86755921 639.50474226 30.09804138 638.54062801 34.328125 637.57421875 C35.49569839 637.31313324 36.66327179 637.05204773 37.8662262 636.78305054 C50.48223447 633.87327637 61.60937271 629.45403766 69.17304993 618.42254639 C73.05410442 612.19639989 75.47536826 606.0953526 77.55859375 599.08203125 C78.24518444 596.85609033 78.93187372 594.63017982 79.61865234 592.40429688 C79.96345642 591.27000244 80.3082605 590.13570801 80.66351318 588.96704102 C82.31529341 583.56396539 84.03888342 578.1840381 85.75390625 572.80078125 C89.77895403 560.08980158 93.78260446 547.37205697 97.7856226 534.65412617 C99.32143198 529.77586466 100.86090389 524.89876627 102.40136719 520.02197266 C104.42355233 513.61950646 106.43984177 507.21521341 108.44967556 500.80885887 C109.52480829 497.38233576 110.60242969 493.95664276 111.68618774 490.53283691 C112.89136963 486.72494657 114.08489022 482.91345916 115.27734375 479.1015625 C115.64097015 477.95851151 116.00459656 476.81546051 116.37924194 475.63777161 C116.70228302 474.59852036 117.0253241 473.5592691 117.3581543 472.48852539 C117.78634712 471.12758507 117.78634712 471.12758507 118.22319031 469.739151 C118.94935831 467.53420158 118.94935831 467.53420158 117.703125 465.56640625 C116.71440399 465.79094986 115.72568298 466.01549347 114.70700073 466.24684143 C109.82813714 467.3548082 104.94922943 468.46258061 100.0703125 469.5703125 C99.14266964 469.78093575 98.21502678 469.99155899 97.25927353 470.20856476 C85.68680367 472.8359853 74.11385728 475.46128866 62.54003906 478.08276367 C59.17676652 478.84460501 55.81349551 479.60645315 52.45022583 480.36830711 C50.15223932 480.888839 47.85424526 481.40933753 45.5562439 481.92980385 C31.27312913 485.16506743 16.99229305 488.41007803 2.71476936 491.66993046 C-6.65380841 493.80879201 -16.0237739 495.94149691 -25.39473152 498.06990719 C-31.01446634 499.34666419 -36.63338654 500.62679565 -42.25054932 501.91482544 C-47.55202796 503.13040883 -52.85542787 504.33722818 -58.16036606 505.53762054 C-60.10287797 505.97879684 -62.04467518 506.42313467 -63.98566055 506.87097931 C-98.17750656 514.75391838 -98.17750656 514.75391838 -113.796875 505.69140625 C-118.95804395 502.25623997 -123.47407302 498.59568648 -127.51953125 493.88671875 C-131.09764688 489.76708844 -134.79867021 485.78101441 -138.546875 481.81640625 C-143.94798352 476.07960175 -149.30717748 470.30994175 -154.62109375 464.4921875 C-157.50305939 461.34095791 -160.39865128 458.20266851 -163.296875 455.06640625 C-164.30079584 453.97787804 -165.30470216 452.88933643 -166.30859375 451.80078125 C-168.28424034 449.65958488 -170.26667694 447.52497835 -172.25390625 445.39453125 C-183.90652459 432.86678393 -190.92117134 424.73687965 -190.60302734 407.16833496 C-190.27660038 400.03413882 -188.12722821 393.50156433 -185.890625 386.76953125 C-185.41663514 385.28082592 -184.94490194 383.79140055 -184.47521973 382.30133057 C-183.4688812 379.12448466 -182.44772616 375.95297136 -181.4140625 372.78491211 C-179.75674732 367.70482889 -178.13381553 362.61414341 -176.515625 357.52148438 C-174.53466208 351.29422593 -172.54613395 345.06949078 -170.54743958 338.84790039 C-167.04501865 327.94265351 -163.60329263 317.01956429 -160.203125 306.08203125 C-159.95817039 305.29416607 -159.71321579 304.50630089 -159.46083832 303.694561 C-158.22942183 299.73268036 -156.99914446 295.77044719 -155.76940918 291.80804443 C-153.549581 284.65722152 -151.31996298 277.50944943 -149.09102631 270.36146164 C-148.3441404 267.96609582 -147.59747752 265.5706606 -146.85089111 263.17520142 C-143.46286153 252.30466304 -140.07246968 241.43486253 -136.68139648 230.56527328 C-131.17385768 212.9115365 -125.67062477 195.25646496 -120.17485046 177.59906197 C-118.81348007 173.22525024 -117.45097784 168.8517927 -116.08789062 164.47851562 C-114.57600002 159.62643879 -113.06810646 154.77314521 -111.56481934 149.918396 C-111.06114368 148.29379983 -110.55606486 146.66963788 -110.04943848 145.04595947 C-109.38836695 142.92637397 -108.73242442 140.80527761 -108.078125 138.68359375 C-107.5531543 136.99145752 -107.5531543 136.99145752 -107.01757812 135.26513672 C-106.1678696 132.54888625 -106.1678696 132.54888625 -106.296875 129.56640625 C-108.91220588 129.56640625 -110.84359957 129.83268147 -113.36402893 130.40542603 Z " fill="#51565B" transform="translate(558.296875,6.43359375)"/>
<path d="M0 0 C1.0812616 -0.00100708 2.16252319 -0.00201416 3.27655029 -0.00305176 C21.56704556 0.00842601 39.48559729 0.77886587 57.625 3.25 C59.17864258 3.45882813 59.17864258 3.45882813 60.76367188 3.671875 C104.64758245 9.83903485 152.7226972 26.52572792 181 62.625 C192.83881315 78.42363431 200.625 97.368332 200.625 117.25 C175.875 117.25 151.125 117.25 125.625 117.25 C122.655 111.97 119.685 106.69 116.625 101.25 C99.04044612 80.22938387 77.47186906 69.74081214 51.0625 64 C50.36850098 63.84877686 49.67450195 63.69755371 48.95947266 63.54174805 C33.22112145 60.37800003 17.56604627 59.87930934 1.5625 59.9375 C0.00453705 59.94023422 0.00453705 59.94023422 -1.5848999 59.94302368 C-16.6925364 59.987695 -31.51220989 60.26994862 -46.375 63.25 C-47.72005615 63.51538574 -47.72005615 63.51538574 -49.09228516 63.78613281 C-71.89349382 68.43878473 -96.02702074 76.04254532 -113.375 92.25 C-114.28507812 93.06984375 -115.19515625 93.8896875 -116.1328125 94.734375 C-122.97442574 101.18450629 -127.92284325 107.98606522 -132.375 116.25 C-132.85710937 117.14332031 -133.33921875 118.03664063 -133.8359375 118.95703125 C-139.01623835 129.42751812 -141.92598598 141.59515793 -142.375 153.25 C-142.41496094 154.07113281 -142.45492188 154.89226562 -142.49609375 155.73828125 C-143.07378827 178.67615179 -136.62500076 201.164258 -120.60546875 218.015625 C-119.86941406 218.75296875 -119.13335938 219.4903125 -118.375 220.25 C-117.47201172 221.17039062 -117.47201172 221.17039062 -116.55078125 222.109375 C-83.93784063 252.95371798 -29.12936345 253.30840523 12.625 252.25 C56.33325924 250.41980274 100.15735504 237.95212815 131.625 206.25 C133.275 204.27 134.925 202.29 136.625 200.25 C93.065 199.92 49.505 199.59 4.625 199.25 C4.625 185.72 4.625 172.19 4.625 158.25 C72.935 158.25 141.245 158.25 211.625 158.25 C211.625 206.76 211.625 255.27 211.625 305.25 C190.505 305.25 169.385 305.25 147.625 305.25 C147.625 291.13692019 148.0415831 278.12976209 150 264.3125 C150.22521545 262.64795606 150.44917441 260.98324164 150.671875 259.31835938 C151.30375694 254.62614096 151.95961374 249.93757251 152.625 245.25 C152.72735962 244.52754089 152.82971924 243.80508179 152.93518066 243.06072998 C153.49378251 239.12314349 154.05699868 235.18624111 154.625 231.25 C154.03074219 232.32636719 153.43648437 233.40273438 152.82421875 234.51171875 C147.28311205 244.35414632 141.31435653 252.98633468 133.625 261.25 C133.16931641 261.75337891 132.71363281 262.25675781 132.24414062 262.77539062 C124.07890915 271.74678036 114.78354575 278.66956551 104.625 285.25 C104.02961426 285.63671875 103.43422852 286.0234375 102.82080078 286.421875 C81.47554866 300.023698 56.39332275 306.524465 31.625 310.25 C30.44502441 310.43006592 30.44502441 310.43006592 29.24121094 310.61376953 C-27.46540917 318.76155156 -96.85799555 312.03639657 -147.375 284.25 C-147.98134277 283.92531738 -148.58768555 283.60063477 -149.21240234 283.26611328 C-161.89542546 276.46958262 -172.91491648 268.10421838 -183.375 258.25 C-184.03886719 257.65058594 -184.70273438 257.05117188 -185.38671875 256.43359375 C-208.00359516 235.19299785 -221.33896862 202.73733442 -222.49951172 171.9465332 C-222.58245378 167.9640262 -222.62160591 163.98322694 -222.625 160 C-222.62567474 159.28891083 -222.62634949 158.57782166 -222.62704468 157.84518433 C-222.567737 118.40335925 -209.36196199 84.91871933 -182 56.5625 C-144.17134017 19.64472858 -88.34380117 6.06293368 -37.375 1.25 C-36.37710449 1.15428711 -35.37920898 1.05857422 -34.35107422 0.95996094 C-22.91742122 0.0012865 -11.46686844 0.00742517 0 0 Z M155.625 226.25 C156.625 228.25 156.625 228.25 156.625 228.25 Z " fill="#51565B" transform="translate(1213.375,258.75)"/>
<path d="M0 0 C1.52309784 -0.00101212 1.52309784 -0.00101212 3.07696533 -0.00204468 C41.21588812 0.0380621 80.14297724 4.24545891 113.9375 23.25 C115.3915625 24.06210937 115.3915625 24.06210937 116.875 24.890625 C138.16981994 37.64275554 152.73018645 55.97408522 159.2109375 80.09375 C161.34119663 89.34777893 160.9375 96.01203801 160.9375 106.25 C135.8575 106.25 110.7775 106.25 84.9375 106.25 C83.9475 101.63 82.9575 97.01 81.9375 92.25 C80.34960814 88.90706978 78.98605284 86.22410383 76.9375 83.25 C76.23625 82.21875 75.535 81.1875 74.8125 80.125 C61.63305285 65.44512349 36.65808872 61.0652279 17.9375 59.25 C15.0789638 59.10206321 12.22531809 59.06375863 9.36328125 59.046875 C8.56537674 59.03986069 7.76747223 59.03284637 6.94538879 59.02561951 C4.3802013 59.00819214 1.81524454 59.00176624 -0.75 59 C-2.06281952 58.99898788 -2.06281952 58.99898788 -3.40216064 58.99795532 C-16.47444533 59.01398593 -29.26585809 59.305035 -42.0625 62.25 C-43.21613037 62.51538574 -43.21613037 62.51538574 -44.39306641 62.78613281 C-56.25201883 65.64531809 -68.13524904 69.50475923 -75.0625 80.25 C-78.72562753 86.79627354 -79.29926842 94.23275507 -77.51171875 101.484375 C-74.5335509 108.76747741 -67.99973734 112.4782432 -61.09375 115.5859375 C-31.25975522 126.52971596 2.69856306 128.90750845 34.08718872 132.43621826 C133.71909598 143.65027471 133.71909598 143.65027471 160.30175781 176.95947266 C172.92271081 193.92806423 175.85182051 214.64792004 172.9375 235.25 C169.0972881 256.14158755 158.29830985 273.03054557 140.9375 285.25 C104.54344595 309.63381436 57.34988815 312.48762936 14.875 312.4375 C13.92595795 312.43689575 12.97691589 312.4362915 11.99911499 312.43566895 C-2.10718052 312.41131369 -16.0660027 312.16736452 -30.0625 310.25 C-31.00399902 310.12641113 -31.94549805 310.00282227 -32.91552734 309.87548828 C-73.97662124 304.30845419 -113.22249134 289.6755641 -143.0625 260.25 C-143.949375 259.37601563 -144.83625 258.50203125 -145.75 257.6015625 C-160.51790862 242.24834043 -167.0625 224.50089058 -167.0625 203.25 C-140.9925 203.25 -114.9225 203.25 -88.0625 203.25 C-86.7425 206.88 -85.4225 210.51 -84.0625 214.25 C-74.96131066 231.14588192 -56.7056187 240.54574249 -39.0625 246.25 C-3.38568518 256.90012457 46.73747936 261.30841798 80.9375 243.25 C88.3672425 238.76455174 93.86798722 232.6616807 96.57421875 224.27734375 C97.75714266 217.67586518 97.84712904 210.91706136 94.37109375 205.0234375 C76.22654825 182.57759647 22.72096615 183.92480499 -4.125 181.03515625 C-49.79531821 176.11496751 -100.02721988 170.62939437 -136.0625 139.25 C-136.69800781 138.69828125 -137.33351563 138.1465625 -137.98828125 137.578125 C-151.04953747 125.41464914 -156.74125894 108.45428507 -157.375 91 C-156.8212724 68.62289065 -148.27120258 50.48473106 -132.15625 34.9453125 C-97.54587327 3.93459382 -44.17374031 0.02647929 0 0 Z " fill="#51565B" transform="translate(2080.0625,258.75)"/>
<path d="M0 0 C2.8344613 0.00315021 5.66786468 -0.02035872 8.50219727 -0.0456543 C44.16870627 -0.16945268 78.18161155 9.15578648 104.37915039 34.42504883 C114.04605541 44.16503697 120.64604663 55.89079974 126.16821289 68.31567383 C126.49821289 47.52567383 126.82821289 26.73567383 127.16821289 5.31567383 C151.58821289 5.31567383 176.00821289 5.31567383 201.16821289 5.31567383 C201.16821289 80.88567383 201.16821289 156.45567383 201.16821289 234.31567383 C178.39821289 234.31567383 155.62821289 234.31567383 132.16821289 234.31567383 C130.28224154 227.71477409 129.32799581 221.71880149 128.60571289 214.94067383 C128.47640381 213.74216797 128.34709473 212.54366211 128.21386719 211.30883789 C126.71684742 196.34821812 126.42505665 181.34032433 126.16821289 166.31567383 C125.70672852 167.30825195 125.24524414 168.30083008 124.76977539 169.32348633 C114.74028351 190.42650016 100.41621554 208.17613906 80.16821289 220.31567383 C79.54785156 220.68885742 78.92749023 221.06204102 78.28833008 221.4465332 C61.88396732 231.14777596 44.04101952 236.8936947 25.16821289 239.31567383 C24.44520996 239.40848633 23.72220703 239.50129883 22.97729492 239.59692383 C-19.62223969 244.50046738 -65.52420577 236.46465147 -99.89819336 209.71411133 C-122.21153063 191.4712497 -139.25940745 167.2921621 -142.61645508 137.94506836 C-145.27354119 105.4996971 -140.49367698 74.3882902 -119.42871094 48.74487305 C-99.86741843 25.74440342 -73.37250163 11.6416978 -44.26928711 4.56567383 C-43.45564697 4.3669165 -42.64200684 4.16815918 -41.80371094 3.96337891 C-27.87526283 0.75905296 -14.23137151 -0.03292323 0 0 Z M-51.95678711 77.31567383 C-62.77876457 90.09131456 -67.6173789 106.39753413 -67.10913086 123.00708008 C-65.4777698 142.46852823 -57.82226927 157.05069424 -43.17163086 169.59301758 C-33.83518427 176.75691843 -23.49439915 181.75962368 -12.26928711 185.12817383 C-11.29838135 185.42050903 -11.29838135 185.42050903 -10.30786133 185.71875 C1.22517456 188.94544031 12.8039649 189.69460326 24.73071289 189.62817383 C25.43031128 189.62601868 26.12990967 189.62386353 26.85070801 189.62164307 C57.15411058 189.47244594 87.06062035 182.98082788 109.89086914 161.78833008 C119.91535752 151.49168364 126.02518697 138.73957231 127.16821289 124.31567383 C127.24942383 123.35274414 127.24942383 123.35274414 127.33227539 122.37036133 C127.99405649 106.54777686 122.80172706 91.51314163 112.54321289 79.50317383 C92.09960395 58.50453478 61.8172927 50.73081423 33.29711914 50.11254883 C1.52364342 49.78431908 -28.55181193 53.41078656 -51.95678711 77.31567383 Z " fill="#51565B" transform="translate(1586.831787109375,329.684326171875)"/>
<path d="M0 0 C1.16812225 -0.00570007 2.33624451 -0.01140015 3.5397644 -0.01727295 C6.00550447 -0.02667062 8.47125679 -0.03323595 10.93701172 -0.03710938 C14.62100626 -0.04672189 18.30441937 -0.07775811 21.98828125 -0.109375 C68.89950629 -0.31959448 120.62933269 8.3049865 155.5546875 42.203125 C156.29976562 42.87472656 157.04484375 43.54632813 157.8125 44.23828125 C167.48217177 53.25095442 174.83338122 64.89141093 179.5546875 77.203125 C179.91046875 78.09773438 180.26625 78.99234375 180.6328125 79.9140625 C190.97528496 108.08572255 189.41040682 142.29833131 177.02734375 169.56640625 C161.21341343 200.63612816 132.53226674 218.16354668 100.5546875 229.203125 C99.51054687 229.5741333 99.51054687 229.5741333 98.4453125 229.95263672 C77.01228287 237.45955535 52.93139955 240.31629308 30.328125 240.40625 C28.60923569 240.41480011 28.60923569 240.41480011 26.85562134 240.42352295 C24.4369599 240.43291916 22.01828596 240.43948536 19.59960938 240.44335938 C15.98803824 240.45296973 12.37706078 240.48400641 8.765625 240.515625 C-41.37705275 240.74470061 -93.29678673 229.48223993 -130.20703125 193.51171875 C-151.78619345 170.80898608 -157.163038 142.97011856 -156.7578125 112.6953125 C-155.88189778 83.72443307 -143.39398624 59.085967 -122.65234375 39.09375 C-117.68651154 34.49119722 -112.16461199 30.81531415 -106.4453125 27.203125 C-105.52621094 26.59984375 -104.60710938 25.9965625 -103.66015625 25.375 C-73.91772798 6.80166927 -34.54182661 0.13471079 0 0 Z M-60.4453125 73.203125 C-61.08339844 73.75742187 -61.72148437 74.31171875 -62.37890625 74.8828125 C-72.52757846 84.33079687 -79.80864848 98.53391055 -80.56787109 112.44946289 C-81.14366935 130.39866502 -79.47326819 146.36820699 -67.1328125 160.453125 C-65.5895684 162.05523247 -64.02751219 163.63947707 -62.4453125 165.203125 C-61.43017578 166.25113281 -61.43017578 166.25113281 -60.39453125 167.3203125 C-38.89309266 188.13338112 -6.11070801 190.66400829 22.1484375 190.41796875 C47.0672374 189.90624339 72.7510892 183.32595474 91.5546875 166.203125 C92.17472656 165.68621094 92.79476562 165.16929687 93.43359375 164.63671875 C104.29103861 154.94517401 110.08350507 139.7375205 110.89453125 125.48828125 C111.46004424 107.72869141 107.48379276 91.2103187 95.2421875 77.828125 C93.38872983 75.89961203 91.48914655 74.05394635 89.5546875 72.203125 C88.78511719 71.46320313 88.01554687 70.72328125 87.22265625 69.9609375 C49.94677141 37.32072488 -24.33138262 41.61117948 -60.4453125 73.203125 Z " fill="#51565B" transform="translate(2416.4453125,329.796875)"/>
<path d="M0 0 C24.75 0 49.5 0 75 0 C75 106.26 75 212.52 75 322 C50.25 322 25.5 322 0 322 C0 215.74 0 109.48 0 0 Z " fill="#51565B" transform="translate(2623,242)"/>
<path d="M0 0 C24.75 0 49.5 0 75 0 C75 106.26 75 212.52 75 322 C50.25 322 25.5 322 0 322 C0 215.74 0 109.48 0 0 Z " fill="#51565B" transform="translate(1818,242)"/>
<path d="M0 0 C2 1 2 1 2 1 Z " fill="#51565B" transform="translate(363,427)"/>
</svg>
