<?xml version="1.0" encoding="UTF-8"?>
<svg version="1.1" xmlns="http://www.w3.org/2000/svg" width="2792" height="852">
<path d="M0 0 C0.89847656 0.46277344 1.79695312 0.92554688 2.72265625 1.40234375 C9.97293181 5.57303672 15.18673321 11.12917821 20.58203125 17.37646484 C22.97565591 20.11709914 25.46023723 22.77264493 27.9375 25.4375 C28.94696048 26.5296283 29.95607393 27.62207747 30.96484375 28.71484375 C31.46612793 29.25737793 31.96741211 29.79991211 32.48388672 30.35888672 C34.99014104 33.07177586 37.49500446 35.78594859 40 38.5 C40.99999324 39.58333957 41.99999324 40.66667291 43 41.75 C70 71 70 71 97 100.25 C97.49508057 100.78633057 97.99016113 101.32266113 98.50024414 101.87524414 C99.49945738 102.95773871 100.49864362 104.04025821 101.49780273 105.12280273 C104.00961835 107.84417508 106.52191333 110.56510195 109.03515625 113.28515625 C114.32112683 119.00708317 119.59710804 124.73783427 124.85791016 130.48291016 C129.71841122 135.78859486 134.60080912 141.07398724 139.48388672 146.35888672 C141.99014104 149.07177586 144.49500446 151.78594859 147 154.5 C147.99999324 155.58333957 148.99999324 156.66667291 150 157.75 C160 168.58333333 170 179.41666667 180 190.25 C180.49532227 190.7864917 180.99064453 191.3229834 181.50097656 191.87573242 C182.49815435 192.9562249 183.49490119 194.03711526 184.49121094 195.1184082 C187.03095535 197.87367376 189.57844221 200.62104505 192.140625 203.35546875 C210.43724962 222.92229586 210.43724962 222.92229586 211.3125 232.375 C210.78947424 238.44209883 209.4039345 243.06728066 204.875 247.3125 C198.69554452 251.9865287 190.84728234 253.40521371 183.41015625 255.0847168 C182.60399872 255.27047272 181.79784119 255.45622864 180.96725464 255.64761353 C178.33341463 256.25297558 175.69809595 256.85155135 173.0625 257.44921875 C171.21359644 257.87079906 169.36471994 258.29249806 167.51586914 258.71430969 C163.65357053 259.59415833 159.79043102 260.47020271 155.92675781 261.34399414 C150.99208544 262.46067164 146.06051443 263.59045098 141.1295929 264.72355938 C137.31681801 265.59752959 133.5020752 266.46265304 129.68673706 267.32535744 C127.86808052 267.73804992 126.05013133 268.15387324 124.23294067 268.57297325 C121.68724144 269.15908044 119.13902109 269.73270507 116.58984375 270.3034668 C115.8508786 270.47641769 115.11191345 270.64936859 114.35055542 270.82756042 C105.39063001 272.80102108 96.9712573 273.00046155 89 268 C82.26578527 262.36516486 76.5334921 255.63311246 70.7878418 249.02636719 C67.85029605 245.69690799 64.80003655 242.47613103 61.75 239.25 C56.34763096 233.51185663 50.98740086 227.74064591 45.671875 221.921875 C42.81122332 218.79356 39.9388835 215.6763405 37.0625 212.5625 C36.31492432 211.75304932 36.31492432 211.75304932 35.55224609 210.92724609 C34.0350049 209.28466972 32.51754214 207.64229834 31 206 C29.48136208 204.35651581 27.96280399 202.71295845 26.44458008 201.0690918 C25.44737552 199.98950034 24.4498222 198.91023093 23.4519043 197.83129883 C20.91201961 195.0826565 18.38336679 192.32470044 15.87109375 189.55078125 C15.36779541 188.99656494 14.86449707 188.44234863 14.34594727 187.87133789 C13.38688003 186.81421498 12.43021513 185.75490607 11.47631836 184.69311523 C9.03712417 181.97227943 9.03712417 181.97227943 6 180 C5.74168396 180.83346199 5.74168396 180.83346199 5.47814941 181.6837616 C-5.1990883 216.13158881 -15.908503 250.56929209 -26.64550781 284.99853516 C-27.02284561 286.20851071 -27.02284561 286.20851071 -27.4078064 287.44293022 C-27.66031158 288.25261316 -27.91281677 289.0622961 -28.17297363 289.89651489 C-28.42638016 290.70908878 -28.67978668 291.52166267 -28.94087219 292.35886002 C-29.45456415 294.00604701 -29.96826655 295.65323074 -30.48197937 297.30041122 C-34.28687489 309.50079682 -38.08723765 321.7025875 -41.8849144 333.90522194 C-43.53961062 339.22163843 -45.19494309 344.53785686 -46.85027504 349.85407543 C-48.17207448 354.09934928 -49.49343675 358.34475817 -50.81378174 362.59048462 C-52.0462857 366.55374173 -53.27991277 370.51664756 -54.51435471 374.47930145 C-54.96424792 375.92421125 -55.41373143 377.3692487 -55.86275101 378.81443024 C-58.48139562 387.24181153 -61.1704703 395.64068714 -64 404 C-49.93699077 400.83559355 -35.87460512 397.66842161 -21.8125 394.5 C-20.16042164 394.12778887 -20.16042164 394.12778887 -18.47496796 393.74805832 C15.28738699 386.14103071 49.04181492 378.49975352 82.78997803 370.83004761 C85.08606007 370.30823563 87.38214228 369.78642439 89.67822552 369.26461768 C91.21103112 368.91627285 92.74383561 368.56792311 94.27663898 368.21956849 C105.7460002 365.61306182 117.2161873 363.01021575 128.68701172 360.41015625 C129.43222517 360.24123171 130.17743862 360.07230716 130.9452343 359.89826369 C137.5699605 358.39658059 144.19471062 356.89500307 150.81958771 355.39398575 C165.55702021 352.05480032 180.29315812 348.71038841 195.0213623 345.33066845 C202.02510587 343.72368046 209.03096225 342.12625843 216.03926086 340.53925037 C219.72653498 339.70377085 223.41233253 338.86290856 227.09466553 338.00588989 C263.43515544 329.55541311 263.43515544 329.55541311 274.88671875 336.46484375 C282.07681243 341.68796171 286.2152818 347.09857943 288 356 C288.45165656 362.75448602 287.67816203 368.47401872 285.59765625 374.8828125 C285.33343369 375.73639847 285.06921112 376.58998444 284.79698181 377.46943665 C283.89882612 380.35897638 282.98051595 383.24171379 282.0625 386.125 C281.39778795 388.24967492 280.73442684 390.37477286 280.07226562 392.50024414 C278.57450168 397.2987512 277.06774506 402.09432319 275.55517578 406.88818359 C272.76640193 415.72809932 270.00603001 424.57682809 267.24609375 433.42578125 C266.22102177 436.71147443 265.19576742 439.99711068 264.17041016 443.28271484 C263.91147224 444.11245819 263.65253433 444.94220154 263.38574982 445.79708862 C261.51287047 451.7973473 259.63688296 457.79662888 257.75927734 463.79541016 C257.48999924 464.65573601 257.22072113 465.51606186 256.94328308 466.40245819 C256.53868614 467.6950996 256.53868614 467.6950996 256.12591553 469.01385498 C249.45265707 490.33417569 242.81191896 511.66445968 236.1875 533 C230.76742821 550.45564654 225.34644292 567.91095501 219.890625 585.35546875 C219.68420065 586.01551659 219.4777763 586.67556442 219.26509666 587.35561371 C217.41823126 593.2605831 215.57064513 599.1653268 213.72207642 605.06976318 C209.10690592 619.81175853 204.51108148 634.55947018 199.95433998 649.31964302 C199.21523135 651.71358832 198.47573341 654.10741304 197.73612976 656.50120544 C194.86943111 665.77904376 194.86943111 665.77904376 192.01095581 675.05941772 C189.25005138 684.0374736 186.4635376 693.00694067 183.63969421 701.96540833 C182.98676355 704.04209945 182.33860482 706.1202384 181.69104004 708.1986084 C180.61631963 711.64121037 179.52221072 715.07713368 178.41460037 718.50928879 C177.81269872 720.3871936 177.22733748 722.27037543 176.64266968 724.15371704 C172.25756044 737.58532959 164.3629601 748.64493028 151.87136841 755.576828 C139.80654675 761.55666545 125.42541482 763.51716419 112.3828125 766.41796875 C110.01701157 766.94818147 107.65131703 767.47886912 105.28572083 768.00999451 C100.22067109 769.14620464 95.15495013 770.27936684 90.08859253 771.409729 C82.00652093 773.21300124 73.92613109 775.02373988 65.84594727 776.83544922 C63.08364614 777.45470764 60.32133022 778.07389998 57.55900574 778.6930542 C56.52813795 778.92411794 56.52813795 778.92411794 55.47644454 779.15984964 C50.56748405 780.26004714 45.65828926 781.35919508 40.74897766 782.45782471 C16.06561555 787.98172811 -8.61104498 793.53516048 -33.2857666 799.09753418 C-40.07802977 800.62863264 -46.87052794 802.15868665 -53.66308594 803.68847656 C-54.78764883 803.94174902 -55.91221172 804.19502148 -57.07085228 804.45596886 C-59.34569536 804.96830557 -61.62053857 805.48064166 -63.89538193 805.99297714 C-80.48925102 809.73033605 -97.08278758 813.46916947 -113.6760397 817.20926666 C-123.70077625 819.46882766 -133.72560479 821.7279803 -143.75048923 823.98688507 C-149.67530688 825.32195729 -155.60007045 826.65726835 -161.52468872 827.9932251 C-162.63735517 828.24410385 -163.75002161 828.4949826 -164.89640522 828.75346375 C-167.10706846 829.2519187 -169.31772059 829.7504229 -171.52836132 830.24897766 C-176.85757698 831.45044221 -182.18727994 832.64966023 -187.51811218 833.84393311 C-189.5853283 834.30720046 -191.65253317 834.77051799 -193.71972656 835.23388672 C-194.73123937 835.46059052 -195.74275217 835.68729431 -196.78491688 835.92086792 C-203.0520196 837.32861147 -209.31315153 838.76036812 -215.57087898 840.20920086 C-219.69852632 841.16313916 -223.82857945 842.10637963 -227.95902634 843.04811287 C-229.88460151 843.48999865 -231.80905828 843.93679331 -233.73222733 844.38903618 C-251.41465915 848.54445674 -266.80642322 850.36402552 -283.234375 840.9296875 C-289.84716366 836.31567959 -295.11094425 830.18338358 -300.375 824.1328125 C-303.90486145 820.07912191 -307.55770137 816.15550223 -311.25 812.25 C-317.55708081 805.5504786 -323.79812306 798.79695958 -330 792 C-331.81190208 790.02028065 -333.62421515 788.04095151 -335.4375 786.0625 C-335.88971924 785.56903076 -336.34193848 785.07556152 -336.80786133 784.56713867 C-341.68667761 779.24628489 -346.58482088 773.94331665 -351.48388672 768.64111328 C-353.99014104 765.92822414 -356.49500446 763.21405141 -359 760.5 C-359.99999324 759.41666043 -360.99999324 758.33332709 -362 757.25 C-401 715 -401 715 -440 672.75 C-440.74262085 671.94550415 -440.74262085 671.94550415 -441.50024414 671.12475586 C-442.49945738 670.04226129 -443.49864362 668.95974179 -444.49780273 667.87719727 C-447.00961835 665.15582492 -449.52191333 662.43489805 -452.03515625 659.71484375 C-457.32112683 653.99291683 -462.59710804 648.26216573 -467.85791016 642.51708984 C-472.71841122 637.21140514 -477.60080912 631.92601276 -482.48388672 626.64111328 C-484.99014104 623.92822414 -487.49500446 621.21405141 -490 618.5 C-490.99999324 617.41666043 -491.99999324 616.33332709 -493 615.25 C-507 600.08333333 -521 584.91666667 -535 569.75 C-535.4952417 569.2135083 -535.9904834 568.6770166 -536.50073242 568.12426758 C-537.49837218 567.04345056 -538.49593108 565.96255891 -539.4934082 564.8815918 C-542.54390598 561.57601402 -545.59725094 558.27310203 -548.65356445 554.97290039 C-550.16675461 553.33495573 -551.67323931 551.69101867 -553.1796875 550.046875 C-554.92602067 548.14544377 -556.69524942 546.29392115 -558.5078125 544.453125 C-568.45783723 534.13208239 -573.41491693 522.58786634 -573.53717041 508.26957703 C-573.28277084 496.73800987 -569.34109184 486.16185593 -565.75 475.3125 C-564.97656673 472.90520879 -564.20605367 470.4969777 -563.43823242 468.08789062 C-562.0183509 463.64156145 -560.59094303 459.19788259 -559.15062618 454.75814629 C-556.44322377 446.41148149 -553.80136341 438.04557283 -551.19140625 429.66796875 C-550.99260801 429.03000681 -550.79380978 428.39204487 -550.58898735 427.73475075 C-549.77887813 425.13443397 -548.96911647 422.53400948 -548.15998363 419.93338871 C-546.70662862 415.26257611 -545.24816428 410.59338181 -543.78686523 405.92504883 C-537.82084458 386.86354589 -531.89939886 367.78848371 -525.99557877 348.70763397 C-517.91250574 322.58404838 -509.78737575 296.47391742 -501.625 270.375 C-501.36586445 269.54639214 -501.1067289 268.71778427 -500.83974075 267.86406708 C-499.53029768 263.67701901 -498.22081352 259.48998379 -496.91133118 255.302948 C-496.65146235 254.47201504 -496.39159351 253.64108208 -496.12384987 252.78496933 C-495.598539 251.10529147 -495.07321831 249.42561669 -494.5478878 247.74594498 C-489.21574558 230.69664013 -483.89354584 213.64424337 -478.57765198 196.58986568 C-477.04144112 191.66187315 -475.50365599 186.73437558 -473.96450806 181.80729961 C-469.53286199 167.61953029 -465.10970896 153.43080594 -460.8203125 139.19921875 C-460.2172799 137.20877389 -459.6140974 135.21837443 -459.01074219 133.22802734 C-457.96761348 129.78600563 -456.94125949 126.33971184 -455.92675781 122.88916016 C-451.61581643 108.4880546 -445.39656278 96.51913635 -432.15628052 88.6620636 C-421.55012574 83.07697581 -408.82814159 81.24732157 -397.1953125 78.67578125 C-395.32376124 78.25791306 -393.45231969 77.8395533 -391.58097839 77.42074585 C-387.55265134 76.52018016 -383.52363705 75.62278137 -379.49404907 74.72787476 C-372.987262 73.2826936 -366.4821397 71.83011594 -359.97729492 70.3762207 C-353.07535016 68.83381129 -346.17334996 67.29165626 -339.27085876 65.75169373 C-316.24099435 60.61305087 -293.2211487 55.4302457 -270.20269775 50.24075317 C-263.27054839 48.67792771 -256.33817865 47.11608145 -249.40576172 45.55444336 C-231.6158599 41.54689235 -213.82619566 37.53828718 -196.03658676 33.52943611 C-192.35797402 32.70047792 -188.67935349 31.87155429 -185.00073242 31.04263306 C-180.11641987 29.94202018 -175.23214727 28.8412302 -170.34790039 27.74032593 C-158.47909308 25.06536562 -146.60964758 22.39329581 -134.73876953 19.72753906 C-130.2229278 18.7131307 -125.7071467 17.69845285 -121.19140625 16.68359375 C-120.0995401 16.4382552 -119.00767395 16.19291664 -117.88272095 15.94014359 C-104.32646792 12.89273086 -90.77982308 9.80740725 -77.2444191 6.66871643 C-72.53702743 5.57908456 -67.82743973 4.49898237 -63.11773109 3.41941452 C-59.6191777 2.61636033 -56.1225692 1.80646737 -52.63000488 0.97772217 C-15.11210929 -7.89790423 -15.11210929 -7.89790423 0 0 Z M-114.16049194 136.83229065 C-115.39873498 137.11050769 -115.39873498 137.11050769 -116.66199303 137.39434528 C-118.01339095 137.70489998 -118.01339095 137.70489998 -119.39208984 138.02172852 C-120.83272765 138.34739319 -120.83272765 138.34739319 -122.30246925 138.67963696 C-125.52288846 139.40869062 -128.74188297 140.14385239 -131.9609375 140.87890625 C-134.25642035 141.39966881 -136.55199542 141.92002501 -138.84765625 142.44000244 C-145.06414834 143.84916414 -151.2794528 145.26349752 -157.49449921 146.67901993 C-167.26684723 148.90390666 -177.04072073 151.12209315 -186.8143996 153.34112555 C-190.15962457 154.10064318 -193.50479873 154.86038324 -196.84986496 155.62059975 C-214.98131705 159.74107767 -233.12034326 163.82561644 -251.26932907 167.86833382 C-254.83788933 168.66360471 -258.40614287 169.46023571 -261.97427368 170.25743103 C-263.12744268 170.51507264 -264.28061169 170.77271425 -265.4687252 171.03816319 C-267.75799547 171.54969247 -270.04725269 172.06128014 -272.33649635 172.57292843 C-277.88422467 173.81219878 -283.43274173 175.0477047 -288.98309326 176.275177 C-294.18185491 177.42490707 -299.3784885 178.58381028 -304.57369995 179.74947357 C-306.46047815 180.17101172 -308.34802586 180.58912409 -310.23641968 181.00336456 C-328.46183391 185.00412987 -343.72079304 188.92243049 -355.06253052 204.84344482 C-358.3122279 210.13790195 -360.06348019 215.75083575 -361.87109375 221.6640625 C-362.28994072 222.98178727 -362.71051317 224.29896464 -363.13267517 225.6156311 C-364.22940762 229.05434444 -365.30089273 232.50036492 -366.36519623 235.94923401 C-367.18284623 238.59069409 -368.01327741 241.2280395 -368.84425354 243.86533165 C-371.39379709 251.95911095 -373.89374543 260.06787288 -376.38695526 268.17914581 C-378.29738915 274.38899991 -380.21739978 280.59590739 -382.13558197 286.80337143 C-382.63747574 288.42771679 -383.13925031 290.05209898 -383.64090729 291.67651749 C-388.99326367 309.0079508 -394.39784905 326.32290433 -399.81390381 343.63452148 C-401.37318976 348.6186663 -402.93107108 353.60324948 -404.48876953 358.58789062 C-409.0764056 373.26676688 -413.66729353 387.94460181 -418.27209091 402.61810493 C-420.52337789 409.79254918 -422.77118555 416.96807792 -425.01665115 424.14434624 C-426.60687719 429.22570416 -428.20148089 434.3056593 -429.79948902 439.38457489 C-430.78420716 442.518094 -431.76460143 445.65295351 -432.74380302 448.78820038 C-433.19557674 450.23168668 -433.64910045 451.67462671 -434.10457039 453.11695099 C-439.18602394 469.2153089 -443.04050757 484.0576143 -435 500 C-431.25093179 506.01480943 -426.96663943 511.35846368 -421.81420898 516.21875 C-420.01767153 517.98264951 -418.37785843 519.81276843 -416.73828125 521.72265625 C-413.17371161 525.82838168 -409.48489348 529.79947167 -405.75 533.75 C-400.34763096 539.48814337 -394.98740086 545.25935409 -389.671875 551.078125 C-386.81122345 554.20643985 -383.9389025 557.3236772 -381.0625 560.4375 C-380.31383667 561.24803833 -380.31383667 561.24803833 -379.55004883 562.07495117 C-378.53879388 563.16964892 -377.52748188 564.26429396 -376.51611328 565.35888672 C-374.00985896 568.07177586 -371.50499554 570.78594859 -369 573.5 C-368.00000676 574.58333957 -367.00000676 575.66667291 -366 576.75 C-352 591.91666667 -338 607.08333333 -324 622.25 C-323.50491943 622.78633057 -323.00983887 623.32266113 -322.49975586 623.87524414 C-321.50054262 624.95773871 -320.50135638 626.04025821 -319.50219727 627.12280273 C-316.99038165 629.84417508 -314.47808667 632.56510195 -311.96484375 635.28515625 C-306.67887317 641.00708317 -301.40289196 646.73783427 -296.14208984 652.48291016 C-291.28158878 657.78859486 -286.39919088 663.07398724 -281.51611328 668.35888672 C-278.51112097 671.61163363 -275.50791775 674.86603263 -272.50463867 678.12036133 C-269.98091256 680.85484388 -267.45623326 683.58843477 -264.9296875 686.3203125 C-264.42421387 686.86743896 -263.91874023 687.41456543 -263.39794922 687.97827148 C-262.38801947 689.07028433 -261.37664004 690.16095837 -260.36376953 691.25024414 C-257.98697016 693.81296239 -255.64513092 696.3928363 -253.375 699.05078125 C-245.33227656 708.33761347 -236.18758829 714.50299002 -224 717 C-215.08137412 717.59792329 -206.93909711 716.4990709 -198.28051758 714.46264648 C-197.0820413 714.19279245 -195.88356503 713.92293842 -194.64877129 713.644907 C-191.38881661 712.90824335 -188.13211145 712.15946013 -184.87621665 711.40519261 C-181.39126483 710.60120521 -177.90260157 709.81364925 -174.41426086 709.02452087 C-168.54820817 707.69570367 -162.6841775 706.35829112 -156.8213501 705.01531982 C-148.36800241 703.07983858 -139.9084874 701.17247024 -131.44677734 699.27392578 C-128.72035717 698.66196181 -125.99395249 698.04992882 -123.26754761 697.43789673 C-122.59327433 697.28655647 -121.91900106 697.13521621 -121.22429526 696.97928989 C-113.61757452 695.27150256 -106.01281516 693.55503932 -98.40820312 691.83789062 C-97.37385403 691.60434557 -97.37385403 691.60434557 -96.318609 691.36608243 C-93.53181522 690.73684898 -90.74502516 690.10759909 -87.95824826 689.47829092 C-83.08633075 688.3781654 -78.21423745 687.27882113 -73.34204102 686.17993164 C-72.65403502 686.02475024 -71.96602903 685.86956884 -71.25717437 685.70968497 C-68.47603035 685.08239333 -65.69488607 684.45510288 -62.91372705 683.82787776 C-55.30831409 682.11257518 -47.70334436 680.39535219 -40.09957886 678.67276001 C-37.35074406 678.05016257 -34.60188977 677.42765124 -31.85302734 676.80517578 C-30.83149775 676.57380224 -30.83149775 676.57380224 -29.7893312 676.33775449 C-21.03867735 674.35641081 -12.28457183 672.39130784 -3.52620167 670.44434959 C2.58623593 669.08554518 8.69712303 667.71992035 14.80701298 666.34970635 C19.13777775 665.37906417 23.47045026 664.41766038 27.80485106 663.46339464 C31.11693559 662.73112732 34.42573119 661.98439848 37.73510742 661.23999023 C38.90495115 660.98554831 40.07479488 660.73110638 41.28008842 660.46895409 C51.43717956 658.15936468 61.5125885 655.22253191 69.3125 648.0625 C70.23675781 647.24910156 71.16101563 646.43570312 72.11328125 645.59765625 C79.63499774 637.2831318 83.32829083 624.96761118 86.50390625 614.47265625 C86.90382808 613.18348002 87.30483943 611.89464137 87.70683289 610.60610962 C88.78255185 607.14768426 89.84352351 603.68490259 90.90156555 600.221035 C92.02121418 596.56439288 93.15433321 592.91192877 94.28613281 589.2590332 C95.95632968 583.8639656 97.62167828 578.46743987 99.28151131 573.06917477 C102.31478283 563.20465587 105.37788569 553.34966487 108.45324516 543.49819374 C109.98079659 538.60361066 111.5055617 533.70815903 113.03033161 528.81270885 C114.25943852 524.86652716 115.48921675 520.9205585 116.72073364 516.97512817 C117.8790576 513.26296204 119.03327583 509.54954238 120.18445778 505.83515549 C120.60797572 504.47088271 121.0328541 503.1070314 121.45920372 501.7436409 C122.04320329 499.87540291 122.62182338 498.0054859 123.20019531 496.13549805 C123.52546204 495.08960007 123.85072876 494.04370209 124.18585205 492.96611023 C125.00301339 489.9890216 125.5479884 487.05203942 126 484 C118.7811264 484.64797074 111.89234523 486.01219428 104.83251953 487.62939453 C103.64041807 487.8983082 102.44831661 488.16722187 101.22009087 488.44428444 C97.95657559 489.18145946 94.69410338 489.92296943 91.43201828 490.66643047 C87.96036171 491.45655035 84.48743923 492.24106743 81.01464844 493.02618408 C75.10661201 494.36256756 69.19934442 495.70230399 63.2925415 497.04412842 C54.89426395 498.95172166 46.49412392 500.8510109 38.09345794 502.74805474 C13.1600279 508.37881779 -11.7725662 514.01263837 -36.68136215 519.75157547 C-41.36072871 520.82808712 -46.04182912 521.89702999 -50.7231617 522.96495628 C-54.09270719 523.73452975 -57.46058584 524.51017261 -60.82513428 525.30133057 C-96.98542611 533.78363384 -96.98542611 533.78363384 -113.71484375 524.4921875 C-121.27584931 519.48258444 -127.39530899 513.00856346 -133.31640625 506.19921875 C-136.86610725 502.12349545 -140.5373414 498.17703783 -144.25 494.25 C-150.55708081 487.5504786 -156.79812306 480.79695958 -163 474 C-164.35523217 472.51924705 -165.7104745 471.0385028 -167.06689453 469.55883789 C-167.97663464 468.56564282 -168.88517535 467.57134771 -169.79248047 466.57592773 C-172.2259577 463.91091831 -174.68476063 461.27580277 -177.18359375 458.671875 C-187.33458634 448.0317709 -193.51953278 438.94031858 -193.27471924 423.66622925 C-192.85402549 418.05191655 -191.39419132 413.02170975 -189.6484375 407.69140625 C-189.29099457 406.54483047 -188.93355164 405.3982547 -188.5652771 404.2169342 C-187.59473031 401.11405941 -186.60731977 398.0171708 -185.61338806 394.92173004 C-184.58064038 391.68615638 -183.57487831 388.44223759 -182.56738281 385.19873047 C-180.17695719 377.51649515 -177.7557141 369.84415875 -175.3310318 362.1726799 C-173.12197918 355.17918467 -170.92107626 348.1831156 -168.71875 341.1875 C-168.47349705 340.40869413 -168.22824409 339.62988827 -167.97555923 338.82748222 C-163.32011853 324.0427336 -158.71042179 309.24412741 -154.125 294.4375 C-152.67334586 289.75124978 -151.22153358 285.0650486 -149.76953125 280.37890625 C-149.39790359 279.17947891 -149.02627594 277.98005157 -148.64338684 276.74427795 C-143.90588191 261.46071193 -139.14357761 246.18486893 -134.38153076 230.90893555 C-133.08410635 226.74679855 -131.78744924 222.58442297 -130.49103165 218.42197227 C-125.72798169 203.12988588 -120.95714482 187.84051638 -116.13671875 172.56640625 C-115.42006981 170.29120869 -114.70351315 168.01598205 -113.98706055 165.74072266 C-112.70176008 161.65897222 -111.40935745 157.5795715 -110.11254883 153.50146484 C-109.55390772 151.72893299 -108.99553835 149.95631546 -108.4375 148.18359375 C-108.18566452 147.39900284 -107.93382904 146.61441193 -107.67436218 145.80604553 C-106.58962303 142.3394241 -106 139.67075941 -106 136 C-109.09466351 136 -111.22806764 136.16554821 -114.16049194 136.83229065 Z " fill="#FFFFFF" transform="translate(573,4)"/>
<path d="M0 0 C1.71170631 -0.01052147 1.71170631 -0.01052147 3.45799255 -0.02125549 C7.1204732 -0.03865537 10.78279204 -0.04510776 14.4453125 -0.046875 C16.323965 -0.04788712 16.323965 -0.04788712 18.24057007 -0.04891968 C37.19529215 -0.03269508 55.8028332 0.35480949 74.5703125 3.203125 C75.73643066 3.38004883 76.90254883 3.55697266 78.10400391 3.73925781 C123.45949583 10.90358187 171.37215464 27.22687732 201.046875 64.296875 C208.68808524 74.90529058 214.68528352 86.3748334 218.5078125 98.890625 C218.70729492 99.53032227 218.90677734 100.17001953 219.11230469 100.82910156 C220.96360938 107.41261826 221.02041016 113.05439464 221.5703125 120.203125 C195.8303125 120.203125 170.0903125 120.203125 143.5703125 120.203125 C141.2603125 115.913125 138.9503125 111.623125 136.5703125 107.203125 C119.07783173 82.44961448 92.16711925 70.07429347 62.890625 64.9765625 C50.50068071 62.98386526 38.12072904 61.46168201 25.5703125 61.203125 C24.8395752 61.18266113 24.10883789 61.16219727 23.35595703 61.14111328 C-12.28439135 60.23073073 -48.0851281 64.60205165 -80.4296875 80.203125 C-81.41195313 80.67363281 -82.39421875 81.14414062 -83.40625 81.62890625 C-104.22090928 92.27617433 -120.41332041 110.12799383 -128.15429688 132.27636719 C-136.09023688 157.83009402 -134.31111362 186.51014918 -121.80078125 210.30078125 C-107.464149 233.95123491 -83.95356328 246.53114058 -57.94189453 253.24438477 C-35.38564098 258.77173185 -12.5819907 260.42127053 10.5703125 260.390625 C11.93941772 260.38922012 11.93941772 260.38922012 13.33618164 260.38778687 C26.49883777 260.35848584 39.54289744 260.28235204 52.5703125 258.203125 C53.50520508 258.0577832 54.44009766 257.91244141 55.40332031 257.76269531 C93.65957218 251.56198933 128.06474239 237.06167 154.5703125 208.203125 C154.9003125 207.543125 155.2303125 206.883125 155.5703125 206.203125 C110.6903125 206.203125 65.8103125 206.203125 19.5703125 206.203125 C19.5703125 192.013125 19.5703125 177.823125 19.5703125 163.203125 C89.8603125 163.203125 160.1503125 163.203125 232.5703125 163.203125 C232.5703125 213.363125 232.5703125 263.523125 232.5703125 315.203125 C210.7903125 315.203125 189.0103125 315.203125 166.5703125 315.203125 C166.5703125 303.37682432 166.82947032 292.32037199 168.3203125 280.703125 C168.50015455 279.23980501 168.6795084 277.77642496 168.85839844 276.31298828 C170.47956512 263.23432029 172.43220161 250.20710166 174.5703125 237.203125 C174.03664063 238.20730469 173.50296875 239.21148437 172.953125 240.24609375 C152.83891788 277.42606987 119.77599761 301.11099414 79.7578125 313.453125 C72.75016738 315.51678075 65.68829522 317.11787186 58.5078125 318.453125 C57.69530029 318.60426758 56.88278809 318.75541016 56.0456543 318.91113281 C39.04130502 321.84137758 22.17178291 322.54464358 4.9453125 322.453125 C3.88594482 322.44969086 2.82657715 322.44625671 1.73510742 322.44271851 C-13.7284187 322.38396784 -29.07648098 322.2238583 -44.4296875 320.203125 C-45.65961426 320.04183105 -46.88954102 319.88053711 -48.15673828 319.71435547 C-101.28435431 312.581315 -154.61179873 295.57052375 -188.8815918 251.77246094 C-207.98018019 226.23456739 -215.65455326 196.47359428 -215.6796875 164.953125 C-215.68036224 164.19468292 -215.68103699 163.43624084 -215.68173218 162.65481567 C-215.62685786 123.78892801 -203.30536603 89.68473159 -176.4296875 61.203125 C-175.76839844 60.47738281 -175.10710937 59.75164062 -174.42578125 59.00390625 C-132.20415765 14.37877466 -58.96471504 0.24465059 0 0 Z " fill="#FFFFFF" transform="translate(1239.4296875,267.796875)"/>
<path d="M0 0 C1.77736542 -0.00101212 1.77736542 -0.00101212 3.59063721 -0.00204468 C49.5335463 0.03954563 101.89492894 5.75877844 137.4375 38.25 C138.23800781 38.98089844 139.03851562 39.71179688 139.86328125 40.46484375 C155.35253713 55.2772582 164.2199366 75.04320436 166.4375 96.25 C166.4375 100.54 166.4375 104.83 166.4375 109.25 C140.3675 109.25 114.2975 109.25 87.4375 109.25 C85.9525 102.32 85.9525 102.32 84.4375 95.25 C78.39078481 81.71687553 69.01989261 74.68092172 55.4375 69.25 C39.42681721 63.34166755 22.43476878 60.83865 5.4375 60.25 C4.30828125 60.20875 3.1790625 60.1675 2.015625 60.125 C-21.55412252 59.70598227 -55.22632518 60.23003575 -73.5625 77.25 C-79.46483192 83.47137688 -81.76950925 90.77555885 -81.5625 99.25 C-80.188686 106.98996994 -76.54218186 111.28380277 -70.1875 115.75 C-41.16779656 132.77984425 2.27515594 132.85408533 34.9140625 136.75 C137.92674572 149.08291781 137.92674572 149.08291781 164.875 182.25 C178.78957019 200.81783767 180.50906218 222.36597302 178.16503906 244.86523438 C175.26358902 263.75342758 163.23097378 280.67886704 148.4375 292.25 C144.22090077 295.14062463 139.89011001 297.74073537 135.4375 300.25 C134.52742188 300.77335937 133.61734375 301.29671875 132.6796875 301.8359375 C109.29998866 314.42500611 81.54256725 318.74127461 55.4375 321.25 C54.46514404 321.34571289 53.49278809 321.44142578 52.4909668 321.54003906 C40.47651083 322.56239002 28.42456006 322.49369105 16.375 322.5 C14.63831558 322.50101212 14.63831558 322.50101212 12.86654663 322.50204468 C-43.85443215 322.44957384 -103.1344207 311.87416437 -145.5625 271.25 C-146.32046875 270.55519531 -147.0784375 269.86039063 -147.859375 269.14453125 C-161.40301329 256.32477707 -170.61374141 239.68841398 -173.5625 221.25 C-173.5625 217.62 -173.5625 213.99 -173.5625 210.25 C-146.5025 210.25 -119.4425 210.25 -91.5625 210.25 C-89.9125 214.21 -88.2625 218.17 -86.5625 222.25 C-84.72932624 225.54248108 -84.72932624 225.54248108 -82.5625 228.25 C-82.19125 228.7759375 -81.82 229.301875 -81.4375 229.84375 C-65.60175396 250.58103648 -34.52598283 257.33566001 -10.2578125 260.88989258 C-0.36539814 262.21156932 9.46881316 262.45403487 19.4375 262.4375 C20.16704895 262.43656342 20.8965979 262.43562683 21.64825439 262.43466187 C44.52782489 262.37107792 74.03097286 261.78916743 91.90625 245.140625 C96.96942613 238.88915243 100.4375 231.31750348 100.4375 223.25 C99.75064706 217.27335427 98.21890897 213.04271603 94.4375 208.25 C92.08915969 206.64079034 90.03347324 205.4019855 87.5 204.1875 C86.79093506 203.84734863 86.08187012 203.50719727 85.35131836 203.15673828 C56.64266489 190.08618231 19.97155216 189.56477485 -10.9375 186.1875 C-28.6558799 184.2497694 -46.1568549 182.1837142 -63.5625 178.25 C-64.44905273 178.05583496 -65.33560547 177.86166992 -66.24902344 177.66162109 C-98.81189138 170.4420984 -134.52852232 157.70932287 -153.62109375 128.609375 C-164.0185635 110.61777745 -164.7431499 90.01839185 -159.5625 70.25 C-156.62887022 60.77340032 -151.7410499 52.92905488 -145.5625 45.25 C-145.11648438 44.64027344 -144.67046875 44.03054688 -144.2109375 43.40234375 C-123.18697567 16.12278591 -81.30845264 6.60883277 -49.25 2.4375 C-45.69157551 1.98898082 -42.13186166 1.60047331 -38.5625 1.25 C-37.68553467 1.1557373 -36.80856934 1.06147461 -35.9050293 0.96435547 C-23.97443872 -0.15360617 -11.9715382 0.00610782 0 0 Z " fill="#FFFFFF" transform="translate(2150.5625,267.75)"/>
<path d="M0 0 C1.26132248 -0.01052147 1.26132248 -0.01052147 2.54812622 -0.02125549 C5.24568092 -0.03865817 7.94301623 -0.04510724 10.640625 -0.046875 C12.02172455 -0.04788712 12.02172455 -0.04788712 13.4307251 -0.04891968 C26.79252399 -0.03333834 39.80066491 0.26526446 52.890625 3.203125 C53.68968262 3.37473145 54.48874023 3.54633789 55.31201172 3.72314453 C83.46738309 9.92386497 110.89223312 24.87094859 127.19140625 49.37890625 C135.61742912 63.38353737 135.61742912 63.38353737 137.890625 70.203125 C138.220625 48.753125 138.550625 27.303125 138.890625 5.203125 C164.300625 5.203125 189.710625 5.203125 215.890625 5.203125 C215.890625 83.413125 215.890625 161.623125 215.890625 242.203125 C192.130625 242.203125 168.370625 242.203125 143.890625 242.203125 C139.2849203 206.50891359 139.2849203 206.50891359 138.640625 190.265625 C138.56367361 188.57611801 138.48554466 186.88666426 138.40625 185.19726562 C138.22103178 181.19968902 138.05092287 177.20177502 137.890625 173.203125 C137.36460693 174.28416504 136.83858887 175.36520508 136.29663086 176.47900391 C135.5873498 177.92103273 134.87778036 179.36291975 134.16796875 180.8046875 C133.82358765 181.51439697 133.47920654 182.22410645 133.12438965 182.95532227 C119.74168432 210.03177779 93.51992819 230.07271757 65.43310547 240.07861328 C22.32519902 254.42036164 -29.33614713 252.03216394 -70.390625 232.171875 C-99.41252869 217.60711246 -123.15482792 194.59144263 -134.30029297 163.67773438 C-137.69545419 153.29349958 -139.73788746 142.12162833 -140.109375 131.203125 C-140.14933594 130.16671875 -140.18929688 129.1303125 -140.23046875 128.0625 C-140.85710365 95.77237219 -130.59425931 67.07943446 -108.828125 42.98828125 C-81.42743171 14.52892481 -38.90303722 0.21819693 0 0 Z M-42.109375 77.203125 C-42.81578125 77.88890625 -43.5221875 78.5746875 -44.25 79.28125 C-55.79013237 91.17375283 -60.73680607 107.43512822 -61.359375 123.703125 C-61.02890661 141.71365221 -54.82742809 157.86511397 -41.953125 170.58984375 C-26.44820052 184.83818781 -6.87014592 192.68489327 13.890625 195.203125 C14.73238281 195.31398438 15.57414062 195.42484375 16.44140625 195.5390625 C50.59581404 199.37430708 88.26380534 193.69637836 115.890625 172.203125 C116.4990625 171.75839844 117.1075 171.31367187 117.734375 170.85546875 C129.14234172 161.96244015 136.341737 148.29215466 138.890625 134.203125 C140.48475227 116.32084593 137.90691746 100.01296262 126.78515625 85.4453125 C108.22437016 63.96079197 81.14416823 55.18510212 53.57470703 52.38183594 C47.23060418 51.95943433 40.87136748 51.95821132 34.515625 51.953125 C33.75873383 51.95245026 33.00184265 51.95177551 32.22201538 51.95108032 C4.99742455 51.98961095 -22.35838347 56.89182166 -42.109375 77.203125 Z " fill="#FFFFFF" transform="translate(1631.109375,340.796875)"/>
<path d="M0 0 C1.0423732 -0.00701431 2.0847464 -0.01402863 3.15870667 -0.02125549 C6.50038026 -0.03864458 9.84187659 -0.0451069 13.18359375 -0.046875 C14.89709015 -0.04788712 14.89709015 -0.04788712 16.64520264 -0.04891968 C33.49767889 -0.03309451 49.97132648 0.36150505 66.62109375 3.203125 C67.65121582 3.36941406 68.68133789 3.53570312 69.74267578 3.70703125 C107.70982918 9.97396166 147.11850217 24.88307465 170.82421875 56.82421875 C189.48573983 83.0594091 194.64447064 116.4893209 189.43359375 147.953125 C183.99627966 177.0079513 167.77318064 200.45308961 143.62109375 217.203125 C114.44377085 236.61321468 79.26668708 245.51517421 44.62109375 248.203125 C43.93128418 248.25952148 43.24147461 248.31591797 42.53076172 248.37402344 C-15.54343858 252.9357431 -81.77573404 246.67823813 -128.03125 207.984375 C-149.87177355 188.86971032 -161.96695064 164.10022789 -164.21875 135.1953125 C-166.05336436 100.91934664 -157.38749221 71.85783057 -134.33203125 45.8984375 C-101.28105527 10.98368468 -46.07491233 0.20924294 0 0 Z M-21.37890625 54.203125 C-22.40443604 54.45255859 -22.40443604 54.45255859 -23.45068359 54.70703125 C-42.81262716 59.65167515 -64.78481396 70.25869949 -75.4375 87.96240234 C-85.23848711 105.28416471 -88.52920522 123.76738154 -83.75390625 143.328125 C-80.230989 154.58427525 -74.67619678 162.89155342 -66.37890625 171.203125 C-65.76402344 171.82960938 -65.14914063 172.45609375 -64.515625 173.1015625 C-43.41796431 193.0697981 -10.37872558 197.8367385 17.53125 197.390625 C46.88259683 196.24436786 76.76608401 189.29149554 97.62109375 167.203125 C106.83307896 156.0945546 111.58214198 143.50108024 112.62109375 129.203125 C112.67523437 128.54054688 112.729375 127.87796875 112.78515625 127.1953125 C113.52787019 109.4376974 106.78554966 92.50956918 95.11328125 79.3828125 C82.35922572 66.04737552 66.49884863 58.34149419 48.62109375 54.203125 C47.97591797 54.05214355 47.33074219 53.90116211 46.66601562 53.74560547 C25.25318985 48.96945304 -0.05396077 49.00865255 -21.37890625 54.203125 Z " fill="#FFFFFF" transform="translate(2499.37890625,340.796875)"/>
<path d="M0 0 C25.08 0 50.16 0 76 0 C76 109.56 76 219.12 76 332 C50.92 332 25.84 332 0 332 C0 222.44 0 112.88 0 0 Z " fill="#FFFFFF" transform="translate(2712,251)"/>
<path d="M0 0 C25.08 0 50.16 0 76 0 C76 109.56 76 219.12 76 332 C50.92 332 25.84 332 0 332 C0 222.44 0 112.88 0 0 Z " fill="#FFFFFF" transform="translate(1880,251)"/>
<path d="" fill="#FFFFFF" transform="translate(0,0)"/>
</svg>
