<?xml version="1.0" encoding="UTF-8"?>
<svg version="1.1" xmlns="http://www.w3.org/2000/svg" width="2953" height="2923">
<path d="M0 0 C9.60233567 8.0169033 18.29909392 16.72845909 26.66455078 26.01513672 C29.1368792 28.74942294 31.64433069 31.45109837 34.1484375 34.15625 C35.14860649 35.23942732 36.14860651 36.32276068 37.1484375 37.40625 C37.6434375 37.9425 38.1384375 38.47875 38.6484375 39.03125 C100.8984375 106.46875 100.8984375 106.46875 163.1484375 173.90625 C163.64351807 174.44258057 164.13859863 174.97891113 164.64868164 175.53149414 C165.64789488 176.61398871 166.64708112 177.69650821 167.64624023 178.77905273 C170.15805585 181.50042508 172.67035083 184.22135195 175.18359375 186.94140625 C180.46956433 192.66333317 185.74554554 198.39408427 191.00634766 204.13916016 C195.86684872 209.44484486 200.74924662 214.73023724 205.63232422 220.01513672 C208.13857854 222.72802586 210.64344196 225.44219859 213.1484375 228.15625 C214.14843074 229.23958957 215.14843074 230.32292291 216.1484375 231.40625 C258.1484375 276.90625 300.1484375 322.40625 342.1484375 367.90625 C342.89105835 368.71074585 342.89105835 368.71074585 343.64868164 369.53149414 C344.64789488 370.61398871 345.64708112 371.69650821 346.64624023 372.77905273 C349.15805585 375.50042508 351.67035083 378.22135195 354.18359375 380.94140625 C359.46956433 386.66333317 364.74554554 392.39408427 370.00634766 398.13916016 C374.86684872 403.44484486 379.74924662 408.73023724 384.63232422 414.01513672 C387.13857854 416.72802586 389.64344196 419.44219859 392.1484375 422.15625 C393.14843074 423.23958957 394.14843074 424.32292291 395.1484375 425.40625 C433.1484375 466.57291667 471.1484375 507.73958333 509.1484375 548.90625 C509.89105835 549.71074585 509.89105835 549.71074585 510.64868164 550.53149414 C511.64789488 551.61398871 512.64708112 552.69650821 513.64624023 553.77905273 C516.15805585 556.50042508 518.67035083 559.22135195 521.18359375 561.94140625 C526.46956433 567.66333317 531.74554554 573.39408427 537.00634766 579.13916016 C541.86684872 584.44484486 546.74924662 589.73023724 551.63232422 595.01513672 C554.13857854 597.72802586 556.64344196 600.44219859 559.1484375 603.15625 C560.14843074 604.23958957 561.14843074 605.32292291 562.1484375 606.40625 C592.1484375 638.90625 622.1484375 671.40625 652.1484375 703.90625 C652.64359863 704.44266113 653.13875977 704.97907227 653.64892578 705.53173828 C654.64735228 706.61339408 655.64572481 707.69509968 656.64404297 708.77685547 C659.67771997 712.06391626 662.71315379 715.3493383 665.75097656 718.63256836 C666.76258128 719.72804089 667.77236206 720.82520065 668.78027344 721.92407227 C671.10497148 724.45777915 673.44506211 726.96104254 675.84375 729.42578125 C691.13388792 745.39392223 696.71051347 763.04922016 696.421875 784.83203125 C695.87661749 801.64593722 687.95573176 815.97324305 676.1484375 827.65625 C675.26285156 828.59210938 675.26285156 828.59210938 674.359375 829.546875 C670.26454622 833.55150931 665.63364717 836.22911776 660.5859375 838.84375 C659.97999756 839.1648877 659.37405762 839.48602539 658.74975586 839.81689453 C647.93550267 845.14485886 635.17418581 847.19419644 623.47607422 849.78710938 C622.18968615 850.07488534 620.90329807 850.3626613 619.57792854 850.65915775 C616.06584698 851.44477244 612.55293453 852.22661031 609.03985977 853.00776982 C605.25457395 853.85019991 601.47010902 854.69630287 597.68554688 855.54197693 C591.1836802 856.99435423 584.68133757 858.44458311 578.1786499 859.89328003 C567.96494481 862.168765 557.75216895 864.44840226 547.53955078 866.72875977 C544.07944193 867.50131793 540.61932728 868.27385012 537.15921021 869.04637146 C536.29948148 869.23832173 535.43975276 869.430272 534.55397165 869.62803894 C528.42906482 870.99547975 522.30402139 872.3623076 516.17892456 873.72889709 C493.37455752 878.81707726 470.57276649 883.91663743 447.7734375 889.02734375 C446.30398731 889.35671304 444.83453668 889.68608037 443.3650856 890.01544571 C431.56259463 892.66092788 419.76026021 895.30710824 407.95809245 897.954032 C400.9759256 899.51995167 393.99363103 901.08530046 387.01119995 902.65004158 C384.72448188 903.16262189 382.43781787 903.6754435 380.1512146 904.18853569 C316.29734532 918.51673951 316.29734532 918.51673951 286.5390625 899.9921875 C274.10015218 891.73031149 264.18229779 879.55260442 254.1484375 868.65625 C253.62475586 868.08841797 253.10107422 867.52058594 252.56152344 866.93554688 C250.29395801 864.4743158 248.03367901 862.00670083 245.77734375 859.53515625 C238.59840925 851.67352961 231.35631792 843.87079093 224.0859375 836.09375 C218.97735284 830.62876864 213.90343053 825.13425848 208.85546875 819.61328125 C205.98353091 816.47291841 203.09837216 813.34486186 200.2109375 810.21875 C199.46239502 809.40833252 199.46239502 809.40833252 198.69873047 808.58154297 C197.68739078 807.48676694 196.67599742 806.3920405 195.66455078 805.29736328 C193.15829646 802.58447414 190.65343304 799.87030141 188.1484375 797.15625 C187.14844426 796.07291043 186.14844426 794.98957709 185.1484375 793.90625 C107.14843752 709.40625002 107.14843752 709.40625002 105.64892578 707.78173828 C104.64735224 706.69672744 103.6457245 705.61176662 102.64404297 704.52685547 C100.16767478 701.84459243 97.69220686 699.16151066 95.21875 696.4765625 C89.86131337 690.66324959 84.48491876 684.86851679 79.0859375 679.09375 C73.97732876 673.62879144 68.90343025 668.13425817 63.85546875 662.61328125 C60.98353091 659.47291841 58.09837216 656.34486186 55.2109375 653.21875 C54.71190918 652.67847168 54.21288086 652.13819336 53.69873047 651.58154297 C52.68739078 650.48676694 51.67599742 649.3920405 50.66455078 648.29736328 C48.15829646 645.58447414 45.65343304 642.87030141 43.1484375 640.15625 C42.14844426 639.07291043 41.14844426 637.98957709 40.1484375 636.90625 C34.1484375 630.40625 28.1484375 623.90625 22.1484375 617.40625 C21.65279297 616.86935547 21.15714844 616.33246094 20.64648438 615.77929688 C19.65277817 614.70267386 18.65928636 613.62585291 17.66601562 612.54882812 C15.07150001 609.73611409 12.47265677 606.92757333 9.8671875 604.125 C9.32835937 603.54427734 8.78953125 602.96355469 8.234375 602.36523438 C7.20972053 601.26108085 6.18376835 600.15812954 5.15625 599.05664062 C2.34389849 596.0228747 -0.28390846 592.89787912 -2.8515625 589.65625 C-9.64598748 610.54810376 -16.26420064 631.48932356 -22.76218796 652.47507095 C-23.99960137 656.46974982 -25.23920379 660.46374922 -26.47875977 664.45776367 C-26.73251908 665.275423 -26.9862784 666.09308233 -27.24772739 666.93551922 C-27.76520189 668.60289522 -28.28268501 670.27026855 -28.80017662 671.93763924 C-29.58412718 674.46378502 -30.36786698 676.98999612 -31.15156555 679.51622009 C-36.43359895 696.54102515 -41.73671036 713.55924194 -47.04312134 730.57646179 C-48.0423203 733.78096641 -49.04131729 736.98553398 -50.040308 740.19010353 C-54.57482513 754.73594868 -59.11060324 769.28140028 -63.64785957 783.82639122 C-66.42461404 792.72784862 -69.20080501 801.62948166 -71.9765625 810.53125 C-72.2258551 811.33069031 -72.47514771 812.13013062 -72.73199463 812.95379639 C-80.11084068 836.6172803 -87.46076478 860.28956751 -94.7890625 883.96875 C-102.56219269 909.08527437 -110.3790923 934.1878542 -118.2265625 959.28125 C-118.4872905 960.11499649 -118.74801849 960.94874298 -119.01664734 961.80775452 C-120.33413023 966.02074326 -121.65166096 970.23371704 -122.96920776 974.44668579 C-123.23015102 975.28107807 -123.49109428 976.11547035 -123.75994492 976.97514725 C-124.28731314 978.66144703 -124.81468995 980.34774413 -125.34207535 982.03403854 C-131.25038258 1000.92603891 -137.14800018 1019.82136546 -143.0390625 1038.71875 C-143.28743237 1039.5154221 -143.53580223 1040.31209419 -143.79169846 1041.13290787 C-151.37687475 1065.46402576 -158.92993068 1089.80496246 -166.46464539 1114.15174866 C-174.55463813 1140.29203429 -182.70273315 1166.41388058 -190.87213135 1192.52944946 C-199.20767002 1219.1763736 -207.5110548 1245.83311115 -215.78788662 1272.49832726 C-220.49991939 1287.67808518 -225.22089875 1302.85490726 -229.9750042 1318.02154922 C-230.69091735 1320.30554707 -231.40654095 1322.58963545 -232.12208557 1324.87374878 C-234.14257518 1331.32275102 -236.16397281 1337.77145564 -238.1916151 1344.21821308 C-238.80794067 1346.17905702 -239.42313082 1348.14025285 -240.03782654 1350.10160828 C-240.78183911 1352.47530906 -241.52777543 1354.84840808 -242.27601624 1357.22077942 C-242.60307053 1358.26594223 -242.93012482 1359.31110504 -243.26708984 1360.38793945 C-243.55079437 1361.29059036 -243.8344989 1362.19324127 -244.12680054 1363.12324524 C-244.84113736 1365.61981468 -245.38006352 1368.10369971 -245.8515625 1370.65625 C-187.67531512 1357.57347848 -129.50590417 1344.46104589 -71.3515625 1331.28125 C-70.35276691 1331.05489136 -70.35276691 1331.05489136 -69.33379364 1330.82395983 C-24.98669959 1320.77340925 19.35781386 1310.71147441 63.70191383 1300.6477232 C90.1648287 1294.64210775 116.62843696 1288.63957051 143.09375 1282.64453125 C143.74072303 1282.49797569 144.38769605 1282.35142012 145.05427432 1282.20042348 C152.96532272 1280.40838481 160.87640024 1278.61647467 168.78748399 1276.82459205 C214.33176774 1266.50867019 259.87400111 1256.18375868 305.41366959 1245.84748077 C309.09685225 1245.01149767 312.78004107 1244.17554168 316.4632321 1243.33959544 C345.65772648 1236.71353776 374.85200104 1230.08651291 404.04557323 1223.45639324 C416.29387217 1220.67470397 428.54228481 1217.8935157 440.79076099 1215.112607 C447.94844766 1213.4874909 455.10607628 1211.86212033 462.26351929 1210.2359314 C481.37184094 1205.89458521 500.48184152 1201.5606906 519.59361696 1197.23457336 C522.24338339 1196.63475752 524.89312829 1196.03484663 527.54287338 1195.43493652 C594.83476803 1180.20115689 662.16836395 1165.15975941 729.52887219 1150.23244125 C739.55775873 1148.00974325 749.58588534 1145.78363068 759.61387295 1143.55688107 C769.4694651 1141.36853748 779.32550401 1139.18221459 789.18190914 1136.99753559 C794.98742758 1135.71071727 800.79277792 1134.42315356 806.59768486 1133.13357925 C811.96723632 1131.94080573 817.3373405 1130.75055405 822.70788956 1129.56228065 C824.66772174 1129.12820968 826.6273559 1128.69324351 828.58677483 1128.25731087 C831.25832114 1127.66309197 833.9305665 1127.07212336 836.60301208 1126.48196411 C837.37294556 1126.30990924 838.14287903 1126.13785437 838.93614382 1125.96058571 C865.22341434 1120.18091713 892.38055649 1123.58126417 915.41796875 1137.8203125 C937.86200465 1152.91143821 952.46719555 1173.5519726 958.640625 1199.84765625 C959.83866044 1206.47371378 960.35325442 1212.93526757 960.3984375 1219.65625 C960.4190625 1220.39230469 960.4396875 1221.12835937 960.4609375 1221.88671875 C960.57058464 1238.25155411 954.83133782 1253.94193299 949.9609375 1269.34375 C949.21208744 1271.73588863 948.46415174 1274.12831366 947.71704102 1276.52099609 C946.08249997 1281.75127308 944.44289387 1286.97992266 942.79980469 1292.20751953 C940.02825894 1301.02809975 937.27855242 1309.85543783 934.53125 1318.68359375 C933.5522134 1321.82903534 932.57310938 1324.97445594 931.59399414 1328.11987305 C931.34793332 1328.9103859 931.1018725 1329.70089876 930.84835529 1330.51536655 C928.0365516 1339.54780475 925.21960604 1348.57863817 922.40234375 1357.609375 C921.88050799 1359.282201 921.35867266 1360.95502713 920.83683777 1362.62785339 C919.53291188 1366.80771482 918.22891769 1370.98755493 916.92490387 1375.16738892 C912.87435616 1388.15088822 908.82424026 1401.13452202 904.77570343 1414.11864853 C904.27355696 1415.72908875 903.77139526 1417.33952423 903.26921844 1418.94995499 C895.89002128 1442.61473612 888.53963228 1466.28828454 881.2109375 1489.96875 C873.43780731 1515.08527437 865.6209077 1540.1878542 857.7734375 1565.28125 C857.5127095 1566.11499649 857.25198151 1566.94874298 856.98335266 1567.80775452 C855.66586977 1572.02074326 854.34833904 1576.23371704 853.03079224 1580.44668579 C852.76984898 1581.28107807 852.50890572 1582.11547035 852.24005508 1582.97514725 C851.71268686 1584.66144703 851.18531005 1586.34774413 850.65792465 1588.03403854 C844.74961742 1606.92603891 838.85199982 1625.82136546 832.9609375 1644.71875 C832.71256763 1645.5154221 832.46419777 1646.31209419 832.20830154 1647.13290787 C824.62298504 1671.46447551 817.07008711 1695.80595231 809.53490829 1720.15308762 C801.98668859 1744.54135617 794.39352035 1768.91534245 786.7734375 1793.28125 C786.51256222 1794.11543835 786.25168694 1794.94962669 785.98290634 1795.80909348 C784.66451762 1800.02479392 783.34607615 1804.24047787 782.02763367 1808.4561615 C781.76656012 1809.29094465 781.50548656 1810.12572781 781.23650169 1810.98580742 C780.70889343 1812.67282827 780.18127629 1814.35984634 779.65365028 1816.04686165 C773.76624016 1834.87166439 767.89226262 1853.70064579 762.0234375 1872.53125 C761.77607094 1873.32491219 761.52870438 1874.11857437 761.27384186 1874.93628693 C753.24244332 1900.7051045 745.2278057 1926.4791133 737.21963501 1952.25515747 C729.89522889 1975.83004619 722.55824947 1999.40099009 715.2109375 2022.96875 C714.96272877 2023.7649387 714.71452003 2024.5611274 714.45878983 2025.38144302 C710.43753001 2038.28051654 706.41543296 2051.17932897 702.39323425 2064.07810974 C698.62373755 2076.16653249 694.85454295 2088.25504937 691.0859375 2100.34375 C690.8376482 2101.1401804 690.5893589 2101.93661079 690.33354568 2102.75717545 C682.75937272 2127.05299776 675.19889307 2151.35304723 667.6484375 2175.65625 C659.84797309 2200.76417448 652.03601227 2225.86848418 644.2109375 2250.96875 C643.96272877 2251.7649387 643.71452003 2252.5611274 643.45878983 2253.38144302 C639.43753001 2266.28051654 635.41543296 2279.17932897 631.39323425 2292.07810974 C627.87375754 2303.36474179 624.35459369 2314.65147132 620.83586121 2325.93833542 C620.08809029 2328.33684482 619.34025543 2330.73533428 618.59240723 2333.13381958 C612.53559666 2352.55963263 606.4892684 2371.98865958 600.45787048 2391.42237854 C597.99133399 2399.36943467 595.52331835 2407.3160227 593.05004883 2415.26098633 C592.81549893 2416.01445563 592.58094904 2416.76792494 592.33929157 2417.54422665 C591.41757312 2420.50494316 590.49578014 2423.46563638 589.57364082 2426.42622185 C587.05625561 2434.50870213 584.54875484 2442.59399742 582.06216431 2450.6860199 C571.31842008 2485.6217001 558.67390388 2514.82572218 533.1484375 2541.65625 C532.52839844 2542.34074219 531.90835938 2543.02523437 531.26953125 2543.73046875 C506.35856309 2570.31331396 471.50606882 2582.91880569 436.9375 2590.76171875 C434.88386148 2591.2343468 432.8303681 2591.70760585 430.77700806 2592.18144226 C424.23723602 2593.68670414 417.69314932 2595.17263829 411.1484375 2596.65625 C408.99685684 2597.14499577 406.84528614 2597.63378537 404.69372559 2598.12261963 C389.8887448 2601.48338314 375.07607478 2604.80963338 360.2620697 2608.13035202 C353.79183163 2609.58131971 347.32218769 2611.03493221 340.85253906 2612.48852539 C339.51062781 2612.79001485 338.16871649 2613.09150404 336.82680511 2613.39299297 C334.79341397 2613.84984045 332.76002393 2614.30669287 330.72663736 2614.76356071 C326.60177082 2615.69033472 322.47685594 2616.61689319 318.35190248 2617.5432803 C288.58763133 2624.227826 258.82910866 2630.93779914 229.07155228 2637.65216446 C224.88267019 2638.5973211 220.69376313 2639.54236704 216.50485229 2640.48739624 C163.39072132 2652.47018412 110.27875326 2664.46255191 57.16738892 2676.45759583 C39.17287816 2680.52159785 21.17827221 2684.58517811 3.18359375 2688.6484375 C1.26389676 2689.08191183 1.26389676 2689.08191183 -0.69458199 2689.52414322 C-7.16055293 2690.98417994 -13.62652549 2692.4442095 -20.09249878 2693.90423584 C-31.72071802 2696.52990855 -43.34892293 2699.15564474 -54.97712898 2701.78137589 C-61.43527291 2703.23966983 -67.89341775 2704.69795971 -74.3515625 2706.15625 C-76.93489584 2706.73958331 -79.51822917 2707.32291665 -82.1015625 2707.90625 C-209.9765625 2736.78125 -337.8515625 2765.65625 -597.47663879 2824.28126717 C-600.05971785 2824.86454312 -602.64279687 2825.44781924 -605.22587585 2826.0310955 C-611.68809935 2827.49030798 -618.15032346 2828.94951774 -624.61254883 2830.40872192 C-636.19109635 2833.02322109 -647.76963983 2835.63773817 -659.34815979 2838.25235939 C-665.74512427 2839.6968991 -672.14209243 2841.14142253 -678.5390625 2842.5859375 C-679.80809418 2842.87250088 -681.07712585 2843.15906425 -682.38461304 2843.45431137 C-700.68283925 2847.58624777 -718.98125902 2851.71732601 -737.27979279 2855.84790015 C-742.22788179 2856.96485094 -747.17595719 2858.08186196 -752.12402344 2859.19891357 C-752.81794945 2859.35557094 -753.51187546 2859.5122283 -754.22682953 2859.67363286 C-757.70208399 2860.45819192 -761.17733661 2861.24275917 -764.65258789 2862.02733231 C-772.58350752 2863.81780417 -780.51448524 2865.60801833 -788.44552612 2867.39795303 C-792.1595342 2868.23625472 -795.87347099 2869.07487169 -799.58740234 2869.91351318 C-804.33218965 2870.98484747 -809.07733465 2872.0545765 -813.82275391 2873.12310791 C-824.68957266 2875.57197135 -835.55013719 2878.0435274 -846.3984375 2880.57324219 C-849.35200858 2881.25817643 -852.30574916 2881.94237446 -855.259552 2882.62630844 C-857.90064955 2883.24121203 -860.53906023 2883.86672123 -863.17749023 2884.49295044 C-871.87255691 2886.52515869 -880.55164322 2888.17743259 -889.3984375 2889.40673828 C-890.27860031 2889.52994383 -891.15876312 2889.65314938 -892.06559753 2889.78008842 C-930.04568422 2894.72799856 -970.70647452 2884.67025679 -1001.4140625 2861.59375 C-1013.31987526 2852.41350444 -1024.15482042 2842.09268277 -1034.01098633 2830.74633789 C-1036.96376784 2827.39327216 -1040.03245651 2824.15255145 -1043.1015625 2820.90625 C-1048.50393154 2815.16810663 -1053.86416164 2809.39689591 -1059.1796875 2803.578125 C-1062.04033905 2800.44981015 -1064.91266 2797.3325728 -1067.7890625 2794.21875 C-1068.28817139 2793.67839111 -1068.78728027 2793.13803223 -1069.30151367 2792.58129883 C-1070.31276862 2791.48660108 -1071.32408062 2790.39195604 -1072.33544922 2789.29736328 C-1074.84170354 2786.58447414 -1077.34656696 2783.87030141 -1079.8515625 2781.15625 C-1080.85155574 2780.07291043 -1081.85155574 2778.98957709 -1082.8515625 2777.90625 C-1132.3515625 2724.28125 -1181.8515625 2670.65625 -1928.8515625 1861.40625 C-1929.3468042 1860.8697583 -1929.8420459 1860.3332666 -1930.35229492 1859.78051758 C-1931.34993468 1858.69970056 -1932.34749358 1857.61880891 -1933.3449707 1856.5378418 C-1935.88041678 1853.7903839 -1938.41735632 1851.04433099 -1940.95703125 1848.30078125 C-1943.47192639 1845.58391678 -1945.97922585 1842.86016605 -1948.48486328 1840.13476562 C-1949.73259386 1838.78495205 -1950.99262641 1837.44653672 -1952.25390625 1836.109375 C-1978.29502508 1808.10029816 -1993.23122849 1770.93581684 -1993.22216797 1732.70947266 C-1993.22650238 1730.6843383 -1993.26289412 1728.66146579 -1993.30078125 1726.63671875 C-1993.48943086 1705.86876286 -1987.61498569 1686.38657768 -1981.3515625 1666.78125 C-1980.5979066 1664.3871263 -1979.84558378 1661.99258261 -1979.09448242 1659.59765625 C-1977.50501848 1654.53595822 -1975.90856692 1649.47655173 -1974.30615234 1644.41894531 C-1971.87110046 1636.73059643 -1969.46148042 1629.03439453 -1967.05859375 1621.3359375 C-1966.85932974 1620.69762623 -1966.66006573 1620.05931496 -1966.45476341 1619.40166092 C-1965.64239247 1616.79929138 -1964.83007775 1614.19690433 -1964.01796627 1611.59445381 C-1962.5599059 1606.92249632 -1961.09924454 1602.25135711 -1959.63745117 1597.58056641 C-1953.67274691 1578.51899939 -1947.75086354 1559.44441755 -1941.84714127 1540.36388397 C-1933.76406823 1514.24029834 -1925.63892315 1488.13017214 -1917.4765625 1462.03125 C-1917.21595409 1461.197929 -1916.95534569 1460.364608 -1916.68684006 1459.50603485 C-1915.36835636 1455.29005605 -1914.04983224 1451.0740899 -1912.73130798 1446.85812378 C-1912.47013624 1446.02302151 -1912.2089645 1445.18791924 -1911.93987846 1444.32751083 C-1911.4121643 1442.64014256 -1910.88444035 1440.95277735 -1910.35670662 1439.26541519 C-1904.46931885 1420.44068689 -1898.59543911 1401.61175672 -1892.7265625 1382.78125 C-1892.47978508 1381.98950253 -1892.23300766 1381.19775505 -1891.97875214 1380.38201523 C-1883.85619219 1354.32171721 -1875.75233624 1328.25562881 -1867.65524292 1302.18740845 C-1860.85192891 1280.28516235 -1854.02288768 1258.39110988 -1847.17399216 1236.50307846 C-1840.46640196 1215.06571719 -1833.80415899 1193.61460606 -1827.1640625 1172.15625 C-1819.30793642 1146.76878001 -1811.4088799 1121.39501672 -1803.4765625 1096.03125 C-1802.95019331 1094.34807395 -1802.42382612 1092.66489727 -1801.89746094 1090.98171997 C-1800.84314311 1087.61034221 -1799.78880985 1084.23896928 -1798.73446655 1080.86759949 C-1798.4734251 1080.03288809 -1798.21238365 1079.19817669 -1797.94343185 1078.33817101 C-1797.41595773 1076.6515238 -1796.88847411 1074.96487956 -1796.36098099 1073.2782383 C-1790.45269613 1054.38631248 -1784.55510166 1035.49106024 -1778.6640625 1016.59375 C-1778.2915077 1015.39874186 -1778.2915077 1015.39874186 -1777.91142654 1014.17959213 C-1770.32611004 989.84802449 -1762.77321211 965.50654769 -1755.23803329 941.15941238 C-1747.68981359 916.77114383 -1740.09664535 892.39715755 -1732.4765625 868.03125 C-1732.08524958 866.77996748 -1732.08524958 866.77996748 -1731.68603134 865.50340652 C-1730.36764262 861.28770608 -1729.04920115 857.07202213 -1727.73075867 852.8563385 C-1727.46968512 852.02155535 -1727.20861156 851.18677219 -1726.93962669 850.32669258 C-1726.41201843 848.63967173 -1725.88440129 846.95265366 -1725.35677528 845.26563835 C-1719.46936513 826.44083551 -1713.59546227 807.61183102 -1707.7265625 788.78125 C-1707.35639637 787.59362879 -1707.35639637 787.59362879 -1706.97875214 786.38201523 C-1698.85619219 760.32171721 -1690.75233624 734.25562881 -1682.65524292 708.18740845 C-1675.85192891 686.28516235 -1669.02288768 664.39110988 -1662.17399216 642.50307846 C-1655.46640196 621.06571719 -1648.80415899 599.61460606 -1642.1640625 578.15625 C-1633.27591222 549.43374145 -1624.32731122 520.73044875 -1615.34936523 492.03588867 C-1614.3031623 488.69191341 -1613.25702684 485.34791705 -1612.2109375 482.00390625 C-1611.95160997 481.1749629 -1611.69228245 480.34601955 -1611.42509651 479.49195671 C-1607.60987949 467.29522313 -1603.80668738 455.09478795 -1600.01208878 442.89162445 C-1599.18468921 440.23092791 -1598.35702245 437.57031464 -1597.52926636 434.909729 C-1596.98614182 433.16394142 -1596.44302046 431.41815286 -1595.89990234 429.67236328 C-1595.63394697 428.81749329 -1595.3679916 427.96262329 -1595.09397697 427.08184814 C-1593.79675282 422.91152148 -1592.50036929 418.74093702 -1591.20587158 414.56976318 C-1582.04204263 385.04403284 -1582.04204263 385.04403284 -1577.921875 372.515625 C-1577.66308563 371.71868729 -1577.40429626 370.92174957 -1577.13766479 370.10066223 C-1574.50638942 362.21140746 -1570.84882885 354.92976327 -1566.8515625 347.65625 C-1566.29855469 346.61339844 -1565.74554687 345.57054687 -1565.17578125 344.49609375 C-1556.01236191 327.89696421 -1542.80467898 313.17614748 -1527.8515625 301.65625 C-1526.49998047 300.56376953 -1526.49998047 300.56376953 -1525.12109375 299.44921875 C-1503.84035901 282.68880559 -1479.19421923 274.66106922 -1453.05859375 268.94921875 C-1450.78684996 268.44034982 -1448.51543959 267.92999049 -1446.24433899 267.41825867 C-1441.4993497 266.35160238 -1436.75253374 265.29371785 -1432.00396729 264.24310303 C-1425.05841355 262.70522268 -1418.11905772 261.14082672 -1411.18115234 259.56884766 C-1398.22456437 256.63532779 -1385.2633999 253.72245303 -1372.30131149 250.81334686 C-1365.79834467 249.35347927 -1359.29578933 247.89178103 -1352.79321289 246.43017578 C-1350.11540443 245.8282983 -1347.43759316 245.22643327 -1344.75978088 244.62457275 C-1344.09409613 244.47495291 -1343.42841138 244.32533307 -1342.74255437 244.17117929 C-1338.02669877 243.1112662 -1333.31078011 242.05163397 -1328.59483337 240.99212646 C-1303.1305373 235.27107777 -1277.66904205 229.53761513 -1252.2081337 223.80150986 C-1246.48343046 222.51182946 -1240.75868237 221.22234824 -1235.03393555 219.93286133 C-1227.02497717 218.12884938 -1219.01602792 216.32479695 -1211.00709438 214.52067471 C-1190.26435293 209.84809479 -1169.52142293 205.1763521 -1148.77848911 200.50462627 C-1140.66098889 198.67639731 -1132.54350385 196.84810097 -1124.42602539 195.01977539 C-1102.69780639 190.1258815 -1080.96950971 185.23233323 -1059.24095726 180.33992004 C-1049.06945951 178.04967582 -1038.89800256 175.75925042 -1028.7265625 173.46875 C-1027.03579149 173.08800953 -1027.03579149 173.08800953 -1025.31086349 172.69957733 C-996.71254392 166.25950223 -968.11526854 159.81481206 -939.51953125 153.36328125 C-938.83421625 153.20866708 -938.14890124 153.05405291 -937.44281912 152.89475346 C-929.75373739 151.16001231 -922.06467151 149.42520093 -914.37561035 147.69036865 C-911.55509457 147.053995 -908.7345786 146.4176222 -905.9140625 145.78125 C-905.21566317 145.62367501 -904.51726383 145.46610003 -903.79770088 145.30375004 C-855.49512996 134.4056144 -807.18825976 123.52673728 -758.87850952 112.66046333 C-756.42031071 112.10754258 -753.96211216 111.55462065 -751.50391388 111.00169754 C-749.05981792 110.45194722 -746.61572104 109.90220101 -744.17162323 109.35245895 C-717.04296945 103.25042169 -689.91584629 97.14159424 -662.7890625 91.03125 C-660.49066168 90.51353938 -658.1922608 89.99582901 -655.89385986 89.4781189 C-646.74036418 87.4163005 -637.58687879 85.3544364 -628.43341064 83.29249573 C-612.3345874 79.66602248 -596.23568311 76.03990924 -580.13671875 72.4140625 C-578.99098326 72.15601711 -577.84524776 71.89797173 -576.66479301 71.63210678 C-570.87590519 70.32832101 -565.08701601 69.02454124 -559.29812622 67.72076416 C-548.88865848 65.37633486 -538.47920273 63.03185238 -528.06974602 60.68737411 C-522.28868533 59.38533058 -516.50762388 58.08329046 -510.7265625 56.78125 C-508.4140625 56.26041668 -506.1015625 55.73958335 -503.7890625 55.21875 C-489.91406198 52.09374988 -489.91406198 52.09374988 -486.44533348 51.31250477 C-484.13276352 50.79165565 -481.82019358 50.27080642 -479.50762367 49.74995708 C-473.72744427 48.44811438 -467.94726445 47.14627356 -462.16708374 45.84443665 C-451.74804906 43.49781535 -441.32901741 41.15118058 -430.91000175 38.80447483 C-425.11187829 37.49854674 -419.31375231 36.19262979 -413.515625 34.88671875 C-411.79458494 34.49908891 -411.79458494 34.49908891 -410.0387764 34.10362816 C-395.22762886 30.76773467 -380.41637758 27.43230232 -365.60501099 24.09738159 C-357.71103966 22.31997326 -349.81711598 20.54235336 -341.92319298 18.76473045 C-336.27654317 17.49319956 -330.62985625 16.22183387 -324.98309326 14.95080566 C-298.67477831 9.02907328 -272.36877215 3.09729032 -246.06677759 -2.85244519 C-240.72558801 -4.06062263 -235.38427355 -5.2682467 -230.0428772 -6.47550964 C-229.29067968 -6.64552355 -228.53848217 -6.81553745 -227.7634908 -6.99070328 C-224.73352444 -7.67553275 -221.70355404 -8.3603443 -218.67356801 -9.04508674 C-209.80573408 -11.04912963 -200.93831948 -13.05500271 -192.07165194 -15.0642001 C-186.50952858 -16.32441913 -180.94689076 -17.58235058 -175.38387823 -18.8386386 C-172.17154915 -19.56416011 -168.95953672 -20.29100944 -165.74799347 -21.02000618 C-153.25181712 -23.85602096 -140.74676406 -26.6251818 -128.18701172 -29.16699219 C-126.67081836 -29.47664854 -126.67081836 -29.47664854 -125.12399483 -29.79256058 C-81.86916053 -38.40641032 -34.47109052 -27.98706451 0 0 Z M-396.47729492 445.40917969 C-397.37034332 445.61011482 -398.26339172 445.81104996 -399.1835022 446.01807404 C-402.19310345 446.69723042 -405.19998433 447.38775385 -408.20703125 448.078125 C-410.35980781 448.56620705 -412.51275094 449.05355492 -414.66584778 449.54022217 C-419.32719538 450.5953953 -423.9873746 451.65554054 -428.64672852 452.71948242 C-436.13054517 454.42828226 -443.61680541 456.12619459 -451.10351562 457.82226562 C-458.97980137 459.60712724 -466.85592978 461.39266262 -474.73117065 463.18212891 C-492.82521893 467.29332578 -510.92398299 471.3830878 -529.02734375 475.453125 C-530.25747948 475.72969311 -531.4876152 476.00626122 -532.75502777 476.29121017 C-538.96313216 477.68682123 -545.17133232 479.08200575 -551.37957764 480.47698975 C-562.69524008 483.01978504 -574.01013895 485.5659745 -585.32506561 488.11204147 C-589.08935989 488.95907068 -592.85366913 489.80603339 -596.61798096 490.65298462 C-622.71750098 496.52540455 -648.81590092 502.40279628 -674.9140625 508.28125 C-676.05237141 508.53764503 -677.19068031 508.79404007 -678.36348343 509.05820465 C-695.52622911 512.92398601 -712.68890412 516.79008108 -729.8515625 520.65625 C-748.16402188 524.78143036 -766.47650785 528.9064926 -784.7890625 533.03125 C-785.92664631 533.2874839 -787.06423012 533.5437178 -788.23628616 533.80771637 C-824.51175642 541.97849738 -860.78859402 550.14318966 -897.06616592 558.30463409 C-926.88651182 565.01343735 -956.70676881 571.72263628 -986.52637672 578.43471909 C-988.93697455 578.97731473 -991.3475771 579.51988937 -993.75818443 580.06244278 C-1006.63349752 582.96032564 -1019.50837948 585.86009812 -1032.38208008 588.76513672 C-1036.87318677 589.7784217 -1041.36432085 590.79158519 -1045.85546875 591.8046875 C-1046.94971979 592.05156185 -1048.04397083 592.2984362 -1049.171381 592.5527916 C-1063.00529015 595.67312302 -1076.84364154 598.77257733 -1090.68777466 601.847229 C-1097.55739225 603.37303148 -1104.42529905 604.90646522 -1111.2927494 606.4419899 C-1115.79551097 607.44818951 -1120.29911632 608.45013722 -1124.80529785 609.44091797 C-1156.15018511 615.98635028 -1156.15018511 615.98635028 -1185.5390625 628.34375 C-1186.30831055 628.76108398 -1187.07755859 629.17841797 -1187.87011719 629.60839844 C-1223.47825522 649.40366403 -1248.94785402 680.68658174 -1261.53515625 719.34765625 C-1261.87204971 720.37080933 -1262.20894318 721.3939624 -1262.55604553 722.44812012 C-1266.89723237 735.72278797 -1270.99198145 749.07562113 -1275.10118866 762.42340851 C-1277.03249277 768.69243009 -1278.97144401 774.95909516 -1280.90930176 781.22609329 C-1281.41669144 782.86703509 -1281.92399477 784.50800358 -1282.43121338 786.14899826 C-1288.06353848 804.37007514 -1293.74851002 822.57457784 -1299.44292831 840.77632904 C-1300.7575483 844.97856935 -1302.07175836 849.18093786 -1303.38598633 853.38330078 C-1303.64733714 854.21899282 -1303.90868795 855.05468487 -1304.17795849 855.91570091 C-1304.70614077 857.60462296 -1305.23431834 859.29354648 -1305.76249123 860.98247147 C-1306.29051874 862.67091007 -1306.81856312 864.3593434 -1307.34662437 866.04777145 C-1313.23394739 884.87226955 -1319.10783163 903.7009482 -1324.9765625 922.53125 C-1325.22392906 923.32491219 -1325.47129562 924.11857437 -1325.72615814 924.93628693 C-1333.75755668 950.7051045 -1341.7721943 976.4791133 -1349.78036499 1002.25515747 C-1357.10477111 1025.83004619 -1364.44175053 1049.40099009 -1371.7890625 1072.96875 C-1372.03727123 1073.7649387 -1372.28547997 1074.5611274 -1372.54121017 1075.38144302 C-1376.56246999 1088.28051654 -1380.58456704 1101.17932897 -1384.60676575 1114.07810974 C-1388.12576014 1125.36319504 -1391.64452593 1136.64835157 -1395.16272354 1147.9336853 C-1395.66336332 1149.53958402 -1396.16401181 1151.14548001 -1396.66466904 1152.75137329 C-1402.37372761 1171.06370985 -1408.07833308 1189.37741643 -1413.76953125 1207.6953125 C-1414.01181583 1208.47513741 -1414.25410042 1209.25496231 -1414.50372696 1210.05841827 C-1416.44445411 1216.30510317 -1418.38494502 1222.55186146 -1420.32525635 1228.79867554 C-1427.36919711 1251.4764747 -1434.43774389 1274.14641789 -1441.52913284 1296.80942154 C-1448.23672304 1318.24678281 -1454.89896601 1339.69789394 -1461.5390625 1361.15625 C-1469.39518869 1386.54372036 -1477.29434537 1411.91745168 -1485.2265625 1437.28125 C-1485.74924097 1438.95267619 -1486.27191553 1440.62410359 -1486.79458618 1442.29553223 C-1487.84101118 1445.64181054 -1488.88745404 1448.98808327 -1489.93391418 1452.33435059 C-1490.32332656 1453.57957741 -1490.32332656 1453.57957741 -1490.72060585 1454.84996033 C-1491.24543664 1456.52819605 -1491.77027668 1458.20642888 -1492.29512596 1459.88465881 C-1497.9329377 1477.91205672 -1503.56397432 1495.94156329 -1509.18780518 1513.97332764 C-1510.18985747 1517.18609323 -1511.19241352 1520.39870081 -1512.19549561 1523.61114502 C-1514.73190465 1531.73494179 -1517.26255706 1539.86046782 -1519.7811451 1547.98980904 C-1521.21732985 1552.62249696 -1522.66472195 1557.25154851 -1524.11797142 1561.87891006 C-1525.12905834 1565.10480186 -1526.13241941 1568.33306528 -1527.13422012 1571.5618515 C-1527.60683537 1573.07961534 -1528.08248552 1574.5964385 -1528.56161118 1576.11215973 C-1541.51000912 1617.10634826 -1539.69466273 1660.08300044 -1519.8515625 1698.65625 C-1511.56587674 1714.25261351 -1500.65994023 1727.15895243 -1488.53271484 1739.88232422 C-1486.06512534 1742.48608625 -1483.64350748 1745.13054939 -1481.2265625 1747.78125 C-1477.46559422 1751.89463698 -1473.69575601 1755.99940881 -1469.9140625 1760.09375 C-1469.41575928 1760.63330322 -1468.91745605 1761.17285645 -1468.40405273 1761.72875977 C-1466.88672344 1763.37141131 -1465.36918268 1765.01386721 -1463.8515625 1766.65625 C-1457.55309275 1773.47251302 -1451.26130989 1780.29454457 -1444.99365234 1787.13916016 C-1440.13315128 1792.44484486 -1435.25075338 1797.73023724 -1430.36767578 1803.01513672 C-1427.86142146 1805.72802586 -1425.35655804 1808.44219859 -1422.8515625 1811.15625 C-1421.85156926 1812.23958957 -1420.85156926 1813.32292291 -1419.8515625 1814.40625 C-1380.8515625 1856.65625 -1380.8515625 1856.65625 -1341.8515625 1898.90625 C-1341.35648193 1899.44258057 -1340.86140137 1899.97891113 -1340.35131836 1900.53149414 C-1339.35210512 1901.61398871 -1338.35291888 1902.69650821 -1337.35375977 1903.77905273 C-1334.84194415 1906.50042508 -1332.32964917 1909.22135195 -1329.81640625 1911.94140625 C-1324.53043567 1917.66333317 -1319.25445446 1923.39408427 -1313.99365234 1929.13916016 C-1309.13315128 1934.44484486 -1304.25075338 1939.73023724 -1299.36767578 1945.01513672 C-1296.86142146 1947.72802586 -1294.35655804 1950.44219859 -1291.8515625 1953.15625 C-1290.85156926 1954.23958957 -1289.85156926 1955.32292291 -1288.8515625 1956.40625 C-1262.8515625 1984.57291667 -1236.8515625 2012.73958333 -1210.8515625 2040.90625 C-1210.35648193 2041.44258057 -1209.86140137 2041.97891113 -1209.35131836 2042.53149414 C-1208.35210512 2043.61398871 -1207.35291888 2044.69650821 -1206.35375977 2045.77905273 C-1203.84194415 2048.50042508 -1201.32964917 2051.22135195 -1198.81640625 2053.94140625 C-1193.53043567 2059.66333317 -1188.25445446 2065.39408427 -1182.99365234 2071.13916016 C-1178.13315128 2076.44484486 -1173.25075338 2081.73023724 -1168.36767578 2087.01513672 C-1165.86142146 2089.72802586 -1163.35655804 2092.44219859 -1160.8515625 2095.15625 C-1159.85156926 2096.23958957 -1158.85156926 2097.32292291 -1157.8515625 2098.40625 C-1135.8515625 2122.23958333 -1113.8515625 2146.07291667 -1091.8515625 2169.90625 C-1091.35648193 2170.44258057 -1090.86140137 2170.97891113 -1090.35131836 2171.53149414 C-1089.35210512 2172.61398871 -1088.35291888 2173.69650821 -1087.35375977 2174.77905273 C-1084.84194415 2177.50042508 -1082.32964917 2180.22135195 -1079.81640625 2182.94140625 C-1074.53043567 2188.66333317 -1069.25445446 2194.39408427 -1063.99365234 2200.13916016 C-1059.13315128 2205.44484486 -1054.25075338 2210.73023724 -1049.36767578 2216.01513672 C-1046.86142146 2218.72802586 -1044.35655804 2221.44219859 -1041.8515625 2224.15625 C-1040.85156926 2225.23958957 -1039.85156926 2226.32292291 -1038.8515625 2227.40625 C-1012.8515625 2255.57291667 -986.8515625 2283.73958333 -960.8515625 2311.90625 C-960.35648193 2312.44258057 -959.86140137 2312.97891113 -959.35131836 2313.53149414 C-958.35210512 2314.61398871 -957.35291888 2315.69650821 -956.35375977 2316.77905273 C-953.84194415 2319.50042508 -951.32964917 2322.22135195 -948.81640625 2324.94140625 C-943.53043567 2330.66333317 -938.25445446 2336.39408427 -932.99365234 2342.13916016 C-928.13315128 2347.44484486 -923.25075338 2352.73023724 -918.36767578 2358.01513672 C-915.86142146 2360.72802586 -913.35655804 2363.44219859 -910.8515625 2366.15625 C-909.85156926 2367.23958957 -908.85156926 2368.32292291 -907.8515625 2369.40625 C-901.8515625 2375.90625 -901.8515625 2375.90625 -900.35083008 2377.53222656 C-899.35351494 2378.61252949 -898.35595737 2379.69260867 -897.3581543 2380.77246094 C-894.81501364 2383.52534943 -892.27655937 2386.28232742 -889.74609375 2389.046875 C-886.79757434 2392.26534567 -883.83141265 2395.46677835 -880.8515625 2398.65625 C-880.09359375 2399.46964844 -879.335625 2400.28304687 -878.5546875 2401.12109375 C-855.79073666 2424.75738578 -823.9666563 2438.82637057 -791.8515625 2443.65625 C-791.02269531 2443.78773437 -790.19382812 2443.91921875 -789.33984375 2444.0546875 C-783.77518442 2444.7733346 -778.14334081 2444.81762977 -772.5390625 2444.90625 C-771.80010742 2444.92776123 -771.06115234 2444.94927246 -770.29980469 2444.97143555 C-752.48021192 2445.06856002 -734.62366965 2440.5000114 -717.3671875 2436.546875 C-715.0850785 2436.0306647 -712.80280064 2435.51520046 -710.52037048 2435.00041199 C-704.34131873 2433.60462883 -698.16461653 2432.19869676 -691.98827744 2430.79096603 C-686.04734897 2429.4386583 -680.10463034 2428.09428704 -674.16191185 2426.74987161 C-662.19791032 2424.04307592 -650.23549755 2421.32932712 -638.27392578 2418.61181641 C-621.73526894 2414.85464831 -605.19347293 2411.11143533 -588.65079308 2407.37202525 C-582.19862694 2405.91350488 -575.74653386 2404.45466132 -569.29443359 2402.99584961 C-568.58410618 2402.83525012 -567.87377877 2402.67465062 -567.14192629 2402.50918448 C-551.2521165 2398.91656388 -535.36337998 2395.31920689 -519.47475624 2391.72134519 C-489.15786244 2384.85635284 -458.83937033 2377.99844937 -428.51992416 2371.14473724 C-423.79455433 2370.0765536 -419.06920025 2369.00830032 -414.34384632 2367.94004631 C-398.02003836 2364.2497487 -381.69616381 2360.55974571 -365.37228394 2356.86976624 C-349.00644986 2353.17029923 -332.64064076 2349.47072178 -316.27488327 2345.77091599 C-313.9103951 2345.23637807 -311.54590587 2344.70184488 -309.18141556 2344.16731644 C-279.62668802 2337.48602176 -250.0726051 2330.80188639 -220.51953125 2324.11328125 C-219.09276329 2323.79036955 -217.66599531 2323.46745797 -216.23922729 2323.14454651 C-211.2085859 2322.00599119 -206.17794576 2320.86743035 -201.14730597 2319.72886801 C-156.1074958 2309.53522057 -111.06713767 2299.34403021 -66.02214432 2289.17330647 C-58.44917873 2287.46322785 -50.87658794 2285.75150143 -43.30430222 2284.03841496 C-16.69057189 2278.01796074 9.92953565 2272.02879937 36.56421816 2266.10182637 C41.94362282 2264.90447474 47.32242761 2263.70445751 52.70083618 2262.50263977 C53.83273764 2262.2497162 53.83273764 2262.2497162 54.98750579 2261.99168307 C58.77317649 2261.14566429 62.55876589 2260.29928278 66.34429741 2259.45264149 C74.39449258 2257.65276527 82.44655336 2255.86173428 90.50135213 2254.08257198 C95.99294578 2252.86880996 101.48213782 2251.64455359 106.96970004 2250.41269493 C110.1234787 2249.70509812 113.27837049 2249.00350489 116.43566322 2248.31173325 C139.3330102 2243.29022847 162.70923655 2237.49692813 183.1484375 2225.65625 C183.80312012 2225.28419434 184.45780273 2224.91213867 185.13232422 2224.52880859 C195.43526227 2218.61292804 204.43126394 2211.70693052 213.1484375 2203.65625 C214.01855469 2202.86863281 214.88867188 2202.08101562 215.78515625 2201.26953125 C237.44831811 2180.72266758 249.51922994 2154.13797789 258.2109375 2126.09375 C258.80070889 2124.2147235 259.39114999 2122.3359071 259.98217773 2120.45727539 C262.05249793 2113.86154631 264.10095395 2107.25909725 266.1484375 2100.65625 C266.54894144 2099.36587007 266.94949603 2098.07550586 267.35009766 2096.78515625 C271.42677597 2083.65380865 275.49736923 2070.52058157 279.55883789 2057.38452148 C285.66145614 2037.64950756 291.80930906 2017.92926418 297.99969101 1998.22161102 C305.3504266 1974.81967667 312.64941998 1951.40239301 319.8984375 1927.96875 C327.73299974 1902.64354003 335.61029566 1877.33201858 343.5234375 1852.03125 C344.05056778 1850.34578455 344.57769791 1848.66031906 345.10482788 1846.97485352 C345.63262838 1845.28727182 346.1604299 1843.59969044 346.68823242 1841.91210938 C347.48007359 1839.38029541 348.2719115 1836.84848043 349.06373787 1834.31666183 C349.59166451 1832.62865233 350.11960209 1830.94064625 350.64755058 1829.25264359 C356.51404673 1810.49509523 362.36426247 1791.73248449 368.2109375 1772.96875 C368.70258406 1771.39098048 369.19423241 1769.81321152 369.68588257 1768.23544312 C371.9015502 1761.1249932 374.11704553 1754.01448961 376.33239079 1746.90393925 C381.19896909 1731.28383784 386.06724208 1715.66426464 390.93566418 1700.04473782 C392.50662353 1695.00456614 394.07750443 1689.96437003 395.64830399 1684.92414856 C396.62161748 1681.80111176 397.59498099 1678.67809055 398.56835556 1675.55507278 C399.01403706 1674.12509416 399.45969905 1672.69510945 399.90533829 1671.26511765 C400.32132902 1669.93027282 400.73740648 1668.59545502 401.1535759 1667.26066589 C401.74816921 1665.35239139 402.34142744 1663.44370105 402.93466187 1661.53500366 C403.79862697 1658.76291587 404.67778586 1655.99603704 405.56362915 1653.23086548 C405.91224864 1652.13547187 405.91224864 1652.13547187 406.26791096 1651.0179491 C406.71503206 1649.61399199 407.16551771 1648.21110055 407.61986828 1646.80946636 C408.52255873 1643.96530481 409.1484375 1641.66171767 409.1484375 1638.65625 C402.64951014 1639.27038502 396.43787142 1640.34811485 390.07885742 1641.80395508 C389.10345977 1642.02311144 388.12806211 1642.2422678 387.12310696 1642.46806526 C383.8739741 1643.1993302 380.62646395 1643.93755514 377.37890625 1644.67578125 C375.04431581 1645.20270041 372.70962692 1645.7291835 370.37484741 1646.25526428 C364.68784414 1647.53781684 359.00186904 1648.8248529 353.31631422 1650.11380988 C346.58781485 1651.63892256 339.85800856 1653.15823054 333.12812173 1654.67720699 C321.11356555 1657.38909203 309.09993688 1660.10506167 297.08691406 1662.82373047 C281.10583202 1666.44036845 265.12347727 1670.05134829 249.140625 1673.66015625 C246.60480734 1674.23274654 244.06898988 1674.80533768 241.53317261 1675.37792969 C237.73456924 1676.23565602 233.93596364 1677.09337244 230.13735008 1677.95105362 C222.46150754 1679.68420357 214.78578438 1681.41788114 207.11015129 1683.15195847 C168.73223462 1691.82218701 130.34864305 1700.46696847 91.9609375 1709.09375 C91.29402972 1709.24362334 90.62712193 1709.39349669 89.94000483 1709.54791164 C77.11480889 1712.43007706 64.28951103 1715.31178877 51.46412659 1718.19311523 C26.55402397 1723.78939039 1.64466497 1729.38897075 -23.26454437 1734.98922038 C-32.632335 1737.09534746 -42.00018117 1739.20122731 -51.36807764 1741.30688357 C-57.38341464 1742.65897734 -63.39874075 1744.01111959 -69.4140625 1745.36328125 C-70.07622969 1745.5121269 -70.73839688 1745.66097255 -71.42062974 1745.81432867 C-87.19745239 1749.36075882 -102.9740165 1752.90833473 -118.75 1756.45849609 C-119.45241003 1756.61656294 -120.15482006 1756.77462978 -120.87851524 1756.93748653 C-124.42966355 1757.73662416 -127.98080843 1758.53577703 -131.5319519 1759.33493614 C-132.23477673 1759.49310177 -132.93760155 1759.65126739 -133.66172409 1759.81422591 C-135.07856646 1760.13307652 -136.49540861 1760.45192814 -137.91225052 1760.7707808 C-161.61248713 1766.10435167 -185.31417622 1771.43142457 -209.01733398 1776.7519989 C-221.75456153 1779.61134145 -234.49074973 1782.47518088 -247.22483063 1785.34850597 C-254.9821395 1787.09851492 -262.74072816 1788.84275575 -270.50051117 1790.58176136 C-274.78300276 1791.54168817 -279.06484679 1792.50426655 -283.3449707 1793.47470093 C-287.19598873 1794.34782386 -291.04872216 1795.21291048 -294.9029541 1796.07173157 C-296.89265833 1796.51718795 -298.88047639 1796.97104512 -300.86816406 1797.42541504 C-313.18329523 1800.1526768 -325.89510602 1802.06690648 -338.5390625 1801.96875 C-339.36027588 1801.96311035 -340.18148926 1801.9574707 -341.02758789 1801.95166016 C-372.9762421 1801.34322911 -402.92156104 1791.20715938 -428.8515625 1772.65625 C-429.77453125 1771.99753906 -430.6975 1771.33882812 -431.6484375 1770.66015625 C-443.94698349 1761.16888706 -455.07349294 1749.32313828 -465.18457031 1737.57055664 C-468.06458465 1734.26326426 -471.08914341 1731.09254609 -474.1015625 1727.90625 C-479.46030634 1722.21518096 -484.77186129 1716.48721552 -490.04296875 1710.71484375 C-493.28712589 1707.17162135 -496.56980347 1703.66461194 -499.8515625 1700.15625 C-504.98154979 1694.67089084 -510.07666328 1689.15602997 -515.14453125 1683.61328125 C-518.01646909 1680.47291841 -520.90162784 1677.34486186 -523.7890625 1674.21875 C-524.28809082 1673.67847168 -524.78711914 1673.13819336 -525.30126953 1672.58154297 C-526.31260922 1671.48676694 -527.32400258 1670.3920405 -528.33544922 1669.29736328 C-530.34202909 1667.12534558 -532.34769942 1664.95248927 -534.35327148 1662.77954102 C-535.35400408 1661.69531892 -536.35481819 1660.61117206 -537.35571289 1659.52709961 C-539.83217576 1656.84476745 -542.30771522 1654.16159524 -544.78125 1651.4765625 C-550.13868663 1645.66324959 -555.51508124 1639.86851679 -560.9140625 1634.09375 C-566.02141548 1628.6301348 -571.09424865 1623.13712409 -576.140625 1617.6171875 C-579.03362735 1614.4536926 -581.94199921 1611.30450843 -584.8515625 1608.15625 C-590.07978665 1602.49745632 -595.29000389 1596.82242115 -600.49267578 1591.14013672 C-602.77798746 1588.64460593 -605.0648583 1586.15050473 -607.3515625 1583.65625 C-608.26823654 1582.65625675 -609.1849032 1581.65625676 -610.1015625 1580.65625 C-610.5553125 1580.16125 -611.0090625 1579.66625 -611.4765625 1579.15625 C-626.6015625 1562.65625 -626.6015625 1562.65625 -627.97631836 1561.15649414 C-628.89376935 1560.15565332 -629.81124986 1559.15483955 -630.72875977 1558.15405273 C-633.00866801 1555.66713739 -635.28807543 1553.17976685 -637.56640625 1550.69140625 C-638.01508057 1550.2015625 -638.46375488 1549.71171875 -638.92602539 1549.20703125 C-639.83566235 1548.21381131 -640.74500427 1547.22032108 -641.65405273 1546.2265625 C-644.04354464 1543.61722548 -646.44324958 1541.01830412 -648.859375 1538.43359375 C-658.439903 1528.17136845 -667.85972241 1517.91984196 -674.8515625 1505.65625 C-675.17366699 1505.09518555 -675.49577148 1504.53412109 -675.82763672 1503.95605469 C-691.17642607 1476.75585451 -694.84516413 1444.27892966 -686.765625 1414.17578125 C-686.54986313 1413.36574646 -686.33410126 1412.55571167 -686.11180115 1411.72113037 C-683.38873603 1401.69887455 -680.20864084 1391.81852824 -677.04187012 1381.92959595 C-675.03617735 1375.66367844 -673.04776782 1369.3922698 -671.05859375 1363.12109375 C-670.8484602 1362.45910162 -670.63832664 1361.79710949 -670.42182541 1361.11505699 C-665.46674376 1345.50107158 -660.62583157 1329.85213877 -655.79104233 1314.20057297 C-648.12748735 1289.39390376 -640.40042288 1264.60821353 -632.6015625 1239.84375 C-626.01908757 1218.93960901 -619.46200606 1198.02826432 -612.9765625 1177.09375 C-612.61971375 1175.94189209 -612.26286499 1174.79003418 -611.89520264 1173.60327148 C-611.53581604 1172.4431958 -611.17642944 1171.28312012 -610.80615234 1170.08789062 C-610.06611097 1167.69920938 -609.32603895 1165.31053763 -608.5859375 1162.921875 C-608.21252228 1161.71668213 -607.83910706 1160.51148926 -607.45437622 1159.26977539 C-602.39727942 1142.95523744 -597.31085961 1126.64982696 -592.2265625 1110.34375 C-591.71600046 1108.7062082 -591.20544138 1107.06866547 -590.69488525 1105.43112183 C-588.63190813 1098.81446436 -586.568824 1092.19784026 -584.50552368 1085.58128357 C-579.69914318 1070.1682553 -574.89478298 1054.75459769 -570.09079933 1039.34082222 C-568.34789861 1033.74867001 -566.60488717 1028.15655233 -564.86181641 1022.56445312 C-560.06706905 1007.18192309 -555.2727802 991.79925045 -550.47963333 976.41622162 C-548.44039195 969.87161174 -546.40098072 963.32705478 -544.36153412 956.78250885 C-543.85503947 955.15716091 -543.34855448 953.53180996 -542.84207916 951.90645599 C-537.45919568 934.63200345 -532.07402504 917.35828232 -526.671875 900.08984375 C-526.25497422 898.75710556 -525.83807358 897.42436732 -525.4211731 896.09162903 C-524.597747 893.45938834 -523.77430821 890.82715163 -522.9508667 888.19491577 C-522.74868279 887.54860073 -522.54649887 886.90228569 -522.33818817 886.23638535 C-521.93061455 884.93352704 -521.52302688 883.63067314 -521.11542511 882.32782364 C-516.21958729 866.6782859 -511.33956062 851.02399901 -506.4921875 835.359375 C-506.26644358 834.62988522 -506.04069965 833.90039543 -505.80811501 833.1487999 C-503.96690787 827.19854988 -502.12622321 821.24813822 -500.28570175 815.29767609 C-493.09898654 792.06413922 -485.84476127 768.85263666 -478.5390625 745.65625 C-472.15331087 725.38051876 -465.79872578 705.0963699 -459.5390625 684.78125 C-452.67738467 662.51392614 -445.74429409 640.26948971 -438.7890625 618.03125 C-438.2552319 616.32425144 -437.72140826 614.61725071 -437.18759155 612.9102478 C-436.11410544 609.47754249 -435.04061469 606.04483863 -433.96711731 602.61213684 C-433.70017374 601.75852884 -433.43323017 600.90492085 -433.1581974 600.02544594 C-432.61708958 598.29515564 -432.07597093 596.56486874 -431.53484154 594.83458519 C-425.46444145 575.42387587 -419.40446231 556.00992332 -413.3515625 536.59375 C-413.10292828 535.79623196 -412.85429405 534.99871391 -412.59812546 534.17702866 C-403.30028107 504.35187055 -394.05381524 474.51104846 -384.8515625 444.65625 C-389.00475202 443.27185349 -392.33465139 444.44619316 -396.47729492 445.40917969 Z " fill="#FFFFFF" transform="translate(1992.8515625,32.34375)"/>
<path d="M0 0 C0.66 0 1.32 0 2 0 C1.67 1.32 1.34 2.64 1 4 C0.67 2.68 0.34 1.36 0 0 Z " fill="#FFFFFF" transform="translate(1290,1511)"/>
</svg>
