<?xml version="1.0" encoding="UTF-8"?>
<svg version="1.1" xmlns="http://www.w3.org/2000/svg" width="2964" height="2934">
<path d="M0 0 C8.04555945 7.40243969 15.92637142 15.08042817 23.01171875 23.4140625 C25.84955066 26.65889191 28.80220975 29.79266808 31.75 32.9375 C36.96552126 38.50457532 42.14533171 44.10047626 47.29296875 49.73046875 C50.16490659 52.87083159 53.05006534 55.99888814 55.9375 59.125 C56.68604248 59.93541748 56.68604248 59.93541748 57.44970703 60.76220703 C58.46104672 61.85698306 59.47244008 62.9517095 60.48388672 64.04638672 C62.99014104 66.75927586 65.49500446 69.47344859 68 72.1875 C68.99999324 73.27083957 69.99999324 74.35417291 71 75.4375 C101 107.9375 131 140.4375 161 172.9375 C161.49508057 173.47383057 161.99016113 174.01016113 162.50024414 174.56274414 C163.49945738 175.64523871 164.49864362 176.72775821 165.49780273 177.81030273 C168.00961835 180.53167508 170.52191333 183.25260195 173.03515625 185.97265625 C178.32112683 191.69458317 183.59710804 197.42533427 188.85791016 203.17041016 C193.71841122 208.47609486 198.60080912 213.76148724 203.48388672 219.04638672 C205.99014104 221.75927586 208.49500446 224.47344859 211 227.1875 C211.99999324 228.27083957 212.99999324 229.35417291 214 230.4375 C244 262.9375 274 295.4375 304 327.9375 C304.74262085 328.74199585 304.74262085 328.74199585 305.50024414 329.56274414 C306.49945738 330.64523871 307.49864362 331.72775821 308.49780273 332.81030273 C311.00961835 335.53167508 313.52191333 338.25260195 316.03515625 340.97265625 C321.32112683 346.69458317 326.59710804 352.42533427 331.85791016 358.17041016 C336.71841122 363.47609486 341.60080912 368.76148724 346.48388672 374.04638672 C348.99014104 376.75927586 351.49500446 379.47344859 354 382.1875 C354.99999324 383.27083957 355.99999324 384.35417291 357 385.4375 C391 422.27083333 425 459.10416667 459 495.9375 C459.74262085 496.74199585 459.74262085 496.74199585 460.50024414 497.56274414 C461.49945738 498.64523871 462.49864362 499.72775821 463.49780273 500.81030273 C466.00961835 503.53167508 468.52191333 506.25260195 471.03515625 508.97265625 C476.32112683 514.69458317 481.59710804 520.42533427 486.85791016 526.17041016 C491.71841122 531.47609486 496.60080912 536.76148724 501.48388672 542.04638672 C503.99014104 544.75927586 506.49500446 547.47344859 509 550.1875 C509.99999324 551.27083957 510.99999324 552.35417291 512 553.4375 C546 590.27083333 580 627.10416667 614 663.9375 C614.74262085 664.74199585 614.74262085 664.74199585 615.50024414 665.56274414 C616.49945738 666.64523871 617.49864362 667.72775821 618.49780273 668.81030273 C621.00961835 671.53167508 623.52191333 674.25260195 626.03515625 676.97265625 C631.32112683 682.69458317 636.59710804 688.42533427 641.85791016 694.17041016 C645.20980985 697.82931748 648.5713504 701.47920105 651.9375 705.125 C652.43564209 705.66511719 652.93378418 706.20523438 653.44702148 706.76171875 C655.96985562 709.49570447 658.49865226 712.22373909 661.0390625 714.94140625 C663.55242363 717.63377247 666.04708132 720.34222753 668.52539062 723.06689453 C669.50770339 724.14646277 670.49338492 725.2229754 671.48242188 726.29638672 C684.20246779 740.18623765 691.63299246 755.29209004 691.4375 774.5 C691.42992676 775.55026367 691.42235352 776.60052734 691.41455078 777.68261719 C691.23963978 785.95833354 690.18084684 792.9796799 687 800.6875 C686.39865234 802.19763672 686.39865234 802.19763672 685.78515625 803.73828125 C678.37063672 820.30812055 665.27182516 831.55318954 648.69578552 838.36526489 C641.38447171 840.98102161 633.80339695 842.52964033 626.234375 844.21484375 C624.34686149 844.64346272 622.45955866 845.07301034 620.57244873 845.50340271 C615.45222293 846.66819066 610.32901953 847.81934329 605.20510864 848.96779633 C599.81410476 850.17834041 594.42581764 851.40086814 589.03710938 852.62158203 C576.04565762 855.56140418 563.04951317 858.48019207 550.05276871 861.39651108 C543.54949944 862.85609716 537.04660377 864.3173458 530.54370117 865.77856445 C528.54098646 866.22857166 526.53827154 866.67857794 524.53555661 867.12858421 C523.19226069 867.43042175 521.84896555 867.73226282 520.5056712 868.03410739 C516.45155524 868.94507073 512.39739614 869.85584184 508.34320539 870.76647228 C490.42848092 874.79045008 472.51578639 878.82332638 454.60497665 882.8646946 C450.80774484 883.72146582 447.01046341 884.57801677 443.21316528 885.43449402 C440.72967487 885.99465754 438.24618487 886.55482293 435.76269531 887.11499023 C434.55033895 887.38844363 433.3379826 887.66189703 432.08888817 887.94363689 C426.18533543 889.27533871 420.28191419 890.60761812 414.37878418 891.94119263 C400.86036616 894.99481795 387.33926301 898.03603087 373.81370544 901.0578804 C371.02325178 901.68229698 368.2334227 902.30943823 365.44372559 902.93722534 C361.12374725 903.90860299 356.80171922 904.87027026 352.47786522 905.82424355 C350.92558214 906.1681412 349.37396943 906.51508309 347.82314491 906.8654995 C336.13259083 909.50345566 324.96412805 911.05292589 313 909.6875 C312.32469238 909.61595703 311.64938477 909.54441406 310.95361328 909.47070312 C284.02455124 906.25806669 264.74986807 888.31552496 247.74169922 868.67211914 C244.82651763 865.35034859 241.78586853 862.14864502 238.75 858.9375 C233.34763096 853.19935663 227.98740086 847.42814591 222.671875 841.609375 C219.81122345 838.48106015 216.9389025 835.3638228 214.0625 832.25 C213.31383667 831.43946167 213.31383667 831.43946167 212.55004883 830.61254883 C211.53879388 829.51785108 210.52748188 828.42320604 209.51611328 827.32861328 C207.00985896 824.61572414 204.50499554 821.90155141 202 819.1875 C201.00000676 818.10416043 200.00000676 817.02082709 199 815.9375 C193 809.4375 187 802.9375 181 796.4375 C180.25737915 795.63300415 180.25737915 795.63300415 179.49975586 794.81225586 C178.50054262 793.72976129 177.50135638 792.64724179 176.50219727 791.56469727 C173.99038165 788.84332492 171.47808667 786.12239805 168.96484375 783.40234375 C163.67887317 777.68041683 158.40289196 771.94966573 153.14208984 766.20458984 C148.28158878 760.89890514 143.39919088 755.61351276 138.51611328 750.32861328 C136.00985896 747.61572414 133.50499554 744.90155141 131 742.1875 C130.00000676 741.10416043 129.00000676 740.02082709 128 738.9375 C110 719.4375 92 699.9375 74 680.4375 C73.25737915 679.63300415 73.25737915 679.63300415 72.49975586 678.81225586 C71.50054262 677.72976129 70.50135638 676.64724179 69.50219727 675.56469727 C66.99038165 672.84332492 64.47808667 670.12239805 61.96484375 667.40234375 C56.67887317 661.68041683 51.40289196 655.94966573 46.14208984 650.20458984 C41.28158878 644.89890514 36.39919088 639.61351276 31.51611328 634.32861328 C29.00985896 631.61572414 26.50499554 628.90155141 24 626.1875 C23.00000676 625.10416043 22.00000676 624.02082709 21 622.9375 C19 620.77083333 17 618.60416667 15 616.4375 C14.5045166 615.9007666 14.0090332 615.3640332 13.49853516 614.81103516 C12.50325556 613.73273452 11.50813712 612.6542851 10.51318359 611.57568359 C7.94229445 608.78907908 5.36826018 606.00548027 2.7890625 603.2265625 C2.25925781 602.65486328 1.72945312 602.08316406 1.18359375 601.49414062 C0.18465243 600.41633552 -0.81526006 599.33942923 -1.81640625 598.26367188 C-5.31185811 594.48917133 -8.67492708 590.61262988 -12 586.6875 C-19.00405623 607.01377243 -25.39561867 627.51632689 -31.71606445 648.06347656 C-32.47596161 650.53323777 -33.23597451 653.00296338 -33.99609375 655.47265625 C-34.19057161 656.10458767 -34.38504948 656.73651909 -34.58542061 657.38759995 C-39.7783391 674.25569582 -45.05336881 691.09812248 -50.32450485 707.94190216 C-52.75116368 715.69664085 -55.17659829 723.4517625 -57.6015625 731.20703125 C-57.86988577 732.06513145 -58.13820904 732.92323166 -58.41466331 733.8073349 C-64.13209405 752.0937976 -69.81894457 770.3897101 -75.5 788.6875 C-83.75363847 815.27087988 -92.04437883 841.84246933 -100.35493469 868.40810776 C-108.25478207 893.66170388 -116.11295106 918.927822 -123.93251419 944.20638657 C-130.95516093 966.90794838 -138.03176666 989.5919507 -145.15187073 1012.26312637 C-152.15276694 1034.55543438 -159.09558962 1056.86512572 -166 1079.1875 C-173.33273086 1102.89466016 -180.71547546 1126.58540087 -188.15106201 1150.26049805 C-195.15229176 1172.55366301 -202.09510859 1194.86431486 -209 1217.1875 C-218.17326651 1246.84303428 -227.43376923 1276.47053381 -236.73250198 1306.08694077 C-241.72112156 1321.97583121 -246.68651355 1337.87196543 -251.64819336 1353.76928711 C-251.93909348 1354.70099228 -252.22999359 1355.63269745 -252.52970886 1356.59263611 C-253.0653006 1358.30809981 -253.60064755 1360.02363997 -254.13569641 1361.73927307 C-255.06937354 1364.72966328 -256.00930686 1367.71542057 -257 1370.6875 C-256.16897766 1370.45612335 -255.33795532 1370.2247467 -254.48175049 1369.98635864 C-243.16092522 1366.89556007 -231.74800981 1364.30071536 -220.296875 1361.7421875 C-218.14858836 1361.25980599 -216.00036629 1360.77713686 -213.85220337 1360.29420471 C-209.24255671 1359.25843766 -204.63251598 1358.22445017 -200.02215576 1357.19186401 C-192.59557723 1355.5283992 -185.17000576 1353.86047003 -177.74462891 1352.19165039 C-175.1825258 1351.61585927 -172.62042252 1351.04006887 -170.05831909 1350.46427917 C-168.77814785 1350.17657339 -167.49797661 1349.88886761 -166.1790123 1349.59244347 C-162.24507997 1348.7084052 -158.31103648 1347.82486225 -154.37698364 1346.94136047 C-129.20390324 1341.28769395 -104.03695588 1335.60699511 -78.87230682 1329.91592407 C-75.34630624 1329.11851084 -71.82027944 1328.32121357 -68.29425049 1327.52392578 C-12.92351492 1315.00296724 42.43628403 1302.43379254 97.79595947 1289.86404419 C118.90539151 1285.07102962 140.01508318 1280.27916023 161.125 1275.48828125 C161.86632817 1275.32003719 162.60765634 1275.15179314 163.37144899 1274.97845078 C171.57113222 1273.11754014 179.77082402 1271.25666733 187.97052002 1269.39581299 C196.13079854 1267.54390352 204.2910603 1265.69192024 212.45131898 1263.83992338 C240.41790409 1257.49282543 268.38459056 1251.14617457 296.3515625 1244.80078125 C297.56717361 1244.52496908 298.78278473 1244.24915691 300.03523254 1243.9649868 C312.11539749 1241.22409992 324.19558911 1238.4833308 336.27590942 1235.74312878 C342.32718658 1234.37049762 348.37844309 1232.99777547 354.4296875 1231.625 C355.63954819 1231.35053354 356.84940887 1231.07606709 358.09593201 1230.79328346 C376.6832142 1226.57640885 395.26939746 1222.35471398 413.85514838 1218.13109666 C545.91142644 1188.12142475 545.91142644 1188.12142475 611 1173.6875 C612.07049088 1173.45010353 613.14098175 1173.21270706 614.24391174 1172.96811676 C644.77782063 1166.19733798 675.31477101 1159.44035285 705.853302 1152.69045639 C723.8399445 1148.71481937 741.82515715 1144.73278751 759.8090992 1140.74495316 C767.06584308 1139.13603276 774.3228343 1137.52822831 781.57983303 1135.92045784 C787.28715048 1134.6559143 792.9943044 1133.39064259 798.70108032 1132.12365723 C803.98038197 1130.95158899 809.26010592 1129.78144262 814.54015732 1128.61275673 C816.4566448 1128.18819254 818.37297425 1127.76291425 820.28912735 1127.33684349 C851.92790826 1120.30285372 881.25217437 1117.80962906 910.3125 1134.6015625 C917.15341799 1138.98184417 923.1444038 1144.07673709 929 1149.6875 C929.63679688 1150.27273438 930.27359375 1150.85796875 930.9296875 1151.4609375 C946.63891755 1166.33234195 956.485883 1189.93066958 957.3359375 1211.37890625 C957.35943637 1213.33583973 957.37240269 1215.29292716 957.375 1217.25 C957.39949219 1218.19423828 957.42398438 1219.13847656 957.44921875 1220.11132812 C957.52651877 1239.603816 949.80319224 1258.6633317 944.02503204 1277.0426712 C942.80405697 1280.93218664 941.59176216 1284.82440741 940.37841797 1288.71630859 C938.31472887 1295.33187065 936.24593812 1301.94581768 934.17333984 1308.55859375 C931.30996739 1317.69448333 928.4544767 1326.8328184 925.60165596 1335.97200775 C921.43485143 1349.32036329 917.26379988 1362.66738583 913.08932304 1376.01334381 C906.67322872 1396.52620293 900.27024192 1417.04313081 893.875 1437.5625 C893.50483387 1438.75012121 893.50483387 1438.75012121 893.12718964 1439.96173477 C885.00462969 1466.02203279 876.90077374 1492.08812119 868.80368042 1518.15634155 C862.00036641 1540.05858765 855.17132518 1561.95264012 848.32242966 1583.84067154 C841.61483946 1605.27803281 834.95259649 1626.72914394 828.3125 1648.1875 C820.45637405 1673.57496958 812.55743171 1698.94876928 804.625 1724.3125 C804.36439159 1725.145821 804.10378319 1725.979142 803.83527756 1726.83771515 C802.51679386 1731.05369395 801.19826974 1735.2696601 799.87974548 1739.48562622 C799.48798787 1740.73827963 799.48798787 1740.73827963 799.08831596 1742.01623917 C798.5606018 1743.70360744 798.03287785 1745.39097265 797.50514412 1747.07833481 C791.61775635 1765.90306311 785.74387661 1784.73199328 779.875 1803.5625 C779.50483387 1804.75012121 779.50483387 1804.75012121 779.12718964 1805.96173477 C771.00462969 1832.02203279 762.90077374 1858.08812119 754.80368042 1884.15634155 C748.00036641 1906.05858765 741.17132518 1927.95264012 734.32242966 1949.84067154 C727.61483946 1971.27803281 720.95259649 1992.72914394 714.3125 2014.1875 C706.45637405 2039.57496958 698.55743171 2064.94876928 690.625 2090.3125 C690.36439159 2091.145821 690.10378319 2091.979142 689.83527756 2092.83771515 C688.51679386 2097.05369395 687.19826974 2101.2696601 685.87974548 2105.48562622 C685.61857374 2106.32072849 685.357402 2107.15583076 685.08831596 2108.01623917 C684.5606018 2109.70360744 684.03287785 2111.39097265 683.50514412 2113.07833481 C677.61775635 2131.90306311 671.74387661 2150.73199328 665.875 2169.5625 C665.50483387 2170.75012121 665.50483387 2170.75012121 665.12718964 2171.96173477 C657.00462969 2198.02203279 648.90077374 2224.08812119 640.80368042 2250.15634155 C634.00096686 2272.05665457 627.17281377 2293.94886569 620.32421494 2315.83486938 C614.23200328 2335.30428552 608.17436399 2354.78413361 602.14468384 2374.27300644 C600.53504832 2379.47496465 598.92301773 2384.67617604 597.30957031 2389.87695312 C596.85062644 2391.3564656 596.39168276 2392.83597813 595.93273926 2394.31549072 C595.24372813 2396.53665768 594.55468666 2398.7578152 593.86552429 2400.97893524 C591.0345379 2410.10404638 588.21496234 2419.23255242 585.41028309 2428.36578465 C583.52457967 2434.50465536 581.6297221 2440.64065615 579.72863293 2446.77477932 C578.61051223 2450.38400347 577.49671318 2453.99441522 576.39456177 2457.60855103 C561.02343616 2507.98076589 534.71610691 2549.90060993 487.32910156 2575.48339844 C483.20048309 2577.61781629 479.00349607 2579.56577017 474.75 2581.4375 C473.99058105 2581.77797363 473.23116211 2582.11844727 472.44873047 2582.46923828 C456.86320947 2589.05641009 439.88487151 2592.57788329 423.4140625 2596.20703125 C421.5539245 2596.62194799 419.69391792 2597.03745426 417.83403015 2597.45349121 C413.85364142 2598.34269445 409.87244206 2599.22813225 405.89053345 2600.11050415 C399.45446543 2601.53684875 393.02041606 2602.97215895 386.58666992 2604.40893555 C379.74621975 2605.93622202 372.90569186 2607.46315069 366.06455994 2608.98738098 C343.10911909 2614.10256711 320.16527741 2619.26884234 297.22283936 2624.44198608 C290.25111704 2626.01396762 283.27915169 2627.58486927 276.30712891 2629.15551758 C273.95955403 2629.68438208 271.61197916 2630.21324663 269.2644043 2630.74211121 C268.10034058 2631.00435171 266.93627686 2631.26659222 265.73693848 2631.5367794 C261.02930716 2632.59736039 256.32171159 2633.6581 251.61411667 2634.71884251 C236.47601336 2638.12983826 221.3376713 2641.53977331 206.19921875 2644.94921875 C205.05604502 2645.20668192 203.91287128 2645.46414509 202.73505592 2645.72941017 C196.96484289 2647.0289603 191.19462624 2648.32849438 185.42440796 2649.62802124 C175.0227742 2651.9706101 164.62117253 2654.31334143 154.21956825 2656.65606117 C148.4380468 2657.9582132 142.6565233 2659.26035614 136.875 2660.5625 C134.56249999 2661.08333329 132.24999999 2661.60416662 129.9375 2662.125 C116.06254512 2665.24998984 116.06254512 2665.24998984 112.59377098 2666.03124523 C110.28120102 2666.55209435 107.96863108 2667.07294358 105.65606117 2667.59379292 C99.87588177 2668.89563562 94.09570195 2670.19747644 88.31552124 2671.49931335 C77.89648656 2673.84593465 67.47745491 2676.19256942 57.05843925 2678.53927517 C51.26031579 2679.84520326 45.46218981 2681.15112021 39.6640625 2682.45703125 C38.51670246 2682.71545115 37.36934242 2682.97387104 36.1872139 2683.24012184 C20.25473079 2686.82857213 4.32211006 2690.41641075 -11.61060524 2694.00382996 C-21.78210299 2696.29407418 -31.95355994 2698.58449958 -42.125 2700.875 C-43.25218067 2701.12882698 -44.37936134 2701.38265396 -45.54069901 2701.64417267 C-74.13901858 2708.08424777 -102.73629396 2714.52893794 -131.33203125 2720.98046875 C-132.01734625 2721.13508292 -132.70266126 2721.28969709 -133.40874338 2721.44899654 C-141.09782511 2723.18373769 -148.78689099 2724.91854907 -156.47595215 2726.65338135 C-159.29646793 2727.289755 -162.1169839 2727.9261278 -164.9375 2728.5625 C-165.985099 2728.79886248 -165.985099 2728.79886248 -167.05386162 2729.03999996 C-215.35643254 2739.9381356 -263.66330274 2750.81701272 -311.97305298 2761.68328667 C-314.43125179 2762.23620742 -316.88945034 2762.78912935 -319.34764862 2763.34205246 C-321.79174458 2763.89180278 -324.23584146 2764.44154899 -326.67993927 2764.99129105 C-353.80859305 2771.09332831 -380.93571621 2777.20215576 -408.0625 2783.3125 C-410.36090082 2783.83021062 -412.6593017 2784.34792099 -414.95770264 2784.8656311 C-424.11119832 2786.9274495 -433.26468371 2788.9893136 -442.41815186 2791.05125427 C-464.30299913 2795.98110609 -486.18802373 2800.91017044 -508.07307339 2805.83912373 C-516.19057361 2807.66735269 -524.30805865 2809.49564903 -532.42553711 2811.32397461 C-554.15347578 2816.21780536 -575.88149207 2821.11129068 -597.6097641 2826.00364113 C-644.65622583 2836.59675232 -691.70121062 2847.19638118 -738.74337697 2857.80855048 C-748.824731 2860.08278434 -758.9062316 2862.35636722 -768.98785233 2864.62941849 C-775.20027123 2866.03012827 -781.41264278 2867.43104797 -787.625 2868.83203125 C-788.29291864 2868.98265321 -788.96083728 2869.13327518 -789.64899588 2869.28846145 C-806.12384226 2873.00377376 -822.59703945 2876.72621172 -839.06652832 2880.46520805 C-844.12207928 2881.61255931 -849.1780986 2882.75784509 -854.23413086 2883.90307331 C-858.61168269 2884.89495103 -862.9883461 2885.89061926 -867.36425781 2886.88970661 C-870.53372317 2887.6122135 -873.70446197 2888.32909238 -876.875 2889.046875 C-877.9381543 2889.29116745 -879.00130859 2889.5354599 -880.09667969 2889.78715515 C-923.20101946 2899.49995965 -966.03136983 2894.1034918 -1003.98388672 2870.97412109 C-1015.50432393 2863.62213464 -1025.51832003 2854.21714073 -1035.1875 2844.625 C-1035.6626001 2844.15465332 -1036.1377002 2843.68430664 -1036.62719727 2843.19970703 C-1039.97054225 2839.84079551 -1043.09079408 2836.32267787 -1046.19458008 2832.74243164 C-1049.13257864 2829.39839731 -1052.1922834 2826.17175449 -1055.25 2822.9375 C-1060.65236904 2817.19935663 -1066.01259914 2811.42814591 -1071.328125 2805.609375 C-1074.18877655 2802.48106015 -1077.0610975 2799.3638228 -1079.9375 2796.25 C-1080.43660889 2795.70964111 -1080.93571777 2795.16928223 -1081.44995117 2794.61254883 C-1082.46120612 2793.51785108 -1083.47251812 2792.42320604 -1084.48388672 2791.32861328 C-1086.99014104 2788.61572414 -1089.49500446 2785.90155141 -1092 2783.1875 C-1092.99999324 2782.10416043 -1093.99999324 2781.02082709 -1095 2779.9375 C-1105 2769.10416667 -1115 2758.27083333 -1125 2747.4375 C-1125.49508057 2746.90116943 -1125.99016113 2746.36483887 -1126.50024414 2745.81225586 C-1127.49945738 2744.72976129 -1128.49864362 2743.64724179 -1129.49780273 2742.56469727 C-1132.00961835 2739.84332492 -1134.52191333 2737.12239805 -1137.03515625 2734.40234375 C-1142.32112683 2728.68041683 -1147.59710804 2722.94966573 -1152.85791016 2717.20458984 C-1157.71841122 2711.89890514 -1162.60080912 2706.61351276 -1167.48388672 2701.32861328 C-1169.99014104 2698.61572414 -1172.49500446 2695.90155141 -1175 2693.1875 C-1175.99999324 2692.10416043 -1176.99999324 2691.02082709 -1178 2689.9375 C-1204 2661.77083333 -1230 2633.60416667 -1256 2605.4375 C-1256.49508057 2604.90116943 -1256.99016113 2604.36483887 -1257.50024414 2603.81225586 C-1258.49945738 2602.72976129 -1259.49864362 2601.64724179 -1260.49780273 2600.56469727 C-1263.00961835 2597.84332492 -1265.52191333 2595.12239805 -1268.03515625 2592.40234375 C-1273.32112683 2586.68041683 -1278.59710804 2580.94966573 -1283.85791016 2575.20458984 C-1288.71841122 2569.89890514 -1293.60080912 2564.61351276 -1298.48388672 2559.32861328 C-1300.99014104 2556.61572414 -1303.49500446 2553.90155141 -1306 2551.1875 C-1306.99999324 2550.10416043 -1307.99999324 2549.02082709 -1309 2547.9375 C-1331 2524.10416667 -1353 2500.27083333 -1375 2476.4375 C-1375.49508057 2475.90116943 -1375.99016113 2475.36483887 -1376.50024414 2474.81225586 C-1377.49945738 2473.72976129 -1378.49864362 2472.64724179 -1379.49780273 2471.56469727 C-1382.00961835 2468.84332492 -1384.52191333 2466.12239805 -1387.03515625 2463.40234375 C-1392.32112683 2457.68041683 -1397.59710804 2451.94966573 -1402.85791016 2446.20458984 C-1407.71841122 2440.89890514 -1412.60080912 2435.61351276 -1417.48388672 2430.32861328 C-1419.99014104 2427.61572414 -1422.49500446 2424.90155141 -1425 2422.1875 C-1425.99999324 2421.10416043 -1426.99999324 2420.02082709 -1428 2418.9375 C-1454 2390.77083333 -1480 2362.60416667 -1506 2334.4375 C-1506.49508057 2333.90116943 -1506.99016113 2333.36483887 -1507.50024414 2332.81225586 C-1508.49945738 2331.72976129 -1509.49864362 2330.64724179 -1510.49780273 2329.56469727 C-1513.00961835 2326.84332492 -1515.52191333 2324.12239805 -1518.03515625 2321.40234375 C-1523.32112683 2315.68041683 -1528.59710804 2309.94966573 -1533.85791016 2304.20458984 C-1538.71841122 2298.89890514 -1543.60080912 2293.61351276 -1548.48388672 2288.32861328 C-1550.99014104 2285.61572414 -1553.49500446 2282.90155141 -1556 2280.1875 C-1556.99999324 2279.10416043 -1557.99999324 2278.02082709 -1559 2276.9375 C-1585 2248.77083333 -1611 2220.60416667 -1637 2192.4375 C-1637.49508057 2191.90116943 -1637.99016113 2191.36483887 -1638.50024414 2190.81225586 C-1639.49945738 2189.72976129 -1640.49864362 2188.64724179 -1641.49780273 2187.56469727 C-1644.00961835 2184.84332492 -1646.52191333 2182.12239805 -1649.03515625 2179.40234375 C-1654.32112683 2173.68041683 -1659.59710804 2167.94966573 -1664.85791016 2162.20458984 C-1669.71841122 2156.89890514 -1674.60080912 2151.61351276 -1679.48388672 2146.32861328 C-1681.99014104 2143.61572414 -1684.49500446 2140.90155141 -1687 2138.1875 C-1687.99999324 2137.10416043 -1688.99999324 2136.02082709 -1690 2134.9375 C-1712 2111.10416667 -1734 2087.27083333 -1756 2063.4375 C-1756.49508057 2062.90116943 -1756.99016113 2062.36483887 -1757.50024414 2061.81225586 C-1758.49945738 2060.72976129 -1759.49864362 2059.64724179 -1760.49780273 2058.56469727 C-1763.00961835 2055.84332492 -1765.52191333 2053.12239805 -1768.03515625 2050.40234375 C-1773.32112683 2044.68041683 -1778.59710804 2038.94966573 -1783.85791016 2033.20458984 C-1788.71841122 2027.89890514 -1793.60080912 2022.61351276 -1798.48388672 2017.32861328 C-1800.99014104 2014.61572414 -1803.49500446 2011.90155141 -1806 2009.1875 C-1806.99999324 2008.10416043 -1807.99999324 2007.02082709 -1809 2005.9375 C-1835 1977.77083333 -1861 1949.60416667 -1887 1921.4375 C-1887.49508057 1920.90116943 -1887.99016113 1920.36483887 -1888.50024414 1919.81225586 C-1889.49945738 1918.72976129 -1890.49864362 1917.64724179 -1891.49780273 1916.56469727 C-1894.00961835 1913.84332492 -1896.52191333 1911.12239805 -1899.03515625 1908.40234375 C-1904.32112683 1902.68041683 -1909.59710804 1896.94966573 -1914.85791016 1891.20458984 C-1919.71841122 1885.89890514 -1924.60080912 1880.61351276 -1929.48388672 1875.32861328 C-1931.99014104 1872.61572414 -1934.49500446 1869.90155141 -1937 1867.1875 C-1937.99999324 1866.10416043 -1938.99999324 1865.02082709 -1940 1863.9375 C-1942 1861.77083333 -1944 1859.60416667 -1946 1857.4375 C-1946.49516113 1856.90116943 -1946.99032227 1856.36483887 -1947.50048828 1855.81225586 C-1948.49923942 1854.73008575 -1949.49761264 1853.64756673 -1950.49560547 1852.56469727 C-1953.0117112 1849.83556398 -1955.53433063 1847.11302659 -1958.0703125 1844.40234375 C-1992.29006261 1807.76092181 -2008.13808204 1768.53798315 -2007.12744141 1718.29736328 C-2006.72426108 1706.87701013 -2004.2939108 1696.25344729 -2001.06640625 1685.328125 C-2000.76528931 1684.30302826 -2000.46417236 1683.27793152 -2000.15393066 1682.22177124 C-1995.85432626 1667.69053285 -1991.29879326 1653.23697112 -1986.77088928 1638.77569199 C-1985.45063895 1634.55714838 -1984.13306812 1630.33776821 -1982.81542969 1626.1184082 C-1982.41382189 1624.83241588 -1982.41382189 1624.83241588 -1982.0041008 1623.52044392 C-1981.45917069 1621.77551741 -1980.91424758 1620.03058872 -1980.36933136 1618.28565788 C-1979.54443092 1615.64451838 -1978.71923886 1613.00347015 -1977.89398193 1610.36244202 C-1974.25801436 1598.72514977 -1970.63213259 1587.08476035 -1967.015625 1575.44140625 C-1966.77531996 1574.66775286 -1966.53501492 1573.89409946 -1966.2874279 1573.09700203 C-1965.08554994 1569.22735296 -1963.88388648 1565.35763732 -1962.68234253 1561.48788452 C-1954.9226856 1536.49700759 -1947.13901566 1511.5138167 -1939.32421494 1486.54013062 C-1932.29678814 1464.08196528 -1925.32237557 1441.60768886 -1918.36701584 1419.12710953 C-1911.45849777 1396.79898256 -1904.50285173 1374.48621498 -1897.5 1352.1875 C-1890.36683194 1329.47361704 -1883.28575726 1306.74424407 -1876.25 1284 C-1868.41543776 1258.67479003 -1860.53814184 1233.36326858 -1852.625 1208.0625 C-1852.09786972 1206.37703455 -1851.57073959 1204.69156906 -1851.04360962 1203.00610352 C-1850.51580912 1201.31852182 -1849.9880076 1199.63094044 -1849.46020508 1197.94335938 C-1848.66836391 1195.41154541 -1847.876526 1192.87973043 -1847.08469963 1190.34791183 C-1846.55677299 1188.65990233 -1846.02883541 1186.97189625 -1845.50088692 1185.28389359 C-1839.63439082 1166.52634539 -1833.78407036 1147.76376699 -1827.9375 1129 C-1827.69113674 1128.20934772 -1827.44477348 1127.41869545 -1827.19094467 1126.60408401 C-1824.95344542 1119.42326582 -1822.71604892 1112.24241561 -1820.47883606 1105.06150818 C-1817.22853052 1094.62902374 -1813.97671002 1084.19701253 -1810.72385216 1073.76532364 C-1798.38932921 1034.21111902 -1798.38932921 1034.21111902 -1786.08203125 994.6484375 C-1785.83974667 993.86861259 -1785.59746208 993.08878769 -1785.34783554 992.28533173 C-1783.40710839 986.03864683 -1781.46661748 979.79188854 -1779.52630615 973.54507446 C-1772.48296583 950.86920841 -1765.4153181 928.20110313 -1758.32421494 905.54013062 C-1751.29678814 883.08196528 -1744.32237557 860.60768886 -1737.36701584 838.12710953 C-1730.45849777 815.79898256 -1723.50285173 793.48621498 -1716.5 771.1875 C-1709.36683194 748.47361704 -1702.28575726 725.74424407 -1695.25 703 C-1687.41543763 677.67478961 -1679.53802799 652.36330443 -1671.625 627.0625 C-1671.09820327 625.3780423 -1670.57140884 623.69358389 -1670.0446167 622.00912476 C-1669.25342722 619.47926888 -1668.46223436 616.94941406 -1667.67103767 614.41956043 C-1667.14344004 612.73256515 -1666.61584515 611.04556901 -1666.08825302 609.35857201 C-1665.56056642 607.67128357 -1665.03286917 605.98399847 -1664.50516129 604.29671669 C-1658.61776727 585.47197124 -1652.74397594 566.64299481 -1646.875 547.8125 C-1646.62807529 547.02031067 -1646.38115059 546.22812134 -1646.12674332 545.41192627 C-1639.71724754 524.84879904 -1633.31858354 504.28233281 -1626.93077183 483.71245956 C-1622.66944726 469.99037511 -1618.40370704 456.26966616 -1614.1348753 442.54991531 C-1612.93371511 438.68935065 -1611.73291951 434.82867322 -1610.53283691 430.96777344 C-1607.86318928 422.37922169 -1605.19073179 413.79156152 -1602.51044369 405.20632362 C-1601.37467935 401.56816739 -1600.24031684 397.92959158 -1599.11001587 394.28973389 C-1584.30825714 346.63818373 -1563.10346913 305.18914531 -1517.20703125 280.8125 C-1506.36311022 275.251776 -1495.39785187 270.83104489 -1483.57397461 267.83666992 C-1482.58425879 267.58260219 -1481.59454298 267.32853445 -1480.57483578 267.06676769 C-1468.39643124 263.97594586 -1456.13888698 261.23308438 -1443.87890625 258.48828125 C-1441.26022248 257.89892996 -1438.64161116 257.30926501 -1436.02308655 256.71920776 C-1430.44615366 255.46313763 -1424.86860034 254.20985671 -1419.29058838 252.95858765 C-1411.16202177 251.13515766 -1403.03448067 249.3071891 -1394.90716696 247.47818387 C-1381.89821374 244.5506846 -1368.88855612 241.62632997 -1355.87841797 238.70410156 C-1339.39842105 235.00245353 -1322.91967055 231.29529091 -1306.44140625 227.5859375 C-1301.43213479 226.45838856 -1296.42285598 225.33087229 -1291.41357422 224.20336914 C-1290.19002228 223.92796453 -1288.96647034 223.65255991 -1287.70584106 223.3688097 C-1275.35680685 220.58933067 -1263.00735402 217.81171348 -1250.65789032 215.03414345 C-1221.08321331 208.38231536 -1191.51003803 201.7238305 -1161.9375 195.0625 C-1160.79580856 194.80532951 -1159.65411713 194.54815903 -1158.47782898 194.2831955 C-1148.14592283 191.9558801 -1137.81402798 189.62851452 -1127.48214722 187.30108643 C-1112.7975624 183.993181 -1098.1127802 180.6861531 -1083.42786407 177.37971878 C-1073.24354499 175.08661712 -1063.05926262 172.79335241 -1052.875 170.5 C-1051.74721886 170.24603958 -1050.61943771 169.99207916 -1049.45748138 169.73042297 C-1020.8597645 163.29049977 -992.26309994 156.84592532 -963.66796875 150.39453125 C-962.98265375 150.23991708 -962.29733874 150.08530291 -961.59125662 149.92600346 C-953.90217489 148.19126231 -946.21310901 146.45645093 -938.52404785 144.72161865 C-935.70353207 144.085245 -932.8830161 143.4488722 -930.0625 142.8125 C-929.36410067 142.65492501 -928.66570133 142.49735003 -927.94613838 142.33500004 C-879.64356746 131.4368644 -831.33669726 120.55798728 -783.02694702 109.69171333 C-780.56874821 109.13879258 -778.11054966 108.58587065 -775.65235138 108.03294754 C-773.20825542 107.48319722 -770.76415854 106.93345101 -768.32006073 106.38370895 C-741.19140698 100.2816717 -714.06426866 94.17291133 -686.9375 88.0625 C-685.22496284 87.67674427 -685.22496284 87.67674427 -683.47782898 87.2831955 C-673.14592283 84.9558801 -662.81402798 82.62851452 -652.48214722 80.30108643 C-637.7975624 76.993181 -623.1127802 73.6861531 -608.42786407 70.37971878 C-598.24354499 68.08661712 -588.05926262 65.79335241 -577.875 63.5 C-576.18332829 63.11905937 -576.18332829 63.11905937 -574.45748138 62.73042297 C-545.8597645 56.29049977 -517.26309994 49.84592532 -488.66796875 43.39453125 C-487.98265375 43.23991708 -487.29733874 43.08530291 -486.59125662 42.92600346 C-478.90217489 41.19126231 -471.21310901 39.45645093 -463.52404785 37.72161865 C-460.70353207 37.085245 -457.8830161 36.4488722 -455.0625 35.8125 C-454.014901 35.57613752 -454.014901 35.57613752 -452.94613838 35.33500004 C-405.93823828 24.72897097 -358.92680098 14.13879877 -311.91137695 3.56616211 C-307.04247246 2.47122702 -302.17357675 1.37625287 -297.3046875 0.28125 C-296.10683561 0.01186174 -294.90898373 -0.25752651 -293.6748333 -0.53507805 C-276.67115426 -4.35930953 -259.66885274 -8.1896223 -242.66763246 -12.02476722 C-238.15063026 -13.04371167 -233.63357315 -14.06241239 -229.1164856 -15.08097839 C-227.22939912 -15.50650356 -227.22939912 -15.50650356 -225.30418968 -15.94062519 C-222.79180266 -16.50714577 -220.2794138 -17.07365826 -217.76702309 -17.64016247 C-211.73619663 -19.00012862 -205.70550076 -20.36066838 -199.67510986 -21.7225647 C-157.28422213 -31.29558474 -157.28422213 -31.29558474 -140.5390625 -34.92578125 C-138.95082672 -35.27380547 -138.95082672 -35.27380547 -137.33050537 -35.62886047 C-87.93763321 -46.2111073 -37.90599605 -33.28924012 0 0 Z M-401.6630249 440.65818787 C-402.62554609 440.87442212 -403.58806728 441.09065638 -404.57975578 441.31344318 C-406.16787921 441.67540429 -406.16787921 441.67540429 -407.78808594 442.04467773 C-409.47081195 442.42418091 -409.47081195 442.42418091 -411.18753242 442.81135082 C-414.29764902 443.51343156 -417.40709658 444.21839292 -420.51629019 444.92454767 C-423.84383315 445.67954626 -427.172221 446.430802 -430.5005188 447.1824646 C-436.23906494 448.47896876 -441.97709476 449.77773691 -447.71478271 451.07803345 C-456.81448236 453.14019521 -465.91521553 455.19777192 -475.01611328 457.25463867 C-478.09744928 457.95109668 -481.17877733 458.64758984 -484.26010132 459.34410095 C-485.40732884 459.60342029 -485.40732884 459.60342029 -486.57773268 459.86797839 C-492.03123927 461.10075709 -497.48460184 462.33417155 -502.93789673 463.56788635 C-528.67298735 469.38987897 -554.41225832 475.19317877 -580.15368652 480.98709106 C-586.92449227 482.51107542 -593.69517071 484.03562483 -600.46582031 485.56030273 C-602.72823065 486.06976889 -604.99064114 486.57923442 -607.25305176 487.08869934 C-608.37133865 487.34052286 -609.48962555 487.59234638 -610.64179993 487.85180092 C-615.13319556 488.86317761 -619.62461153 489.87446398 -624.11602783 490.88574886 C-638.96550032 494.22925568 -653.81481287 497.57347234 -668.6640625 500.91796875 C-669.81131176 501.17636347 -670.95856102 501.43475819 -672.14057541 501.70098305 C-677.94050019 503.00730208 -683.74042272 504.3136311 -689.54034424 505.6199646 C-699.95442832 507.9655546 -710.3685323 510.31105621 -720.78263474 512.65656471 C-726.56342397 513.95853954 -732.34421192 515.26052006 -738.125 516.5625 C-740.43749999 517.08333336 -742.74999999 517.60416669 -745.0625 518.125 C-746.2071875 518.3828125 -747.351875 518.640625 -748.53125 518.90625 C-869.93749958 546.24999991 -869.93749958 546.24999991 -873.40628433 547.03125763 C-875.71866995 547.55206527 -878.03105551 548.07287317 -880.34344101 548.59368134 C-886.12644057 549.89615992 -891.90944116 551.19863395 -897.69244385 552.50109863 C-908.07780312 554.84012408 -918.46315542 557.17918044 -928.84846878 559.51840973 C-934.60209906 560.81437926 -940.35573543 562.11032172 -946.109375 563.40625 C-947.24968925 563.66309067 -948.39000351 563.91993134 -949.56487274 564.18455505 C-968.59086079 568.46984059 -987.61734063 572.75293923 -1006.64396286 577.03540802 C-1019.66289585 579.96573089 -1032.68163524 582.896908 -1045.69970703 585.83105469 C-1046.83186708 586.08623241 -1047.96402714 586.34141014 -1049.13049507 586.60432053 C-1053.6218325 587.61666053 -1058.11316029 588.62904325 -1062.60445023 589.64159393 C-1074.97335372 592.43010786 -1087.34301705 595.21515756 -1099.71479034 597.99091339 C-1106.83601473 599.58877224 -1113.95643932 601.19015651 -1121.07619476 602.79454803 C-1125.05857632 603.69177723 -1129.04133908 604.58720589 -1133.02526855 605.47753906 C-1171.15460928 614.00138767 -1204.40655541 624.06794657 -1233 651.6875 C-1233.92554688 652.54988281 -1234.85109375 653.41226563 -1235.8046875 654.30078125 C-1256.49363064 674.08128638 -1268.20241149 699.74588279 -1276.5625 726.6875 C-1277.20255271 728.72296891 -1277.84336922 730.75819777 -1278.48486328 732.79321289 C-1280.67344795 739.75275007 -1282.83757107 746.71979958 -1285 753.6875 C-1285.40051554 754.97664162 -1285.80109011 756.26576489 -1286.20172119 757.55487061 C-1290.20519294 770.43719342 -1294.20025381 783.32211328 -1298.18432617 796.21044922 C-1305.20617005 818.92424579 -1312.27731761 841.62229346 -1319.375 864.3125 C-1321.22172991 870.21691527 -1323.06834583 876.12136619 -1324.91492271 882.02582932 C-1325.44300603 883.71437398 -1325.97110382 885.40291412 -1326.49921608 887.09144974 C-1332.3656798 905.84888289 -1338.21596518 924.61134707 -1344.0625 943.375 C-1344.30886326 944.16565228 -1344.55522652 944.95630455 -1344.80905533 945.77091599 C-1347.04655458 952.95173418 -1349.28395108 960.13258439 -1351.52116394 967.31349182 C-1354.77146948 977.74597626 -1358.02328998 988.17798747 -1361.27614784 998.60967636 C-1373.61067079 1038.16388098 -1373.61067079 1038.16388098 -1385.91796875 1077.7265625 C-1386.16025333 1078.50638741 -1386.40253792 1079.28621231 -1386.65216446 1080.08966827 C-1388.59289161 1086.33635317 -1390.53338252 1092.58311146 -1392.47369385 1098.82992554 C-1399.51703417 1121.50579159 -1406.5846819 1144.17389687 -1413.67578506 1166.83486938 C-1420.70321186 1189.29303472 -1427.67762443 1211.76731114 -1434.63298416 1234.24789047 C-1441.54150223 1256.57601744 -1448.49714827 1278.88878502 -1455.5 1301.1875 C-1462.63316806 1323.90138296 -1469.71424274 1346.63075593 -1476.75 1369.375 C-1484.32500625 1393.86119566 -1491.93810773 1418.33516912 -1499.58859634 1442.79788971 C-1500.63328712 1446.13840085 -1501.67777096 1449.47897668 -1502.72226429 1452.81954956 C-1504.55408931 1458.67818141 -1506.38605543 1464.53676914 -1508.21812439 1470.39532471 C-1509.81215723 1475.49269324 -1511.40611366 1480.59008566 -1513 1485.6875 C-1513.27102287 1486.55425102 -1513.54204575 1487.42100204 -1513.82128143 1488.31401825 C-1517.11844885 1498.85895731 -1520.41404248 1509.40438526 -1523.7057724 1519.9510231 C-1524.99288728 1524.07479288 -1526.28063589 1528.1983616 -1527.57025146 1532.3213501 C-1532.30905106 1547.47303754 -1537.02797644 1562.62943977 -1541.5625 1577.84375 C-1542.04765831 1579.46389763 -1542.04765831 1579.46389763 -1542.5426178 1581.11677551 C-1544.84275642 1588.89643773 -1546.78075265 1596.6565898 -1548 1604.6875 C-1548.18175781 1605.863125 -1548.36351562 1607.03875 -1548.55078125 1608.25 C-1550.58263557 1625.17137942 -1549.78634729 1643.07559391 -1546 1659.6875 C-1545.82839355 1660.4417627 -1545.65678711 1661.19602539 -1545.47998047 1661.97314453 C-1540.56385109 1682.77553291 -1531.23401573 1702.87191764 -1518 1719.6875 C-1517.35933594 1720.52023437 -1516.71867187 1721.35296875 -1516.05859375 1722.2109375 C-1509.50482473 1730.49330973 -1502.16365227 1738.03663699 -1494.89355469 1745.68505859 C-1491.42904301 1749.34879309 -1488.03588998 1753.07642772 -1484.63671875 1756.80078125 C-1481.78899394 1759.91851256 -1478.92785289 1763.02348152 -1476.0625 1766.125 C-1475.56331055 1766.66543945 -1475.06412109 1767.20587891 -1474.54980469 1767.76269531 C-1473.53863447 1768.85731478 -1472.52740383 1769.95187843 -1471.51611328 1771.04638672 C-1469.00985896 1773.75927586 -1466.50499554 1776.47344859 -1464 1779.1875 C-1463.00000676 1780.27083957 -1462.00000676 1781.35417291 -1461 1782.4375 C-1431 1814.9375 -1401 1847.4375 -1371 1879.9375 C-1370.50491943 1880.47383057 -1370.00983887 1881.01016113 -1369.49975586 1881.56274414 C-1368.50054262 1882.64523871 -1367.50135638 1883.72775821 -1366.50219727 1884.81030273 C-1363.99038165 1887.53167508 -1361.47808667 1890.25260195 -1358.96484375 1892.97265625 C-1353.67887317 1898.69458317 -1348.40289196 1904.42533427 -1343.14208984 1910.17041016 C-1338.28158878 1915.47609486 -1333.39919088 1920.76148724 -1328.51611328 1926.04638672 C-1326.00985896 1928.75927586 -1323.50499554 1931.47344859 -1321 1934.1875 C-1320.00000676 1935.27083957 -1319.00000676 1936.35417291 -1318 1937.4375 C-1288 1969.9375 -1258 2002.4375 -1228 2034.9375 C-1227.50491943 2035.47383057 -1227.00983887 2036.01016113 -1226.49975586 2036.56274414 C-1225.50054262 2037.64523871 -1224.50135638 2038.72775821 -1223.50219727 2039.81030273 C-1220.99038165 2042.53167508 -1218.47808667 2045.25260195 -1215.96484375 2047.97265625 C-1210.67887317 2053.69458317 -1205.40289196 2059.42533427 -1200.14208984 2065.17041016 C-1195.28158878 2070.47609486 -1190.39919088 2075.76148724 -1185.51611328 2081.04638672 C-1183.00985896 2083.75927586 -1180.50499554 2086.47344859 -1178 2089.1875 C-1177.00000676 2090.27083957 -1176.00000676 2091.35417291 -1175 2092.4375 C-1141 2129.27083333 -1107 2166.10416667 -1073 2202.9375 C-1072.50491943 2203.47383057 -1072.00983887 2204.01016113 -1071.49975586 2204.56274414 C-1070.50054262 2205.64523871 -1069.50135638 2206.72775821 -1068.50219727 2207.81030273 C-1065.99038165 2210.53167508 -1063.47808667 2213.25260195 -1060.96484375 2215.97265625 C-1055.67887317 2221.69458317 -1050.40289196 2227.42533427 -1045.14208984 2233.17041016 C-1040.28158878 2238.47609486 -1035.39919088 2243.76148724 -1030.51611328 2249.04638672 C-1028.00985896 2251.75927586 -1025.50499554 2254.47344859 -1023 2257.1875 C-1022.00000676 2258.27083957 -1021.00000676 2259.35417291 -1020 2260.4375 C-986 2297.27083333 -952 2334.10416667 -918 2370.9375 C-917.50483887 2371.47391113 -917.00967773 2372.01032227 -916.49951172 2372.56298828 C-915.50108522 2373.64464408 -914.50271269 2374.72634968 -913.50439453 2375.80810547 C-910.98076354 2378.54251934 -908.45615518 2381.27601919 -905.9296875 2384.0078125 C-905.42429443 2384.55469727 -904.91890137 2385.10158203 -904.39819336 2385.66503906 C-903.38682722 2386.75891608 -902.37462642 2387.85202202 -901.36157227 2388.94433594 C-899.01269729 2391.48212125 -896.69391065 2394.03560162 -894.41015625 2396.6328125 C-888.74967294 2403.0533923 -882.81561929 2408.51267795 -876 2413.6875 C-874.44539063 2414.89019531 -874.44539063 2414.89019531 -872.859375 2416.1171875 C-847.21670272 2435.49889398 -815.98108016 2445.79682569 -783.93310547 2445.98266602 C-781.92782425 2445.9995551 -779.92282661 2446.04336022 -777.91796875 2446.08789062 C-770.15609772 2446.18381925 -762.76236112 2445.47412249 -755.13476562 2444.03613281 C-753.71298791 2443.77219018 -753.71298791 2443.77219018 -752.26248741 2443.50291538 C-740.10160225 2441.19882732 -728.04309513 2438.43162615 -715.9765625 2435.68359375 C-713.35662108 2435.0906222 -710.73659566 2434.49803445 -708.11645508 2433.90594482 C-702.53232186 2432.6433403 -696.94892095 2431.37754273 -691.36602783 2430.10946655 C-682.47476974 2428.09001909 -673.58198443 2426.07734791 -664.68896484 2424.06567383 C-661.647972 2423.37770449 -658.60698875 2422.68969273 -655.56600952 2422.00166321 C-654.80991587 2421.83059962 -654.05382221 2421.65953604 -653.27481663 2421.48328871 C-647.88589633 2420.26397629 -642.49717953 2419.04376718 -637.10855103 2417.82316589 C-610.081034 2411.7013598 -583.04616116 2405.61261795 -556.00869751 2399.53488159 C-544.89152066 2397.0358429 -533.77475115 2394.5349932 -522.65795326 2392.03426933 C-518.99505596 2391.21031259 -515.33214636 2390.38641052 -511.66923523 2389.56251526 C-485.757562 2383.73403814 -459.84742453 2377.89874507 -433.9375 2372.0625 C-431.63909918 2371.54478938 -429.3406983 2371.02707901 -427.04229736 2370.5093689 C-417.88880168 2368.4475505 -408.73531629 2366.3856864 -399.58184814 2364.32374573 C-377.69700087 2359.39389391 -355.81197627 2354.46482956 -333.92692661 2349.53587627 C-325.80942639 2347.70764731 -317.69194135 2345.87935097 -309.57446289 2344.05102539 C-287.84624389 2339.1571315 -266.11794721 2334.26358323 -244.38939476 2329.37117004 C-234.21789701 2327.08092582 -224.04644006 2324.79050042 -213.875 2322.5 C-212.74781933 2322.24617302 -211.62063866 2321.99234604 -210.45930099 2321.73082733 C-181.8609814 2315.29075223 -153.26371403 2308.84602669 -124.66796875 2302.39453125 C-123.281168 2302.08165859 -121.89436724 2301.76878602 -120.50756645 2301.45591354 C-108.59112094 2298.76746023 -96.67470069 2296.07889498 -84.75835639 2293.38999307 C-54.05139384 2286.46102738 -23.34346199 2279.53644293 7.36887145 2272.63131714 C9.42489937 2272.1690453 11.48091907 2271.70673686 13.53693581 2271.24441528 C37.49362921 2265.85745024 37.49362921 2265.85745024 48.70504761 2263.33966064 C61.22048266 2260.5289216 73.73479653 2257.71338224 86.24638462 2254.8855629 C92.86623235 2253.39059647 99.48890031 2251.9088809 106.1136713 2250.43589115 C110.49103997 2249.46066731 114.86647106 2248.4769423 119.24153709 2247.49144554 C121.27310354 2247.03575089 123.30546447 2246.58357971 125.33870888 2246.13543129 C143.66059912 2242.09407166 160.50451222 2236.7098254 177 2227.6875 C177.64211426 2227.33816406 178.28422852 2226.98882813 178.94580078 2226.62890625 C188.56819791 2221.32066797 196.96155441 2215.17061256 205 2207.6875 C205.60875977 2207.12256836 206.21751953 2206.55763672 206.84472656 2205.97558594 C228.55502922 2185.59516399 242.49682197 2160.98340192 251.375 2132.6875 C251.88590649 2131.0848611 252.39740469 2129.48241073 252.90942383 2127.88012695 C257.98540025 2111.93779886 262.89655149 2095.94252494 267.81933594 2079.95239258 C273.93338703 2060.09666779 280.11949728 2040.26396767 286.32361221 2020.43622208 C288.75035991 2012.68037668 291.17624281 2004.92426081 293.6015625 1997.16796875 C294.00403041 1995.88087792 294.00403041 1995.88087792 294.41462898 1994.56778526 C300.13206984 1976.2812821 305.81893223 1957.98532967 311.5 1939.6875 C319.75363847 1913.10412012 328.04437883 1886.53253067 336.35493469 1859.96689224 C344.25357399 1834.71715802 352.11037598 1809.45485425 359.92894363 1784.18021774 C366.68591813 1762.33825192 373.48532655 1740.51004589 380.33064651 1718.69560242 C380.99427412 1716.5807473 381.6577865 1714.46585607 382.32125854 1712.35095215 C384.0174239 1706.94422432 385.71373272 1701.53754151 387.41014099 1696.13088989 C392.90771543 1678.60949708 392.90771543 1678.60949708 398.38842773 1661.08282471 C398.99806849 1659.13145083 399.60872373 1657.18039358 400.22045898 1655.22967529 C401.04154167 1652.61096448 401.85915579 1649.9911973 402.67578125 1647.37109375 C403.03498405 1646.22961632 403.03498405 1646.22961632 403.40144348 1645.06507874 C404.58752244 1641.44476665 404.58752244 1641.44476665 405 1637.6875 C392.17815669 1640.35544209 379.38586919 1643.13493627 366.609375 1646.01171875 C364.7465291 1646.43016789 362.88365905 1646.84850956 361.02076721 1647.26675415 C355.98640597 1648.39739568 350.95241117 1649.52966072 345.91849136 1650.66226578 C341.61451819 1651.63042021 337.3103298 1652.59761591 333.00614262 1653.56481838 C318.00344238 1656.93614534 303.00159664 1660.31126611 288 1663.6875 C286.86309975 1663.9433638 285.72619949 1664.1992276 284.55484772 1664.46284485 C255.7505411 1670.94550327 226.94741604 1677.43340412 198.14474487 1683.92332458 C181.8297589 1687.59946377 165.514573 1691.27471438 149.19921875 1694.94921875 C148.05604502 1695.20668192 146.91287128 1695.46414509 145.73505592 1695.72941017 C139.96484289 1697.0289603 134.19462624 1698.32849438 128.42440796 1699.62802124 C118.0227742 1701.9706101 107.62117253 1704.31334143 97.21956825 1706.65606117 C91.4380468 1707.9582132 85.6565233 1709.26035614 79.875 1710.5625 C77.56249999 1711.08333329 75.24999999 1711.60416662 72.9375 1712.125 C59.06250648 1715.24999854 59.06250648 1715.24999854 55.59377098 1716.03124523 C53.28120102 1716.55209435 50.96863108 1717.07294358 48.65606117 1717.59379292 C42.87588177 1718.89563562 37.09570195 1720.19747644 31.31552124 1721.49931335 C20.89648656 1723.84593465 10.47745491 1726.19256942 0.05843925 1728.53927517 C-5.73968421 1729.84520326 -11.53781019 1731.15112021 -17.3359375 1732.45703125 C-18.48329754 1732.71545115 -19.63065758 1732.97387104 -20.8127861 1733.24012184 C-35.62397454 1736.57602454 -50.43526734 1739.91146343 -65.24667358 1743.24639893 C-73.13984448 1745.02362792 -81.03297696 1746.80102751 -88.92610359 1748.57845306 C-94.57621193 1749.85076559 -100.22634377 1751.12297358 -105.87652588 1752.3949585 C-132.10625696 1758.29992642 -158.33417326 1764.21283535 -184.55895579 1770.1397379 C-189.86258398 1771.33835409 -195.1662962 1772.5365979 -200.47006226 1773.73460388 C-201.21784467 1773.90351401 -201.96562708 1774.07242413 -202.73606956 1774.24645275 C-205.74917415 1774.92705123 -208.76228066 1775.60764118 -211.77539706 1776.28818738 C-219.85791675 1778.11373095 -227.94026446 1779.94002708 -236.02203369 1781.76889038 C-289.14844428 1793.79049767 -289.14844428 1793.79049767 -308.8515625 1797.9921875 C-310.12325287 1798.26475372 -311.39494324 1798.53731995 -312.70516968 1798.81814575 C-352.57392734 1807.20625875 -394.99547922 1800.03038013 -429.26123047 1777.84472656 C-444.84731181 1767.4715132 -458.88836927 1754.22016244 -471.01171875 1739.9609375 C-473.84955066 1736.71610809 -476.80220975 1733.58233192 -479.75 1730.4375 C-484.96552126 1724.87042468 -490.14533171 1719.27452374 -495.29296875 1713.64453125 C-498.16490659 1710.50416841 -501.05006534 1707.37611186 -503.9375 1704.25 C-504.43652832 1703.70972168 -504.93555664 1703.16944336 -505.44970703 1702.61279297 C-506.46104672 1701.51801694 -507.47244008 1700.4232905 -508.48388672 1699.32861328 C-510.99014104 1696.61572414 -513.49500446 1693.90155141 -516 1691.1875 C-516.99999324 1690.10416043 -517.99999324 1689.02082709 -519 1687.9375 C-521 1685.77083333 -523 1683.60416667 -525 1681.4375 C-525.49508057 1680.90116943 -525.99016113 1680.36483887 -526.50024414 1679.81225586 C-527.49945738 1678.72976129 -528.49864362 1677.64724179 -529.49780273 1676.56469727 C-532.00961835 1673.84332492 -534.52191333 1671.12239805 -537.03515625 1668.40234375 C-542.32112683 1662.68041683 -547.59710804 1656.94966573 -552.85791016 1651.20458984 C-557.71841122 1645.89890514 -562.60080912 1640.61351276 -567.48388672 1635.32861328 C-569.99014104 1632.61572414 -572.49500446 1629.90155141 -575 1627.1875 C-575.99999324 1626.10416043 -576.99999324 1625.02082709 -578 1623.9375 C-580 1621.77083333 -582 1619.60416667 -584 1617.4375 C-584.49508057 1616.90116943 -584.99016113 1616.36483887 -585.50024414 1615.81225586 C-586.49945738 1614.72976129 -587.49864362 1613.64724179 -588.49780273 1612.56469727 C-591.00961835 1609.84332492 -593.52191333 1607.12239805 -596.03515625 1604.40234375 C-601.32112683 1598.68041683 -606.59710804 1592.94966573 -611.85791016 1587.20458984 C-616.21813711 1582.44500042 -620.59587946 1577.70169595 -624.9765625 1572.9609375 C-626.95271682 1570.82232476 -628.92666368 1568.68171448 -630.8984375 1566.5390625 C-636.42286895 1560.5389316 -641.97857757 1554.56983364 -647.5625 1548.625 C-660.17215138 1535.1851163 -660.17215138 1535.1851163 -666 1528.6875 C-666.45858398 1528.17654785 -666.91716797 1527.6655957 -667.38964844 1527.13916016 C-688.28374967 1503.68556757 -699.82588826 1476.07052887 -700.3125 1444.4375 C-700.33030518 1443.74865723 -700.34811035 1443.05981445 -700.36645508 1442.35009766 C-700.34649459 1428.65105847 -697.21882807 1414.96312921 -693.02111816 1402.00091553 C-692.26170177 1399.65562055 -691.5196847 1397.30528974 -690.78027344 1394.95361328 C-689.57957339 1391.13972574 -688.371733 1387.32817893 -687.16064453 1383.51757812 C-684.64953736 1375.59891707 -682.18198775 1367.66681541 -679.71484375 1359.734375 C-679.23461048 1358.1906616 -678.75437053 1356.64695028 -678.27412415 1355.10324097 C-677.53148889 1352.71604531 -676.78887042 1350.32884445 -676.04633427 1347.94161797 C-673.1767617 1338.71725441 -670.29928462 1329.49535873 -667.421875 1320.2734375 C-666.34565927 1316.82390691 -665.26949791 1313.37435936 -664.19335938 1309.92480469 C-663.9275044 1309.07261541 -663.66164942 1308.22042614 -663.38773823 1307.34241295 C-660.57476093 1298.32507815 -657.76374034 1289.30713373 -654.953125 1280.2890625 C-654.58393983 1279.10451257 -654.58393983 1279.10451257 -654.20729637 1277.89603233 C-652.96738063 1273.91766669 -651.72749948 1269.93929027 -650.48764038 1265.96090698 C-647.99321391 1257.95696366 -645.49857476 1249.95308663 -643.00390625 1241.94921875 C-642.75645975 1241.15530542 -642.50901325 1240.3613921 -642.25406837 1239.54342079 C-638.74330088 1228.27945275 -635.23166148 1217.01575683 -631.71949196 1205.75222588 C-629.45863494 1198.5015441 -627.19802979 1191.2507838 -624.9375 1184 C-624.56474504 1182.80439138 -624.56474504 1182.80439138 -624.18445969 1181.58462906 C-618.53459645 1163.46243974 -612.88895005 1145.33895524 -607.2578125 1127.2109375 C-607.02257118 1126.45365105 -606.78732986 1125.69636459 -606.54496002 1124.91613007 C-604.64707045 1118.8063297 -602.74935063 1112.6964766 -600.85177612 1106.58657837 C-592.8132015 1080.70405897 -584.73682746 1054.83349791 -576.64526749 1028.96749878 C-568.745397 1003.71368646 -560.88711198 978.4473818 -553.06748581 953.16861343 C-546.04424058 930.46511695 -538.96668826 907.77929338 -531.84634399 885.10607147 C-524.93140438 863.08590613 -518.07084013 841.04948905 -511.25 819 C-503.41543776 793.67479003 -495.53814184 768.36326858 -487.625 743.0625 C-487.09786972 741.37703455 -486.57073959 739.69156906 -486.04360962 738.00610352 C-485.51580912 736.31852182 -484.9880076 734.63094044 -484.46020508 732.94335938 C-483.66836391 730.41154541 -482.876526 727.87973043 -482.08469963 725.34791183 C-481.55677299 723.65990233 -481.02883541 721.97189625 -480.50088692 720.28389359 C-474.63439082 701.52634539 -468.78407036 682.76376699 -462.9375 664 C-462.69113674 663.20934772 -462.44477348 662.41869545 -462.19094467 661.60408401 C-459.95344542 654.42326582 -457.71604892 647.24241561 -455.47883606 640.06150818 C-452.22858758 629.6292069 -448.97682441 619.19737875 -445.72402382 608.76587296 C-434.6379942 573.21356577 -423.56341923 537.65774473 -412.51858044 502.09261608 C-411.84120874 499.91155772 -411.16367886 497.73054854 -410.48612976 495.54954529 C-409.61495491 492.74519466 -408.74452275 489.94061506 -407.87458801 487.13587952 C-405.64004051 479.93581724 -403.38864979 472.74142047 -401.11621094 465.55322266 C-400.41522733 463.3304375 -399.71455792 461.10755356 -399.01398849 458.88463783 C-398.35063728 456.78481312 -397.68265852 454.68649768 -397.01455688 452.58818054 C-396.42026382 450.70242058 -396.42026382 450.70242058 -395.81396484 448.77856445 C-395.46264496 447.67124466 -395.11132507 446.56392487 -394.74935913 445.42304993 C-393.86789991 442.67798787 -393.86789991 442.67798787 -394 439.6875 C-396.79928531 439.6875 -398.94855921 440.04371285 -401.6630249 440.65818787 Z " fill="#2DB7EA" transform="translate(2007,39.3125)"/>
<path d="M0 0 C0.99 0.495 0.99 0.495 2 1 C1.67 1.99 1.34 2.98 1 4 C0.67 2.68 0.34 1.36 0 0 Z " fill="#3CB5E8" transform="translate(1295,1517)"/>
</svg>
